<svg xmlns="http://www.w3.org/2000/svg" viewBox="0 0 137.86 107.52"><defs><style>.cls-1{fill:#ffdc2b;}.cls-2{fill:#95c122;}.cls-3{fill:#d45515;}</style></defs><g id="Calque_2" data-name="Calque 2"><g id="Calque_1-2" data-name="Calque 1"><path class="cls-1" d="M10.55,20.24c2-2.15,3.93-4.79,6.43-6.32,2.88-1.76,6.47-2.71,9.61-3.93,4.22-1.63,2.66-7.78-1.89-6.85A20.1,20.1,0,0,0,18,5.61c-3.29,2-1.15,8,2.74,6.49C27.27,9.54,36.94,6.53,44,8.77c2.11.68,6.9,2.35,8.55,3.79,2.06,1.8,2.6,4.11,5.26,5.44l-1.63-4c-.67,2.72.19,4.61,2.46,6.17,3.81,2.61,7.24-3.49,3.59-6.14-5.81-4.2-10.75-7.94-18-8.79-7.63-.9-15.62-1.08-23,1.19C16.59,7.8-2.59,18.38,5.3,25.19c3.45,3,8.5-2,5-5,1.37,1.18-.68,2,1.13,1a7.69,7.69,0,0,0,1.35-1.38,26.73,26.73,0,0,1,3.38-3.35c4.07-3,9.63-4.24,14.57-4.62a59.37,59.37,0,0,1,14.34.63c5.21.9,9.33,4.66,13.5,7.68L62.19,14l-.72-.49,1.63,2.13-.11.22a3.62,3.62,0,0,0-1.63-4C58.65,10.5,57.69,7,54.78,5.52a42.7,42.7,0,0,0-10.36-4C36.11,0,26.53,2.24,18.81,5.25l2.74,6.5a13.85,13.85,0,0,1,5-1.76L24.7,3.14C21,4.57,16.86,5.67,13.42,7.65,10.29,9.45,8,12.6,5.53,15.21c-3.12,3.35,1.9,8.39,5,5Z"/><path class="cls-2" d="M30.67,52.77a2.41,2.41,0,0,1,1.85.37c2.26,1.09,2.29,4,2.31,6.18a36.6,36.6,0,0,0,.54,5.53c0,.13.05.26.07.39.16.86.33,1.72.53,2.57a58.12,58.12,0,0,0,3.15,10.88c.29.59.59,1.18.93,1.76a30.91,30.91,0,0,0,1.94,3,33.43,33.43,0,0,0,4.6,4.69c.79.68,1.61,1.37,2.46,2l.52.3c1,.58,2,1.33,3,1.93a24.92,24.92,0,0,0,3,1.3q.7.3,1.38.63c.65.25,1.29.51,1.91.82,2,1,3.81,2.48,6.08,2.68s4.34-1.46,6.67-1.37a5.35,5.35,0,0,1,1,.16,7,7,0,0,1,.92.14,8,8,0,0,1,4,1.41.64.64,0,0,1,.23.81c-.1.25-.25.3-.4.49a.65.65,0,0,1-.15.14.38.38,0,0,1,0,.18c0,.4,0,.61-.31.91s-.53.3-.72.6-.16.4-.31.59a2,2,0,0,1-1.33.69,4.33,4.33,0,0,1-1.51.23,13.55,13.55,0,0,1-1.5-.25c-.7-.1-1.41-.2-2.12-.25a8.92,8.92,0,0,0-1.36.07,20.82,20.82,0,0,0-2.81.55,3.17,3.17,0,0,0-.41.12,11.09,11.09,0,0,0-2.21,1.27l-.08.08a12,12,0,0,1-8.83,3.15c-5.56-.28-10.81-3.33-15-6.73A52.9,52.9,0,0,1,34.38,97a30.73,30.73,0,0,1-3.92-4.15c-.19-.25-.37-.5-.55-.76L29.86,92a28.32,28.32,0,0,1-2.74-4.55c-.18-.35-.36-.7-.55-1-.4-.69-.79-1.39-1.14-2.12-.19-.39-.37-.79-.53-1.19a19.31,19.31,0,0,1-1.46-4.82,54.85,54.85,0,0,1-1.09-9.64,14.93,14.93,0,0,1,.51-4.26,21.22,21.22,0,0,1,1.82-3.86c.48-1,1-2,1.48-3,.85-1.67,2.07-4.17,4.06-4.58l.25-.11A.39.39,0,0,1,30.67,52.77Zm39.38,48.44a.44.44,0,0,0,.07-.19c0-.4-.07-.42-.38-.59a15.18,15.18,0,0,0-2.07-.68.28.28,0,0,1-.19-.19h0c-.6.13-1.19.29-1.8.4a6.89,6.89,0,0,1-3,0c-1.18-.31-2.15-1.11-3.33-1.47A24,24,0,0,1,56,97.35c-4.18-2-8.33-4-11.86-7.06a31.34,31.34,0,0,1-2.46-2.43c-.75-.79-1.58-1.47-2.4-2.18a5.32,5.32,0,0,1-1.56-2.45c-.42-1.1-1.27-2-1.8-3.06a37.79,37.79,0,0,1-2.27-6.57,53.42,53.42,0,0,1-1.41-7.08c-.27-2.07,0-4.15-.08-6.22A35.25,35.25,0,0,1,32,54.49a2.44,2.44,0,0,1-.39-.07,3.46,3.46,0,0,1-1.41-.76h0c-1.67.9-2.45,2.84-3.28,4.46s-1.64,3.05-2.4,4.61a13.5,13.5,0,0,0-1.08,6.53c0,.76.13,1.51.2,2.27l.09.94c0,.19.05.38.07.56a33.44,33.44,0,0,0,2,8.87c.66,1.52,1.49,3,2.25,4.43a33.33,33.33,0,0,0,2.5,4.29,47.42,47.42,0,0,0,5.24,5.82A47.86,47.86,0,0,0,42,101.66a35,35,0,0,0,5.3,3c.78.32,1.58.62,2.39.9l1.13.35a14.29,14.29,0,0,0,6.2.33,9.21,9.21,0,0,0,4-1.71c1.18-.93,2.11-2,3.57-2.46a19.9,19.9,0,0,1,4.33-.86C69.25,101.22,69.65,101.21,70.05,101.21Zm.17-3.59c-.88.2-1.72.72-2.58,1a8.29,8.29,0,0,1-6.18-.6q-.45-.23-.9-.48c-1.57-.8-3.05-1.77-4.71-2.42-1.11-.43-2.26-.72-3.33-1.24a18.14,18.14,0,0,1-2.79-1.71c-.62-.44-1.23-.9-1.84-1.36a12.23,12.23,0,0,1-2-1.32c-.82-.72-1.59-1.53-2.35-2.32q-.73-.76-1.41-1.56a25.57,25.57,0,0,1-2.93-3.95,22.81,22.81,0,0,1-1.75-3.71,46.7,46.7,0,0,1-2.55-9.36c-.09-.38-.17-.76-.25-1.14a44.64,44.64,0,0,1-.8-5.14q-.11-.69-.18-1.38c-.14-1.16-.25-2.33-.32-3.49a7,7,0,0,0-.34-2.14,3.79,3.79,0,0,0-.2-.34l-.05-.05-.14-.07c0,2,.14,3.91.22,5.89,0,1.18-.05,2.36-.05,3.54A20.85,20.85,0,0,0,33.27,68a53.52,53.52,0,0,0,1.62,6.84,24.92,24.92,0,0,0,2.88,6.68c.57.86.74,1.93,1.34,2.75a16.24,16.24,0,0,0,2.3,2.07c.91.85,1.7,1.83,2.61,2.68a29.12,29.12,0,0,0,2.65,2.17,40.08,40.08,0,0,0,5.76,3.48,38.37,38.37,0,0,0,6.4,2.91,12.77,12.77,0,0,1,2.61,1,5.66,5.66,0,0,0,3.2.9,27.22,27.22,0,0,0,3.45-.65l.16,0A9.34,9.34,0,0,0,70.22,97.62Zm6.94,1.95s0,0,0,0Z"/><path class="cls-1" d="M5.06,32.27a24.28,24.28,0,0,0,1.56-3.94A13.59,13.59,0,0,0,7,26.24s.06-.5,0-.31c0-.13,0-.25.07-.37s.14-.46.07-.3a2.12,2.12,0,0,1,.11-.21c.25-.34,0-.27-.77.21L6,25s-.23-.38-.17-.45,0,.22,0,.16-.07.37-.1.53a5.26,5.26,0,0,1-.15.53c0,.11-.07.22-.11.33a1.1,1.1,0,0,1-.06.16,1.22,1.22,0,0,0,.43,1.62,1.19,1.19,0,0,0,1.62-.42A8.82,8.82,0,0,0,8,25.62a2.87,2.87,0,0,0-.08-2,1.48,1.48,0,0,0-2.09-.48,2.84,2.84,0,0,0-1,1.71,12.75,12.75,0,0,0-.23,1.74A9.89,9.89,0,0,1,4.24,28a21.84,21.84,0,0,1-1.23,3,1.19,1.19,0,1,0,2.05,1.19Z"/><path class="cls-1" d="M12.6,21.88a8.36,8.36,0,0,0,2-2.58A3.64,3.64,0,0,0,14.07,15a4.13,4.13,0,0,0-1.57-.91,3.57,3.57,0,0,0-2.73.35L7.35,16.07a3.76,3.76,0,0,0-1.63,2.12,3.55,3.55,0,0,0,5.22,4l2.41-1.64L8.49,15.71a6.25,6.25,0,0,1-.59.95l.56-.72a5.9,5.9,0,0,1-.89.91,3.59,3.59,0,0,0-1,2.52,3.63,3.63,0,0,0,1,2.51,3.57,3.57,0,0,0,2.52,1,4,4,0,0,0,2.51-1Z"/><path class="cls-1" d="M12.3,22.47c5.22-5.26,10.79-8.85,18.15-10.33,4.48-.9,2.58-7.76-1.89-6.86C20.08,7,13.29,11.38,7.27,17.45c-3.22,3.25,1.8,8.28,5,5Z"/><path class="cls-1" d="M20.06,15.75c4.57,0,4.58-7.11,0-7.11s-4.58,7.11,0,7.11Z"/><path class="cls-1" d="M22,15.15c4.57,0,4.58-7.11,0-7.11s-4.58,7.11,0,7.11Z"/><path class="cls-2" d="M27.17,15.79q1.26-.3,2.49-.72a.69.69,0,0,0,.29-1,.83.83,0,0,0-1-.45c-.71.25-1.44.46-2.18.65l.18-.05-.13,0a.7.7,0,0,0-.46.28.71.71,0,0,0-.08.55.87.87,0,0,0,.34.52.73.73,0,0,0,.55.16Z"/><path class="cls-3" d="M27.78,16.45c2.83-.49,5.63-1.17,8.49-1.46a22.72,22.72,0,0,1,8.59.94c3.29.93,6.48,1.34,9.62,2.64,1.86.77,2-2.24.42-2.88a20.84,20.84,0,0,0-4.79-1.51,55.17,55.17,0,0,1-5.71-1.37A24.46,24.46,0,0,0,36,11.93c-3.1.24-6.13,1-9.18,1.51-1.77.31-.65,3.29,1,3Z"/><path class="cls-3" d="M31,14.44c2-.53,4.19-.37,6.27-.72.58-.1-.35-1.09-.48-1.21a4.48,4.48,0,0,0-1-.71,1.35,1.35,0,0,0-.78-.19c-2.08.35-4.22.19-6.27.72-.57.15.33,1.06.48,1.2a3.93,3.93,0,0,0,1,.71,1.21,1.21,0,0,0,.78.2Z"/><path class="cls-3" d="M30.79,13.48a.39.39,0,0,1,.08-.14l-.07.05a1.89,1.89,0,0,0-.37.12l.74-.17a1.55,1.55,0,0,0,.36-.08l-.13,0,.18,0,.76-.14.77-.11h0l.36,0c.51-.06,1-.1,1.55-.13a5.09,5.09,0,0,0,1.21-.24,1.53,1.53,0,0,0,.68-.38c.26-.46-1.08-.37-1.19-.36a34,34,0,0,0-4,.48c-.71.12-1.42.27-2.12.44s-1.6.34-1.91,1c-.22.46,1,.37,1.19.35a4.9,4.9,0,0,0,1.21-.24c.21-.07.58-.17.69-.38Z"/><path class="cls-3" d="M31.76,13.91c8.48-.8,16.85,1.86,24.33,5.68.41.22,1.19-.34,1.54-.55.09-.05,1.38-1,1.19-1.11C51.11,14,42.67,11.36,33.94,12.18a4.34,4.34,0,0,0-1.93,1c-.2.16-.89.75-.25.69Z"/><path class="cls-3" d="M7.8,34.06a12.7,12.7,0,0,1,1.47-5.39,13.4,13.4,0,0,1,4-3.75,107.26,107.26,0,0,1,9.79-6.37,14.27,14.27,0,0,0-1.41-.79c-.3-.13-1.2-.65-1.54-.46a108,108,0,0,0-9.79,6.38,13.5,13.5,0,0,0-3.93,3.63,12.62,12.62,0,0,0-1.54,5.51c0,.28,1.2.7,1.41.79a6.68,6.68,0,0,0,1.54.45Z"/><path class="cls-3" d="M14.47,23.39a22,22,0,0,1,5.59-4.52,32,32,0,0,1,6.43-3c.57-.19.51-.58,0-.74a3.79,3.79,0,0,0-2.26.09,34.38,34.38,0,0,0-6.92,3.24,23.41,23.41,0,0,0-5.91,4.8c-.37.45,1,.59,1.14.6.55,0,1.56,0,2-.45Z"/><path class="cls-2" d="M20.73,18.74a4.29,4.29,0,0,1,1.62-.93c.62-.25,1.26-.49,1.88-.75a11.65,11.65,0,0,0,3.5-2.14c.29-.26-.05-.6-.31-.68a1.11,1.11,0,0,0-1.09.22A10.56,10.56,0,0,1,23,16.39c-1.23.49-2.71.87-3.63,1.89-.25.28,0,.59.32.68a1.06,1.06,0,0,0,1.08-.22Z"/><path class="cls-3" d="M26.47,14l-.28.08c-.17,0-.19,0-.07,0l-.54,0a5.45,5.45,0,0,0-1.27.22,9.19,9.19,0,0,0-2.13,1.26,18.08,18.08,0,0,1-4.09,2.07c-.25.09-.54.2-.63.49a.84.84,0,0,0,.27.75,2.42,2.42,0,0,0,2.18.63,20.66,20.66,0,0,0,4.42-2.12l.94-.64a4.93,4.93,0,0,1,1-.63c-.16.05.45-.09.14,0a4.9,4.9,0,0,1,.54,0,6.41,6.41,0,0,0,1.31-.22c.62-.19.86-.75.36-1.24A2.45,2.45,0,0,0,26.47,14Z"/><path class="cls-3" d="M18.16,21.22a11.81,11.81,0,0,1,4.08-2.53l5.35-2.35c.68-.3.11-1.3-.23-1.62a1.93,1.93,0,0,0-2-.58l-5.49,2.41a13,13,0,0,0-4.32,2.82c-.48.53.34,1.44.75,1.71s1.36.69,1.86.14Z"/><path class="cls-1" d="M63.07,19.43a1.2,1.2,0,0,0,0-2.4,1.2,1.2,0,0,0,0,2.4Z"/><path class="cls-3" d="M57.65,18.91a13.23,13.23,0,0,1,2.36.91c.55.27,1-.56.48-.83a15,15,0,0,0-2.58-1,.48.48,0,0,0-.26.92Z"/><path class="cls-3" d="M60.16,19.67l1.56.76c.55.26,1-.56.48-.83l-1.56-.76c-.55-.27-1,.56-.48.83Z"/><path class="cls-2" d="M6.62,35.76a2.06,2.06,0,0,1-.23.37,5,5,0,0,0-.93,1.55,2.26,2.26,0,0,1-.76,1.09c-.22.15-.48.23-.71.36s-.48.39-.74.57c-1,.69-1.12-.42-1.75-.87A1.38,1.38,0,0,1,1,38a2.23,2.23,0,0,0-.38-.79,2.9,2.9,0,0,1-.43-.55,3,3,0,0,1,.41-2.57,5,5,0,0,1,.32-.44,2.13,2.13,0,0,1,.42-.53l0,0a10,10,0,0,1,.67-.9q.09-.14.18-.3c.29-.49.61-.93.9-1.4.16-.3.3-.61.43-.92A12.06,12.06,0,0,0,4.1,23.8h0a11.33,11.33,0,0,1-.27-5c.06-.28.12-.56.19-.85a12,12,0,0,1,4-7c1.08-1,2.18-2,3.33-2.9.5-.4,1-.78,1.52-1.15A36.12,36.12,0,0,1,23,2.4,49.11,49.11,0,0,1,33.09.3C33.93.2,34.76.12,35.6.06a29.42,29.42,0,0,1,10,1.12,31.76,31.76,0,0,1,8.8,3.43c.28.18.56.36.83.56a22.14,22.14,0,0,1,5.89,6c1.5,2.16,3.7,4.83,3.46,7.61a2,2,0,0,1-.58,1.66,2.48,2.48,0,0,1-2.32.75A4.63,4.63,0,0,1,60.2,21c-.62-.21-1.23-.43-1.84-.66s-1.07-.33-1.6-.51c-2.29-.76-4.55-1.62-6.84-2.37A39.48,39.48,0,0,0,36.49,15.1H36c-.57.05-1.15.08-1.72.12a36.1,36.1,0,0,0-4.48.75,28.2,28.2,0,0,0-3.4.86L26,17l-.59.27c-.66.33-1.3.7-1.93,1.09-2,1.2-3.93,2.44-5.9,3.67-.49.31-1,.61-1.5.93l-1.43,1c-.8.66-1.52,1.4-2.35,2-1.7,1.28-3.84,2.6-4.21,4.88C7.77,32.62,8.16,34.58,6.62,35.76ZM3.51,31.87a.63.63,0,0,0,.37.17c.2,0,.78-.63,1-.76l1-.77a.24.24,0,0,1,.25,0c.24-.81.51-1.62.81-2.42a7.34,7.34,0,0,1,1.48-2.61c.87-.87,2-1.38,2.91-2.24s1.62-1.57,2.46-2.33a36.08,36.08,0,0,1,10.44-6.8c4.21-1.71,8.6-3.05,13.19-2.94a44.2,44.2,0,0,1,6.69.76,35.85,35.85,0,0,1,6.46,1.67c2.1.8,4.09,1.87,6.1,2.86s4.05,2,6.07,3a1.9,1.9,0,0,1,.19-.21,4.23,4.23,0,0,1,1.08-.79c-.72-3.12-2.81-6-4.83-8.41a22.33,22.33,0,0,0-3.78-3.62A21.5,21.5,0,0,0,50.75,4.1a59.45,59.45,0,0,0-8.49-2.39,29.54,29.54,0,0,0-9.15-.14A52.1,52.1,0,0,0,15.29,6.92,34.37,34.37,0,0,0,8.23,12.4,10.56,10.56,0,0,0,4.7,20c-.07,3,.82,5.9.06,8.84A11.62,11.62,0,0,1,3.51,31.87Zm3.28,1.31c.13-.69,0-1.55.15-2.1a7.88,7.88,0,0,1,.53-1.73A6.22,6.22,0,0,1,8,28.23,7.48,7.48,0,0,1,9,27.08a21.65,21.65,0,0,1,3.53-2.86l.4-.29.19-.16a36.87,36.87,0,0,1,5.49-3.86l.17-.1c.79-.53,1.58-1,2.39-1.53,1.07-.68,2.15-1.34,3.27-1.94A15.5,15.5,0,0,1,28.09,15a14.67,14.67,0,0,1,2-.46l.32-.05.19,0a30.88,30.88,0,0,1,6.71-.68,32.76,32.76,0,0,1,3.58.22,33.6,33.6,0,0,1,8.77,2q3.32,1.2,6.62,2.45h0l.2.06c1,.36,2.08.7,3.14,1a9,9,0,0,0,2.46.57l.12-.08q-3.12-1.5-6.23-3a48.82,48.82,0,0,0-6.73-3A41.7,41.7,0,0,0,36.4,12a33.77,33.77,0,0,0-13,3.32A37.68,37.68,0,0,0,13.54,22c-.77.71-1.5,1.47-2.27,2.19S9.64,25.33,8.9,26a6.36,6.36,0,0,0-1.61,2.76c-.31.82-.58,1.65-.82,2.49C6.56,31.86,6.7,32.52,6.79,33.18Z"/><path class="cls-1" d="M110.06,74.32c3.19-1.34,7-2.42,9.74-4.5,3.22-2.39,5.73-6.09,8.37-9.1l-5.58-4.3a14.76,14.76,0,0,1-3.46,4.08l5,5c5.44-6.15,10.28-13.6,12.3-21.66.92-3.65.35-7.59.27-11.33-.09-4.06-3.31-6.31-3.82-10-.22-1.65-2-2.46-3.42-2.61l-.87-.1,2.52,1,0,.15-6.86,1.89c1.44,5.08,3.49,10.19,2.38,15.51a60.33,60.33,0,0,1-4.64,14c-2,4-4.72,8.26-8.47,10.88a26.63,26.63,0,0,1-4.73,2.33c-.56.25-1.17.48-1.71.76-1.07.57-1.57,0-.71.53l1.63,2.13-.24-.65c-1.6-4.24-8.47-2.4-6.85,1.89,3.91,10.39,20.06-3.59,23.33-8,4.36-5.81,6.9-12.78,8.68-19.77,2-7.81.34-14-1.81-21.6-1.24-4.4-8-2.56-6.86,1.89.7,2.73,2.49,3.82,5.18,4.13l-3.43-2.61c.38,2.76,2.41,4.16,3.29,6.62s.69,8.11.31,10.47c-1.13,6.9-6,13.87-10.53,19-3.09,3.49,1.5,7.83,5,5A20.05,20.05,0,0,0,128.72,60c2.09-3.38-2.88-7.39-5.58-4.31-2.13,2.43-4.15,5.15-6.49,7.38s-5.56,3.16-8.48,4.38c-4.15,1.75-2.33,8.63,1.89,6.86Z"/><path class="cls-1" d="M94.64,71a26.77,26.77,0,0,1,3.47-.12c1.12.06,2.19.48,3.33.58a2.7,2.7,0,0,0,1.74-.35,1.46,1.46,0,0,0,.3-2.21,2.59,2.59,0,0,0-1.54-.68,8.32,8.32,0,0,0-1.93-.12,1.19,1.19,0,1,0,0,2.37,6.55,6.55,0,0,1,1.25,0l.41.07a2.68,2.68,0,0,0,.27.07c.12,0-.1,0-.14-.06l-.3-.52v-.36l.31-.52c.08-.1.3-.1,0-.07a2.09,2.09,0,0,1-.42,0c-.12,0-.48-.1-.69-.15a13.85,13.85,0,0,0-2.1-.39,23.34,23.34,0,0,0-4,.08,1.23,1.23,0,0,0-1.19,1.19A1.19,1.19,0,0,0,94.64,71Z"/><path class="cls-1" d="M110.07,71.48a6.91,6.91,0,0,1,.72-.36l-.85.36a6.13,6.13,0,0,1,1.38-.37l-.94.13.16,0-1.8-6.62-2.37,1.7a3.86,3.86,0,0,0-1.63,2.13,3.57,3.57,0,0,0,2.48,4.37,3.49,3.49,0,0,0,2.74-.36l2.37-1.7a4,4,0,0,0,1.46-1.7,3.43,3.43,0,0,0,.17-2.32,4.2,4.2,0,0,0-.91-1.57,3.54,3.54,0,0,0-2.51-1,10.2,10.2,0,0,0-4.06,1.23,3.56,3.56,0,0,0,3.59,6.14Z"/><path class="cls-1" d="M109.41,71.55C117.2,68,123.54,63,128,55.64c2.39-3.91-3.76-7.49-6.14-3.58-3.9,6.39-9.36,10.28-16.08,13.36-4.15,1.9-.54,8,3.59,6.13Z"/><path class="cls-1" d="M118.45,65.07c4.57,0,4.58-7.11,0-7.11s-4.58,7.11,0,7.11Z"/><path class="cls-1" d="M119.68,63.45c4.57,0,4.58-7.11,0-7.11s-4.59,7.11,0,7.11Z"/><path class="cls-2" d="M118.8,54.5c.45-.67.93-1.32,1.43-1.94a.75.75,0,0,0,.09-.55,1,1,0,0,0-.34-.51.81.81,0,0,0-.56-.17l-.17.05a.66.66,0,0,0-.29.23c-.5.63-1,1.27-1.43,1.94a.82.82,0,0,0,.26,1.06.71.71,0,0,0,1-.11Z"/><path class="cls-3" d="M119.62,54.64c1.41-2.45,3-4.81,4.23-7.34a23.81,23.81,0,0,0,2.3-8.18,62.52,62.52,0,0,1,.72-6.41,21.71,21.71,0,0,0,.24-5.28c-.07-1.77-2.83-2.34-2.74-.25a18.19,18.19,0,0,1-.25,4.6,60.93,60.93,0,0,0-.69,6.33,21.75,21.75,0,0,1-2.21,7.67c-1.23,2.46-2.75,4.76-4.13,7.14-.81,1.42,1.58,3.38,2.53,1.72Z"/><path class="cls-3" d="M122,52.85c1.21-1.74,1.79-3.81,2.84-5.64.11-.19,0-.44-.14-.59a3.24,3.24,0,0,0-.8-.81,3.27,3.27,0,0,0-1-.57c-.14,0-.49-.17-.6,0-1.05,1.83-1.63,3.9-2.84,5.65-.12.17,0,.45.14.58a4.25,4.25,0,0,0,1.79,1.38c.16,0,.48.17.6,0Z"/><path class="cls-3" d="M119.93,52.89a3.31,3.31,0,0,0,2.61-1.2c.34-.5.66-1,1-1.54a28.11,28.11,0,0,0,1.64-3.24c.21-.47-1-.37-1.19-.35a5.09,5.09,0,0,0-1.21.24c-.19.07-.59.17-.68.38-.42,1-.88,1.9-1.39,2.81q-.39.69-.81,1.35c-.14.22-.28.44-.43.66a2.35,2.35,0,0,1-.19.25c-.06.07-.07.07,0,0s.14-.07,0,0l.68-.23-.07,0,.83-.14h-.07a5.64,5.64,0,0,0-1.21.24,1.53,1.53,0,0,0-.68.38c-.26.46,1.08.37,1.19.36Z"/><path class="cls-3" d="M123.42,48.49c3.73-7.83,4.14-16.68,3.11-25.18,0-.07-2.83.86-2.73,1.67,1,8.43.6,17.19-3.11,25-.18.38,1.11-.2,1.17-.23a3.68,3.68,0,0,0,1.56-1.22Z"/><path class="cls-3" d="M94.76,67.65a14.25,14.25,0,0,0,5.46.63,11.31,11.31,0,0,0,5-2.23,106,106,0,0,0,9.85-7.32,9,9,0,0,0-1.41-.79c-.24-.1-1.28-.67-1.54-.45a110.1,110.1,0,0,1-8.93,6.71,15.65,15.65,0,0,1-4.8,2.63,11.36,11.36,0,0,1-5.61-.3c-.52-.15-.55,0-.1.24a8.84,8.84,0,0,0,2.08.88Z"/><path class="cls-3" d="M106.69,64.72a23.67,23.67,0,0,0,6.63-3.93,34.14,34.14,0,0,0,5.37-5.31c.37-.45-1-.59-1.14-.6-.54,0-1.57,0-2,.45a31.74,31.74,0,0,1-5.06,5,22,22,0,0,1-6.13,3.69c-.56.19-.51.58,0,.75a4,4,0,0,0,2.26-.09Z"/><path class="cls-2" d="M112.93,59.79a4.81,4.81,0,0,0,1.71-1.29c.46-.49.89-1,1.34-1.49a10.76,10.76,0,0,1,2.94-2.48c.28-.14.53-.43.26-.71a1.06,1.06,0,0,0-1.1-.14,11.86,11.86,0,0,0-3.23,2.58c-.46.49-.9,1-1.35,1.49a4,4,0,0,1-1.41,1.19c-.29.11-.52.44-.26.71a1.07,1.07,0,0,0,1.1.14Z"/><path class="cls-3" d="M117,53a5.28,5.28,0,0,0-.59,1c-.07.14-.13.29-.2.43l-.11.21c.09-.15-.07.1-.07.1a7.55,7.55,0,0,1-1.74,1.39,20.76,20.76,0,0,0-3.64,3.43c-.86,1.06,2.07,2.25,2.83,1.32a21.83,21.83,0,0,1,1.67-1.8c.29-.26.58-.52.88-.77s.54-.44.86-.67l1-.73a4.15,4.15,0,0,0,1-.85,5.55,5.55,0,0,0,.52-1c.07-.16.15-.32.23-.48s-.12.17,0-.08l.18-.25c.43-.57-.27-1.17-.76-1.39a2.68,2.68,0,0,0-1.21-.25A1.17,1.17,0,0,0,117,53Z"/><path class="cls-3" d="M110.85,62.83A12.87,12.87,0,0,0,115,59.68c1.39-1.43,2.77-2.88,4.15-4.32.19-.2.1-.61,0-.82a2.19,2.19,0,0,0-.76-.89c-.54-.36-1.35-.67-1.86-.13-1.36,1.41-2.7,2.82-4.06,4.22a11.71,11.71,0,0,1-3.81,2.89.67.67,0,0,0-.3.7,1.75,1.75,0,0,0,.53.92,1.92,1.92,0,0,0,2,.58Z"/><path class="cls-1" d="M127.59,20.25a1.2,1.2,0,0,0,0-2.4,1.2,1.2,0,0,0,0,2.4Z"/><path class="cls-3" d="M126.05,24a14.65,14.65,0,0,0,0-2.65c-.06-.61-1-.62-1,0a15.62,15.62,0,0,1,0,2.65c0,.61.91.61,1,0Z"/><path class="cls-3" d="M126.19,21.21,126,19.49c-.06-.61-1-.62-1,0l.17,1.72c.06.61,1,.62,1,0Z"/><path class="cls-1" d="M57.41,99.8c-2.83-.74-6.08-1.19-8.59-2.69-2.9-1.74-5.43-4.44-8-6.64a3.56,3.56,0,0,0-5,5,20,20,0,0,0,5.35,4.75c3.39,2,7.46-2.9,4.31-5.58C40.11,90.1,34.38,84,32,77.22a34.49,34.49,0,0,1-1.2-8.85c0-3.31,2.42-5.83,2.41-9.24l-2.61,3.43c2.73-.7,3.83-2.49,4.12-5.18.43-3.94-6.44-4.91-7-.94-1.05,7.72-2.09,14.18.92,21.57,2.5,6.13,5.5,12,9.83,17.08a30.08,30.08,0,0,0,15.57,9.78c3.7,1,9.14,2.27,10.28-2.83,1-4.46-5.85-6.36-6.85-1.89.41-1.83,1.8-.4.33-1.59A6.65,6.65,0,0,0,56,98a23.69,23.69,0,0,1-5.17-1.75C46.46,93.92,43,89.88,40.44,85.77A64.39,64.39,0,0,1,34.7,74c-1.94-5.19-.81-10.32-.08-15.67l-7-.95-.09.87,1-2.52.15,0a3.62,3.62,0,0,0-2.61,3.43c0,3.48-2.77,5.95-2.36,9.74s.34,7.66,1.72,11.1c3.05,7.64,8.77,14.44,15,19.72l4.31-5.58a14.33,14.33,0,0,1-3.92-3.64l-5,5c3,2.58,5.92,5.71,9.3,7.79,3.07,1.89,7,2.46,10.41,3.37,4.43,1.17,6.32-5.69,1.89-6.86Z"/><path class="cls-1" d="M70.66,99a24.23,24.23,0,0,0-4.16.49,10.92,10.92,0,0,0-1.83.61,7.62,7.62,0,0,1-.91.33s-.36.07-.22,0h-.27a.67.67,0,0,1,.46.32l.16.6c-.47.57-.56.75-.27.57q-.13.06.09,0c.19-.06.37-.13.56-.18a6.62,6.62,0,0,1,1-.18,1.22,1.22,0,0,0,1.18-1.18,1.19,1.19,0,0,0-1.18-1.19,9.46,9.46,0,0,0-1.91.35,2.74,2.74,0,0,0-1.61,1,1.47,1.47,0,0,0,.57,2.09,2.87,2.87,0,0,0,2,.09,12.67,12.67,0,0,0,1.49-.56,9.88,9.88,0,0,1,1.61-.46,24,24,0,0,1,3.24-.34,1.19,1.19,0,0,0,0-2.37Z"/><path class="cls-1" d="M57.89,97.23a8.51,8.51,0,0,0-3.28-.55,3.56,3.56,0,0,0-1.8,6.63l2.59,1.35A3.55,3.55,0,1,0,59,98.53L56.4,97.17l-1.79,6.62a7.08,7.08,0,0,1,.92,0l-1-.12a6.32,6.32,0,0,1,1.42.37,3.55,3.55,0,0,0,2.74-.36A3.54,3.54,0,0,0,60,98.86a4.08,4.08,0,0,0-2.13-1.63Z"/><path class="cls-1" d="M58.56,97.21C51.47,95.1,45.65,91.83,40.9,86.06c-2.91-3.53-7.92,1.52-5,5,5.5,6.67,12.61,10.54,20.8,13,4.39,1.31,6.27-5.55,1.89-6.86Z"/><path class="cls-1" d="M45.92,98.8c4.57,0,4.58-7.1,0-7.1s-4.59,7.1,0,7.1Z"/><path class="cls-1" d="M44.47,97.38c4.58,0,4.59-7.11,0-7.11s-4.58,7.11,0,7.11Z"/><path class="cls-2" d="M45.68,87.35c-.58-.65-1.2-1.27-1.84-1.86a.84.84,0,0,0-.55-.17.66.66,0,0,0-.47.28.76.76,0,0,0-.08.55l.07.19a1.09,1.09,0,0,0,.27.33l.26.24-.15-.14c.49.47,1,1,1.43,1.47a.87.87,0,0,0,.51.3.66.66,0,0,0,.53-.13.76.76,0,0,0,0-1.06Z"/><path class="cls-3" d="M45.78,86.58c-1.6-2-3.33-4-4.81-6.13A22,22,0,0,1,37.67,73a55.35,55.35,0,0,0-1.52-6,18,18,0,0,1-.86-4.49c-.17-1.75-2.95-2.33-2.74-.25a20.88,20.88,0,0,0,1,5.2c.76,2.11,1.12,4.31,1.67,6.48a23.75,23.75,0,0,0,3.54,7.82c1.64,2.37,3.55,4.54,5.32,6.81a1.3,1.3,0,0,0,1.94.15,1.71,1.71,0,0,0-.23-2.15Z"/><path class="cls-3" d="M43.24,86.15q-.26-.29-.51-.6c-.11-.13,0,0,0,.06a1.09,1.09,0,0,0-.13-.17c-.08-.11-.15-.22-.23-.32-.3-.44-.58-.88-.86-1.33A31.86,31.86,0,0,0,39.64,81a4.24,4.24,0,0,0-.94-.8,2.64,2.64,0,0,0-.91-.39c-.71-.07-.18.69,0,.93-.09-.11-.13-.16,0,0l.11.14a3.71,3.71,0,0,0,.23.32c.15.22.29.44.43.66.29.45.56.9.84,1.35a17.44,17.44,0,0,0,2,2.74,4.8,4.8,0,0,0,.94.8,2.33,2.33,0,0,0,.9.39c.69.07.21-.69,0-.93Z"/><path class="cls-3" d="M43.18,86h.65c.08,0,.23.1.11,0l-.19-.16a3.55,3.55,0,0,1-.33-.34c-.24-.28-.48-.56-.71-.85-.47-.57-.92-1.16-1.35-1.76l.08.11c-.37-.54-.73-1.08-1.07-1.63-.11-.19-.31-.21-.51-.24a4,4,0,0,0-1.14.06,3.84,3.84,0,0,0-1.1.31c-.08,0-.5.23-.41.38a31.66,31.66,0,0,0,2,2.95c.35.46.72.9,1.1,1.33a2.87,2.87,0,0,0,.55.55,2.56,2.56,0,0,0,1.57.24,4.56,4.56,0,0,0,1.21-.24c.17-.06.57-.19.68-.38.26-.46-1.08-.36-1.19-.36Z"/><path class="cls-3" d="M42,82.74c-4.78-7.2-6.42-15.86-6.58-24.38,0-.26-1.44.49-1.54.55-.33.2-1.2.64-1.19,1.11.16,8.52,1.8,17.19,6.58,24.39.29.43,3-1.28,2.73-1.67Z"/><path class="cls-3" d="M69.66,96.7a12.79,12.79,0,0,1-4.78,1.22,9.13,9.13,0,0,1-4.51-1.38,100.67,100.67,0,0,1-8.81-4.88,9.43,9.43,0,0,0-2-.92c-.15,0-1.15-.31-.63,0A114,114,0,0,0,60.85,97.2a17.84,17.84,0,0,0,5.73,2,12.31,12.31,0,0,0,6-1.24s-1.26-.74-1.4-.79c-.35-.15-1.16-.63-1.54-.46Z"/><path class="cls-3" d="M59.88,95.81A21.67,21.67,0,0,1,53.47,93a32.56,32.56,0,0,1-5.58-4.19,2.62,2.62,0,0,0-2-.29c-.17,0-1.5.3-1.09.69a34.64,34.64,0,0,0,6.1,4.54,24.5,24.5,0,0,0,7.38,3,3.21,3.21,0,0,0,2.18-.27c.56-.42-.27-.64-.6-.7Z"/><path class="cls-2" d="M51.88,91.84a4.34,4.34,0,0,1-1.61-1c-.52-.44-1-.88-1.56-1.31a11.49,11.49,0,0,0-3.5-2.07,1,1,0,0,0-1.08.22c-.25.3,0,.59.31.69a10.45,10.45,0,0,1,3.25,2c.51.42,1,.85,1.52,1.27a5,5,0,0,0,1.9,1.09,1.09,1.09,0,0,0,1.08-.23c.23-.27,0-.61-.31-.68Z"/><path class="cls-3" d="M43.64,87.8a1.8,1.8,0,0,0,.19.2c.13.12-.14-.21,0,0l.26.39a6.5,6.5,0,0,0,.69.94,8.48,8.48,0,0,0,2.44,1.54l.52.28c.26.14-.11-.07,0,0l.27.16c.35.21.68.43,1,.66s.65.47,1,.72l.16.13.16.13.47.42a2.42,2.42,0,0,0,2.17.63c.6-.18.89-.76.36-1.24A22.29,22.29,0,0,0,49,89.71l-1.11-.58L47.69,89s-.34-.19-.18-.09-.09-.07-.12-.09c.14.09.11.1,0,0s-.12-.13-.17-.2c.07.09.08.11,0,0s-.19-.29-.28-.43a5.48,5.48,0,0,0-.78-1A2.4,2.4,0,0,0,44,86.56c-.63.19-.86.74-.36,1.24Z"/><path class="cls-3" d="M54.39,93.1l-.58-.17-.06,0-.27-.12-.55-.27-.26-.15c.15.08.08,0,0,0a24.63,24.63,0,0,1-2-1.48q-2.25-1.74-4.48-3.5c-.43-.35-1.45-.71-1.86-.14s.32,1.38.75,1.72c1.57,1.23,3.14,2.47,4.71,3.69a14.57,14.57,0,0,0,5,2.76c.57.14,1.33,0,1.23-.75a2.22,2.22,0,0,0-1.59-1.55Z"/><path class="cls-1" d="M30.93,55.68a1.2,1.2,0,0,0,0-2.4,1.2,1.2,0,0,0,0,2.4Z"/><path class="cls-3" d="M34.08,58.92a14.12,14.12,0,0,1-.31-2.5c0-.62-1-.62-1,0a15,15,0,0,0,.35,2.75c.13.61,1.05.35.92-.25Z"/><path class="cls-3" d="M33.57,56.36l-.07-1.74c0-.61-1-.61-1,0l.07,1.74c0,.61,1,.62,1,0Z"/><path class="cls-1" d="M125.46,54.64A18.93,18.93,0,0,0,128,51.26a20.46,20.46,0,0,0,1-2,6.49,6.49,0,0,0,.69-2.1c0-.38-.32-.67-.61-.85a4.43,4.43,0,0,0-1.69-.59,4.37,4.37,0,0,0-1.8,0c-.3.09-.81.24-.84.62a7.67,7.67,0,0,1-1,2.72l.14-.27a19.31,19.31,0,0,1-3.11,4.48c-.26.27-.1.62.12.85a3.2,3.2,0,0,0,1.39.72,5.45,5.45,0,0,0,1.92.2,2,2,0,0,0,1.24-.45Z"/><path class="cls-1" d="M33.31,82.82c.6,2.47,2.39,4.5,4.19,6.21.86.8,2.43.46,3.29-.17s1.67-1.74.77-2.59a19.25,19.25,0,0,1-2.49-2.77l.26.37a9.15,9.15,0,0,1-1.44-3.06c-.11-.44-.77-.72-1.15-.79a3.42,3.42,0,0,0-3.23,1.42l-.22.47a1.24,1.24,0,0,0,0,.91Z"/><path class="cls-2" d="M96.74,66.35c2.27.43,4.25-1.13,6-2.28.88-.56,1.82-1,2.72-1.51.49-.32,1-.65,1.46-1s.93-.72,1.39-1.08c1.83-1.42,3.67-2.83,5.48-4.27.57-.46,1.15-.93,1.68-1.45l.45-.45c.11-.11.21-.23.31-.35a25.13,25.13,0,0,0,2-2.9,35.05,35.05,0,0,0,2.25-3.94c.24-.53.47-1.06.7-1.58l0-.08.15-.38a39.54,39.54,0,0,0,2.46-13.41c.08-2.41.06-4.82.13-7.24,0-.55,0-1.11.07-1.67s0-1.31,0-2a4.32,4.32,0,0,1,.26-1.53,2.46,2.46,0,0,1,1.5-1.92,2,2,0,0,1,1.76,0c2.69.74,4.45,3.73,6,5.88a22,22,0,0,1,3.64,7.61c.09.32.18.64.25,1a32.45,32.45,0,0,1,.19,9.44,29.56,29.56,0,0,1-2.42,9.83c-.34.76-.7,1.52-1.08,2.27a50,50,0,0,1-5.46,8.77A35.81,35.81,0,0,1,120.89,70c-.52.37-1,.71-1.6,1-1.25.77-2.55,1.46-3.86,2.13a12.06,12.06,0,0,1-7.93,1.38l-.87-.11a11.23,11.23,0,0,1-4.57-2h0a12,12,0,0,0-5.63-1.45c-.34,0-.67,0-1,.08-.54.11-1.07.26-1.63.37l-.34.06a6.9,6.9,0,0,1-1.07.32l-.05,0a2.24,2.24,0,0,1-.65.21,4.44,4.44,0,0,1-.52.15,3,3,0,0,1-2.56-.5,2.59,2.59,0,0,1-.36-.59,2.28,2.28,0,0,0-.61-.63,1.36,1.36,0,0,1-.57-.78c-.2-.75-1.22-1.21-.22-1.94.26-.19.55-.3.79-.51s.37-.38.59-.54a2.3,2.3,0,0,1,1.28-.34,5.16,5.16,0,0,0,1.78-.34A3.29,3.29,0,0,1,91.7,66C93.34,65,95,66,96.74,66.35Zm.78,3.78c3,.3,5.48,2.15,8.28,3.11a10.56,10.56,0,0,0,8.38-.69,34.2,34.2,0,0,0,7.58-4.74,52.36,52.36,0,0,0,11.16-14.89,29.82,29.82,0,0,0,3-8.64,60.19,60.19,0,0,0,.68-8.79,21.41,21.41,0,0,0-.61-5.08,23,23,0,0,0-2.09-4.8c-1.56-2.72-3.56-5.68-6.24-7.43a4.22,4.22,0,0,1-1.11.74,1.83,1.83,0,0,1-.26.11q.39,3.36.75,6.74c.24,2.23.56,4.47.59,6.71a36.31,36.31,0,0,1-.67,6.65,41.73,41.73,0,0,1-1.59,6.53c-1.47,4.35-4.24,8-7.3,11.38a36.16,36.16,0,0,1-10,7.46c-1,.53-2,1-3,1.5s-2,1.45-3.1,2a7.13,7.13,0,0,1-3,.49c-.86,0-1.71,0-2.56-.07a.21.21,0,0,1-.12.22l-1,.63c-.19.12-1,.45-1.05.64a.68.68,0,0,0,0,.4A12.57,12.57,0,0,1,97.52,70.13Zm-1.61-2.4c.87,0,1.74.08,2.61.08a6.39,6.39,0,0,0,3.15-.56c.86-.48,1.56-1.17,2.45-1.63s1.91-.9,2.84-1.38a37.26,37.26,0,0,0,9.74-6.94,33.48,33.48,0,0,0,7.59-11,41.6,41.6,0,0,0,2.56-12.72,50.38,50.38,0,0,0-.5-7.36c-.25-2.3-.48-4.59-.71-6.89l-.12.09a9,9,0,0,0-.3,2.5c-.07,1.1-.12,2.2-.14,3.3v.23c0,2.35,0,4.7,0,7.05a33.2,33.2,0,0,1-1.18,8.92,32.85,32.85,0,0,1-1,3.43,30.37,30.37,0,0,1-2.94,6.07l-.1.16-.16.28A14.47,14.47,0,0,1,118.57,53a15.93,15.93,0,0,1-2.52,3c-.94.84-1.93,1.62-2.94,2.39-.74.59-1.49,1.16-2.26,1.72l-.15.12a37.55,37.55,0,0,1-5.52,3.84l-.21.11-.41.28a21.48,21.48,0,0,1-3.91,2.33,7.36,7.36,0,0,1-1.39.48,5.4,5.4,0,0,1-1.25.15,7.83,7.83,0,0,1-1.81-.09c-.56-.09-1.33-.47-2-.59C94.76,67.06,95.34,67.42,95.91,67.73Z"/><path class="cls-2" d="M73,96a1.63,1.63,0,0,1,.44,0,5.5,5.5,0,0,0,1.81.09,2.26,2.26,0,0,1,1.31.15c.24.12.43.31.66.45a9.28,9.28,0,0,0,.85.39c1.1.59.16,1.19.06,2a1.42,1.42,0,0,1-.45.85,2.2,2.2,0,0,0-.52.71,2.21,2.21,0,0,1-.28.63,3,3,0,0,1-2.46.86,5,5,0,0,1-.54-.08,2.25,2.25,0,0,1-.67-.12h0a10.64,10.64,0,0,1-1.11-.17l-.35,0c-.56,0-1.11-.1-1.66-.13-.34,0-.68,0-1,0a12.22,12.22,0,0,0-5.38,2.23h0a11.31,11.31,0,0,1-4.25,2.59l-.85.23a12,12,0,0,1-8-.26c-1.39-.48-2.78-1-4.12-1.57-.59-.25-1.17-.51-1.74-.8a36.07,36.07,0,0,1-8.77-6.73,48.62,48.62,0,0,1-6.63-7.91c-.49-.7-1-1.4-1.39-2.11a29.25,29.25,0,0,1-3.77-9.39A32,32,0,0,1,23,68.52c0-.34.06-.67.1-1a22.36,22.36,0,0,1,2.54-8c1.2-2.34,2.52-5.55,5.08-6.65a2,2,0,0,1,1.74-.27c.71.2,1.66.9,1.75,1.69a4.59,4.59,0,0,1,.48,1.48c.11.64.2,1.29.29,1.94s.21,1.09.3,1.64c.41,2.38.73,4.78,1.14,7.16a39.91,39.91,0,0,0,4.3,12.93l.21.36,0,.07.92,1.46a35.39,35.39,0,0,0,2.77,3.59A26.58,26.58,0,0,0,47,87.48l.35.3.51.38c.6.44,1.24.82,1.87,1.2,2,1.17,4,2.31,6,3.46.51.29,1,.6,1.53.88l1.58.78c1,.39,2,.68,2.9,1.12,1.93.88,4.11,2.15,6.29,1.4C69.72,96.44,71.27,95.17,73,96Zm-2,4.58a.64.64,0,0,0,0-.41c-.09-.18-.92-.39-1.13-.48l-1.12-.48a.22.22,0,0,1-.15-.2c-.84.17-1.68.32-2.52.43a7.22,7.22,0,0,1-3-.08C62,99,61,98.2,59.78,97.83s-2.15-.68-3.21-1.07a36.2,36.2,0,0,1-10.93-6c-3.49-2.91-6.75-6.15-8.82-10.24a44.17,44.17,0,0,1-2.48-6.25,35.54,35.54,0,0,1-1.59-6.49c-.28-2.23-.28-4.49-.35-6.73s-.14-4.52-.2-6.78l-.28-.07a4.15,4.15,0,0,1-1.2-.58c-2.41,2.11-4,5.32-5.14,8.23a22.88,22.88,0,0,0-1.4,5A20.94,20.94,0,0,0,24.29,72a59.07,59.07,0,0,0,1.9,8.61,29.83,29.83,0,0,0,4.2,8.14A52.5,52.5,0,0,0,43.51,102a34.94,34.94,0,0,0,8.17,3.63,10.56,10.56,0,0,0,8.39-.48c2.65-1.34,4.82-3.52,7.77-4.24A11.7,11.7,0,0,1,71.07,100.55ZM70.68,97c-.67.22-1.38.69-1.92.86a8.25,8.25,0,0,1-1.78.35,5.88,5.88,0,0,1-1.26,0A7,7,0,0,1,64.27,98a22.27,22.27,0,0,1-4.19-1.76L59.64,96l-.23-.09a37.44,37.44,0,0,1-6-3l-.17-.1c-.83-.45-1.66-.91-2.47-1.39-1.11-.62-2.21-1.26-3.26-2a15.33,15.33,0,0,1-2.9-2.61,13.77,13.77,0,0,1-1.34-1.51l-.19-.26L43,84.93a30.64,30.64,0,0,1-3.76-5.6,33.07,33.07,0,0,1-1.5-3.26,33.41,33.41,0,0,1-2.41-8.66q-.51-3.48-1-7v0a1.42,1.42,0,0,1,0-.2c-.17-1.09-.37-2.17-.6-3.25A8.66,8.66,0,0,0,33,54.51l-.12-.06c.09,2.3.18,4.61.26,6.91a48.87,48.87,0,0,0,.53,7.36A41.34,41.34,0,0,0,38,81a33.44,33.44,0,0,0,9,9.87,37.7,37.7,0,0,0,10.62,5.52c1,.34,2,.63,3,1s1.74.91,2.66,1.27a6.38,6.38,0,0,0,3.19.11q1.31-.18,2.58-.45C69.62,97.87,70.14,97.43,70.68,97Z"/></g></g></svg>