<svg xmlns="http://www.w3.org/2000/svg" viewBox="0 0 67.9 52.96"><defs><style>.cls-1{fill:#ffdc2b;}.cls-2{fill:#95c122;}.cls-3{fill:#d45515;}</style></defs><g id="Calque_2" data-name="Calque 2"><g id="Calque_1-2" data-name="Calque 1"><path class="cls-1" d="M5.2,10a19.63,19.63,0,0,1,7.89-5.05,1.75,1.75,0,0,0-.93-3.37A10.79,10.79,0,0,0,8.85,2.76C7.09,3.63,8.32,6.65,10.2,6c5-1.84,10.18-2.88,14.84.16,2.58,1.68,1.81,2,3.47,3.54l2.12-2.75C24.45,2.43,17.56.81,10,3.31c-2.68.88-10.08,5-7.65,8.74,1.22,1.88,4.25.13,3-1.77.26.41,3-2.41,2.91-2.37,2.32-1.65,5.44-2,8.2-2.13,5.17-.19,8.32,1.2,12.39,4.15,1.62,1.17,3.55-1.4,2.12-2.75l.11.17a1.73,1.73,0,0,0-.87-1.51C29,5,28.3,3.55,27,2.77A19.06,19.06,0,0,0,22.33.87c-4.15-1-9.2.29-13.07,1.71l1.35,3.2,2.48-.86-.93-3.37C8.09,3.12,5.72,4.27,2.72,7.49,1.19,9.14,3.66,11.62,5.2,10Z"/><path class="cls-2" d="M15.11,26a1.2,1.2,0,0,1,.91.18c1.11.54,1.12,2,1.14,3a17.77,17.77,0,0,0,.26,2.73c0,.07,0,.13,0,.2.07.42.16.84.26,1.26a28.05,28.05,0,0,0,1.55,5.36c.14.29.29.58.45.86q.45.77,1,1.47A16.52,16.52,0,0,0,23,43.4c.39.33.79.67,1.21,1l.26.15c.5.29.95.66,1.45,1a13.77,13.77,0,0,0,1.48.64l.68.31a7.86,7.86,0,0,1,.94.41,8.66,8.66,0,0,0,3,1.32c1.15.1,2.13-.72,3.28-.68a2.26,2.26,0,0,1,.51.08,3.4,3.4,0,0,1,.46.07,3.92,3.92,0,0,1,1.94.69.32.32,0,0,1,.11.4c0,.13-.12.15-.19.24S38,49,38,49s0,0,0,.09,0,.3-.15.45-.26.15-.36.29-.08.2-.15.3a.94.94,0,0,1-.66.33,2.09,2.09,0,0,1-.74.12,6.45,6.45,0,0,1-.74-.12c-.34,0-.69-.1-1-.13l-.67,0a11,11,0,0,0-1.39.28l-.2,0a6.28,6.28,0,0,0-1.09.63l0,0A5.88,5.88,0,0,1,26.43,53c-2.73-.13-5.32-1.64-7.4-3.31-.73-.59-1.43-1.22-2.1-1.88a16.22,16.22,0,0,1-1.93-2l-.27-.37,0,0a14.17,14.17,0,0,1-1.35-2.24l-.27-.52c-.2-.34-.39-.69-.56-1-.1-.2-.19-.39-.27-.59a9.51,9.51,0,0,1-.71-2.37A27.21,27.21,0,0,1,11,33.8a7.41,7.41,0,0,1,.25-2.1,9.71,9.71,0,0,1,.9-1.9c.23-.5.47-1,.72-1.48.42-.82,1-2.06,2-2.26A.33.33,0,0,1,15,26,.2.2,0,0,1,15.11,26ZM34.5,49.85a.18.18,0,0,0,0-.09c0-.2,0-.21-.19-.29a6.42,6.42,0,0,0-1-.34.13.13,0,0,1-.1-.09h0l-.88.2a3.45,3.45,0,0,1-1.5,0c-.58-.15-1.06-.55-1.64-.73A12,12,0,0,1,27.57,48a25.71,25.71,0,0,1-5.84-3.48,13.61,13.61,0,0,1-1.21-1.19,13.48,13.48,0,0,0-1.19-1.08,2.65,2.65,0,0,1-.77-1.2,17.47,17.47,0,0,0-.88-1.51,17.74,17.74,0,0,1-1.12-3.24,26,26,0,0,1-.7-3.49c-.13-1,0-2,0-3.06a18.24,18.24,0,0,1-.06-2.86l-.19,0a1.8,1.8,0,0,1-.69-.38h0a4.66,4.66,0,0,0-1.61,2.2c-.39.75-.81,1.5-1.18,2.27a6.71,6.71,0,0,0-.54,3.21c0,.38.07.75.1,1.12,0,.15,0,.31,0,.46l0,.28a16.67,16.67,0,0,0,1,4.37c.32.75.73,1.46,1.11,2.18A15.29,15.29,0,0,0,15,44.63a22.68,22.68,0,0,0,2.58,2.87,22.85,22.85,0,0,0,3.07,2.57,16.15,16.15,0,0,0,2.61,1.5c.38.16.77.31,1.17.44.19.07.37.13.56.18a7,7,0,0,0,3.06.16A4.44,4.44,0,0,0,30,51.51a5.71,5.71,0,0,1,1.76-1.21,10.32,10.32,0,0,1,2.13-.43C34.11,49.85,34.31,49.85,34.5,49.85Zm.09-1.77c-.44.1-.85.35-1.28.48a4.12,4.12,0,0,1-3-.3L29.83,48c-.77-.39-1.5-.87-2.32-1.19-.55-.21-1.12-.35-1.64-.61a9.24,9.24,0,0,1-1.38-.84l-.9-.67a7.13,7.13,0,0,1-1-.65c-.4-.36-.78-.76-1.16-1.15a10.21,10.21,0,0,1-.69-.77,12.34,12.34,0,0,1-1.44-1.94,10.52,10.52,0,0,1-.86-1.83,22.26,22.26,0,0,1-1.26-4.61l-.12-.56a21.48,21.48,0,0,1-.4-2.53L16.6,30c-.07-.57-.12-1.15-.16-1.72a3.34,3.34,0,0,0-.16-1.05l-.1-.17,0,0-.07,0c0,1,.08,1.93.12,2.9,0,.59,0,1.16,0,1.74a11.51,11.51,0,0,0,.21,1.86,28,28,0,0,0,.8,3.37,12.65,12.65,0,0,0,1.42,3.29c.29.43.37,1,.66,1.35a8.4,8.4,0,0,0,1.13,1c.46.42.84.9,1.29,1.33A14.66,14.66,0,0,0,23,44.91a20.06,20.06,0,0,0,2.84,1.72A18.68,18.68,0,0,0,29,48.06a6.55,6.55,0,0,1,1.28.47,2.75,2.75,0,0,0,1.58.45,16.93,16.93,0,0,0,1.7-.32l.07,0A4.71,4.71,0,0,0,34.59,48.08ZM38,49Z"/><path class="cls-1" d="M2.49,15.9a12.16,12.16,0,0,0,.77-2,7.14,7.14,0,0,0,.17-1s0-.24,0-.15a1.16,1.16,0,0,1,0-.18s.06-.23,0-.15l.06-.1c.12-.17,0-.13-.38.1l-.26-.15s-.11-.18-.08-.22,0,.11,0,.08,0,.18,0,.26,0,.18-.07.26l-.06.16a.4.4,0,0,1,0,.09.58.58,0,0,0,1,.59,4.63,4.63,0,0,0,.29-.89,1.38,1.38,0,0,0,0-1,.73.73,0,0,0-1-.23,1.32,1.32,0,0,0-.51.84,8.09,8.09,0,0,0-.12.86,6.41,6.41,0,0,1-.15.7,10.25,10.25,0,0,1-.61,1.5.62.62,0,0,0,.21.8.6.6,0,0,0,.8-.21Z"/><path class="cls-1" d="M6.21,10.78a4.27,4.27,0,0,0,1-1.28,1.78,1.78,0,0,0-.27-2.12,2.2,2.2,0,0,0-.77-.45,1.77,1.77,0,0,0-1.35.18l-1.19.81a1.81,1.81,0,0,0-.8,1A1.77,1.77,0,0,0,3,10.31a1.78,1.78,0,0,0,2.4.63l1.19-.81L4.18,7.74a2.74,2.74,0,0,1-.29.46l.28-.35a2.68,2.68,0,0,1-.44.45,1.76,1.76,0,0,0-.51,1.24,1.8,1.8,0,0,0,.51,1.24A1.78,1.78,0,0,0,5,11.29a2,2,0,0,0,1.24-.51Z"/><path class="cls-1" d="M6.06,11.07A16.88,16.88,0,0,1,15,6c2.2-.45,1.27-3.82-.94-3.38a20.19,20.19,0,0,0-10.48,6,1.75,1.75,0,0,0,2.48,2.48Z"/><path class="cls-1" d="M9.88,7.76a1.75,1.75,0,0,0,0-3.5,1.75,1.75,0,0,0,0,3.5Z"/><path class="cls-1" d="M10.84,7.46a1.75,1.75,0,0,0,0-3.5,1.75,1.75,0,0,0,0,3.5Z"/><path class="cls-2" d="M13.38,7.78a12.45,12.45,0,0,0,1.23-.36.34.34,0,0,0,.14-.48.4.4,0,0,0-.49-.22A10.1,10.1,0,0,1,13.19,7l.08,0-.06,0a.36.36,0,0,0-.23.13.43.43,0,0,0,0,.27.46.46,0,0,0,.17.26.38.38,0,0,0,.27.08Z"/><path class="cls-3" d="M13.68,8.1c1.38-.24,2.75-.57,4.14-.71a11.23,11.23,0,0,1,4.35.48,40.56,40.56,0,0,1,4.66,1.28c.92.38,1-1.11.21-1.42A39.45,39.45,0,0,0,21.9,6.32a12.3,12.3,0,0,0-4.18-.45c-1.53.12-3,.49-4.52.75-.87.15-.32,1.62.48,1.48Z"/><path class="cls-3" d="M15.28,7.11c1-.26,2.07-.18,3.09-.35.29,0-.17-.54-.24-.6a2.18,2.18,0,0,0-.49-.35.65.65,0,0,0-.38-.09c-1,.17-2.08.09-3.1.35-.27.08.17.53.24.6a2.49,2.49,0,0,0,.5.35.58.58,0,0,0,.38.09Z"/><path class="cls-3" d="M15.16,6.64a.43.43,0,0,1,0-.07l0,0L15,6.65l.36-.08.18,0c-.1,0-.12,0-.06,0l.08,0,.38-.07.38,0c.05,0,.23,0,0,0l.18,0c.25,0,.51,0,.76-.06a2.46,2.46,0,0,0,.6-.12c.08,0,.28-.1.33-.19s-.53-.18-.58-.17a14.6,14.6,0,0,0-2,.23c-.35.06-.7.13-1,.22s-.79.17-.94.48.49.19.58.18a3,3,0,0,0,.6-.12c.1,0,.28-.09.33-.19Z"/><path class="cls-3" d="M15.64,6.85c4.18-.39,8.3.92,12,2.8.21.11.59-.17.76-.27s.69-.5.59-.55A22.47,22.47,0,0,0,16.72,6a2.05,2.05,0,0,0-.95.51c-.1.08-.44.37-.13.34Z"/><path class="cls-3" d="M3.84,16.78a6.19,6.19,0,0,1,.73-2.66,6.42,6.42,0,0,1,2-1.84,49.78,49.78,0,0,1,4.82-3.14,6.07,6.07,0,0,0-.69-.39c-.15-.07-.6-.32-.77-.23a54.51,54.51,0,0,0-4.82,3.14,6.6,6.6,0,0,0-1.93,1.79,6.13,6.13,0,0,0-.76,2.71c0,.14.59.35.69.39a3.38,3.38,0,0,0,.76.23Z"/><path class="cls-3" d="M7.13,11.52A10.77,10.77,0,0,1,9.88,9.29a16.05,16.05,0,0,1,3.17-1.48c.28-.1.25-.29,0-.37a2,2,0,0,0-1.11,0,17.68,17.68,0,0,0-3.41,1.6A11.87,11.87,0,0,0,5.6,11.44c-.18.23.48.3.56.3.27,0,.77,0,1-.22Z"/><path class="cls-2" d="M10.21,9.23a2.12,2.12,0,0,1,.8-.46l.92-.37a5.57,5.57,0,0,0,1.73-1.05c.14-.13,0-.29-.15-.34a.55.55,0,0,0-.54.11,5.27,5.27,0,0,1-1.66,1A4.64,4.64,0,0,0,9.52,9c-.12.14,0,.29.16.34a.51.51,0,0,0,.53-.11Z"/><path class="cls-3" d="M13,6.91,12.9,7c-.08,0-.09,0,0,0L12.6,7a2.78,2.78,0,0,0-.63.11,4.09,4.09,0,0,0-1,.62,8.92,8.92,0,0,1-2,1c-.12,0-.27.1-.31.24a.43.43,0,0,0,.13.37,1.2,1.2,0,0,0,1.08.31A9.88,9.88,0,0,0,12,8.6l.47-.31A2,2,0,0,1,13,8c-.08,0,.22,0,.07,0l.26,0a3.53,3.53,0,0,0,.65-.11c.3-.09.42-.37.18-.61A1.21,1.21,0,0,0,13,6.91Z"/><path class="cls-3" d="M9,10.45A6,6,0,0,1,11,9.2l2.64-1.15c.33-.15.05-.64-.11-.8a1,1,0,0,0-1-.29L9.79,8.15A6.19,6.19,0,0,0,7.66,9.54c-.24.26.17.71.37.85s.67.33.92.06Z"/><path class="cls-1" d="M31.07,9.57a.59.59,0,0,0,0-1.18.59.59,0,0,0,0,1.18Z"/><path class="cls-3" d="M28.4,9.32a7.09,7.09,0,0,1,1.16.44c.27.13.51-.27.24-.41a7.34,7.34,0,0,0-1.28-.49.24.24,0,0,0-.12.46Z"/><path class="cls-3" d="M29.63,9.69l.77.37c.27.13.51-.27.24-.41l-.77-.37c-.27-.13-.51.28-.24.41Z"/><path class="cls-2" d="M3.26,17.61a1.18,1.18,0,0,1-.11.19,2.45,2.45,0,0,0-.46.76,1.07,1.07,0,0,1-.38.53,2.21,2.21,0,0,1-.34.18c-.14.08-.24.2-.37.28-.51.34-.55-.2-.86-.42a.69.69,0,0,1-.27-.4,1.07,1.07,0,0,0-.18-.39,1.13,1.13,0,0,1-.22-.27A1.48,1.48,0,0,1,.28,16.8c0-.07.1-.14.15-.21a1.33,1.33,0,0,1,.21-.26l0,0A3.61,3.61,0,0,1,1,15.87l.09-.15c.14-.24.3-.46.44-.69s.15-.3.22-.46A6,6,0,0,0,2,11.72H2a5.64,5.64,0,0,1-.14-2.45c0-.14.07-.28.1-.42A6,6,0,0,1,4,5.42C4.5,4.93,5,4.44,5.61,4q.36-.3.75-.57a17.81,17.81,0,0,1,5-2.25,24.08,24.08,0,0,1,5-1L17.53,0a14.59,14.59,0,0,1,5,.55,15.54,15.54,0,0,1,4.33,1.69l.41.28a10.94,10.94,0,0,1,2.9,3C30.87,6.58,32,7.9,31.84,9.27a1,1,0,0,1-.29.82,1.24,1.24,0,0,1-1.15.37,2.54,2.54,0,0,1-.75-.14L28.74,10,28,9.74c-1.13-.37-2.24-.79-3.37-1.17A19.4,19.4,0,0,0,18,7.44h-.24l-.85.06a18.87,18.87,0,0,0-2.21.37A13.63,13.63,0,0,0,13,8.3l-.22.08-.28.13c-.33.16-.65.35-1,.54-1,.59-1.93,1.2-2.9,1.8-.24.16-.49.31-.74.46l-.7.51c-.4.33-.75.69-1.16,1-.84.63-1.89,1.28-2.08,2.4C3.83,16.07,4,17,3.26,17.61ZM1.73,15.7a.33.33,0,0,0,.18.08c.1,0,.39-.31.47-.38L2.85,15s.09,0,.12,0c.12-.4.26-.8.41-1.2a3.34,3.34,0,0,1,.73-1.28c.42-.43,1-.68,1.43-1.1s.79-.78,1.21-1.15a17.8,17.8,0,0,1,5.14-3.35,16.42,16.42,0,0,1,6.5-1.45,21.54,21.54,0,0,1,3.29.38,16.51,16.51,0,0,1,3.18.82,33,33,0,0,1,3,1.41l3,1.49L31,9.47a2,2,0,0,1,.53-.38,10.51,10.51,0,0,0-2.37-4.15,11.24,11.24,0,0,0-1.87-1.78A10.34,10.34,0,0,0,25,2,30,30,0,0,0,20.82.84,14.82,14.82,0,0,0,16.31.77,25.89,25.89,0,0,0,7.53,3.41a16.83,16.83,0,0,0-3.48,2.7A5.23,5.23,0,0,0,2.31,9.86c0,1.46.41,2.91,0,4.36A6.19,6.19,0,0,1,1.73,15.7Zm1.61.64c.07-.34,0-.76.08-1a3.49,3.49,0,0,1,.26-.85A2.93,2.93,0,0,1,4,13.9a4.15,4.15,0,0,1,.46-.56,11.18,11.18,0,0,1,1.74-1.41l.2-.14.09-.08a18.3,18.3,0,0,1,2.71-1.9l.08-.05c.39-.26.78-.51,1.18-.75s1.06-.67,1.61-1a7.78,7.78,0,0,1,1.8-.66,8,8,0,0,1,1-.22l.16,0,.09,0a15.3,15.3,0,0,1,3.31-.33,17.14,17.14,0,0,1,1.76.1,16.76,16.76,0,0,1,4.32,1L27.7,9.07h0l.1,0c.51.18,1,.35,1.54.5a4.53,4.53,0,0,0,1.21.28l.06,0L27.56,8.35a24,24,0,0,0-3.32-1.48,20.19,20.19,0,0,0-6.31-1,16.47,16.47,0,0,0-6.4,1.64,18.54,18.54,0,0,0-4.86,3.32c-.38.36-.74.73-1.12,1.08s-.8.54-1.17.86a3.11,3.11,0,0,0-.79,1.36c-.15.4-.28.81-.41,1.22C3.23,15.69,3.3,16,3.34,16.34Z"/><path class="cls-1" d="M54.21,36.6c4-1.68,6-3.41,8.92-6.69l-2.75-2.12-1.7,2,2.47,2.47c3.12-3.63,6.08-8.1,6.31-13a14.46,14.46,0,0,0-.78-5.72,30.76,30.76,0,0,0-2.25-3.62c-.79-1.84-3.73-.52-3.2,1.35,1.29,4.57,1.48,7.91-.22,12.43a16.89,16.89,0,0,1-4.18,6.74s-4.26,2.37-3.9,2.85c-1.34-1.78-4.38,0-3,1.76,3,3.94,9.43-1.8,11.36-4.4,4.67-6.29,5.38-13.06,3.34-20.31l-3.2,1.35c.91,2.12,2,2.28,2.4,5.37.63,4.83-2.07,9.16-5.13,12.73a1.75,1.75,0,0,0,2.47,2.47,10.57,10.57,0,0,0,2.25-2.72c1.08-1.64-1.43-3.62-2.75-2.12-2.26,2.58-4.11,4.43-7.37,5.8-2.05.86-1.15,4.25.93,3.37Z"/><path class="cls-1" d="M46.61,35a10.87,10.87,0,0,1,1.71-.06c.56,0,1.08.23,1.64.28a1.36,1.36,0,0,0,.86-.17A.72.72,0,0,0,51,34a1.25,1.25,0,0,0-.76-.33,3.8,3.8,0,0,0-1-.06.58.58,0,1,0,0,1.16,3.11,3.11,0,0,1,.61,0l.21,0,.13,0c.06,0-.05,0-.07,0L50,34.52v-.18l.15-.25c0-.05.15-.05,0,0a1.46,1.46,0,0,1-.21,0L49.62,34a6,6,0,0,0-1-.19,10.92,10.92,0,0,0-2,0,.59.59,0,0,0,0,1.17Z"/><path class="cls-1" d="M54.21,35.2l.36-.17-.42.18a2.73,2.73,0,0,1,.68-.18l-.46.06h.07l-.88-3.26-1.17.84a1.89,1.89,0,0,0-.8,1,1.77,1.77,0,0,0,.18,1.35,1.79,1.79,0,0,0,1,.81,1.76,1.76,0,0,0,1.35-.18l1.17-.84A1.87,1.87,0,0,0,56,34a1.66,1.66,0,0,0,.09-1.14,1.93,1.93,0,0,0-.45-.77,1.7,1.7,0,0,0-1.24-.51,5,5,0,0,0-2,.6,1.75,1.75,0,1,0,1.76,3Z"/><path class="cls-1" d="M53.89,35.24a20,20,0,0,0,9.17-7.83c1.18-1.93-1.85-3.69-3-1.77a16.9,16.9,0,0,1-7.92,6.58c-2,.94-.27,4,1.77,3Z"/><path class="cls-1" d="M58.34,32.05a1.75,1.75,0,0,0,0-3.5,1.75,1.75,0,0,0,0,3.5Z"/><path class="cls-1" d="M58.94,31.25a1.75,1.75,0,0,0,0-3.5,1.75,1.75,0,0,0,0,3.5Z"/><path class="cls-2" d="M58.51,26.84a11.17,11.17,0,0,1,.71-.95.36.36,0,0,0,0-.27.46.46,0,0,0-.17-.26.43.43,0,0,0-.27-.08l-.09,0a.3.3,0,0,0-.14.11c-.25.31-.48.63-.7.95a.41.41,0,0,0,.13.53.33.33,0,0,0,.49-.06Z"/><path class="cls-3" d="M58.92,26.91c.68-1.18,1.44-2.33,2-3.56a11.49,11.49,0,0,0,1.16-4.09c.11-1.07.15-2.13.36-3.18a10.53,10.53,0,0,0,.12-2.57c0-.87-1.4-1.15-1.35-.12a8.77,8.77,0,0,1-.12,2.23c-.21,1-.24,2.09-.35,3.14a10.61,10.61,0,0,1-1.12,3.85c-.6,1.19-1.33,2.3-2,3.46-.4.69.78,1.66,1.25.84Z"/><path class="cls-3" d="M60.08,26c.6-.86.88-1.88,1.4-2.78.05-.09,0-.21-.07-.29a2,2,0,0,0-.88-.68c-.07,0-.24-.08-.3,0-.51.9-.8,1.92-1.4,2.78-.06.08,0,.22.07.29a1.69,1.69,0,0,0,.4.4,1.78,1.78,0,0,0,.48.28c.08,0,.24.08.3,0Z"/><path class="cls-3" d="M59.07,26.05a1.64,1.64,0,0,0,1.29-.59c.16-.25.32-.5.47-.76a15.84,15.84,0,0,0,.81-1.59c.1-.24-.49-.19-.59-.18a2.38,2.38,0,0,0-.59.12c-.1,0-.3.09-.34.19a14.8,14.8,0,0,1-.69,1.38c-.12.23-.26.45-.39.67a3.62,3.62,0,0,1-.22.32.94.94,0,0,1-.09.12s0,0,0,0h0l.33-.12h0l.41-.07h0a2.46,2.46,0,0,0-.6.12c-.08,0-.28.09-.34.19s.53.18.59.17Z"/><path class="cls-3" d="M60.79,23.88a22.37,22.37,0,0,0,1.53-12.4s-1.39.43-1.35.82a22.12,22.12,0,0,1-1.53,12.3c-.08.19.55-.1.58-.12a1.76,1.76,0,0,0,.77-.6Z"/><path class="cls-3" d="M46.67,33.32a7,7,0,0,0,2.69.31,5.49,5.49,0,0,0,2.46-1.1,50.3,50.3,0,0,0,4.85-3.6,3.61,3.61,0,0,0-.69-.39c-.12-.05-.63-.33-.76-.23a50.56,50.56,0,0,1-4.4,3.31,7.56,7.56,0,0,1-2.36,1.29,5.5,5.5,0,0,1-2.76-.14c-.26-.07-.27,0-.05.12a4.8,4.8,0,0,0,1,.43Z"/><path class="cls-3" d="M52.55,31.87a11.33,11.33,0,0,0,3.26-1.93,16.36,16.36,0,0,0,2.65-2.61c.18-.23-.47-.3-.56-.3-.27,0-.77,0-1,.22a15.79,15.79,0,0,1-2.49,2.48,10.58,10.58,0,0,1-3,1.82c-.27.1-.25.29,0,.37a1.91,1.91,0,0,0,1.11-.05Z"/><path class="cls-2" d="M55.62,29.45a2.3,2.3,0,0,0,.84-.64c.23-.24.44-.49.67-.73a5.25,5.25,0,0,1,1.44-1.22c.14-.07.27-.21.13-.35a.51.51,0,0,0-.54-.07,5.75,5.75,0,0,0-1.59,1.27c-.23.24-.44.49-.67.74a1.93,1.93,0,0,1-.69.58c-.14.06-.26.22-.13.35a.53.53,0,0,0,.54.07Z"/><path class="cls-3" d="M57.6,26.12a2.58,2.58,0,0,0-.29.51,2,2,0,0,1-.1.21s0,.07-.05.1,0,0,0,0a3.42,3.42,0,0,1-.85.69,9.57,9.57,0,0,0-1.79,1.69c-.43.52,1,1.1,1.39.65a9.94,9.94,0,0,1,.82-.89l.43-.38c.17-.14.27-.22.43-.33l.49-.36a1.91,1.91,0,0,0,.48-.42,2.64,2.64,0,0,0,.25-.47l.12-.24c0-.07-.06.09,0,0l.09-.12c.21-.28-.14-.58-.38-.68A1.35,1.35,0,0,0,58,26a.6.6,0,0,0-.42.16Z"/><path class="cls-3" d="M54.6,31a6.41,6.41,0,0,0,2-1.56c.69-.7,1.36-1.41,2.05-2.12.09-.1,0-.31,0-.41a1,1,0,0,0-.37-.43c-.27-.18-.67-.34-.92-.07l-2,2.08a5.7,5.7,0,0,1-1.88,1.42.34.34,0,0,0-.14.35.83.83,0,0,0,.26.45,1,1,0,0,0,1,.29Z"/><path class="cls-1" d="M62.84,10a.6.6,0,0,0,0-1.19.6.6,0,0,0,0,1.19Z"/><path class="cls-3" d="M62.08,11.79a7.06,7.06,0,0,0,0-1.3c0-.3-.5-.3-.47,0a7.06,7.06,0,0,1,0,1.3c0,.31.45.31.47,0Z"/><path class="cls-3" d="M62.15,10.45l-.08-.85c0-.3-.5-.31-.47,0l.08.85c0,.3.51.3.47,0Z"/><path class="cls-2" d="M47.65,32.68c1.12.21,2.09-.56,3-1.12.43-.28.89-.49,1.34-.75l.72-.48.68-.54c.9-.7,1.81-1.39,2.7-2.1.28-.23.57-.46.83-.71l.22-.23.15-.17a11.66,11.66,0,0,0,1-1.43,17.68,17.68,0,0,0,1.11-1.94c.11-.26.23-.52.34-.77l0,0c0-.07,0-.13.08-.19A19.81,19.81,0,0,0,61,15.61c0-1.19,0-2.38.06-3.57l0-.83c0-.32,0-.64,0-1a2.32,2.32,0,0,1,.13-.75A1.22,1.22,0,0,1,62,8.55a1,1,0,0,1,.87,0c1.32.36,2.19,1.84,2.93,2.89a11,11,0,0,1,1.79,3.75,4.21,4.21,0,0,1,.12.48,15.75,15.75,0,0,1,.1,4.65,14.41,14.41,0,0,1-1.2,4.84c-.16.38-.34.75-.53,1.12a23.81,23.81,0,0,1-2.69,4.32,17.36,17.36,0,0,1-3.82,3.88c-.25.18-.52.35-.78.51-.62.38-1.26.72-1.91,1a5.87,5.87,0,0,1-3.9.68l-.43,0a5.51,5.51,0,0,1-2.25-1h0A6,6,0,0,0,47.49,35a4.23,4.23,0,0,0-.5,0l-.8.17-.17,0c-.17,0-.35.12-.53.16h0a1,1,0,0,1-.32.1,1.17,1.17,0,0,1-.25.07,1.44,1.44,0,0,1-1.26-.24,1,1,0,0,1-.18-.29,1,1,0,0,0-.31-.31.79.79,0,0,1-.28-.39c-.1-.36-.6-.59-.1-1,.12-.09.27-.15.39-.25a3.71,3.71,0,0,1,.29-.27,1.06,1.06,0,0,1,.63-.16,2.54,2.54,0,0,0,.87-.17l.21-.05C46,32,46.81,32.52,47.65,32.68ZM48,34.54c1.49.15,2.7,1.06,4.08,1.53a5.18,5.18,0,0,0,4.13-.34A16.78,16.78,0,0,0,60,33.4a25.84,25.84,0,0,0,5.5-7.33A14.58,14.58,0,0,0,67,21.81a28.51,28.51,0,0,0,.34-4.33A10.37,10.37,0,0,0,67,15a10.84,10.84,0,0,0-1-2.37A10.62,10.62,0,0,0,62.89,9a2.17,2.17,0,0,1-.55.36l-.13,0c.13,1.11.25,2.22.37,3.32s.28,2.2.29,3.31a17.11,17.11,0,0,1-.33,3.27,21,21,0,0,1-.78,3.22,16.56,16.56,0,0,1-3.59,5.61,18.28,18.28,0,0,1-4.92,3.67c-.49.26-1,.5-1.49.74s-1,.71-1.53,1a3.48,3.48,0,0,1-1.46.24q-.63,0-1.26,0a.12.12,0,0,1-.06.11l-.52.31c-.09.06-.48.22-.51.31a.27.27,0,0,0,0,.2A6,6,0,0,1,48,34.54Zm-.79-1.18c.43,0,.86,0,1.29,0a3.17,3.17,0,0,0,1.55-.28c.42-.23.77-.58,1.2-.8s.94-.44,1.4-.68a18.33,18.33,0,0,0,4.8-3.42,16.58,16.58,0,0,0,3.74-5.44,20.27,20.27,0,0,0,1.26-6.26,24.61,24.61,0,0,0-.25-3.63c-.12-1.13-.24-2.26-.35-3.39l-.05,0a4.4,4.4,0,0,0-.16,1.24q0,.81-.06,1.62v.12c0,1.15,0,2.31,0,3.47A16.08,16.08,0,0,1,61,20.38a17.16,17.16,0,0,1-.5,1.69,15.58,15.58,0,0,1-1.45,3l-.06.08c0,.05-.05.09-.07.14a9.17,9.17,0,0,1-.55.83,7.56,7.56,0,0,1-1.24,1.47c-.46.41-.95.8-1.45,1.18s-.73.57-1.11.85l-.08.06a18,18,0,0,1-2.71,1.88l-.11.06-.2.14a11.35,11.35,0,0,1-1.92,1.15,3.29,3.29,0,0,1-.69.23,2.64,2.64,0,0,1-.62.08,3.8,3.8,0,0,1-.89-.05c-.27,0-.65-.23-1-.29C46.68,33,47,33.21,47.24,33.36Z"/><path class="cls-1" d="M28.28,49.16a19.6,19.6,0,0,1-8.17-4.6A1.75,1.75,0,0,0,17.64,47a11.05,11.05,0,0,0,2.63,2.34c1.66,1,3.64-1.43,2.13-2.75C19.33,44,15.78,40.28,15.5,36c-.2-3.08.87-4.8,1.55-7.29l-3.38-.93c-.46,3.41-1.06,6.59.17,9.91A28.64,28.64,0,0,0,19.4,47.3c1.76,1.91,10.19,7.88,12.12,3.38.88-2-2.13-3.84-3-1.77.2-.46-3.44-1.48-3.48-1.5a14.8,14.8,0,0,1-5.3-5.5c-2.75-4.47-3.37-8-2.67-13.18.29-2.16-2.77-3.18-3.38-.93a27.06,27.06,0,0,0-1.5,3.27,14.26,14.26,0,0,0-.09,6.69c1,4.45,4.5,8.43,7.84,11.34L22,46.35a6.47,6.47,0,0,1-1.93-1.79L17.64,47c3.31,2.84,5.46,4.37,9.71,5.49,2.18.58,3.11-2.8.93-3.37Z"/><path class="cls-1" d="M34.8,48.76a11.6,11.6,0,0,0-2,.24,5.7,5.7,0,0,0-.91.3,3.43,3.43,0,0,1-.45.16s-.17,0-.11,0h-.13a.31.31,0,0,1,.23.16l.08.29c-.23.28-.28.37-.13.28-.05,0,0,0,0,0l.28-.09a3,3,0,0,1,.49-.09.6.6,0,0,0,.58-.58.58.58,0,0,0-.58-.58,3.71,3.71,0,0,0-.94.17,1.33,1.33,0,0,0-.8.48.73.73,0,0,0,.29,1,1.38,1.38,0,0,0,1,0,7.34,7.34,0,0,0,.74-.27,5.14,5.14,0,0,1,.79-.23,11.57,11.57,0,0,1,1.59-.16.6.6,0,0,0,.58-.59.58.58,0,0,0-.58-.58Z"/><path class="cls-1" d="M28.51,47.89a4.2,4.2,0,0,0-1.61-.27A1.75,1.75,0,0,0,26,50.88l1.28.67a1.75,1.75,0,0,0,1.76-3l-1.27-.67-.88,3.26a3.39,3.39,0,0,1,.45,0l-.47-.06a2.67,2.67,0,0,1,.7.18,1.75,1.75,0,0,0,2-2.57,2,2,0,0,0-1-.8Z"/><path class="cls-1" d="M28.84,47.88a16.92,16.92,0,0,1-8.7-5.49c-1.43-1.74-3.89.75-2.47,2.47a20.19,20.19,0,0,0,10.24,6.4c2.17.64,3.09-2.74.93-3.38Z"/><path class="cls-1" d="M22.62,48.66a1.75,1.75,0,0,0,0-3.5,1.75,1.75,0,0,0,0,3.5Z"/><path class="cls-1" d="M21.91,48a1.75,1.75,0,0,0,0-3.5,1.75,1.75,0,0,0,0,3.5Z"/><path class="cls-2" d="M22.5,43c-.29-.32-.59-.62-.91-.91a.44.44,0,0,0-.27-.09.35.35,0,0,0-.23.14.42.42,0,0,0,0,.27l0,.1a.48.48,0,0,0,.13.16l.13.12-.08-.07c.25.23.48.47.71.72a.46.46,0,0,0,.25.15.36.36,0,0,0,.26-.07.37.37,0,0,0,0-.52Z"/><path class="cls-3" d="M22.55,42.64c-.79-1-1.65-2-2.38-3a10.58,10.58,0,0,1-1.61-3.67A29.25,29.25,0,0,0,17.81,33a8.82,8.82,0,0,1-.43-2.22c-.08-.86-1.45-1.14-1.35-.12a10.38,10.38,0,0,0,.48,2.53,32.35,32.35,0,0,1,.83,3.22,11.79,11.79,0,0,0,1.73,3.84c.82,1.17,1.76,2.25,2.64,3.37a.64.64,0,0,0,.95.07c.29-.31.11-.77-.11-1.06Z"/><path class="cls-3" d="M21.3,42.43a3.47,3.47,0,0,1-.25-.29c-.06-.07,0,0,0,0L21,42.08l-.11-.16c-.15-.21-.29-.43-.43-.65a13,13,0,0,0-.94-1.39,1.77,1.77,0,0,0-.46-.4,1.39,1.39,0,0,0-.45-.19c-.35,0-.08.34,0,.46,0-.06-.06-.08,0,0l.05.07a.91.91,0,0,1,.11.16,3.62,3.62,0,0,1,.22.32l.41.66a8.84,8.84,0,0,0,1,1.35,2.55,2.55,0,0,0,.47.4,1.34,1.34,0,0,0,.44.19c.34,0,.11-.34,0-.46Z"/><path class="cls-3" d="M21.27,42.35h.32s.11,0,.05,0l-.09-.08a1.29,1.29,0,0,1-.16-.17L21,41.71q-.34-.43-.66-.87l0,0c-.18-.26-.36-.53-.53-.8a.29.29,0,0,0-.25-.12,2.11,2.11,0,0,0-.56,0,2.07,2.07,0,0,0-.54.15s-.25.12-.2.19a16.2,16.2,0,0,0,1,1.45c.18.23.36.44.55.66a1.38,1.38,0,0,0,.27.27,1.27,1.27,0,0,0,.77.12,2.46,2.46,0,0,0,.6-.12c.08,0,.28-.1.33-.19s-.53-.18-.58-.18Z"/><path class="cls-3" d="M20.68,40.75a22.27,22.27,0,0,1-3.24-12c0-.12-.71.24-.76.27s-.59.32-.58.55c.08,4.2.88,8.47,3.24,12,.14.22,1.47-.63,1.34-.82Z"/><path class="cls-3" d="M34.31,47.63a6.42,6.42,0,0,1-2.35.6,4.55,4.55,0,0,1-2.23-.68q-2.22-1.09-4.34-2.41a5.46,5.46,0,0,0-1-.45c-.07,0-.56-.15-.3,0A58.07,58.07,0,0,0,30,47.88a8.91,8.91,0,0,0,2.82,1,6,6,0,0,0,3-.61l-.69-.39c-.17-.07-.57-.31-.76-.22Z"/><path class="cls-3" d="M29.49,47.19a10.53,10.53,0,0,1-3.15-1.38,15.79,15.79,0,0,1-2.75-2.06,1.28,1.28,0,0,0-1-.15c-.08,0-.74.15-.53.34a16.39,16.39,0,0,0,3,2.24,12.05,12.05,0,0,0,3.64,1.49,1.53,1.53,0,0,0,1.07-.14c.27-.2-.13-.31-.3-.34Z"/><path class="cls-2" d="M25.55,45.23a2,2,0,0,1-.79-.48L24,44.1a5.76,5.76,0,0,0-1.72-1,.53.53,0,0,0-.54.11c-.12.15,0,.29.16.34a5.22,5.22,0,0,1,1.6,1l.75.63a2.53,2.53,0,0,0,.93.53.55.55,0,0,0,.54-.11c.11-.14,0-.3-.16-.34Z"/><path class="cls-3" d="M21.49,43.25l.1.09c.06.06-.07-.1,0,0l.12.19a4,4,0,0,0,.35.46,4,4,0,0,0,1.2.76l.25.14c.13.07-.05,0,0,0l.14.08c.17.1.33.21.49.32l.48.36.08.06c-.06,0,.07.07.07.07L25,46a1.18,1.18,0,0,0,1.07.31c.3-.09.44-.37.18-.61a10.43,10.43,0,0,0-2.14-1.53l-.55-.29-.11-.06-.09-.05-.06,0c.07,0,.06,0,0,0l-.08-.09s0,.05,0,0l-.13-.21a3.19,3.19,0,0,0-.39-.5,1.2,1.2,0,0,0-1.07-.31c-.31.1-.42.37-.18.62Z"/><path class="cls-3" d="M26.79,45.86l-.29-.09s-.1,0,0,0l-.14-.06-.27-.13-.13-.07c.07,0,0,0,0,0-.35-.23-.68-.48-1-.73L22.72,43c-.22-.17-.72-.35-.92-.06s.16.68.37.84c.77.61,1.54,1.22,2.32,1.82A7.21,7.21,0,0,0,27,47c.28.07.66,0,.61-.37a1.07,1.07,0,0,0-.78-.76Z"/><path class="cls-1" d="M15.23,27.43a.6.6,0,0,0,0-1.19.6.6,0,0,0,0,1.19Z"/><path class="cls-3" d="M16.79,29a7.4,7.4,0,0,1-.16-1.23.24.24,0,0,0-.47,0,7.55,7.55,0,0,0,.17,1.35c.07.3.52.18.46-.12Z"/><path class="cls-3" d="M16.54,27.76l0-.86c0-.3-.48-.3-.47,0l0,.86c0,.3.49.3.48,0Z"/><path class="cls-2" d="M36,47.27h.22a2.66,2.66,0,0,0,.89,0,1.08,1.08,0,0,1,.64.07,3.88,3.88,0,0,1,.33.23c.13.08.28.12.42.19.54.28.07.58,0,1a.68.68,0,0,1-.23.42,1.07,1.07,0,0,0-.25.35,1.23,1.23,0,0,1-.14.31,1.46,1.46,0,0,1-1.21.42l-.27,0a1,1,0,0,1-.33-.05h0a3.5,3.5,0,0,1-.55-.09h-.17L34.51,50l-.5,0a6,6,0,0,0-2.64,1.09h0a5.56,5.56,0,0,1-2.1,1.28l-.42.11a5.93,5.93,0,0,1-4-.12c-.68-.24-1.37-.49-2-.78-.29-.12-.57-.25-.85-.39a17.91,17.91,0,0,1-4.33-3.31A24.8,24.8,0,0,1,14.42,44c-.24-.35-.47-.69-.68-1a14.57,14.57,0,0,1-1.86-4.63,15.66,15.66,0,0,1-.56-4.61c0-.17,0-.33,0-.49a10.85,10.85,0,0,1,1.26-4c.58-1.15,1.23-2.73,2.5-3.27a1,1,0,0,1,.85-.13,1.23,1.23,0,0,1,.87.83,2.23,2.23,0,0,1,.23.73c.05.32.1.63.14.95s.11.54.15.81c.2,1.18.36,2.36.56,3.53a19.7,19.7,0,0,0,2.12,6.37l.1.17,0,0,.45.72A16.43,16.43,0,0,0,22,41.81a12.76,12.76,0,0,0,1.16,1.28l.18.14.25.19a9,9,0,0,0,.92.59c1,.58,2,1.14,3,1.71l.76.43.78.38c.47.2,1,.34,1.43.55.95.44,2,1.07,3.09.7C34.34,47.5,35.1,46.87,36,47.27Zm-1,2.25a.28.28,0,0,0,0-.2c0-.09-.46-.19-.56-.23l-.55-.24a.1.1,0,0,1-.08-.1c-.41.09-.82.16-1.24.21a3.52,3.52,0,0,1-1.48,0c-.57-.17-1.06-.55-1.65-.74s-1.05-.33-1.58-.52a17.88,17.88,0,0,1-5.38-2.95,16.43,16.43,0,0,1-4.34-5.05,21,21,0,0,1-1.23-3.08,18.34,18.34,0,0,1-.78-3.19C16,32.29,16,31.18,16,30.07s-.07-2.22-.1-3.34a.35.35,0,0,1-.14,0,2,2,0,0,1-.59-.28,10.44,10.44,0,0,0-2.53,4A11.28,11.28,0,0,0,11.91,33,10.65,10.65,0,0,0,12,35.47a30.55,30.55,0,0,0,.94,4.24,14.42,14.42,0,0,0,2.07,4,25.87,25.87,0,0,0,6.46,6.49,16.53,16.53,0,0,0,4,1.79,5.17,5.17,0,0,0,4.13-.24c1.3-.66,2.37-1.73,3.82-2.08A6.09,6.09,0,0,1,35,49.52Zm-.19-1.72c-.33.1-.68.34-.94.42a3.8,3.8,0,0,1-.88.17,2.56,2.56,0,0,1-.62,0,3.43,3.43,0,0,1-.71-.14,10.65,10.65,0,0,1-2.07-.86l-.22-.11-.11,0a19,19,0,0,1-3-1.49l-.09,0c-.41-.22-.81-.45-1.22-.69s-1.08-.62-1.6-1A7.63,7.63,0,0,1,22,42.77a9.4,9.4,0,0,1-.66-.74l-.09-.13-.06-.07a15.17,15.17,0,0,1-1.86-2.76,16.49,16.49,0,0,1-.74-1.6,17.11,17.11,0,0,1-1.19-4.27c-.16-1.14-.32-2.29-.47-3.44h0l0-.1c-.09-.54-.18-1.07-.29-1.6a4.74,4.74,0,0,0-.32-1.2l-.07,0c.05,1.13.09,2.27.13,3.4a24.53,24.53,0,0,0,.26,3.63,20.39,20.39,0,0,0,2.13,6,16.45,16.45,0,0,0,4.46,4.87,18.27,18.27,0,0,0,5.22,2.71c.49.17,1,.32,1.48.48s.86.45,1.31.63a3.13,3.13,0,0,0,1.58,0c.42,0,.84-.13,1.27-.22Z"/></g></g></svg>