<svg xmlns="http://www.w3.org/2000/svg" viewBox="0 0 75.93 41.41"><defs><style>.cls-1,.cls-2,.cls-3,.cls-5,.cls-6{fill:#ffdc2b;}.cls-1,.cls-3,.cls-5,.cls-6{stroke:#ffdc2b;stroke-linecap:round;stroke-linejoin:round;}.cls-1{stroke-width:0.2px;}.cls-3{stroke-width:0.17px;}.cls-4{fill:#95c122;}.cls-5{stroke-width:0.13px;}.cls-6{stroke-width:0.12px;}</style></defs><g id="Calque_2" data-name="Calque 2"><g id="Calque_1-2" data-name="Calque 1"><path class="cls-1" d="M4.89,23.86A12.36,12.36,0,0,0,3,26.3c-.33.56-.62,1.15-.92,1.73a5.9,5.9,0,0,1-.45.82,1.47,1.47,0,0,0-.31.56c0,.17-.05.33-.09.5a13.27,13.27,0,0,1-.61,1.7,3.36,3.36,0,0,0-.14.48,7,7,0,0,0,1.31-1.6,10,10,0,0,1,.62-.93,8,8,0,0,0,.7-1.25A5.21,5.21,0,0,0,3.82,27c.11-.41.27-.8.38-1.21a8.39,8.39,0,0,1,.47-1.3A5.25,5.25,0,0,0,4.89,23.86Z"/><path class="cls-1" d="M5.5,23.3a.11.11,0,0,1,0,.08c-.08.26-.19.5-.27.75s-.1.43-.16.64a7.92,7.92,0,0,1-.38,1.1l1.74,0h1c.15,0,.31,0,.47,0,.23-.62.41-1.26.61-1.9s.33-1.35.49-2c-1.17.41-2.49.56-3.45,1.37Z"/><path class="cls-1" d="M.4,32.68a5,5,0,0,0,0,1c.13,1.08.44,2.12.67,3.18.36-.46.77-.89,1.14-1.35s.93-1.19,1.39-1.79l.22-.29a6,6,0,0,1-.72-1.25,7.16,7.16,0,0,0-.9-1.47A3.28,3.28,0,0,0,2,31a5,5,0,0,1-1.62,1.7Z"/><path class="cls-1" d="M4.52,26.25a4.28,4.28,0,0,1-.23.55c-.11.22-.26.4-.37.62-.2.42-.28.88-.51,1.29-.12.21-.25.42-.39.62s-.23.42-.35.65l-.26.43a5.41,5.41,0,0,1,1,1.47l.38.76c.08.14.15.31.24.47a11.11,11.11,0,0,0,.74-1.25c.31-.64.52-1.32.84-1.95S6.43,28.63,6.81,28a16.07,16.07,0,0,0,1-1.84H7.7l-1,0-2.13.06Z"/><path class="cls-1" d="M1.53,37c2.56-.36,5.14-.61,7.72-.82,2.37-.18,4.75-.34,7.13-.39-1.18-.33-2.38-.6-3.56-.85a17.37,17.37,0,0,0-2.27-.28c-.76-.06-1.52-.17-2.27-.26s-1.5-.22-2.25-.34l-1-.18a2.45,2.45,0,0,1-.78-.21l-.09.14a14.53,14.53,0,0,1-1.38,1.65C2.31,36,1.92,36.51,1.53,37Z"/><path class="cls-1" d="M8.2,26.25c-.11.27-.22.55-.35.81s-.4.66-.6,1c-.37.64-.75,1.28-1.09,2s-.59,1.29-.89,1.93a10.32,10.32,0,0,1-.88,1.5l.1,0a17.29,17.29,0,0,0,2.15.39c.71.1,1.41.23,2.12.31,1.37.16,2.73.26,4.08.55s2.73.66,4.11.89a35.78,35.78,0,0,0-2.68-3c-.94-1-1.89-1.95-2.86-2.9a31.45,31.45,0,0,1-2.72-2.93c-.1-.14-.2-.3-.31-.43A1.19,1.19,0,0,0,8.2,26.25Z"/><path class="cls-1" d="M9.51,21.86c-.16.7-.37,1.39-.53,2.1a12.06,12.06,0,0,1-.65,2,3,3,0,0,1,.78.87,15.13,15.13,0,0,0,1.09,1.31c.81.85,1.62,1.69,2.46,2.51s1.66,1.68,2.47,2.55,1.39,1.58,2.11,2.35c-.63-1.06-1.29-2.09-1.92-3.16S13.94,30,13.26,28.82s-1.35-2.34-2-3.52S10.09,23,9.51,21.86Z"/><path class="cls-2" d="M1.22,37.4c0,.14-.3,0-.34-.08C.63,36.56.48,35.77.3,35A11.11,11.11,0,0,1,0,32.94a5.53,5.53,0,0,1,.37-1.83c.12-.34.26-.68.37-1a2,2,0,0,1,.3-.8,8.14,8.14,0,0,0,.51-1.12L2,27.29a15.77,15.77,0,0,1,1.07-1.82c.38-.53.83-1,1.25-1.52a7.26,7.26,0,0,1,.79-.78.11.11,0,0,1,.07-.06,7.17,7.17,0,0,1,.63-.45A8.56,8.56,0,0,1,7.46,22a12.56,12.56,0,0,1,2-.61.29.29,0,0,1,.27.16.26.26,0,0,1,.12.11c.58,1.23,1.26,2.43,1.88,3.64s1.24,2.38,1.9,3.53S15,31.15,15.7,32.33s1.39,2.42,2.12,3.6a.1.1,0,0,1-.08.16H17.5a.24.24,0,0,1-.15,0c-2.65.09-5.29.19-7.93.4S4,37,1.22,37.4Z"/><path class="cls-3" d="M75,16A9.68,9.68,0,0,0,73.48,14c-.37-.4-.77-.78-1.16-1.16a5.71,5.71,0,0,1-.55-.55c-.13-.16-.18-.29-.37-.39L71,11.66a9.77,9.77,0,0,1-1.22-.89,4,4,0,0,0-.34-.23,5.69,5.69,0,0,0,1,1.43c.2.24.41.46.59.72a6.75,6.75,0,0,0,.83.86,4.32,4.32,0,0,0,.88.88c.3.19.57.41.87.6a7.63,7.63,0,0,1,.93.68A4.59,4.59,0,0,0,75,16Z"/><path class="cls-3" d="M75.27,16.66l-.06,0c-.19-.12-.35-.27-.53-.4s-.32-.18-.48-.28a5.37,5.37,0,0,1-.78-.57L73,16.8c-.08.26-.16.53-.23.8,0,.12-.07.26-.11.38.44.34.91.63,1.36.94s1,.59,1.51.88a8.57,8.57,0,0,0-.26-3.08Z"/><path class="cls-3" d="M69,10.34a4.66,4.66,0,0,0-.77-.21c-.89-.15-1.8-.15-2.7-.22.28.4.52.82.8,1.23s.73,1,1.1,1.54l.18.25a5.44,5.44,0,0,1,1.16-.28,6.13,6.13,0,0,0,1.4-.36l-.2-.24a4,4,0,0,1-1-1.69Z"/><path class="cls-3" d="M73.16,15.17c-.13-.1-.27-.2-.39-.31s-.26-.31-.41-.45-.63-.43-.9-.72a4.49,4.49,0,0,1-.41-.46,5.66,5.66,0,0,0-.42-.43c-.1-.1-.2-.2-.29-.31a4.64,4.64,0,0,1-1.42.46l-.7.13a4,4,0,0,0-.43.08,8.47,8.47,0,0,0,.82.88c.44.4.93.74,1.35,1.15s.84.93,1.26,1.39a11.83,11.83,0,0,0,1.24,1.21s0,0,0-.06c.08-.27.14-.53.21-.8.14-.57.3-1.14.46-1.71C73.14,15.2,73.15,15.19,73.16,15.17Z"/><path class="cls-3" d="M65.27,10.19c-.33,2.13-.75,4.25-1.2,6.36-.42,1.94-.87,3.87-1.4,5.78.54-.85,1-1.75,1.53-2.63A13.66,13.66,0,0,0,65,18c.23-.59.5-1.16.75-1.75s.54-1.14.82-1.71q.18-.39.39-.78a2.14,2.14,0,0,1,.35-.58l-.09-.1a14.94,14.94,0,0,1-1-1.5C65.91,11.06,65.59,10.63,65.27,10.19Z"/><path class="cls-3" d="M72.27,18.11c-.19-.16-.39-.31-.56-.48s-.43-.48-.65-.71c-.43-.46-.85-.91-1.3-1.35s-.88-.78-1.33-1.17a8.21,8.21,0,0,1-1-1.06l-.06.07A16.48,16.48,0,0,0,66.56,15c-.25.54-.52,1.07-.75,1.62-.46,1.05-.86,2.11-1.42,3.12s-1.19,2-1.7,3.07a28.38,28.38,0,0,0,3-1.43c1-.52,2-1,3-1.58a24.48,24.48,0,0,1,3-1.47c.14-.05.29-.09.42-.15A.62.62,0,0,0,72.27,18.11Z"/><path class="cls-3" d="M75.47,20.21c-.53-.3-1-.63-1.56-.93a10.62,10.62,0,0,1-1.42-1,2.54,2.54,0,0,1-.88.41c-.45.17-.89.34-1.32.55-.87.45-1.73.89-2.59,1.36S66,21.54,65.08,22s-1.6.72-2.39,1.11c1-.24,2-.53,3-.77L69,21.53c1.1-.25,2.19-.51,3.29-.75S74.41,20.4,75.47,20.21Z"/><path class="cls-2" d="M65.05,9.86c-.11,0,0-.25.15-.26.66,0,1.32.05,2,.1A9.07,9.07,0,0,1,68.9,10a4.55,4.55,0,0,1,1.37.74c.25.17.48.37.73.54a1.65,1.65,0,0,1,.57.43,6.34,6.34,0,0,0,.77.68l.59.56a13.28,13.28,0,0,1,1.2,1.29c.33.43.61.91.91,1.37a5.25,5.25,0,0,1,.43.81s0,0,0,.07a6.26,6.26,0,0,1,.21.61,6.81,6.81,0,0,1,.17,1.49,10.74,10.74,0,0,1,0,1.7.22.22,0,0,1-.2.18.19.19,0,0,1-.11.07c-1.12.17-2.24.42-3.36.63s-2.19.41-3.27.66-2.23.56-3.35.84-2.26.53-3.38.83a.08.08,0,0,1-.11-.1l.05-.19a.35.35,0,0,1,0-.13c.57-2.13,1.12-4.27,1.59-6.42S64.68,12.12,65.05,9.86Z"/><path class="cls-4" d="M4.88,23.83A11.81,11.81,0,0,0,3,26.27c-.33.56-.62,1.15-.92,1.73a6.53,6.53,0,0,1-.45.82,1.47,1.47,0,0,0-.31.56c0,.16-.05.33-.09.49a12.88,12.88,0,0,1-.61,1.71,3.64,3.64,0,0,0-.14.47,6.74,6.74,0,0,0,1.31-1.59,10,10,0,0,1,.62-.93,9,9,0,0,0,.7-1.25A5.27,5.27,0,0,0,3.81,27c.11-.41.27-.8.38-1.21a9.21,9.21,0,0,1,.47-1.3A4.57,4.57,0,0,0,4.88,23.83Zm.61-.56a.11.11,0,0,1,0,.08c-.08.25-.19.49-.27.74s-.1.43-.16.65a8.4,8.4,0,0,1-.38,1.1l1.74,0h1a3.65,3.65,0,0,1,.47,0c.23-.62.41-1.26.61-1.89s.33-1.36.49-2c-1.17.41-2.49.55-3.45,1.36ZM.39,32.65a5.07,5.07,0,0,0,0,1c.13,1.07.44,2.12.67,3.18.36-.47.77-.89,1.14-1.35s.93-1.19,1.39-1.79l.22-.29a6.31,6.31,0,0,1-.72-1.25,7,7,0,0,0-.9-1.48l-.2.31a4.89,4.89,0,0,1-1.62,1.7Zm4.12-6.44a3.88,3.88,0,0,1-.23.56c-.11.21-.26.4-.37.62-.2.42-.28.87-.51,1.29-.12.21-.26.42-.39.62s-.23.42-.35.64-.17.29-.26.44a5.41,5.41,0,0,1,1,1.47l.38.75c.08.15.15.32.24.47a8.52,8.52,0,0,0,.73-1.25c.32-.63.53-1.31.85-1.94S6.42,28.6,6.8,28a15.42,15.42,0,0,0,1-1.85H7.69c-.33,0-.66,0-1,0q-1.07,0-2.13.06ZM1.52,37c2.56-.36,5.14-.62,7.72-.82,2.37-.19,4.75-.34,7.13-.39-1.18-.33-2.38-.6-3.56-.86a19.25,19.25,0,0,0-2.27-.27c-.76-.07-1.52-.18-2.27-.27s-1.5-.22-2.25-.34c-.35,0-.69-.11-1-.18a2.72,2.72,0,0,1-.78-.2l-.09.14a14.53,14.53,0,0,1-1.38,1.65C2.3,36,1.91,36.47,1.52,37ZM8.19,26.22c-.11.27-.22.55-.35.8s-.4.67-.6,1c-.37.65-.75,1.29-1.09,2s-.59,1.28-.89,1.93a10.32,10.32,0,0,1-.88,1.5l.1,0a17.29,17.29,0,0,0,2.15.39c.71.1,1.41.23,2.12.31a37.36,37.36,0,0,1,4.08.55c1.36.3,2.73.66,4.11.89a35.78,35.78,0,0,0-2.68-3c-.94-1-1.89-2-2.86-2.9A32.76,32.76,0,0,1,8.68,26.8c-.1-.14-.2-.3-.31-.43A.6.6,0,0,0,8.19,26.22Zm1.31-4.4c-.16.71-.37,1.4-.53,2.1a11.47,11.47,0,0,1-.65,2,3.09,3.09,0,0,1,.78.87,13.89,13.89,0,0,0,1.09,1.32c.81.85,1.62,1.69,2.46,2.51s1.66,1.68,2.47,2.54,1.39,1.59,2.11,2.36c-.63-1.06-1.29-2.1-1.92-3.16l-2.06-3.55c-.67-1.17-1.35-2.34-2-3.52S10.08,23,9.5,21.82ZM1.21,37.37c0,.13-.3,0-.34-.09C.62,36.52.47,35.74.29,35A10.89,10.89,0,0,1,0,32.91a5.48,5.48,0,0,1,.37-1.83c.12-.35.26-.68.37-1a2.15,2.15,0,0,1,.3-.81,7.18,7.18,0,0,0,.51-1.12c.15-.29.29-.58.44-.86a15,15,0,0,1,1.07-1.82c.38-.54.83-1,1.25-1.52a6.45,6.45,0,0,1,.79-.78.07.07,0,0,1,.07-.06,7.17,7.17,0,0,1,.63-.45,9.27,9.27,0,0,1,1.65-.72,15.16,15.16,0,0,1,2-.61.31.31,0,0,1,.27.17.24.24,0,0,1,.12.1c.58,1.24,1.26,2.43,1.88,3.65s1.23,2.37,1.9,3.53S15,31.12,15.69,32.3s1.39,2.41,2.12,3.6a.1.1,0,0,1-.08.16h-.24a.19.19,0,0,1-.15,0c-2.65.09-5.29.2-7.93.4S3.94,37,1.21,37.37Z"/><path class="cls-4" d="M75,16a9.68,9.68,0,0,0-1.49-2.09c-.37-.4-.77-.77-1.16-1.16a4.76,4.76,0,0,1-.55-.55,1.25,1.25,0,0,0-.37-.39,3.24,3.24,0,0,1-.37-.19,8.85,8.85,0,0,1-1.22-.89,2.46,2.46,0,0,0-.34-.22,5.82,5.82,0,0,0,1,1.42c.2.24.41.46.59.72a6.75,6.75,0,0,0,.83.86,4.32,4.32,0,0,0,.88.88c.3.19.57.41.87.6a7.63,7.63,0,0,1,.93.68A3.37,3.37,0,0,0,75,16Zm.3.62a.07.07,0,0,1-.06,0c-.19-.12-.35-.26-.53-.39s-.32-.19-.48-.29a6.16,6.16,0,0,1-.78-.56L73,16.77c-.08.27-.16.53-.23.8s-.07.26-.11.38c.44.34.91.63,1.36.94s1,.6,1.51.88a8.57,8.57,0,0,0-.26-3.08ZM69,10.31a4.66,4.66,0,0,0-.77-.21c-.89-.15-1.8-.15-2.7-.22.28.4.52.82.8,1.23s.73,1,1.1,1.54l.18.25a5.44,5.44,0,0,1,1.16-.28,6.13,6.13,0,0,0,1.4-.36c-.07-.08-.13-.16-.2-.23a4.14,4.14,0,0,1-1-1.7Zm4.15,4.83a3.79,3.79,0,0,1-.39-.31c-.14-.14-.26-.31-.41-.45s-.63-.43-.9-.71a6,6,0,0,1-.41-.47,5.66,5.66,0,0,0-.42-.43c-.1-.1-.2-.2-.29-.31a4.64,4.64,0,0,1-1.42.46l-.7.13a4,4,0,0,0-.43.08,8.47,8.47,0,0,0,.82.88c.44.4.93.74,1.35,1.15s.84.93,1.26,1.39a11.83,11.83,0,0,0,1.24,1.21s0,0,0-.06c.08-.26.14-.53.21-.8.14-.57.3-1.14.46-1.71C73.14,15.17,73.15,15.16,73.16,15.14Zm-7.89-5c-.33,2.14-.75,4.25-1.2,6.36-.42,1.94-.87,3.87-1.4,5.79.54-.86,1-1.76,1.53-2.64A13.66,13.66,0,0,0,65,17.92c.23-.59.5-1.16.75-1.74s.54-1.15.82-1.72q.18-.39.39-.78a2.3,2.3,0,0,1,.35-.58l-.09-.1a14.94,14.94,0,0,1-1-1.5C65.91,11,65.59,10.6,65.27,10.16Zm7,7.92a6.44,6.44,0,0,1-.56-.48c-.23-.23-.43-.47-.65-.71-.43-.46-.85-.91-1.3-1.35s-.88-.78-1.33-1.17a8.21,8.21,0,0,1-1-1.06l-.06.07A16.48,16.48,0,0,0,66.56,15c-.25.54-.52,1.07-.75,1.62-.46,1.06-.86,2.11-1.42,3.12s-1.19,2-1.7,3.07a28.38,28.38,0,0,0,3-1.43c1-.52,2-1,3-1.58a26,26,0,0,1,3-1.47c.14,0,.29-.09.42-.15A.62.62,0,0,0,72.27,18.08Zm3.2,2.1c-.53-.3-1-.63-1.56-.93a9.77,9.77,0,0,1-1.42-1,2.54,2.54,0,0,1-.88.41c-.45.17-.89.34-1.32.55-.87.45-1.73.89-2.59,1.37S66,21.51,65.08,22s-1.6.73-2.39,1.11c1-.24,2-.53,3-.77L69,21.5c1.1-.25,2.19-.51,3.29-.75S74.41,20.37,75.47,20.18ZM65.05,9.83c-.11-.05,0-.25.15-.25a19.05,19.05,0,0,1,2,.09,9.07,9.07,0,0,1,1.71.26,4.55,4.55,0,0,1,1.37.74c.25.17.48.37.73.54a1.65,1.65,0,0,1,.57.43,6.34,6.34,0,0,0,.77.68l.59.56a13.28,13.28,0,0,1,1.2,1.29c.33.43.61.91.91,1.37a5.25,5.25,0,0,1,.43.81.07.07,0,0,1,0,.07,5.64,5.64,0,0,1,.21.62,6.65,6.65,0,0,1,.17,1.48,10.85,10.85,0,0,1,0,1.71.23.23,0,0,1-.2.17.19.19,0,0,1-.11.07c-1.12.17-2.24.42-3.36.63s-2.19.41-3.27.66-2.23.56-3.35.85-2.26.53-3.38.82a.08.08,0,0,1-.11-.1l.05-.19a.35.35,0,0,1,0-.13c.57-2.13,1.12-4.27,1.59-6.42S64.68,12.09,65.05,9.83Z"/><path class="cls-3" d="M27.1,3.29a10.5,10.5,0,0,0-2.46.77c-.49.24-1,.5-1.45.75a6.53,6.53,0,0,1-.7.35A1.21,1.21,0,0,0,22,5.4c-.1.09-.19.2-.3.29a8.78,8.78,0,0,1-1.22.88l-.32.26a6.08,6.08,0,0,0,1.65-.47A9.21,9.21,0,0,1,22.69,6a8.13,8.13,0,0,0,1.07-.52,4.31,4.31,0,0,0,1.11-.57c.27-.23.57-.42.84-.65a8.77,8.77,0,0,1,.93-.67A2.91,2.91,0,0,0,27.1,3.29Z"/><path class="cls-3" d="M27.78,3.2a.1.1,0,0,1,0,0c-.17.14-.36.25-.54.38s-.27.25-.41.37a6.34,6.34,0,0,1-.79.57l1.21.8c.24.16.46.32.7.47s.22.14.32.22c.46-.31.88-.66,1.32-1s.88-.77,1.31-1.17a8.68,8.68,0,0,0-3-.7Z"/><path class="cls-3" d="M19.83,7.2a4.54,4.54,0,0,0-.43.68c-.42.79-.71,1.66-1,2.49.47-.14.94-.24,1.42-.38s1.2-.38,1.8-.57l.29-.09a5.26,5.26,0,0,1,.1-1.2,6.31,6.31,0,0,0,.09-1.44l-.29.12a4.08,4.08,0,0,1-1.91.4Z"/><path class="cls-3" d="M25.71,4.75c-.14.09-.27.19-.42.27s-.37.15-.55.25c-.34.19-.61.46-1,.64a5.72,5.72,0,0,1-.57.24c-.19.08-.35.18-.54.27a2.64,2.64,0,0,1-.38.18,4.72,4.72,0,0,1,0,1.5c0,.23-.07.46-.1.7s-.05.28-.06.43a6.83,6.83,0,0,0,1.1-.51c.52-.29,1-.65,1.51-.93s1.14-.5,1.71-.76A13.87,13.87,0,0,0,28,6.23l-.05,0-.7-.44c-.5-.31-1-.64-1.48-1Z"/><path class="cls-3" d="M18.54,10.71c1.92,1,3.81,2,5.67,3.11s3.42,2,5.07,3.12c-.65-.78-1.34-1.54-2-2.27a13.24,13.24,0,0,0-1.43-1.27c-.48-.41-.95-.84-1.42-1.26s-.93-.86-1.38-1.3l-.63-.62A2.41,2.41,0,0,1,22,9.71l-.13,0a12.91,12.91,0,0,1-1.72.48C19.56,10.37,19.05,10.54,18.54,10.71Z"/><path class="cls-3" d="M28.23,6.5a5.85,5.85,0,0,1-.63.38c-.29.15-.59.27-.88.41-.57.26-1.13.52-1.68.81s-1,.61-1.52.91a9.91,9.91,0,0,1-1.32.61l.05.07A15.7,15.7,0,0,0,23.54,11c.44.4.86.83,1.3,1.22.87.76,1.75,1.47,2.54,2.31s1.55,1.75,2.39,2.57a30.71,30.71,0,0,0-.43-3.3c-.19-1.12-.37-2.23-.58-3.35a24.28,24.28,0,0,1-.47-3.3c0-.14,0-.3,0-.44A.78.78,0,0,0,28.23,6.5Z"/><path class="cls-3" d="M31.21,4.11c-.44.41-.91.78-1.36,1.19a11.67,11.67,0,0,1-1.38,1,2.39,2.39,0,0,1,.11,1,13.38,13.38,0,0,0,.13,1.42c.15,1,.31,1.93.49,2.89s.34,1.94.49,2.92.19,1.75.32,2.61c.07-1,.11-2,.19-3.07l.27-3.41c.1-1.13.19-2.25.3-3.37S31.06,5.17,31.21,4.11Z"/><path class="cls-2" d="M18.15,10.82c-.08.09-.23-.12-.19-.22a19.74,19.74,0,0,1,.7-1.86,9.78,9.78,0,0,1,.78-1.55,4.6,4.6,0,0,1,1.12-1.08c.24-.18.5-.34.74-.53a1.84,1.84,0,0,1,.59-.41,5,5,0,0,0,.88-.52l.72-.38a11.48,11.48,0,0,1,1.59-.74c.52-.19,1.06-.31,1.58-.45a6,6,0,0,1,.91-.16s.06,0,.08,0a4.68,4.68,0,0,1,.65,0,6.83,6.83,0,0,1,1.47.29,11.29,11.29,0,0,1,1.62.51A.25.25,0,0,1,31.5,4a.31.31,0,0,1,0,.13c-.19,1.12-.29,2.26-.44,3.39s-.29,2.21-.38,3.32-.16,2.29-.23,3.44-.2,2.31-.26,3.47a.09.09,0,0,1-.13.08l-.17-.11a.28.28,0,0,1-.11-.07c-1.85-1.2-3.71-2.38-5.62-3.49S20.19,11.87,18.15,10.82Z"/><path class="cls-4" d="M27.07,3.28a9.86,9.86,0,0,0-2.45.78c-.5.23-1,.49-1.46.74a5.77,5.77,0,0,1-.7.36,1.13,1.13,0,0,0-.48.23c-.1.09-.19.2-.29.29a10.68,10.68,0,0,1-1.23.89,2.51,2.51,0,0,0-.32.25,5.36,5.36,0,0,0,1.65-.47A9.21,9.21,0,0,1,22.66,6a8.13,8.13,0,0,0,1.07-.52,4.55,4.55,0,0,0,1.12-.57c.27-.23.56-.42.83-.65a8,8,0,0,1,.94-.67A2.83,2.83,0,0,0,27.07,3.28Zm.68-.09a.1.1,0,0,1,0,.05c-.17.14-.36.25-.54.38s-.27.25-.41.37a6.34,6.34,0,0,1-.79.57l1.22.8.69.47a3.62,3.62,0,0,1,.32.22c.46-.31.89-.66,1.32-1s.88-.77,1.31-1.17a8.63,8.63,0,0,0-3-.7Zm-7.95,4a4.54,4.54,0,0,0-.43.68c-.42.8-.7,1.66-1.05,2.49.47-.14.95-.24,1.42-.38s1.21-.37,1.81-.57l.28-.09a5.26,5.26,0,0,1,.1-1.2A5.71,5.71,0,0,0,22,6.69l-.29.11a4.08,4.08,0,0,1-1.91.4Zm5.88-2.45a3.74,3.74,0,0,1-.42.27c-.18.1-.37.15-.55.25-.34.19-.61.47-1,.64a5.55,5.55,0,0,1-.56.24,5.68,5.68,0,0,0-.55.28l-.38.17a4.44,4.44,0,0,1,0,1.5l-.09.7c0,.13-.05.28-.06.43a7.15,7.15,0,0,0,1.09-.51c.52-.28,1-.65,1.51-.93s1.14-.5,1.71-.76A15,15,0,0,0,28,6.22l-.06,0-.69-.44c-.5-.31-1-.64-1.49-1Zm-7.17,6c1.92,1,3.81,2,5.68,3.11,1.71,1,3.41,2,5.06,3.12-.64-.78-1.34-1.54-2-2.27a14.38,14.38,0,0,0-1.44-1.27c-.48-.41-.95-.84-1.42-1.26s-.92-.86-1.38-1.3l-.62-.62a2,2,0,0,1-.44-.51l-.13.05a13,13,0,0,1-1.73.48C19.54,10.36,19,10.53,18.51,10.7ZM28.2,6.49c-.21.14-.41.27-.63.39s-.58.26-.88.4c-.56.26-1.12.52-1.68.82s-1,.6-1.52.9a9.91,9.91,0,0,1-1.32.61l0,.07A14.28,14.28,0,0,0,23.51,11c.44.4.86.83,1.3,1.22.87.76,1.75,1.47,2.54,2.31s1.55,1.76,2.39,2.57a28.38,28.38,0,0,0-.43-3.3c-.18-1.12-.37-2.23-.58-3.35a26,26,0,0,1-.47-3.3c0-.14,0-.3,0-.44A.87.87,0,0,0,28.2,6.49Zm3-2.39c-.44.41-.91.79-1.35,1.19a10.13,10.13,0,0,1-1.39,1,2.59,2.59,0,0,1,.12,1,13.37,13.37,0,0,0,.12,1.42c.15,1,.31,1.93.49,2.89s.34,1.94.49,2.92.2,1.75.32,2.61c.07-1,.11-2.05.19-3.07s.18-2.28.28-3.41.18-2.25.3-3.37S31,5.17,31.18,4.1ZM18.12,10.81c-.08.09-.22-.12-.19-.22.19-.63.45-1.24.7-1.86a9.78,9.78,0,0,1,.78-1.55,4.39,4.39,0,0,1,1.12-1.07c.25-.19.51-.35.74-.54a1.93,1.93,0,0,1,.59-.4,5.71,5.71,0,0,0,.88-.53l.72-.38a13.48,13.48,0,0,1,1.59-.74c.52-.19,1.06-.3,1.59-.45a5.67,5.67,0,0,1,.9-.16.11.11,0,0,1,.08,0,4.7,4.7,0,0,1,.65,0,7.36,7.36,0,0,1,1.47.29,11.29,11.29,0,0,1,1.62.51.25.25,0,0,1,.11.24.21.21,0,0,1,0,.13c-.19,1.12-.29,2.26-.44,3.39s-.28,2.21-.38,3.32-.16,2.29-.23,3.44-.2,2.32-.26,3.47a.09.09,0,0,1-.13.08l-.17-.11a.28.28,0,0,1-.11-.07c-1.85-1.2-3.71-2.38-5.62-3.49S20.16,11.86,18.12,10.81Z"/><path class="cls-5" d="M52.61,3.1A7.45,7.45,0,0,0,51,1.89c-.38-.21-.78-.39-1.17-.58A5.68,5.68,0,0,1,49.24,1C49.1.94,49,.85,48.86.83l-.33,0A9.61,9.61,0,0,1,47.38.41a1.58,1.58,0,0,0-.31-.09,4.47,4.47,0,0,0,1.08.84,5.16,5.16,0,0,1,.63.4,6.71,6.71,0,0,0,.84.44,3.51,3.51,0,0,0,.89.44c.28.07.54.17.81.23a5.55,5.55,0,0,1,.87.29Z"/><path class="cls-5" d="M53,3.49h-.06l-.5-.17c-.14,0-.29-.06-.43-.09A6.34,6.34,0,0,1,51.27,3c0,.38,0,.77.06,1.15l0,.67c0,.1,0,.21,0,.31.42.15.85.25,1.27.37s.91.2,1.36.29a6.7,6.7,0,0,0-1-2.26Z"/><path class="cls-5" d="M46.67.28a3.39,3.39,0,0,0-.64,0c-.71.11-1.4.34-2.09.51.31.23.6.49.91.73l1.22.89.2.14a4,4,0,0,1,.81-.5,4.42,4.42,0,0,0,1-.63l-.21-.12a3.23,3.23,0,0,1-1.15-1Z"/><path class="cls-5" d="M51,2.89a2.79,2.79,0,0,1-.37-.14c-.15-.07-.27-.17-.42-.23s-.59-.17-.87-.32L48.94,2c-.14-.09-.28-.15-.43-.23a1.64,1.64,0,0,1-.29-.16,3.68,3.68,0,0,1-1,.71l-.5.27a3.18,3.18,0,0,0-.3.17,7.51,7.51,0,0,0,.84.46c.43.2.88.32,1.31.53s.86.49,1.3.73a8.92,8.92,0,0,0,1.24.61V5c0-.22,0-.44,0-.65,0-.48-.06-.95-.08-1.42Z"/><path class="cls-5" d="M43.81,1.11c.28,1.7.5,3.4.68,5.11s.32,3.15.4,4.72c.19-.78.35-1.58.5-2.37.09-.51.1-1,.14-1.52s.08-1,.13-1.51.12-1,.18-1.5c0-.23.07-.46.1-.69a1.87,1.87,0,0,1,.12-.52L46,2.77a10.57,10.57,0,0,1-1.12-.88C44.51,1.61,44.16,1.36,43.81,1.11Z"/><path class="cls-5" d="M51.09,5.34l-.55-.22-.67-.38c-.44-.24-.87-.47-1.32-.69s-.86-.37-1.3-.55a7.16,7.16,0,0,1-1-.56.19.19,0,0,0,0,.07A11.36,11.36,0,0,0,46,4.45c0,.47-.13.93-.17,1.41a22.82,22.82,0,0,1-.29,2.72c-.17.91-.38,1.82-.51,2.74a22,22,0,0,0,1.91-1.83c.63-.65,1.26-1.29,1.88-1.95a19.63,19.63,0,0,1,1.89-1.87A2.92,2.92,0,0,0,51,5.46Z"/><path class="cls-5" d="M54,6.12c-.47-.09-.93-.21-1.4-.31a8.48,8.48,0,0,1-1.33-.39,2.07,2.07,0,0,1-.57.53c-.29.24-.58.48-.85.75q-.83.83-1.62,1.68c-.53.58-1.08,1.13-1.64,1.69s-1,.95-1.53,1.44c.7-.43,1.37-.9,2.07-1.33s1.54-1,2.32-1.43,1.52-.94,2.3-1.4S53.28,6.53,54,6.12Z"/><path class="cls-2" d="M43.55.91c-.09,0,0-.2.05-.23.5-.17,1-.29,1.53-.42A6.34,6.34,0,0,1,46.49,0a3.41,3.41,0,0,1,1.22.21c.24.07.46.16.69.22a1.38,1.38,0,0,1,.54.18A4.68,4.68,0,0,0,49.7,1l.58.28a9.77,9.77,0,0,1,1.23.67c.36.25.69.54,1,.81a4.22,4.22,0,0,1,.53.5.08.08,0,0,1,0,0c.1.13.21.27.3.41a4.92,4.92,0,0,1,.51,1.09,8.05,8.05,0,0,1,.44,1.28.17.17,0,0,1-.1.18.19.19,0,0,1-.07.08c-.81.41-1.59.88-2.38,1.32S50.26,8.49,49.51,9s-1.55,1-2.32,1.48-1.57,1-2.35,1.48a.07.07,0,0,1-.11-.05V11.7a.2.2,0,0,1,0-.11c-.11-1.75-.23-3.5-.42-5.25S43.84,2.71,43.55.91Z"/><path class="cls-4" d="M52.61,3.07A8.21,8.21,0,0,0,51,1.86c-.38-.2-.78-.39-1.17-.58A4.07,4.07,0,0,1,49.23,1a1.07,1.07,0,0,0-.38-.2c-.11,0-.22,0-.33-.05A8.88,8.88,0,0,1,47.38.39,1.68,1.68,0,0,0,47.06.3a4.9,4.9,0,0,0,1.08.84,4.44,4.44,0,0,1,.63.39,6.25,6.25,0,0,0,.85.45,3.62,3.62,0,0,0,.88.44c.28.07.54.17.81.23a5.9,5.9,0,0,1,.87.28A2.16,2.16,0,0,0,52.61,3.07Zm.38.4h-.06l-.5-.17c-.14,0-.28-.06-.43-.09A5.65,5.65,0,0,1,51.27,3l.06,1.15c0,.22,0,.45,0,.67a1.61,1.61,0,0,1,0,.31c.42.15.85.25,1.27.37s.91.2,1.37.29a7,7,0,0,0-1-2.26ZM46.66.26A3.28,3.28,0,0,0,46,.3c-.71.11-1.4.33-2.1.51.31.23.6.49.92.73l1.21.89.2.14a3.62,3.62,0,0,1,.81-.5,5.21,5.21,0,0,0,1-.63l-.21-.13a3.22,3.22,0,0,1-1.16-1ZM51,2.87c-.12-.05-.25-.08-.37-.14s-.27-.17-.42-.24-.58-.16-.86-.31a2.91,2.91,0,0,1-.42-.25c-.15-.09-.28-.14-.44-.22l-.29-.16a3.37,3.37,0,0,1-1,.71l-.49.27-.31.16a6.24,6.24,0,0,0,.84.47c.43.19.89.32,1.31.52s.87.5,1.3.74A11,11,0,0,0,51.14,5V5c0-.22,0-.44,0-.66,0-.47-.06-.94-.08-1.41ZM43.8,1.09c.28,1.69.5,3.4.69,5.11s.31,3.15.39,4.72c.2-.78.35-1.58.5-2.37A11.16,11.16,0,0,0,45.52,7c0-.5.09-1,.13-1.51s.12-1,.19-1.5c0-.23.06-.46.1-.69a1.58,1.58,0,0,1,.12-.52L46,2.75a10.67,10.67,0,0,1-1.12-.89C44.51,1.58,44.15,1.34,43.8,1.09Zm7.28,4.22a3.6,3.6,0,0,1-.54-.22c-.23-.11-.45-.25-.68-.37-.43-.24-.86-.48-1.31-.69s-.87-.37-1.3-.55a7.27,7.27,0,0,1-1-.56.64.64,0,0,0,0,.07A11.48,11.48,0,0,0,46,4.42c-.05.47-.12.94-.16,1.41a27.24,27.24,0,0,1-.29,2.72c-.17.92-.39,1.83-.52,2.75a25.49,25.49,0,0,0,1.92-1.83c.63-.65,1.26-1.29,1.87-2a22.25,22.25,0,0,1,1.9-1.86A2.88,2.88,0,0,0,51,5.43.53.53,0,0,0,51.08,5.31ZM54,6.1c-.47-.09-.93-.22-1.4-.31a7.82,7.82,0,0,1-1.33-.4,2.06,2.06,0,0,1-.56.54,10.26,10.26,0,0,0-.86.75c-.54.55-1.09,1.11-1.61,1.68s-1.09,1.13-1.65,1.69-1,.95-1.52,1.44c.69-.44,1.37-.9,2.06-1.33l2.32-1.44c.76-.46,1.53-.94,2.3-1.39S53.27,6.51,54,6.1ZM43.55.89c-.09,0,0-.2.05-.23.5-.18,1-.29,1.53-.43A7.73,7.73,0,0,1,46.49,0a4,4,0,0,1,1.22.21c.23.07.45.17.69.23a1.5,1.5,0,0,1,.54.18,4.23,4.23,0,0,0,.75.32l.58.28a9.77,9.77,0,0,1,1.23.67c.36.24.69.54,1,.81a3.68,3.68,0,0,1,.54.5.1.1,0,0,1,0,0c.11.13.21.27.31.41a5.56,5.56,0,0,1,.5,1.08A8.86,8.86,0,0,1,54.37,6a.21.21,0,0,1-.11.19.18.18,0,0,1-.07.08c-.81.41-1.59.88-2.38,1.32s-1.55.86-2.31,1.32-1.55,1-2.31,1.48-1.58,1-2.35,1.48a.08.08,0,0,1-.12-.06v-.15a.2.2,0,0,1,0-.11c-.11-1.75-.23-3.51-.42-5.25S43.84,2.69,43.55.89Z"/><path class="cls-6" d="M66.1,40.11a7.16,7.16,0,0,0,1.22-1.36c.22-.32.41-.66.62-1,.09-.15.18-.32.29-.47a.84.84,0,0,0,.22-.31c0-.1,0-.19.07-.29a7.1,7.1,0,0,1,.43-1,2.31,2.31,0,0,0,.1-.28,4.44,4.44,0,0,0-.84.89,4.07,4.07,0,0,1-.41.52,5.38,5.38,0,0,0-.46.71,3,3,0,0,0-.47.75c-.09.24-.2.46-.28.7a5.51,5.51,0,0,1-.33.75C66.2,39.87,66.15,40,66.1,40.11Z"/><path class="cls-6" d="M65.72,40.41v0c.06-.15.13-.29.2-.43s.07-.25.12-.38a3.52,3.52,0,0,1,.27-.63l-1,0-.6,0H64.4c-.16.35-.29.73-.43,1.09s-.26.79-.38,1.19a6.25,6.25,0,0,0,2.09-.67Z"/><path class="cls-6" d="M69.12,35.08a2.65,2.65,0,0,0,0-.56,17.55,17.55,0,0,0-.27-1.91c-.23.26-.48.49-.72.75s-.6.67-.9,1l-.14.16a3.62,3.62,0,0,1,.37.77,4.62,4.62,0,0,0,.47.91l.13-.18a3,3,0,0,1,1-.93Z"/><path class="cls-6" d="M66.42,38.71c0-.1.1-.21.16-.31s.17-.23.24-.36.21-.5.36-.74.17-.23.26-.35.15-.23.23-.36a2.2,2.2,0,0,1,.17-.25,3.51,3.51,0,0,1-.55-.91c-.06-.15-.12-.31-.19-.46s-.07-.19-.12-.29a6,6,0,0,0-.49.71c-.21.36-.36.75-.58,1.11s-.51.73-.77,1.09a8,8,0,0,0-.64,1h0l.59,0,1.26.05Z"/><path class="cls-6" d="M68.64,32.47c-1.53.1-3.06.15-4.6.16s-2.82,0-4.22-.06c.68.24,1.37.45,2.06.65a12,12,0,0,0,1.33.26c.45.07.89.16,1.33.25s.88.19,1.32.29l.6.15a1.83,1.83,0,0,1,.45.15l.06-.08a8.49,8.49,0,0,1,.89-.91C68.13,33.05,68.38,32.76,68.64,32.47Z"/><path class="cls-6" d="M64.25,38.56a3.33,3.33,0,0,1,.24-.46c.12-.2.26-.38.39-.57.25-.36.5-.73.73-1.11s.4-.73.6-1.1a7.15,7.15,0,0,1,.59-.85l-.06,0c-.4-.13-.84-.23-1.25-.32s-.83-.19-1.24-.27a24.1,24.1,0,0,1-2.39-.49c-.79-.23-1.58-.51-2.39-.7a19.89,19.89,0,0,0,1.46,1.86c.52.61,1,1.23,1.57,1.83A17.64,17.64,0,0,1,64,38.2c.06.08.11.18.17.26Z"/><path class="cls-6" d="M63.3,41.1c.12-.41.27-.81.39-1.22a7,7,0,0,1,.47-1.14,1.75,1.75,0,0,1-.42-.55c-.19-.28-.38-.56-.59-.82-.45-.53-.89-1.06-1.35-1.58s-.91-1.06-1.36-1.61-.75-1-1.14-1.48c.32.65.67,1.29,1,1.95l1.07,2.18c.34.72.7,1.44,1,2.16S63,40.4,63.3,41.1Z"/><path class="cls-2" d="M68.83,32.27c0-.09.18,0,.2.06a13.52,13.52,0,0,1,.25,1.39A6.36,6.36,0,0,1,69.36,35,3,3,0,0,1,69.07,36c-.08.2-.18.39-.26.6a1.37,1.37,0,0,1-.21.46,4.36,4.36,0,0,0-.35.64l-.3.49a8.11,8.11,0,0,1-.7,1c-.25.3-.54.57-.81.85a3.21,3.21,0,0,1-.49.42.05.05,0,0,1,0,0l-.39.24a5.16,5.16,0,0,1-1,.35,8.09,8.09,0,0,1-1.18.28.16.16,0,0,1-.15-.11.14.14,0,0,1-.07-.06c-.29-.76-.64-1.49-1-2.24s-.63-1.45-1-2.16-.74-1.46-1.11-2.18-.72-1.49-1.1-2.22a.06.06,0,0,1,.05-.09h.24c1.56.06,3.13.1,4.69.09S67.21,32.36,68.83,32.27Z"/><path class="cls-4" d="M66.12,40.1a7.16,7.16,0,0,0,1.22-1.36c.22-.32.41-.65.62-1a3.7,3.7,0,0,1,.29-.47.8.8,0,0,0,.22-.32,2.86,2.86,0,0,1,.07-.28,6.73,6.73,0,0,1,.43-1,2.15,2.15,0,0,0,.1-.27,4,4,0,0,0-.84.89,4.07,4.07,0,0,1-.41.52,4.79,4.79,0,0,0-.46.71,3,3,0,0,0-.47.75c-.09.23-.2.46-.28.7a4.91,4.91,0,0,1-.33.74C66.22,39.86,66.17,40,66.12,40.1Zm-.38.31v0c.06-.15.14-.28.2-.43s.07-.25.12-.37a4,4,0,0,1,.27-.64l-1,0-.6,0a1.37,1.37,0,0,1-.28,0c-.16.36-.29.73-.43,1.1s-.26.78-.38,1.18a6,6,0,0,0,2.09-.66Zm3.4-5.33a2.74,2.74,0,0,0,0-.57,17.37,17.37,0,0,0-.27-1.9c-.23.26-.48.49-.72.75s-.6.66-.9,1l-.14.16a3.55,3.55,0,0,1,.37.76,4.12,4.12,0,0,0,.47.91A1.09,1.09,0,0,0,68.1,36a3,3,0,0,1,1-.94Zm-2.7,3.63a3.18,3.18,0,0,1,.16-.32c.07-.12.17-.22.24-.35s.21-.5.36-.74.17-.24.26-.35.15-.24.23-.37l.17-.24a3.51,3.51,0,0,1-.55-.91c-.06-.16-.12-.31-.19-.47s-.07-.19-.12-.28a5.83,5.83,0,0,0-.49.7c-.21.37-.36.76-.58,1.12s-.51.72-.77,1.08a9.5,9.5,0,0,0-.64,1.05h.63l1.26.05Zm2.22-6.24c-1.53.1-3.06.14-4.6.16s-2.82,0-4.22-.07c.68.25,1.37.45,2.06.66a10,10,0,0,0,1.33.25c.45.07.89.17,1.33.25s.88.19,1.32.3q.3.06.6.15a1.41,1.41,0,0,1,.45.15l.06-.08a9.63,9.63,0,0,1,.89-.92C68.15,33.05,68.4,32.76,68.66,32.47Zm-4.39,6.08a5.06,5.06,0,0,1,.24-.46c.12-.19.26-.37.39-.56.25-.37.5-.73.73-1.11s.4-.74.6-1.11a8,8,0,0,1,.59-.84l-.06,0a9.17,9.17,0,0,0-1.25-.32l-1.24-.27c-.8-.15-1.6-.27-2.39-.5s-1.58-.5-2.39-.69A18.54,18.54,0,0,0,61,34.51c.52.62,1,1.23,1.57,1.84A17.52,17.52,0,0,1,64,38.19c.06.09.11.19.17.27A.41.41,0,0,0,64.27,38.55Zm-.95,2.55c.12-.41.27-.81.39-1.22a6.77,6.77,0,0,1,.47-1.15,1.71,1.71,0,0,1-.42-.54,10.08,10.08,0,0,0-.59-.82c-.45-.54-.89-1.07-1.35-1.59s-.91-1.06-1.36-1.6-.75-1-1.14-1.48c.32.65.67,1.29,1,1.94s.71,1.46,1.07,2.19.7,1.43,1,2.16S63,40.39,63.32,41.1Zm5.53-8.84c0-.08.18,0,.2.06a13.23,13.23,0,0,1,.25,1.4,6.26,6.26,0,0,1,.08,1.22A3.1,3.1,0,0,1,69.09,36c-.08.2-.18.39-.26.59a1.33,1.33,0,0,1-.21.47,3.8,3.8,0,0,0-.35.63l-.3.5a8.89,8.89,0,0,1-.7,1c-.25.3-.54.57-.81.84a4,4,0,0,1-.49.43.05.05,0,0,1,0,0,2.55,2.55,0,0,1-.39.24,5.2,5.2,0,0,1-1,.36,8.09,8.09,0,0,1-1.18.28.19.19,0,0,1-.15-.11.16.16,0,0,1-.07-.07c-.29-.75-.64-1.49-1-2.23s-.63-1.45-1-2.17-.74-1.45-1.11-2.18-.72-1.48-1.1-2.21a.06.06,0,0,1,0-.09h.24c1.56.06,3.13.11,4.69.1S67.23,32.36,68.85,32.26Z"/></g></g></svg>