<svg xmlns="http://www.w3.org/2000/svg" viewBox="0 0 64.58 64.27"><defs><style>.cls-1{fill:#7f2010;}.cls-10,.cls-2,.cls-3,.cls-5,.cls-6,.cls-7,.cls-8,.cls-9{fill:#ffdc2b;}.cls-10,.cls-2,.cls-5,.cls-6,.cls-7,.cls-8,.cls-9{stroke:#ffdc2b;stroke-linecap:round;stroke-linejoin:round;}.cls-2{stroke-width:0.14px;}.cls-4{fill:#95c122;}.cls-5{stroke-width:0.14px;}.cls-6{stroke-width:0.17px;}.cls-7{stroke-width:0.13px;}.cls-8{stroke-width:0.08px;}.cls-9{stroke-width:0.07px;}.cls-10{stroke-width:0.12px;}</style></defs><g id="Calque_2" data-name="Calque 2"><g id="Calque_1-2" data-name="Calque 1"><path class="cls-1" d="M64.29,24.85a8.48,8.48,0,0,0-.36-2.14c-.14-.44-.31-.87-.46-1.31a4.57,4.57,0,0,1-.22-.62,1,1,0,0,0-.14-.43l-.21-.28A9.25,9.25,0,0,1,62.3,19a1.49,1.49,0,0,0-.18-.3,5,5,0,0,0,.21,1.43,7.2,7.2,0,0,1,.19.77,5.65,5.65,0,0,0,.31,1,4.14,4.14,0,0,0,.34,1c.17.25.29.52.45.78a5.31,5.31,0,0,1,.45.85A4.13,4.13,0,0,0,64.29,24.85Z"/><path class="cls-1" d="M64.29,25.43l0,0c-.09-.16-.17-.33-.25-.5s-.18-.25-.26-.38a5.12,5.12,0,0,1-.39-.73l-.81.93-.47.52a1.84,1.84,0,0,1-.23.25c.21.42.46.82.7,1.22s.54.82.82,1.23a7.28,7.28,0,0,0,.93-2.44Z"/><path class="cls-1" d="M61.85,18.32a5.18,5.18,0,0,0-.51-.44c-.62-.44-1.31-.77-2-1.16.07.41.1.82.16,1.23s.17,1.05.27,1.58c0,.08,0,.17,0,.25a4.46,4.46,0,0,1,1,.22,4.91,4.91,0,0,0,1.19.23L62,20a3.27,3.27,0,0,1-.11-1.64Z"/><path class="cls-1" d="M63.23,23.52c-.06-.13-.13-.25-.18-.38s-.08-.33-.14-.49-.32-.56-.43-.88c0-.16-.09-.33-.14-.5a4.5,4.5,0,0,0-.16-.48c0-.11-.07-.23-.1-.34a4.16,4.16,0,0,1-1.26-.17l-.57-.16a3.1,3.1,0,0,0-.36-.1,6.78,6.78,0,0,0,.3,1c.18.47.43.9.61,1.37s.29,1,.44,1.52a11.23,11.23,0,0,0,.5,1.37l0,0,.45-.53c.32-.38.65-.76,1-1.13Z"/><path class="cls-1" d="M59.06,16.84c-1,1.5-2.12,3-3.25,4.39s-2.08,2.63-3.18,3.89c.72-.46,1.44-.95,2.13-1.44A13.73,13.73,0,0,0,56,22.63c.4-.36.82-.7,1.22-1.05s.83-.67,1.25-1l.58-.45a2.19,2.19,0,0,1,.48-.31l0-.11a10.81,10.81,0,0,1-.2-1.5C59.23,17.74,59.15,17.29,59.06,16.84Z"/><path class="cls-1" d="M61.48,25.43c-.09-.19-.18-.38-.25-.57s-.16-.52-.24-.78c-.15-.51-.31-1-.49-1.5s-.39-.92-.58-1.38A7.56,7.56,0,0,1,59.56,20l-.07,0a14,14,0,0,0-1.22.93c-.39.32-.79.63-1.17,1a26.47,26.47,0,0,1-2.23,1.86c-.8.57-1.64,1.1-2.41,1.71a26.15,26.15,0,0,0,2.8,0c1,0,1.91-.06,2.87-.11a20.27,20.27,0,0,1,2.81,0c.13,0,.25,0,.38,0Z"/><path class="cls-1" d="M63.14,28.19c-.29-.41-.55-.85-.84-1.27a8.42,8.42,0,0,1-.72-1.28,1.89,1.89,0,0,1-.82,0c-.4,0-.8-.07-1.2-.06-.83,0-1.65,0-2.47.09s-1.67.06-2.5.07-1.48,0-2.22,0c.84.18,1.7.33,2.55.51l2.82.62c.93.21,1.85.41,2.78.64S62.26,28,63.14,28.19Z"/><path class="cls-1" d="M59,16.5c-.06-.07.12-.17.2-.13.51.23,1,.52,1.48.8a7.63,7.63,0,0,1,1.21.83,3.7,3.7,0,0,1,.77,1.06c.12.22.23.46.36.68a1.38,1.38,0,0,1,.27.54,6,6,0,0,0,.34.8l.24.64a11.14,11.14,0,0,1,.44,1.42c.09.45.13.91.19,1.37a5.09,5.09,0,0,1,0,.78.06.06,0,0,1,0,.07,3.35,3.35,0,0,1-.07.53,5.16,5.16,0,0,1-.41,1.2,8.57,8.57,0,0,1-.61,1.3.19.19,0,0,1-.21.06.14.14,0,0,1-.11,0c-.92-.28-1.86-.5-2.79-.75s-1.82-.49-2.73-.7-1.9-.39-2.85-.58-1.92-.43-2.88-.62a.07.07,0,0,1,0-.12l.11-.12s0-.06.07-.09c1.21-1.41,2.41-2.83,3.56-4.3S57.91,18.09,59,16.5Z"/><path class="cls-1" d="M64.31,24.86A8.13,8.13,0,0,0,64,22.72c-.14-.44-.3-.87-.46-1.3a5.25,5.25,0,0,1-.22-.63,1,1,0,0,0-.13-.43c-.07-.09-.15-.18-.22-.28a10.9,10.9,0,0,1-.6-1.12,2.91,2.91,0,0,0-.17-.3,4.66,4.66,0,0,0,.2,1.43,7.2,7.2,0,0,1,.19.77,6.71,6.71,0,0,0,.31,1,3.76,3.76,0,0,0,.35,1c.16.25.28.52.44.78a6.3,6.3,0,0,1,.46.85A4.11,4.11,0,0,0,64.31,24.86Zm0,.58a.1.1,0,0,1,0,0c-.09-.16-.16-.33-.25-.49s-.18-.26-.26-.39a5,5,0,0,1-.39-.72l-.81.92c-.16.18-.32.35-.47.53a2.5,2.5,0,0,1-.22.24c.21.42.45.82.69,1.22s.54.82.82,1.23a7.28,7.28,0,0,0,.93-2.44Zm-2.45-7.11a4.23,4.23,0,0,0-.51-.44c-.62-.44-1.31-.77-2-1.16.07.41.1.82.16,1.23s.18,1.05.27,1.58c0,.08,0,.17,0,.25a4.46,4.46,0,0,1,1,.22,5.43,5.43,0,0,0,1.2.24A2.5,2.5,0,0,1,62,20a3.39,3.39,0,0,1-.11-1.64Zm1.38,5.2c-.06-.13-.13-.25-.18-.38s-.08-.33-.14-.49-.32-.56-.43-.88c0-.16-.09-.33-.13-.5s-.11-.31-.17-.48-.07-.23-.1-.34a4.06,4.06,0,0,1-1.25-.17l-.58-.16a3.57,3.57,0,0,0-.35-.1,6.74,6.74,0,0,0,.29,1c.19.47.44.9.61,1.37s.29,1,.44,1.52a12,12,0,0,0,.5,1.38l0-.05c.16-.17.3-.35.45-.53.32-.38.65-.76,1-1.13Zm-4.16-6.68c-1,1.5-2.13,3-3.25,4.39s-2.09,2.63-3.19,3.89c.73-.46,1.44-.95,2.13-1.44A15.47,15.47,0,0,0,56,22.64c.39-.36.81-.7,1.21-1.05s.83-.67,1.25-1l.59-.45a2.13,2.13,0,0,1,.47-.31l0-.11a15,15,0,0,1-.2-1.5C59.26,17.75,59.17,17.3,59.09,16.85Zm2.41,8.59c-.09-.19-.18-.38-.25-.57s-.15-.52-.23-.78c-.16-.51-.31-1-.5-1.5s-.38-.92-.58-1.38A8.83,8.83,0,0,1,59.58,20l-.06,0a11.25,11.25,0,0,0-1.23.92c-.39.32-.79.63-1.17,1-.73.63-1.43,1.29-2.22,1.85s-1.65,1.1-2.42,1.71a26.34,26.34,0,0,0,2.81,0c1,0,1.91-.06,2.86-.11a20.41,20.41,0,0,1,2.82,0c.12,0,.25,0,.37,0Zm1.66,2.76c-.29-.41-.55-.85-.84-1.27a8.42,8.42,0,0,1-.72-1.28,1.89,1.89,0,0,1-.82,0c-.4,0-.8-.06-1.2-.06-.82,0-1.65,0-2.47.09s-1.66.06-2.5.07-1.48,0-2.22,0c.84.18,1.7.33,2.55.51l2.82.62c.93.21,1.86.41,2.78.64S62.29,28,63.16,28.2ZM59,16.52c-.06-.08.12-.18.2-.14a15,15,0,0,1,1.48.8,7.63,7.63,0,0,1,1.21.83,3.7,3.7,0,0,1,.77,1.06c.12.22.23.46.36.68a1.38,1.38,0,0,1,.27.54,5.48,5.48,0,0,0,.34.8l.24.64a9.74,9.74,0,0,1,.44,1.42c.09.45.13.91.19,1.37a5.09,5.09,0,0,1,0,.78.08.08,0,0,1,0,.07c0,.17,0,.35-.07.54a5.82,5.82,0,0,1-.42,1.19,8.52,8.52,0,0,1-.6,1.3.23.23,0,0,1-.22.07.14.14,0,0,1-.11,0c-.92-.28-1.86-.5-2.79-.75s-1.81-.49-2.73-.7-1.9-.39-2.85-.58-1.91-.43-2.88-.61a.08.08,0,0,1,0-.13l.11-.12a.18.18,0,0,1,.07-.09c1.21-1.41,2.41-2.83,3.56-4.3S57.93,18.1,59,16.52Z"/><path class="cls-1" d="M14.71,59.58a8.36,8.36,0,0,0,1.35,1.61c.33.3.68.58,1,.86.16.14.34.27.49.42s.16.22.32.29l.32.13a10.22,10.22,0,0,1,1.05.65l.29.17a4.4,4.4,0,0,0-.87-1.1,7,7,0,0,1-.53-.56,6.31,6.31,0,0,0-.73-.64,3.74,3.74,0,0,0-.77-.67c-.26-.13-.5-.29-.76-.43a5.79,5.79,0,0,1-.79-.49A4.11,4.11,0,0,0,14.71,59.58Z"/><path class="cls-1" d="M14.43,59.09h.05c.16.09.3.2.46.29s.27.13.4.2A5.11,5.11,0,0,1,16,60c.07-.39.15-.77.23-1.16,0-.23.09-.45.14-.67a3,3,0,0,1,.06-.32c-.38-.25-.78-.46-1.17-.68s-.86-.42-1.29-.62A7.15,7.15,0,0,0,14.4,59Z"/><path class="cls-1" d="M19.94,63.85a3.57,3.57,0,0,0,.64.11c.74.07,1.48,0,2.22,0-.26-.31-.48-.63-.74-.95s-.66-.79-1-1.19l-.16-.18a4.15,4.15,0,0,1-.93.29,4.8,4.8,0,0,0-1.12.39l.18.18a3.35,3.35,0,0,1,.9,1.32Z"/><path class="cls-1" d="M16.25,60.17a3.88,3.88,0,0,1,.33.23c.13.11.23.24.36.34s.54.31.79.53.24.23.36.35.24.21.37.32l.26.24a3.46,3.46,0,0,1,1.12-.47l.56-.15c.11,0,.24-.05.35-.09A5.86,5.86,0,0,0,20,60.8c-.38-.3-.79-.54-1.17-.85s-.74-.7-1.11-1.05A9.56,9.56,0,0,0,16.65,58v0c0,.22-.07.44-.11.66l-.27,1.43S16.25,60.16,16.25,60.17Z"/><path class="cls-1" d="M23,63.73c.13-1.77.33-3.52.57-5.27s.46-3.21.77-4.8c-.39.73-.74,1.49-1.08,2.24a12.93,12.93,0,0,0-.51,1.48c-.16.49-.34,1-.51,1.47s-.36,1-.55,1.45l-.27.66a1.74,1.74,0,0,1-.25.49l.08.09a11.11,11.11,0,0,1,.9,1.15C22.42,63.06,22.71,63.39,23,63.73Z"/><path class="cls-1" d="M16.78,57.72a4.34,4.34,0,0,1,.49.35c.2.17.38.36.58.54.37.35.75.69,1.14,1s.77.58,1.16.87a7.39,7.39,0,0,1,.87.81.21.21,0,0,0,0-.06,13.88,13.88,0,0,0,.58-1.38c.16-.46.35-.9.51-1.36a26.73,26.73,0,0,1,1-2.64c.4-.87.84-1.73,1.19-2.61a23.8,23.8,0,0,0-2.35,1.35c-.79.49-1.58,1-2.35,1.49a21.25,21.25,0,0,1-2.35,1.38c-.11.06-.23.09-.33.15Z"/><path class="cls-1" d="M14,56.21c.45.21.88.45,1.33.66a8.31,8.31,0,0,1,1.22.72,1.86,1.86,0,0,1,.7-.39c.35-.17.7-.34,1-.54.68-.42,1.36-.84,2-1.28s1.36-.86,2-1.28,1.26-.69,1.88-1.06c-.8.27-1.59.56-2.39.82l-2.66.86c-.88.28-1.75.56-2.64.82S14.89,56,14,56.21Z"/><path class="cls-1" d="M23.2,64c.09,0,0,.21-.11.22-.54,0-1.08,0-1.63,0a7.38,7.38,0,0,1-1.41-.11,3.43,3.43,0,0,1-1.16-.51c-.22-.12-.42-.27-.64-.39a1.6,1.6,0,0,1-.49-.32,4.87,4.87,0,0,0-.67-.5L16.58,62a10.89,10.89,0,0,1-1.06-1c-.3-.34-.56-.71-.83-1.06a4.93,4.93,0,0,1-.41-.64.06.06,0,0,1,0-.06c-.07-.15-.14-.31-.2-.48a5.55,5.55,0,0,1-.24-1.2,9.33,9.33,0,0,1-.13-1.39.24.24,0,0,1,.15-.16l.09-.06c.91-.21,1.8-.49,2.7-.73s1.76-.47,2.63-.75,1.78-.59,2.67-.9,1.81-.57,2.71-.89a.07.07,0,0,1,.09.08l0,.16a.1.1,0,0,1,0,.1c-.32,1.78-.63,3.55-.88,5.34S23.35,62.12,23.2,64Z"/><path class="cls-1" d="M14.71,59.6a8.36,8.36,0,0,0,1.35,1.61c.33.3.68.58,1,.87a4.83,4.83,0,0,1,.49.41c.11.13.16.23.32.3l.32.13a8.73,8.73,0,0,1,1.05.65,2.69,2.69,0,0,0,.29.16,4.4,4.4,0,0,0-.87-1.1,6.88,6.88,0,0,1-.53-.55,6.51,6.51,0,0,0-.73-.65,3.74,3.74,0,0,0-.77-.66c-.26-.14-.5-.3-.75-.43a6,6,0,0,1-.8-.5A4.11,4.11,0,0,0,14.71,59.6Zm-.28-.49.05,0c.16.08.3.19.46.29l.41.19A4.69,4.69,0,0,1,16,60c.08-.39.15-.78.23-1.17,0-.22.09-.45.14-.67s0-.21.06-.31c-.38-.25-.78-.46-1.17-.69s-.86-.42-1.29-.62a7.11,7.11,0,0,0,.41,2.49Zm5.51,4.76a3.78,3.78,0,0,0,.64.12c.74.06,1.48,0,2.22,0-.26-.31-.48-.64-.73-1s-.66-.79-1-1.18a1.46,1.46,0,0,0-.16-.19A4.58,4.58,0,0,1,20,62a5.48,5.48,0,0,0-1.12.38l.18.18a3.49,3.49,0,0,1,.9,1.32Zm-3.69-3.68.34.23a3.89,3.89,0,0,0,.36.34c.25.2.54.32.78.53s.24.23.36.35a3.8,3.8,0,0,0,.37.33l.26.23a3.76,3.76,0,0,1,1.13-.47l.56-.15c.1,0,.23,0,.34-.09a6.56,6.56,0,0,0-.72-.67c-.38-.3-.8-.54-1.18-.84s-.74-.71-1.11-1.06A9.56,9.56,0,0,0,16.65,58v.05c0,.22-.07.45-.11.67-.08.47-.17,1-.27,1.43C16.26,60.17,16.25,60.18,16.25,60.19ZM23,63.75c.13-1.76.34-3.51.57-5.26s.47-3.22.78-4.81c-.39.74-.75,1.5-1.09,2.25a12.77,12.77,0,0,0-.51,1.47c-.16.5-.34,1-.51,1.48s-.36,1-.55,1.44c-.09.23-.17.45-.27.67a1.89,1.89,0,0,1-.25.49l.08.08a11.23,11.23,0,0,1,.9,1.16C22.42,63.08,22.71,63.41,23,63.75Zm-6.22-6a4.41,4.41,0,0,1,.49.36c.2.17.39.36.58.53.38.35.75.69,1.14,1s.77.58,1.16.87a7.3,7.3,0,0,1,.87.8l0-.06a11.17,11.17,0,0,0,.58-1.38c.16-.45.35-.9.51-1.36a25.26,25.26,0,0,1,1-2.64c.39-.87.83-1.72,1.19-2.61a22.93,22.93,0,0,0-2.36,1.36c-.79.49-1.58,1-2.35,1.48a21.33,21.33,0,0,1-2.35,1.39,3.31,3.31,0,0,0-.33.15Zm-2.73-1.5c.44.2.87.44,1.32.65a7.82,7.82,0,0,1,1.22.72,2.1,2.1,0,0,1,.7-.39c.35-.17.7-.34,1-.54.68-.41,1.36-.83,2-1.27s1.36-.87,2-1.28,1.26-.7,1.88-1.06c-.8.26-1.59.55-2.38.81l-2.67.86-2.64.83C15.75,55.82,14.9,56,14.05,56.24ZM23.2,64c.09,0,0,.2-.1.21a14.87,14.87,0,0,1-1.63,0,7.54,7.54,0,0,1-1.42-.1,3.87,3.87,0,0,1-1.16-.51c-.21-.13-.42-.28-.63-.4a1.51,1.51,0,0,1-.5-.31,4.37,4.37,0,0,0-.67-.51L16.58,62a9.75,9.75,0,0,1-1.06-1c-.3-.33-.56-.7-.83-1.06a3.52,3.52,0,0,1-.4-.63.06.06,0,0,1,0-.06,4.25,4.25,0,0,1-.21-.49,5.43,5.43,0,0,1-.24-1.2,8.16,8.16,0,0,1-.12-1.39.18.18,0,0,1,.15-.15s.05-.06.08-.06c.91-.22,1.8-.49,2.7-.73s1.76-.48,2.63-.75,1.78-.6,2.67-.9,1.81-.58,2.71-.9a.07.07,0,0,1,.09.08l0,.16a.26.26,0,0,1,0,.11c-.33,1.77-.64,3.55-.89,5.34S23.36,62.14,23.2,64Z"/><path class="cls-1" d="M3.37,19.13A9.64,9.64,0,0,0,2.3,21.46C2.13,22,2,22.51,1.87,23a4.61,4.61,0,0,1-.21.75,1.31,1.31,0,0,0-.15.52c0,.14,0,.27,0,.41a9.56,9.56,0,0,1-.17,1.51,1.85,1.85,0,0,0,0,.41A6.31,6.31,0,0,0,2.1,25.1a6.63,6.63,0,0,1,.33-.88,7.44,7.44,0,0,0,.33-1.14,4.38,4.38,0,0,0,.33-1.2c0-.36.07-.71.08-1.06a7.25,7.25,0,0,1,.14-1.14A5.43,5.43,0,0,0,3.37,19.13Z"/><path class="cls-1" d="M3.76,18.56a.07.07,0,0,1,0,.06c0,.22,0,.44-.08.66a5,5,0,0,0,0,.55,6.26,6.26,0,0,1-.11,1L5,20.44l.81-.2.39-.09c.07-.55.1-1.1.14-1.66s0-1.16,0-1.75A8.61,8.61,0,0,0,3.8,18.5Z"/><path class="cls-1" d="M1.38,27.14a4.85,4.85,0,0,0,.21.77c.31.85.76,1.64,1.15,2.45.21-.44.45-.86.67-1.31s.53-1.14.79-1.71l.12-.28a5.6,5.6,0,0,1-.81-.88,6.15,6.15,0,0,0-1-1c0,.1-.07.2-.11.29a4.13,4.13,0,0,1-1,1.69Z"/><path class="cls-1" d="M3.52,21.13c0,.17,0,.33-.08.5s-.14.37-.19.57c-.08.38-.06.76-.17,1.14a5.66,5.66,0,0,1-.2.58,5.69,5.69,0,0,0-.16.59c0,.14-.08.27-.13.4a4.8,4.8,0,0,1,1.11,1l.45.55.28.33a8.58,8.58,0,0,0,.37-1.15c.13-.58.18-1.17.32-1.74s.39-1.19.58-1.78a11.84,11.84,0,0,0,.44-1.68l-.06,0-.79.22-1.72.45Z"/><path class="cls-1" d="M3.11,30.45c2-.77,4.06-1.46,6.12-2.11,1.89-.6,3.8-1.17,5.72-1.66-1-.05-2,0-3,0a15.12,15.12,0,0,0-1.9.21c-.63.09-1.26.14-1.89.21s-1.26.1-1.89.15l-.88.05a2.51,2.51,0,0,1-.67,0l0,.13A12,12,0,0,1,3.81,29C3.55,29.46,3.34,30,3.11,30.45Z"/><path class="cls-1" d="M6.51,20.44a5.88,5.88,0,0,1-.14.73c-.08.31-.2.61-.29.92-.19.6-.37,1.18-.53,1.79S5.32,25,5.2,25.62A8.79,8.79,0,0,1,4.77,27h.08a14,14,0,0,0,1.83-.08c.59-.06,1.18-.08,1.77-.15a32.94,32.94,0,0,1,3.42-.32c1.16,0,2.34,0,3.51-.05a30.38,30.38,0,0,0-2.74-1.9c-1-.61-1.9-1.23-2.86-1.82A23.46,23.46,0,0,1,7,20.82c-.12-.09-.22-.2-.34-.28A.62.62,0,0,0,6.51,20.44Z"/><path class="cls-1" d="M6.74,16.63c0,.6,0,1.2,0,1.8a10,10,0,0,1-.16,1.73,2.66,2.66,0,0,1,.8.57,13.45,13.45,0,0,0,1.13.86c.82.54,1.64,1.07,2.47,1.57s1.67,1.06,2.49,1.61,1.43,1,2.15,1.52c-.7-.75-1.44-1.47-2.15-2.21l-2.34-2.5c-.76-.82-1.53-1.64-2.29-2.48S7.43,17.45,6.74,16.63Z"/><path class="cls-1" d="M2.94,30.81c0,.12-.24.09-.3,0C2.3,30.24,2,29.63,1.74,29a9.27,9.27,0,0,1-.63-1.61,4.54,4.54,0,0,1,0-1.56c0-.3.09-.6.1-.9a1.85,1.85,0,0,1,.1-.71,6.23,6.23,0,0,0,.2-1c.07-.26.13-.52.2-.79a12.4,12.4,0,0,1,.52-1.67c.21-.51.49-1,.74-1.47a4.46,4.46,0,0,1,.49-.78.08.08,0,0,1,.05-.07q.19-.24.42-.48a7,7,0,0,1,1.21-.89,9.41,9.41,0,0,1,1.47-.86.25.25,0,0,1,.25.08.2.2,0,0,1,.11.06c.71.9,1.48,1.74,2.22,2.61s1.45,1.7,2.2,2.51,1.59,1.66,2.39,2.48,1.59,1.7,2.4,2.53c.05.05,0,.13,0,.14l-.19.06a.23.23,0,0,1-.13,0c-2.13.57-4.26,1.15-6.36,1.82S5.08,30,2.94,30.81Z"/><path class="cls-1" d="M3.35,19.14a9.74,9.74,0,0,0-1.08,2.34c-.16.52-.29,1.05-.42,1.58-.07.25-.12.51-.21.75a1,1,0,0,0-.15.51c0,.14,0,.28,0,.42a12.75,12.75,0,0,1-.17,1.5,2.73,2.73,0,0,0,0,.41,5.67,5.67,0,0,0,.76-1.54,8.26,8.26,0,0,1,.34-.87,9.4,9.4,0,0,0,.33-1.15,5,5,0,0,0,.33-1.2c0-.36.07-.7.08-1.06a7.37,7.37,0,0,1,.13-1.14A5.17,5.17,0,0,0,3.35,19.14Zm.38-.57a.14.14,0,0,1,0,.07c0,.22-.06.43-.08.65s0,.37,0,.56a6.25,6.25,0,0,1-.1,1L5,20.45l.81-.2c.12,0,.25-.07.38-.09.08-.55.1-1.1.14-1.65s0-1.17,0-1.75a8.6,8.6,0,0,0-2.55,1.76ZM1.36,27.15a3.79,3.79,0,0,0,.21.77c.31.85.76,1.64,1.14,2.46.21-.45.46-.87.67-1.31s.53-1.15.8-1.72l.12-.28a5.17,5.17,0,0,1-.82-.87,5.8,5.8,0,0,0-1-1c0,.09-.07.19-.1.29a4.05,4.05,0,0,1-1,1.68Zm2.13-6a2.78,2.78,0,0,1-.08.49c-.05.2-.14.38-.18.58-.09.38-.07.76-.17,1.14-.06.19-.13.39-.2.58a4.23,4.23,0,0,0-.17.58,3.24,3.24,0,0,1-.13.41,4.24,4.24,0,0,1,1.11,1l.46.54c.09.1.18.23.28.34a7.44,7.44,0,0,0,.36-1.16c.13-.57.18-1.16.32-1.74s.4-1.18.59-1.78a13.67,13.67,0,0,0,.44-1.67H6.05l-.79.22c-.57.16-1.14.31-1.72.45Zm-.4,9.32c2-.77,4.06-1.47,6.12-2.12,1.89-.6,3.79-1.17,5.71-1.66-1,0-2,0-3.05,0a15,15,0,0,0-1.89.21c-.63.08-1.27.14-1.9.21s-1.26.1-1.89.14l-.87.05a1.88,1.88,0,0,1-.67,0l-.05.13A15,15,0,0,1,3.79,29C3.53,29.48,3.31,30,3.09,30.47Zm3.39-10c0,.24-.07.49-.13.72s-.2.62-.3.92c-.18.6-.37,1.19-.52,1.8s-.24,1.15-.36,1.73A8.9,8.9,0,0,1,4.74,27h.09a13.78,13.78,0,0,0,1.82-.09c.59-.05,1.19-.08,1.78-.15,1.14-.13,2.26-.3,3.41-.32s2.35,0,3.51,0a25.6,25.6,0,0,0-2.73-1.9c-.95-.62-1.9-1.23-2.87-1.82A27.28,27.28,0,0,1,7,20.84a3.07,3.07,0,0,0-.34-.29A.7.7,0,0,0,6.48,20.46Zm.24-3.82c0,.61,0,1.21,0,1.81a11.13,11.13,0,0,1-.16,1.73,2.42,2.42,0,0,1,.79.56,11.73,11.73,0,0,0,1.14.86c.81.54,1.63,1.07,2.47,1.58s1.66,1.05,2.48,1.6,1.43,1,2.16,1.52c-.71-.74-1.45-1.46-2.15-2.21s-1.57-1.66-2.34-2.5S9.54,20,8.79,19.11,7.41,17.47,6.72,16.64ZM2.91,30.83c0,.11-.24.08-.29,0a19.7,19.7,0,0,1-.91-1.77,9.33,9.33,0,0,1-.62-1.62,4.48,4.48,0,0,1,0-1.55c0-.31.08-.6.1-.91a1.7,1.7,0,0,1,.09-.71,5.38,5.38,0,0,0,.21-1c.06-.27.13-.53.19-.79a12.14,12.14,0,0,1,.53-1.68c.2-.5.48-1,.73-1.47a5.14,5.14,0,0,1,.49-.78s0-.05,0-.06A3.89,3.89,0,0,1,3.87,18a7,7,0,0,1,1.2-.9,12,12,0,0,1,1.47-.86.26.26,0,0,1,.25.08.19.19,0,0,1,.12.07c.7.89,1.48,1.73,2.21,2.6s1.45,1.7,2.21,2.52,1.59,1.65,2.39,2.48,1.58,1.7,2.4,2.52a.09.09,0,0,1,0,.15l-.19.05a.23.23,0,0,1-.13,0c-2.13.57-4.26,1.15-6.36,1.82S5.06,30,2.91,30.83Z"/><path class="cls-1" d="M48.45,4.2A7.8,7.8,0,0,0,46.79,3c-.38-.21-.78-.4-1.17-.59a3.17,3.17,0,0,1-.55-.28,1.07,1.07,0,0,0-.38-.2,1.88,1.88,0,0,1-.33-.05,8.88,8.88,0,0,1-1.14-.36,1.68,1.68,0,0,0-.32-.09A4.9,4.9,0,0,0,44,2.27a3.73,3.73,0,0,1,.63.4,7.56,7.56,0,0,0,.85.44,3.62,3.62,0,0,0,.88.44c.28.07.54.17.81.23a4.94,4.94,0,0,1,.87.29A3.06,3.06,0,0,0,48.45,4.2Z"/><path class="cls-1" d="M48.83,4.6h0c-.18,0-.34-.12-.51-.17s-.28-.06-.43-.09a5.65,5.65,0,0,1-.73-.23l.06,1.15c0,.22,0,.45,0,.67a1.61,1.61,0,0,1,0,.31c.42.15.85.25,1.27.37s.91.2,1.37.29a7,7,0,0,0-1-2.26Z"/><path class="cls-1" d="M42.5,1.39a3.28,3.28,0,0,0-.63,0c-.71.11-1.4.33-2.1.51.31.23.6.49.92.73l1.21.89.2.14a3.62,3.62,0,0,1,.81-.5,5.21,5.21,0,0,0,1-.63l-.21-.13a3.22,3.22,0,0,1-1.16-1Z"/><path class="cls-1" d="M46.85,4a2.79,2.79,0,0,1-.37-.14c-.14-.07-.27-.17-.42-.23s-.58-.17-.86-.32a2.91,2.91,0,0,1-.42-.25c-.15-.09-.28-.14-.44-.22l-.29-.16a3.37,3.37,0,0,1-1,.71l-.49.27-.31.16a6.24,6.24,0,0,0,.84.47c.43.19.89.32,1.31.53s.87.49,1.3.73A11,11,0,0,0,47,6.16v0c0-.22,0-.44,0-.66,0-.47-.06-.94-.08-1.41Z"/><path class="cls-1" d="M39.64,2.22c.28,1.69.5,3.4.69,5.11s.31,3.15.39,4.72c.2-.78.35-1.58.5-2.37a11.16,11.16,0,0,0,.14-1.52c0-.5.09-1,.13-1.51s.12-1,.19-1.5c0-.23.06-.46.1-.69a1.58,1.58,0,0,1,.12-.52l-.1-.06A10.67,10.67,0,0,1,40.68,3C40.35,2.71,40,2.47,39.64,2.22Z"/><path class="cls-1" d="M46.92,6.44a3.6,3.6,0,0,1-.54-.22c-.23-.11-.45-.25-.68-.37-.43-.24-.86-.48-1.31-.69s-.87-.37-1.3-.55a7.27,7.27,0,0,1-1-.56.64.64,0,0,0,0,.07,11.48,11.48,0,0,0-.22,1.43c0,.47-.12.94-.16,1.41a27.24,27.24,0,0,1-.29,2.72c-.17.92-.39,1.83-.52,2.75a23.63,23.63,0,0,0,1.92-1.83c.63-.65,1.26-1.29,1.87-2a22.25,22.25,0,0,1,1.9-1.86,2.88,2.88,0,0,0,.27-.22A.53.53,0,0,0,46.92,6.44Z"/><path class="cls-1" d="M49.86,7.23c-.47-.09-.93-.22-1.4-.31a8.81,8.81,0,0,1-1.33-.39,2.18,2.18,0,0,1-.56.53,10.26,10.26,0,0,0-.86.75c-.54.55-1.09,1.11-1.61,1.68S43,10.62,42.45,11.18s-1,1-1.52,1.44c.69-.44,1.37-.9,2.06-1.33l2.32-1.44c.76-.46,1.53-.94,2.3-1.39S49.11,7.64,49.86,7.23Z"/><path class="cls-1" d="M39.39,2c-.09,0,0-.2,0-.23A15.69,15.69,0,0,1,41,1.37a6.92,6.92,0,0,1,1.36-.24,4,4,0,0,1,1.22.21c.23.07.45.17.69.23a1.5,1.5,0,0,1,.54.18,4.23,4.23,0,0,0,.75.32l.58.28A9.77,9.77,0,0,1,47.34,3c.36.24.69.54,1,.81a3.68,3.68,0,0,1,.54.5.1.1,0,0,1,0,0c.11.13.21.27.31.41a5.56,5.56,0,0,1,.5,1.08,8.57,8.57,0,0,1,.45,1.29.21.21,0,0,1-.11.18.18.18,0,0,1-.07.08c-.81.41-1.59.88-2.38,1.32s-1.55.86-2.31,1.32S43.79,11,43,11.54s-1.58,1-2.35,1.48a.08.08,0,0,1-.12-.06v-.15a.2.2,0,0,1,0-.11c-.11-1.75-.23-3.51-.42-5.25S39.68,3.82,39.39,2Z"/><path class="cls-1" d="M48.44,4.18A8.21,8.21,0,0,0,46.78,3c-.38-.21-.77-.39-1.17-.58a5.68,5.68,0,0,1-.55-.28.87.87,0,0,0-.38-.2c-.1,0-.22,0-.32,0a7.7,7.7,0,0,1-1.15-.37l-.32-.08A4.43,4.43,0,0,0,44,2.24c.21.13.43.25.63.4a5.16,5.16,0,0,0,.84.44,3.66,3.66,0,0,0,.88.45c.28.06.54.16.82.23A6.78,6.78,0,0,1,48,4,3.45,3.45,0,0,0,48.44,4.18Zm.38.39h0l-.5-.17a3.29,3.29,0,0,0-.43-.09,4.57,4.57,0,0,1-.74-.24l.06,1.16c0,.22,0,.44,0,.67s0,.21,0,.31c.41.14.84.25,1.27.37s.9.2,1.36.29a7.09,7.09,0,0,0-1-2.27Zm-6.33-3.2a3.28,3.28,0,0,0-.63,0c-.71.11-1.4.33-2.1.51.32.23.6.49.92.72s.81.6,1.22.9l.19.13a5,5,0,0,1,.82-.5,4.91,4.91,0,0,0,1-.62l-.21-.13a3.22,3.22,0,0,1-1.16-1ZM46.85,4c-.13,0-.26-.08-.38-.14s-.27-.17-.42-.24-.58-.17-.86-.31A4.64,4.64,0,0,1,44.77,3a4.37,4.37,0,0,0-.43-.22L44,2.66a3.93,3.93,0,0,1-.95.71l-.5.27-.31.16a6.36,6.36,0,0,0,.85.47c.43.19.88.32,1.31.52s.86.5,1.29.74A11.87,11.87,0,0,0,47,6.14v0c0-.22,0-.44,0-.66,0-.47-.05-.94-.08-1.41A.06.06,0,0,1,46.85,4ZM39.63,2.19c.28,1.7.5,3.41.69,5.12s.31,3.14.39,4.72c.2-.78.36-1.59.5-2.37a11.16,11.16,0,0,0,.14-1.52c0-.51.09-1,.14-1.51s.11-1,.18-1.5c0-.23.06-.46.1-.69a1.79,1.79,0,0,1,.12-.52l-.1-.06A11.81,11.81,0,0,1,40.67,3C40.34,2.69,40,2.45,39.63,2.19Zm7.28,4.23a4.08,4.08,0,0,1-.54-.22c-.23-.11-.45-.25-.67-.37-.44-.24-.87-.48-1.32-.69s-.87-.37-1.3-.55a7.64,7.64,0,0,1-1-.56l0,.07a11.48,11.48,0,0,0-.22,1.43c0,.47-.12.94-.16,1.41a27.24,27.24,0,0,1-.29,2.72c-.17.91-.39,1.83-.51,2.75a23.71,23.71,0,0,0,1.91-1.84c.63-.64,1.26-1.29,1.87-2a19.62,19.62,0,0,1,1.9-1.86,2.88,2.88,0,0,0,.27-.22A.35.35,0,0,0,46.91,6.42Zm3,.79c-.47-.09-.94-.22-1.41-.31a8.1,8.1,0,0,1-1.33-.4,1.92,1.92,0,0,1-.56.54,7.48,7.48,0,0,0-.85.75c-.55.55-1.09,1.1-1.62,1.68S43,10.6,42.45,11.16s-1,.95-1.53,1.44c.69-.44,1.37-.9,2.06-1.33L45.3,9.83c.77-.47,1.53-.94,2.3-1.39S49.1,7.62,49.86,7.21ZM39.38,2c-.09,0,0-.2,0-.23.5-.18,1-.3,1.53-.43a7.73,7.73,0,0,1,1.36-.23,3.64,3.64,0,0,1,1.22.21l.69.23a1.5,1.5,0,0,1,.54.18,4.57,4.57,0,0,0,.75.32l.59.28A9,9,0,0,1,47.33,3a11.6,11.6,0,0,1,1,.81,4.18,4.18,0,0,1,.53.5.07.07,0,0,1,0,.05c.11.13.21.27.31.41a6.26,6.26,0,0,1,.51,1.08,9.67,9.67,0,0,1,.44,1.28.23.23,0,0,1-.11.19A.16.16,0,0,1,50,7.4c-.81.41-1.59.88-2.39,1.31s-1.55.87-2.31,1.33S43.79,11,43,11.52s-1.58,1-2.35,1.47c-.05,0-.11,0-.11-.05v-.16a.15.15,0,0,1,0-.1c-.11-1.75-.23-3.51-.41-5.25S39.67,3.8,39.38,2Z"/><path class="cls-1" d="M26.48,4.53a5,5,0,0,0-1.22.18L24.51,5a2,2,0,0,1-.35.11.57.57,0,0,0-.25.08l-.16.12a6.42,6.42,0,0,1-.64.33.91.91,0,0,0-.17.09,2.5,2.5,0,0,0,.81-.1,3.48,3.48,0,0,1,.44-.1,3.5,3.5,0,0,0,.55-.17,2.18,2.18,0,0,0,.56-.19c.15-.09.3-.16.45-.24a2.87,2.87,0,0,1,.49-.26Z"/><path class="cls-1" d="M26.81,4.53s0,0,0,0-.19.09-.29.14l-.22.15a3.17,3.17,0,0,1-.41.21l.51.47.3.27.14.13c.24-.11.46-.25.69-.38s.47-.3.71-.46a4.2,4.2,0,0,0-1.38-.55Z"/><path class="cls-1" d="M22.75,5.86a1.62,1.62,0,0,0-.25.28,12.69,12.69,0,0,0-.68,1.11c.23,0,.46,0,.7-.08l.9-.14.14,0a2.54,2.54,0,0,1,.13-.56,2.6,2.6,0,0,0,.15-.67l-.15,0a2,2,0,0,1-.93.05Z"/><path class="cls-1" d="M25.71,5.12l-.21.1-.28.07c-.18.07-.32.18-.51.24l-.28.07-.28.09L24,5.75a2.19,2.19,0,0,1-.11.71l-.09.32a1.17,1.17,0,0,0-.06.2,3.8,3.8,0,0,0,.55-.16c.27-.1.52-.24.78-.33s.58-.16.87-.24A6.14,6.14,0,0,0,26.69,6l0,0-.29-.26c-.22-.18-.43-.37-.64-.57Z"/><path class="cls-1" d="M21.88,7.43c.85.6,1.66,1.23,2.47,1.88s1.47,1.21,2.18,1.84c-.25-.41-.53-.82-.8-1.22a6.53,6.53,0,0,0-.58-.7c-.21-.23-.4-.47-.59-.7s-.38-.48-.56-.72-.17-.22-.25-.34a1,1,0,0,1-.17-.27h-.07a6.18,6.18,0,0,1-.85.11A7,7,0,0,0,21.88,7.43Z"/><path class="cls-1" d="M26.78,6.13l-.32.14L26,6.39c-.29.09-.57.17-.85.27s-.53.21-.79.32a4.72,4.72,0,0,1-.67.19s0,0,0,0a8.58,8.58,0,0,0,.52.71c.17.22.34.45.53.67a16,16,0,0,1,1,1.28c.32.46.61.94.95,1.38a14,14,0,0,0,0-1.59c0-.54,0-1.09,0-1.63a12.21,12.21,0,0,1,0-1.6c0-.07,0-.14,0-.21A.22.22,0,0,0,26.78,6.13Z"/><path class="cls-1" d="M28.37,5.21l-.73.47a5.12,5.12,0,0,1-.73.39,1.24,1.24,0,0,1,0,.47c0,.23,0,.45,0,.68,0,.47,0,.94,0,1.4s0,1,0,1.42,0,.85,0,1.27c.11-.48.2-1,.31-1.45s.25-1.06.38-1.6.25-1,.38-1.57S28.22,5.7,28.37,5.21Z"/><path class="cls-1" d="M21.69,7.45s-.1-.07-.07-.12a7.64,7.64,0,0,1,.47-.83,4,4,0,0,1,.48-.68,2.35,2.35,0,0,1,.6-.43c.13-.07.27-.12.39-.2A1,1,0,0,1,23.87,5a2.92,2.92,0,0,0,.46-.18l.37-.13a7.36,7.36,0,0,1,.8-.24c.26,0,.53-.07.79-.1a3.23,3.23,0,0,1,.44,0h0a1.54,1.54,0,0,1,.3,0,3.91,3.91,0,0,1,.68.24,5.5,5.5,0,0,1,.73.36.15.15,0,0,1,0,.13.06.06,0,0,1,0,.06c-.17.52-.3,1-.45,1.57s-.3,1-.42,1.55-.24,1.08-.36,1.61S27,11,26.92,11.58c0,0,0,.05-.07,0l-.07-.06-.05-.05c-.79-.7-1.59-1.39-2.41-2.06S22.58,8.1,21.69,7.45Z"/><path class="cls-1" d="M26.47,4.52a4.51,4.51,0,0,0-1.22.19c-.26.07-.5.16-.75.25a3.59,3.59,0,0,1-.35.12.55.55,0,0,0-.25.07l-.16.12a5.54,5.54,0,0,1-.64.33l-.18.1a2.85,2.85,0,0,0,.82-.11c.15,0,.29-.08.44-.1a2.6,2.6,0,0,0,.54-.17,1.81,1.81,0,0,0,.57-.18l.45-.25a2.82,2.82,0,0,1,.49-.25Zm.32,0s0,0,0,0l-.28.14a1.64,1.64,0,0,0-.22.14,3.36,3.36,0,0,1-.42.22l.52.46.3.28.13.12c.24-.11.47-.25.7-.38s.47-.3.71-.46a4.29,4.29,0,0,0-1.38-.55ZM22.74,5.85a2.35,2.35,0,0,0-.26.29c-.25.35-.45.74-.67,1.11.23,0,.46,0,.7-.08L23.4,7l.15,0a2.45,2.45,0,0,1,.13-.55,2.74,2.74,0,0,0,.14-.68l-.14,0a1.84,1.84,0,0,1-.93,0Zm3-.74-.22.1c-.09,0-.19,0-.28.08s-.32.17-.5.23l-.28.08a1.52,1.52,0,0,0-.28.09l-.2,0a1.91,1.91,0,0,1-.1.71c0,.11-.07.22-.1.33s0,.13-.06.2a3.92,3.92,0,0,0,.56-.16c.27-.1.51-.24.78-.34s.58-.15.87-.24A5.54,5.54,0,0,0,26.67,6l0,0-.3-.26-.63-.56ZM21.87,7.42c.84.6,1.66,1.24,2.47,1.89s1.47,1.2,2.18,1.84c-.25-.42-.53-.83-.8-1.23a7.8,7.8,0,0,0-.59-.7c-.2-.23-.39-.47-.58-.7S24.17,8,24,7.8l-.25-.33a1.21,1.21,0,0,1-.18-.28l-.06,0a8.08,8.08,0,0,1-.86.1C22.38,7.33,22.13,7.38,21.87,7.42Zm4.9-1.3a3.27,3.27,0,0,1-.33.14L26,6.39c-.29.08-.57.16-.86.26L24.36,7a5.67,5.67,0,0,1-.67.2l0,0a6.09,6.09,0,0,0,.51.71l.53.67a14.17,14.17,0,0,1,1,1.28c.31.46.61.94.95,1.39a14.24,14.24,0,0,0,0-1.6q0-.81,0-1.62a12.18,12.18,0,0,1,0-1.6,1.66,1.66,0,0,0,0-.22A.28.28,0,0,0,26.77,6.12Zm1.59-.92-.73.47a5.81,5.81,0,0,1-.74.4,1,1,0,0,1,0,.46c0,.23,0,.46,0,.69,0,.46,0,.93,0,1.4s0,.94,0,1.42,0,.84,0,1.26c.11-.48.2-1,.31-1.44s.25-1.07.38-1.6.25-1,.38-1.57S28.21,5.7,28.36,5.2ZM21.68,7.45s-.1-.08-.08-.12c.14-.29.31-.56.47-.84a4.54,4.54,0,0,1,.48-.67,2.12,2.12,0,0,1,.61-.43l.39-.2A1,1,0,0,1,23.86,5a3,3,0,0,0,.46-.19l.36-.13a6.15,6.15,0,0,1,.81-.23,6.93,6.93,0,0,1,.78-.1,2.26,2.26,0,0,1,.45,0h0l.3,0a3.26,3.26,0,0,1,.68.25,5.49,5.49,0,0,1,.73.36s.05.08,0,.12a.07.07,0,0,1,0,.06c-.17.52-.3,1-.45,1.58s-.3,1-.42,1.55S27.4,9.41,27.28,10,27,11,26.91,11.58c0,0,0,.05-.07,0l-.07-.06-.05,0c-.79-.7-1.59-1.4-2.41-2.06S22.57,8.09,21.68,7.45Z"/><path class="cls-1" d="M58.55,44.91a4.54,4.54,0,0,0,.75-.83l.38-.61a2.82,2.82,0,0,1,.18-.29c.06-.07.11-.1.13-.19s0-.12,0-.18a3.61,3.61,0,0,1,.26-.61,1,1,0,0,0,.06-.16,2.62,2.62,0,0,0-.51.54,4.08,4.08,0,0,1-.25.33,3.23,3.23,0,0,0-.29.43,2,2,0,0,0-.29.46c-.05.15-.12.29-.17.43a4.89,4.89,0,0,1-.2.46Z"/><path class="cls-1" d="M58.31,45.1a0,0,0,0,1,0,0c0-.09.08-.17.11-.26a2.09,2.09,0,0,0,.08-.23,2.27,2.27,0,0,1,.16-.39l-.63,0-.37,0H57.5c-.1.22-.18.44-.27.67s-.16.48-.23.73a3.75,3.75,0,0,0,1.29-.41Z"/><path class="cls-1" d="M60.41,41.82a2.08,2.08,0,0,0,0-.35,11.78,11.78,0,0,0-.17-1.17c-.14.16-.3.3-.44.46s-.37.41-.56.62l-.08.1a2.92,2.92,0,0,1,.23.47,2.48,2.48,0,0,0,.29.56.76.76,0,0,1,.08-.11,1.84,1.84,0,0,1,.63-.58Z"/><path class="cls-1" d="M58.74,44.06c0-.07.06-.14.1-.2a1.7,1.7,0,0,0,.15-.22c.09-.14.13-.31.22-.45s.11-.15.16-.22a1.64,1.64,0,0,0,.14-.22l.11-.15a2.15,2.15,0,0,1-.34-.56l-.12-.29s0-.12-.07-.18a3.41,3.41,0,0,0-.3.44c-.13.22-.23.46-.36.69s-.32.44-.47.66a6.31,6.31,0,0,0-.4.65H58l.77,0S58.74,44.05,58.74,44.06Z"/><path class="cls-1" d="M60.11,40.21c-.94.07-1.89.09-2.83.1s-1.74,0-2.6,0c.42.15.85.28,1.27.4a5.66,5.66,0,0,0,.82.16c.27,0,.54.1.82.16s.54.11.81.18l.37.09a.92.92,0,0,1,.28.09l0-.05a7.27,7.27,0,0,1,.55-.56C59.8,40.57,60,40.39,60.11,40.21Z"/><path class="cls-1" d="M57.41,44a1.51,1.51,0,0,1,.15-.28c.07-.12.16-.24.24-.35l.45-.68c.13-.23.24-.46.37-.68a3.8,3.8,0,0,1,.36-.53h0a5.46,5.46,0,0,0-.77-.2l-.76-.17a14.17,14.17,0,0,1-1.47-.3c-.49-.14-1-.31-1.48-.43a12.53,12.53,0,0,0,.9,1.14c.32.38.64.76,1,1.13a11.09,11.09,0,0,1,.91,1.14l.11.16A.17.17,0,0,0,57.41,44Z"/><path class="cls-1" d="M56.82,45.53c.07-.26.17-.5.24-.75a5.56,5.56,0,0,1,.29-.71,1.19,1.19,0,0,1-.26-.33,4.67,4.67,0,0,0-.36-.51c-.27-.33-.55-.66-.83-1s-.56-.65-.84-1-.46-.62-.7-.92c.2.41.41.8.61,1.2l.66,1.35c.22.44.43.88.64,1.33S56.64,45.09,56.82,45.53Z"/><path class="cls-1" d="M60.23,40.09c0-.05.11,0,.12,0,.07.29.11.58.15.86a3.9,3.9,0,0,1,.06.76,1.87,1.87,0,0,1-.19.65c0,.13-.11.24-.15.37a.9.9,0,0,1-.13.28,1.94,1.94,0,0,0-.22.4l-.18.3a5.58,5.58,0,0,1-.44.64c-.15.18-.33.35-.49.52a2.51,2.51,0,0,1-.31.26s0,0,0,0l-.24.15a3,3,0,0,1-.62.22,5.4,5.4,0,0,1-.72.17.13.13,0,0,1-.09-.07s0,0,0,0c-.18-.47-.4-.92-.59-1.38s-.39-.89-.6-1.33-.46-.9-.69-1.34-.44-.92-.68-1.36a0,0,0,0,1,0-.06h.14c1,0,1.93.07,2.9.06S59.23,40.15,60.23,40.09Z"/><path class="cls-1" d="M58.56,44.91a4,4,0,0,0,.75-.84c.13-.19.26-.4.38-.6a2.82,2.82,0,0,1,.18-.29A.44.44,0,0,0,60,43s0-.11,0-.17a6.57,6.57,0,0,1,.26-.61.49.49,0,0,0,.06-.17,2.67,2.67,0,0,0-.51.55,3.92,3.92,0,0,1-.25.32,4.17,4.17,0,0,0-.29.44,2,2,0,0,0-.29.46c-.05.15-.12.28-.17.43a2.67,2.67,0,0,1-.2.46A2.14,2.14,0,0,0,58.56,44.91Zm-.23.19a0,0,0,0,1,0,0c0-.09.08-.17.12-.26s0-.16.07-.23a1.71,1.71,0,0,1,.17-.39l-.64,0-.36,0h-.18c-.1.22-.18.45-.27.68s-.15.48-.23.73a3.75,3.75,0,0,0,1.29-.41Zm2.09-3.28a2.08,2.08,0,0,0,0-.35c0-.4-.11-.78-.16-1.17l-.45.46c-.19.2-.37.41-.55.61l-.09.1a2.27,2.27,0,0,1,.23.47,2.29,2.29,0,0,0,.29.56l.08-.1a1.84,1.84,0,0,1,.63-.58Zm-1.66,2.23.09-.19c0-.08.11-.14.16-.22s.12-.31.21-.45.11-.15.16-.22l.15-.22a.86.86,0,0,1,.1-.16,1.87,1.87,0,0,1-.34-.56c0-.09-.07-.19-.12-.28a1.34,1.34,0,0,0-.07-.18,3.41,3.41,0,0,0-.3.44c-.13.22-.22.46-.36.68a8,8,0,0,1-.47.67,7.06,7.06,0,0,0-.4.65H58l.78,0Zm1.36-3.84c-.94.06-1.88.09-2.83.1s-1.73,0-2.6,0c.42.15.85.28,1.27.4a7.43,7.43,0,0,0,.82.16c.28,0,.55.1.82.15l.81.18.37.1a.92.92,0,0,1,.28.09l0-.05a5.69,5.69,0,0,1,.54-.56C59.81,40.57,60,40.39,60.12,40.21ZM57.42,44a2.64,2.64,0,0,1,.15-.29,4.15,4.15,0,0,1,.24-.34c.15-.23.31-.45.45-.69s.25-.45.37-.68a4.4,4.4,0,0,1,.36-.52l0,0a6.19,6.19,0,0,0-.77-.19l-.76-.17a14.17,14.17,0,0,1-1.47-.3c-.49-.15-1-.31-1.47-.43a10.72,10.72,0,0,0,.9,1.14c.31.38.63.76,1,1.13a10.11,10.11,0,0,1,.91,1.14l.11.16Zm-.59,1.56c.08-.25.17-.5.25-.75a4.65,4.65,0,0,1,.28-.7,1.28,1.28,0,0,1-.26-.34,5.74,5.74,0,0,0-.36-.5c-.27-.33-.55-.66-.83-1s-.56-.65-.83-1-.47-.61-.71-.91c.2.4.42.8.61,1.2s.45.89.66,1.34.44.89.64,1.34S56.65,45.09,56.83,45.52Zm3.41-5.44s.11,0,.12,0c.07.28.11.57.16.86a4.77,4.77,0,0,1,0,.76,2.18,2.18,0,0,1-.18.65c0,.12-.12.24-.16.37a.9.9,0,0,1-.13.28,3,3,0,0,0-.22.39l-.18.31a4.66,4.66,0,0,1-.43.63c-.16.19-.33.35-.5.52a3.65,3.65,0,0,1-.3.27l0,0-.24.14a2.87,2.87,0,0,1-.62.22,3.68,3.68,0,0,1-.73.17s-.08,0-.09-.06l0,0c-.18-.47-.4-.92-.59-1.38s-.39-.89-.6-1.33-.45-.9-.68-1.34-.45-.92-.68-1.37c0,0,0-.06,0-.06h.15c1,0,1.92.07,2.89.06S59.24,40.14,60.24,40.08Z"/><path class="cls-1" d="M10.11,42a3.72,3.72,0,0,0,.49.81q.18.22.39.45a1.92,1.92,0,0,1,.18.22.44.44,0,0,0,.12.15l.13.08a3.76,3.76,0,0,1,.42.36l.12.1a2,2,0,0,0-.31-.55,2.31,2.31,0,0,1-.19-.28,2.3,2.3,0,0,0-.28-.34,2,2,0,0,0-.29-.35c-.11-.08-.2-.17-.31-.24a2.8,2.8,0,0,1-.31-.28Z"/><path class="cls-1" d="M10,41.78h0l.19.16a1.67,1.67,0,0,0,.16.12,2,2,0,0,1,.27.23l.18-.5c0-.1.08-.19.11-.29s0-.09.05-.13c-.15-.14-.31-.26-.47-.39s-.34-.24-.52-.36a3.3,3.3,0,0,0,0,1.13Z"/><path class="cls-1" d="M12.12,44.27a1,1,0,0,0,.28.1c.32.08.65.11,1,.16-.09-.15-.17-.31-.26-.47l-.36-.6a.41.41,0,0,0,0-.09,2.24,2.24,0,0,1-.44.07,1.89,1.89,0,0,0-.52.09l.07.09a1.44,1.44,0,0,1,.3.65Z"/><path class="cls-1" d="M10.75,42.39l.13.12c0,.06.09.13.14.18s.21.18.31.29l.13.18.14.17.1.12a1.65,1.65,0,0,1,.53-.13l.26,0,.16,0a4.11,4.11,0,0,0-.27-.35c-.15-.16-.32-.29-.46-.45s-.28-.37-.42-.55a6.27,6.27,0,0,0-.42-.48v0l-.09.29c-.07.21-.15.41-.22.61Z"/><path class="cls-1" d="M13.48,44.44c.19-.77.4-1.53.63-2.29s.43-1.39.68-2.07c-.22.3-.43.61-.64.92s-.22.4-.33.61-.22.41-.33.62l-.34.6-.17.28a.67.67,0,0,1-.14.19l0,.05a4.59,4.59,0,0,1,.32.57C13.27,44.1,13.38,44.27,13.48,44.44Z"/><path class="cls-1" d="M11.16,41.34c.07.06.13.13.19.19s.14.19.22.28.28.36.43.53.3.31.45.47a2.78,2.78,0,0,1,.33.42l0,0a4.85,4.85,0,0,0,.35-.57l.33-.56a9.06,9.06,0,0,1,.61-1.1c.23-.36.49-.71.71-1.07a9.2,9.2,0,0,0-1.14.43c-.38.16-.77.32-1.14.49a9.31,9.31,0,0,1-1.14.45l-.16,0Z"/><path class="cls-1" d="M10.06,40.48l.53.39a3.13,3.13,0,0,1,.5.4.93.93,0,0,1,.33-.12,4,4,0,0,0,.49-.17c.34-.13.66-.27,1-.42s.66-.28,1-.42l.9-.33L13.69,40l-1.24.19-1.22.18C10.84,40.42,10.45,40.44,10.06,40.48Z"/><path class="cls-1" d="M13.55,44.57s0,.09-.06.08a5.9,5.9,0,0,1-.72-.09,2.67,2.67,0,0,1-.62-.15,1.61,1.61,0,0,1-.48-.3l-.25-.22a.86.86,0,0,1-.2-.18,1.64,1.64,0,0,0-.26-.27l-.19-.22a4.61,4.61,0,0,1-.4-.5c-.11-.17-.2-.36-.29-.53a1.73,1.73,0,0,1-.14-.31,0,0,0,0,1,0,0,1.55,1.55,0,0,1,0-.23,2.51,2.51,0,0,1,0-.55,4.44,4.44,0,0,1,.05-.62s0-.06.08-.06l0,0c.41,0,.83-.09,1.24-.13s.82-.08,1.22-.14l1.24-.21L15,39.68s0,0,0,0l0,.06s0,0,0,.05c-.27.76-.53,1.52-.77,2.3S13.75,43.75,13.55,44.57Z"/><path class="cls-1" d="M10.11,42a3.72,3.72,0,0,0,.49.81q.18.22.39.45a1.92,1.92,0,0,1,.18.22.44.44,0,0,0,.12.15l.13.08a5,5,0,0,1,.42.36l.12.1a2,2,0,0,0-.31-.55,2.31,2.31,0,0,1-.19-.28,2.3,2.3,0,0,0-.28-.34,1.68,1.68,0,0,0-.3-.35,3.5,3.5,0,0,0-.3-.24,2.06,2.06,0,0,1-.31-.28ZM10,41.79h0c.07.05.12.11.18.16l.17.12a2,2,0,0,1,.27.23l.18-.5c0-.1.08-.19.11-.29s0-.09.05-.13c-.15-.14-.31-.26-.47-.39s-.35-.24-.52-.36a3.3,3.3,0,0,0,0,1.13Zm2.1,2.49a1,1,0,0,0,.28.1c.32.08.65.11,1,.16-.1-.15-.17-.31-.26-.47l-.36-.59a.93.93,0,0,0,0-.1,2.24,2.24,0,0,1-.44.07,1.89,1.89,0,0,0-.52.09l.07.09a1.55,1.55,0,0,1,.3.65ZM10.75,42.4l.13.12c0,.06.09.13.14.18s.21.18.31.29l.13.18.14.17.1.12a1.65,1.65,0,0,1,.53-.13l.26,0,.16,0a2.86,2.86,0,0,0-.28-.35c-.14-.15-.31-.29-.45-.45s-.28-.37-.42-.55a6.27,6.27,0,0,0-.42-.48v0l-.09.28c-.07.21-.15.41-.22.61Zm2.73,2.05c.19-.77.4-1.53.63-2.29s.43-1.38.68-2.07c-.23.3-.44.61-.64.92a6.08,6.08,0,0,0-.33.62c-.1.2-.22.41-.33.61l-.34.6-.17.28a.7.7,0,0,1-.15.2l0,0a4.59,4.59,0,0,1,.32.57C13.27,44.11,13.38,44.28,13.48,44.45Zm-2.32-3.1.19.19c.08.09.14.19.22.28s.28.36.43.53.3.31.45.47a2.78,2.78,0,0,1,.33.42l0,0a4.15,4.15,0,0,0,.35-.57l.33-.56a9.06,9.06,0,0,1,.61-1.1c.23-.36.49-.71.71-1.07a9.2,9.2,0,0,0-1.14.43c-.38.16-.77.32-1.14.49a9.31,9.31,0,0,1-1.14.45l-.16,0Zm-1.1-.86.53.39a3.17,3.17,0,0,1,.49.4,1.06,1.06,0,0,1,.34-.12,4,4,0,0,0,.49-.17l1-.42c.33-.15.66-.28,1-.42l.9-.33L13.69,40l-1.24.19-1.22.18C10.84,40.43,10.45,40.46,10.06,40.49Zm3.49,4.09s0,.09-.06.08a5.9,5.9,0,0,1-.72-.09,2.67,2.67,0,0,1-.62-.15,1.61,1.61,0,0,1-.48-.3l-.25-.22a.86.86,0,0,1-.2-.18,2.2,2.2,0,0,0-.26-.27l-.19-.22a3.65,3.65,0,0,1-.4-.5c-.11-.17-.2-.35-.3-.53a2.88,2.88,0,0,1-.13-.31,0,0,0,0,1,0,0l-.06-.23a3.33,3.33,0,0,1,0-.55,4.44,4.44,0,0,1,.05-.62A.09.09,0,0,1,10,40.4l0,0c.41,0,.83-.08,1.24-.13s.81-.08,1.22-.14l1.24-.21c.42-.08.84-.13,1.26-.21,0,0,0,0,0,.05l0,.06a.09.09,0,0,1,0,.05c-.27.76-.54,1.52-.77,2.3S13.75,43.76,13.55,44.58Z"/><path class="cls-1" d="M42.64,60A7,7,0,0,0,44.47,60c.38-.06.76-.15,1.14-.23a5.17,5.17,0,0,1,.54-.11.68.68,0,0,0,.37-.07l.26-.14a7.66,7.66,0,0,1,1-.37,1.59,1.59,0,0,0,.27-.12,4.16,4.16,0,0,0-1.22,0,4.93,4.93,0,0,1-.66.07,6.17,6.17,0,0,0-.84.15,3.14,3.14,0,0,0-.86.18l-.7.28a5,5,0,0,1-.77.28Z"/><path class="cls-1" d="M42.16,60l0,0,.44-.16a2.81,2.81,0,0,0,.35-.17,3.91,3.91,0,0,1,.65-.24L43,58.57l-.38-.45a1.92,1.92,0,0,1-.18-.22c-.38.13-.74.29-1.1.44s-.74.36-1.11.55a6.11,6.11,0,0,0,1.92,1Z"/><path class="cls-1" d="M48.36,58.72a2.53,2.53,0,0,0,.42-.37c.44-.47.8-1,1.2-1.51-.35,0-.7,0-1,0l-1.34,0h-.21a4,4,0,0,1-.3.8,4.11,4.11,0,0,0-.33,1l.21,0a2.84,2.84,0,0,1,1.39.1Z"/><path class="cls-1" d="M43.87,59.28a3.37,3.37,0,0,1,.34-.1c.14,0,.28,0,.42-.07s.51-.2.78-.25a3.18,3.18,0,0,1,.43-.06,3,3,0,0,0,.43-.09l.3,0a3.09,3.09,0,0,1,.28-1c.06-.15.13-.3.2-.46s.09-.18.12-.28a5.19,5.19,0,0,0-.85.14c-.4.09-.79.25-1.2.35s-.88.12-1.32.19a8.28,8.28,0,0,0-1.2.26l0,0c.12.15.26.29.39.44.28.31.56.62.83.94Z"/><path class="cls-1" d="M49.91,56.57c-1.13-1-2.22-2.11-3.29-3.21s-1.95-2-2.87-3.1c.29.66.63,1.31,1,1.94a11.14,11.14,0,0,0,.74,1.14c.26.37.49.76.74,1.14s.46.76.69,1.15c.11.18.21.36.31.54a1.72,1.72,0,0,1,.21.43h.09a9.11,9.11,0,0,1,1.28,0C49.15,56.61,49.53,56.59,49.91,56.57Z"/><path class="cls-1" d="M42.48,57.6l.5-.14.68-.11c.44-.07.87-.14,1.31-.24s.81-.21,1.21-.32a7,7,0,0,1,1-.17s0,0,0-.06a10.54,10.54,0,0,0-.64-1.13c-.22-.36-.43-.73-.66-1.08-.44-.68-.91-1.34-1.29-2.07s-.73-1.49-1.15-2.21a20.9,20.9,0,0,0-.33,2.34c-.09.8-.18,1.6-.24,2.4a18.42,18.42,0,0,1-.31,2.35,2.82,2.82,0,0,0-.07.31A.62.62,0,0,0,42.48,57.6Z"/><path class="cls-1" d="M40,58.67l1.15-.55a7.07,7.07,0,0,1,1.15-.46,1.78,1.78,0,0,1,.1-.68,8.4,8.4,0,0,0,.19-1c.08-.68.16-1.37.21-2.06s.14-1.4.23-2.09.19-1.24.27-1.85c-.24.68-.46,1.38-.71,2.06l-.84,2.29c-.28.75-.56,1.49-.85,2.24S40.29,58,40,58.67Z"/><path class="cls-1" d="M50.2,56.57c.07,0,.13.12.09.19-.25.39-.55.76-.84,1.14a7.1,7.1,0,0,1-.82.91,3.3,3.3,0,0,1-1,.52c-.2.08-.41.14-.6.22a1.43,1.43,0,0,1-.49.17,4.88,4.88,0,0,0-.7.19L45.3,60a8.79,8.79,0,0,1-1.23.21c-.39,0-.78,0-1.17,0a3.49,3.49,0,0,1-.65-.06h-.06a3.6,3.6,0,0,1-.44-.12,5.64,5.64,0,0,1-1-.48,7.62,7.62,0,0,1-1-.66.17.17,0,0,1,0-.19.14.14,0,0,1,0-.09c.34-.73.63-1.49,1-2.23s.62-1.46.89-2.2.55-1.54.81-2.31.58-1.55.84-2.33a.06.06,0,0,1,.11,0l.09.1a.11.11,0,0,1,.06.07c1,1.17,2.09,2.34,3.18,3.46S49,55.46,50.2,56.57Z"/><path class="cls-1" d="M42.66,60A7.47,7.47,0,0,0,44.49,60c.38-.06.76-.15,1.13-.23a5.35,5.35,0,0,1,.55-.11.78.78,0,0,0,.37-.06c.09-.05.17-.11.26-.15a7.17,7.17,0,0,1,1-.37l.27-.12a4.16,4.16,0,0,0-1.22,0,5.08,5.08,0,0,1-.67.07,6,6,0,0,0-.83.15,3.29,3.29,0,0,0-.87.18c-.22.1-.46.18-.69.28a5.46,5.46,0,0,1-.77.28ZM42.18,60l0,0,.45-.16A2.81,2.81,0,0,0,43,59.6a3.81,3.81,0,0,1,.64-.24L43,58.58l-.39-.45-.18-.22c-.37.13-.73.29-1.09.44s-.75.36-1.12.55A6.27,6.27,0,0,0,42.13,60Zm6.2-1.23a3,3,0,0,0,.42-.37c.44-.47.8-1,1.19-1.51-.34,0-.69,0-1,0l-1.34,0h-.22a4,4,0,0,1-.29.8,4.3,4.3,0,0,0-.34,1l.22,0a2.85,2.85,0,0,1,1.39.09Zm-4.49.56a3.37,3.37,0,0,1,.34-.1c.14,0,.28,0,.42-.07s.5-.2.78-.25.29,0,.43-.06l.43-.08.29,0a3.29,3.29,0,0,1,.28-1c.07-.16.14-.31.2-.47s.09-.18.13-.28a5,5,0,0,0-.85.14c-.41.1-.8.25-1.21.35s-.88.12-1.31.19a10,10,0,0,0-1.21.26l0,0,.4.44.83.94Zm6-2.71c-1.13-1-2.22-2.11-3.29-3.21s-2-2-2.87-3.1c.29.66.62,1.31.95,1.94a9.68,9.68,0,0,0,.74,1.14c.25.38.49.76.73,1.14s.47.76.7,1.15c.11.18.21.36.31.54a1.4,1.4,0,0,1,.2.43h.1a9,9,0,0,1,1.27,0C49.16,56.62,49.55,56.6,49.93,56.58Zm-7.43,1a4.13,4.13,0,0,1,.5-.15l.68-.11c.44-.07.87-.14,1.3-.23s.81-.22,1.22-.33a6.78,6.78,0,0,1,1-.17l0-.06a9,9,0,0,0-.63-1.13c-.22-.36-.43-.72-.66-1.08-.45-.68-.91-1.34-1.29-2.06s-.73-1.5-1.15-2.21a22.94,22.94,0,0,0-.34,2.33c-.08.8-.17,1.6-.24,2.4a18.41,18.41,0,0,1-.3,2.35c0,.1-.06.21-.08.31A.33.33,0,0,0,42.5,57.62ZM40,58.68l1.16-.55a6.69,6.69,0,0,1,1.15-.45,1.81,1.81,0,0,1,.1-.69,8.63,8.63,0,0,0,.19-1q.12-1,.21-2.07c0-.7.14-1.39.22-2.09s.2-1.23.28-1.85c-.25.68-.47,1.38-.72,2.07s-.55,1.52-.83,2.28-.56,1.5-.85,2.24S40.31,58,40,58.68Zm10.22-2.1c.07,0,.13.12.09.19-.25.4-.55.76-.84,1.14a6.5,6.5,0,0,1-.83.91,3.13,3.13,0,0,1-1,.52l-.61.22a1.38,1.38,0,0,1-.48.17,4.55,4.55,0,0,0-.7.19l-.56.13a10.33,10.33,0,0,1-1.24.2c-.38,0-.78,0-1.16,0a3.42,3.42,0,0,1-.65-.06.07.07,0,0,1-.06,0,3.6,3.6,0,0,1-.44-.12,4.71,4.71,0,0,1-1-.48,6.84,6.84,0,0,1-1-.66,1.27,1.27,0,0,1,0-.28c.34-.73.63-1.49.95-2.23s.61-1.46.89-2.2.55-1.54.81-2.31.58-1.55.84-2.33a.06.06,0,0,1,.11,0l.09.1a.14.14,0,0,1,.06.07c1,1.17,2.09,2.34,3.18,3.46S49,55.47,50.22,56.58Z"/><path class="cls-2" d="M63.29,23.74a8.64,8.64,0,0,0-.36-2.14c-.14-.44-.31-.87-.46-1.3a4.7,4.7,0,0,1-.22-.63,1,1,0,0,0-.14-.43L61.9,19a9.25,9.25,0,0,1-.6-1.12,2.38,2.38,0,0,0-.18-.3A5,5,0,0,0,61.33,19a7.2,7.2,0,0,1,.19.77,5.38,5.38,0,0,0,.31,1,4.14,4.14,0,0,0,.34,1c.17.26.29.52.45.78a5.77,5.77,0,0,1,.45.85A4.13,4.13,0,0,0,63.29,23.74Z"/><path class="cls-2" d="M63.29,24.32s0,0,0,0-.17-.33-.25-.49-.18-.26-.26-.39a5,5,0,0,1-.39-.72l-.81.92c-.16.18-.32.35-.47.53a2.61,2.61,0,0,1-.23.24c.21.42.46.82.7,1.22s.54.82.82,1.23a7.2,7.2,0,0,0,.93-2.44Z"/><path class="cls-2" d="M60.85,17.21a4,4,0,0,0-.51-.43c-.62-.45-1.31-.78-2-1.17.07.41.1.82.16,1.23s.17,1.06.27,1.58c0,.08,0,.17,0,.25a4.46,4.46,0,0,1,1,.22,5.46,5.46,0,0,0,1.19.24L61,18.88a3.31,3.31,0,0,1-.11-1.65Z"/><path class="cls-2" d="M62.23,22.41c-.06-.12-.13-.25-.18-.38s-.08-.33-.14-.49-.32-.56-.43-.88c0-.16-.09-.33-.14-.49a4,4,0,0,0-.16-.49c0-.11-.07-.23-.1-.34a4.16,4.16,0,0,1-1.26-.17L59.25,19l-.36-.1a7.33,7.33,0,0,0,.3,1c.18.46.43.89.61,1.36s.29,1,.44,1.52a12,12,0,0,0,.5,1.38l0,0,.45-.54c.32-.38.65-.76,1-1.13Z"/><path class="cls-2" d="M58.06,15.73c-1,1.5-2.12,3-3.25,4.39S52.73,22.75,51.63,24c.72-.45,1.44-1,2.13-1.44A11.07,11.07,0,0,0,55,21.52c.4-.36.82-.7,1.22-1.05s.83-.67,1.25-1L58,19a2.19,2.19,0,0,1,.48-.31l0-.11a10.81,10.81,0,0,1-.2-1.5C58.23,16.63,58.15,16.18,58.06,15.73Z"/><path class="cls-2" d="M60.48,24.32a5.79,5.79,0,0,1-.25-.57c-.09-.26-.16-.52-.24-.78-.15-.5-.31-1-.49-1.5s-.39-.92-.58-1.38a7.56,7.56,0,0,1-.36-1.17l-.07,0a12.17,12.17,0,0,0-1.22.92c-.39.33-.79.63-1.17,1a28.41,28.41,0,0,1-2.23,1.85c-.8.57-1.64,1.1-2.41,1.71a26.15,26.15,0,0,0,2.8,0c1,0,1.91-.05,2.87-.11a22,22,0,0,1,2.81,0c.13,0,.25,0,.38,0Z"/><path class="cls-2" d="M62.14,27.09c-.29-.42-.55-.86-.84-1.27a9.51,9.51,0,0,1-.72-1.28,2.06,2.06,0,0,1-.82,0c-.4,0-.8-.06-1.2-.06-.83,0-1.65,0-2.47.09s-1.67.06-2.5.07-1.48,0-2.22,0c.84.18,1.7.33,2.55.51l2.82.62c.93.21,1.85.41,2.78.64S61.26,26.84,62.14,27.09Z"/><path class="cls-3" d="M58,15.4c-.06-.08.12-.18.2-.14.51.23,1,.52,1.48.8a7.63,7.63,0,0,1,1.21.83A3.84,3.84,0,0,1,61.68,18c.12.22.23.46.36.68a1.45,1.45,0,0,1,.27.54,5.48,5.48,0,0,0,.34.8l.24.64A11.14,11.14,0,0,1,63.33,22c.09.45.13.91.19,1.37a5.14,5.14,0,0,1,0,.78.06.06,0,0,1,0,.07,3.48,3.48,0,0,1-.07.54A5.24,5.24,0,0,1,63.06,26a8.57,8.57,0,0,1-.61,1.3.21.21,0,0,1-.21.07.22.22,0,0,1-.11,0c-.92-.29-1.86-.51-2.79-.76s-1.82-.49-2.73-.7-1.9-.39-2.85-.58-1.92-.43-2.88-.61a.08.08,0,0,1,0-.13l.11-.12s0-.06.07-.09c1.21-1.41,2.41-2.83,3.56-4.3S56.91,17,58,15.4Z"/><path class="cls-4" d="M63.31,23.75A8.2,8.2,0,0,0,63,21.61c-.14-.44-.3-.87-.46-1.3a4.7,4.7,0,0,1-.22-.63.9.9,0,0,0-.13-.42L61.92,19a10.9,10.9,0,0,1-.6-1.12c0-.1-.11-.2-.17-.3a4.73,4.73,0,0,0,.2,1.44,6.49,6.49,0,0,1,.19.76,6.32,6.32,0,0,0,.31,1,3.76,3.76,0,0,0,.35,1c.16.26.28.52.44.78a6.42,6.42,0,0,1,.46.86C63.16,23.48,63.24,23.62,63.31,23.75Zm0,.58a.1.1,0,0,1,0,0c-.09-.16-.16-.33-.25-.49s-.18-.26-.26-.39a5,5,0,0,1-.39-.72l-.81.92c-.16.18-.32.35-.47.53a2.5,2.5,0,0,1-.22.24c.21.42.45.82.69,1.22s.54.82.82,1.23a7.2,7.2,0,0,0,.93-2.44Zm-2.45-7.11a3.42,3.42,0,0,0-.51-.43,21.63,21.63,0,0,0-2-1.16c.07.4.1.81.16,1.22s.18,1.06.27,1.58c0,.09,0,.17,0,.25a4.46,4.46,0,0,1,1,.22,5.43,5.43,0,0,0,1.2.24c0-.09,0-.17-.07-.25a3.43,3.43,0,0,1-.11-1.65Zm1.38,5.2c-.06-.12-.13-.25-.18-.38s-.08-.33-.14-.49-.32-.56-.43-.87-.09-.34-.13-.5-.11-.32-.17-.49-.07-.23-.1-.34a4.06,4.06,0,0,1-1.25-.17L59.27,19l-.35-.1a7.27,7.27,0,0,0,.29,1c.19.46.44.89.61,1.36s.29,1,.44,1.52a12,12,0,0,0,.5,1.38l0,0c.16-.18.3-.36.45-.54.32-.38.65-.76,1-1.13Zm-4.16-6.68c-1,1.5-2.13,3-3.25,4.4S52.75,22.76,51.65,24c.73-.45,1.44-.95,2.13-1.44a12.19,12.19,0,0,0,1.23-1c.39-.36.81-.7,1.21-1.05s.83-.67,1.25-1l.59-.45a1.79,1.79,0,0,1,.47-.3l0-.12a15,15,0,0,1-.2-1.5C58.26,16.64,58.17,16.19,58.09,15.74Zm2.41,8.59a5.79,5.79,0,0,1-.25-.57c-.09-.25-.15-.52-.23-.78-.16-.5-.31-1-.5-1.5s-.38-.92-.58-1.38a8.83,8.83,0,0,1-.36-1.17l-.06,0a11.25,11.25,0,0,0-1.23.92c-.39.33-.79.63-1.17,1-.73.63-1.43,1.29-2.22,1.85s-1.65,1.1-2.42,1.71a26.34,26.34,0,0,0,2.81,0c1,0,1.91-.05,2.86-.11a22.11,22.11,0,0,1,2.82,0c.12,0,.25,0,.37,0Zm1.66,2.77c-.29-.42-.55-.86-.84-1.27a9.51,9.51,0,0,1-.72-1.28,2.06,2.06,0,0,1-.82,0c-.4,0-.8-.06-1.2-.05-.82,0-1.65,0-2.47.08s-1.66.06-2.5.07-1.48,0-2.22,0c.84.18,1.7.33,2.55.51l2.82.62c.93.21,1.86.41,2.78.64S61.29,26.85,62.16,27.1ZM58,15.41c-.06-.08.12-.18.2-.14a15,15,0,0,1,1.48.8,7.63,7.63,0,0,1,1.21.83A3.84,3.84,0,0,1,61.7,18c.12.23.23.46.36.68a1.45,1.45,0,0,1,.27.54,5.48,5.48,0,0,0,.34.8l.24.64A9.74,9.74,0,0,1,63.35,22c.09.45.13.92.19,1.37a5.14,5.14,0,0,1,0,.78.09.09,0,0,1,0,.07c0,.18,0,.36-.07.54A5.61,5.61,0,0,1,63.08,26a8.52,8.52,0,0,1-.6,1.3.23.23,0,0,1-.22.07.22.22,0,0,1-.11,0c-.92-.29-1.86-.51-2.79-.76s-1.81-.49-2.73-.7-1.9-.39-2.85-.58-1.91-.43-2.88-.61a.07.07,0,0,1,0-.12l.11-.13a.18.18,0,0,1,.07-.09c1.21-1.41,2.41-2.83,3.56-4.3S56.93,17,58,15.41Z"/><path class="cls-5" d="M13.71,58.47a8.36,8.36,0,0,0,1.35,1.61c.33.3.68.58,1,.87a6.26,6.26,0,0,1,.49.41c.11.12.16.22.32.29l.32.14a8.66,8.66,0,0,1,1.05.64,1.69,1.69,0,0,0,.29.17,4.4,4.4,0,0,0-.87-1.1,7,7,0,0,1-.53-.56,7.43,7.43,0,0,0-.73-.64,3.69,3.69,0,0,0-.77-.66c-.26-.14-.5-.3-.76-.43a7,7,0,0,1-.79-.5A4.11,4.11,0,0,0,13.71,58.47Z"/><path class="cls-5" d="M13.43,58h.05c.16.09.3.2.46.29s.27.13.4.2a4.29,4.29,0,0,1,.68.42c.07-.39.15-.78.23-1.17,0-.23.09-.45.14-.67s0-.21.06-.32c-.38-.24-.78-.46-1.17-.68s-.86-.42-1.29-.62a7.15,7.15,0,0,0,.41,2.49Z"/><path class="cls-5" d="M18.94,62.74a3.57,3.57,0,0,0,.64.11c.74.07,1.48,0,2.22,0-.26-.3-.48-.63-.74-1s-.66-.79-1-1.19l-.16-.18a4.15,4.15,0,0,1-.93.29,4.8,4.8,0,0,0-1.12.39l.18.18a3.42,3.42,0,0,1,.9,1.32Z"/><path class="cls-5" d="M15.25,59.06a3.88,3.88,0,0,1,.33.23c.13.11.23.24.36.34s.54.31.79.53l.36.35c.12.12.24.21.37.32l.26.24a3.46,3.46,0,0,1,1.12-.47l.56-.15c.11,0,.24-.05.35-.09a5.86,5.86,0,0,0-.73-.67c-.38-.3-.79-.54-1.17-.85s-.74-.7-1.11-1.05a9.56,9.56,0,0,0-1.09-.91v0c0,.22-.07.44-.11.66L15.26,59S15.25,59.05,15.25,59.06Z"/><path class="cls-5" d="M22,62.62c.13-1.76.33-3.51.57-5.27.22-1.6.46-3.21.77-4.8-.39.73-.74,1.49-1.08,2.24a13.63,13.63,0,0,0-.51,1.48c-.16.5-.34,1-.51,1.47s-.36,1-.55,1.45l-.27.67a1.89,1.89,0,0,1-.25.49l.08.08a10.26,10.26,0,0,1,.9,1.16C21.42,62,21.71,62.28,22,62.62Z"/><path class="cls-5" d="M15.78,56.61a4.34,4.34,0,0,1,.49.35c.2.17.38.36.58.54q.55.53,1.14,1c.37.31.77.58,1.16.87a7.3,7.3,0,0,1,.87.8.21.21,0,0,0,0-.06,13.88,13.88,0,0,0,.58-1.38c.16-.45.35-.9.51-1.36a27.69,27.69,0,0,1,1-2.64c.4-.87.84-1.73,1.19-2.61a23.8,23.8,0,0,0-2.35,1.35c-.79.49-1.58,1-2.35,1.49a21.33,21.33,0,0,1-2.35,1.39,3.31,3.31,0,0,0-.33.15Z"/><path class="cls-5" d="M13,55.1c.45.21.88.45,1.33.66a8.31,8.31,0,0,1,1.22.72,2,2,0,0,1,.7-.39c.35-.17.7-.34,1-.54.68-.42,1.36-.84,2-1.28s1.36-.86,2-1.27,1.26-.7,1.88-1.07c-.8.27-1.59.56-2.39.82l-2.66.86c-.88.28-1.75.56-2.64.82S13.89,54.88,13,55.1Z"/><path class="cls-3" d="M22.2,62.88c.09,0,0,.2-.11.21a14.72,14.72,0,0,1-1.63,0,8.29,8.29,0,0,1-1.41-.1,3.66,3.66,0,0,1-1.16-.52c-.22-.12-.42-.27-.64-.39a1.43,1.43,0,0,1-.49-.32,4.87,4.87,0,0,0-.67-.5l-.51-.42a10.89,10.89,0,0,1-1.06-1c-.3-.33-.56-.71-.83-1.06a4.25,4.25,0,0,1-.41-.63.09.09,0,0,1,0-.06c-.07-.16-.14-.32-.2-.49a5.55,5.55,0,0,1-.24-1.2,9.33,9.33,0,0,1-.13-1.39.24.24,0,0,1,.15-.16l.09-.06c.91-.21,1.8-.48,2.7-.72s1.76-.48,2.63-.76,1.78-.59,2.67-.9,1.81-.57,2.71-.89a.07.07,0,0,1,.09.08l0,.16a.1.1,0,0,1,0,.1c-.32,1.78-.63,3.56-.88,5.34S22.35,61,22.2,62.88Z"/><path class="cls-4" d="M13.71,58.49a8.36,8.36,0,0,0,1.35,1.61c.33.3.68.58,1,.87a3.89,3.89,0,0,1,.49.42c.11.12.16.22.32.29l.32.13a8.73,8.73,0,0,1,1.05.65,2.69,2.69,0,0,0,.29.16,4.79,4.79,0,0,0-.87-1.1,6.88,6.88,0,0,1-.53-.55,6.51,6.51,0,0,0-.73-.65,3.74,3.74,0,0,0-.77-.66c-.26-.13-.5-.3-.75-.43a5.1,5.1,0,0,1-.8-.5ZM13.43,58s0,0,.05,0,.3.19.46.29.27.13.41.2a3.88,3.88,0,0,1,.67.41c.08-.39.15-.78.23-1.17,0-.22.09-.44.14-.67s0-.21.06-.31c-.38-.25-.78-.46-1.17-.68s-.86-.43-1.29-.63A7.21,7.21,0,0,0,13.4,58Zm5.51,4.75a3.78,3.78,0,0,0,.64.12c.74.06,1.48,0,2.22,0-.26-.31-.48-.64-.73-1s-.66-.8-1-1.19a1.46,1.46,0,0,0-.16-.19,4.58,4.58,0,0,1-.93.3,5.48,5.48,0,0,0-1.12.38l.18.18a3.45,3.45,0,0,1,.9,1.33Zm-3.69-3.68c.11.08.23.15.34.24s.22.23.36.33.54.32.78.53.24.23.36.35a3.8,3.8,0,0,0,.37.33l.26.23a3.76,3.76,0,0,1,1.13-.47l.56-.14.34-.09a6.64,6.64,0,0,0-.72-.68c-.38-.29-.8-.54-1.18-.84s-.74-.71-1.11-1.06a12.21,12.21,0,0,0-1.09-.91V57c0,.22-.07.44-.11.66-.08.48-.17,1-.27,1.43C15.26,59.06,15.25,59.07,15.25,59.08ZM22,62.64c.13-1.76.34-3.51.57-5.26s.47-3.21.78-4.81c-.39.74-.75,1.5-1.09,2.25a12.77,12.77,0,0,0-.51,1.47c-.16.5-.34,1-.51,1.48s-.36,1-.55,1.45c-.09.22-.17.44-.27.66a1.74,1.74,0,0,1-.25.49l.08.08a12.42,12.42,0,0,1,.9,1.16C21.42,62,21.71,62.3,22,62.64Zm-6.22-6c.17.12.34.23.49.36s.39.36.58.54c.38.34.75.68,1.14,1s.77.58,1.16.87a7.3,7.3,0,0,1,.87.8s0,0,0-.06a11.71,11.71,0,0,0,.58-1.37c.16-.46.35-.91.51-1.37a25.26,25.26,0,0,1,1-2.64c.39-.86.83-1.72,1.19-2.61a22.93,22.93,0,0,0-2.36,1.36c-.79.49-1.58,1-2.35,1.48a19.87,19.87,0,0,1-2.35,1.39,3.31,3.31,0,0,0-.33.15Zm-2.73-1.5c.44.2.87.44,1.32.65a7.82,7.82,0,0,1,1.22.72,2.1,2.1,0,0,1,.7-.39,10.09,10.09,0,0,0,1-.54c.68-.41,1.36-.83,2-1.27s1.36-.87,2-1.28,1.26-.7,1.88-1.06c-.8.26-1.59.55-2.38.81l-2.67.86-2.64.83C14.75,54.71,13.9,54.9,13.05,55.13ZM22.2,62.9c.09,0,0,.21-.1.21a14.87,14.87,0,0,1-1.63,0,6.79,6.79,0,0,1-1.42-.1,3.87,3.87,0,0,1-1.16-.51c-.21-.13-.42-.28-.63-.4a1.36,1.36,0,0,1-.5-.31,5.12,5.12,0,0,0-.67-.51l-.51-.42a9.75,9.75,0,0,1-1.06-1c-.3-.33-.56-.7-.83-1.06a3.52,3.52,0,0,1-.4-.63.06.06,0,0,1,0-.06,4.25,4.25,0,0,1-.21-.49,5.32,5.32,0,0,1-.24-1.2,8,8,0,0,1-.12-1.38.19.19,0,0,1,.15-.16s.05-.06.08-.06c.91-.21,1.8-.49,2.7-.73s1.76-.48,2.63-.75,1.78-.6,2.67-.9,1.81-.58,2.71-.9c.05,0,.11,0,.09.08l0,.16a.23.23,0,0,1,0,.11c-.33,1.77-.64,3.55-.89,5.34S22.36,61,22.2,62.9Z"/><path class="cls-6" d="M2.37,18A9.64,9.64,0,0,0,1.3,20.35c-.17.52-.29,1.06-.43,1.58a5,5,0,0,1-.21.76,1.21,1.21,0,0,0-.15.51c0,.14,0,.28,0,.42a9.57,9.57,0,0,1-.17,1.5,1.85,1.85,0,0,0,0,.41A6.14,6.14,0,0,0,1.1,24a6.63,6.63,0,0,1,.33-.88A7.44,7.44,0,0,0,1.76,22a4.29,4.29,0,0,0,.33-1.2c0-.36.07-.71.08-1.06a7.25,7.25,0,0,1,.14-1.14A5.43,5.43,0,0,0,2.37,18Z"/><path class="cls-6" d="M2.76,17.45a.07.07,0,0,1,0,.06c0,.23,0,.44-.08.66a5,5,0,0,0,0,.55,6.26,6.26,0,0,1-.11,1L4,19.33l.81-.2c.13,0,.26-.07.39-.09.07-.55.1-1.1.14-1.65s0-1.17,0-1.75A8.58,8.58,0,0,0,2.8,17.39Z"/><path class="cls-6" d="M.38,26a4.58,4.58,0,0,0,.21.77c.31.85.76,1.64,1.15,2.45.21-.44.45-.86.67-1.3s.53-1.15.79-1.72L3.32,26a5.6,5.6,0,0,1-.81-.88,6.15,6.15,0,0,0-1-1c0,.1-.07.2-.11.29A4.13,4.13,0,0,1,.4,26Z"/><path class="cls-6" d="M2.52,20c0,.17,0,.34-.08.5s-.14.38-.19.57c-.08.38-.06.76-.17,1.15-.05.19-.13.38-.2.57s-.11.39-.16.59-.08.27-.13.4a4.84,4.84,0,0,1,1.11,1l.45.54c.09.1.18.23.28.33a8.58,8.58,0,0,0,.37-1.15c.13-.58.18-1.17.32-1.74S4.51,21.6,4.7,21a11.84,11.84,0,0,0,.44-1.68l-.06,0-.79.22L2.57,20S2.54,20,2.52,20Z"/><path class="cls-6" d="M2.11,29.34c2-.77,4.06-1.46,6.12-2.11,1.89-.6,3.8-1.17,5.72-1.66-1,0-2,0-3,0a15.12,15.12,0,0,0-1.9.21c-.63.09-1.26.14-1.89.21s-1.26.11-1.89.15l-.88.05a2.51,2.51,0,0,1-.67,0l0,.13a12,12,0,0,1-.81,1.6C2.55,28.35,2.34,28.85,2.11,29.34Z"/><path class="cls-6" d="M5.51,19.34a6.1,6.1,0,0,1-.14.72c-.08.31-.2.61-.29.92-.19.6-.37,1.19-.53,1.79s-.23,1.16-.35,1.74a8.47,8.47,0,0,1-.43,1.38h.08a14,14,0,0,0,1.83-.08c.59-.05,1.18-.08,1.77-.15,1.15-.13,2.27-.3,3.42-.32s2.34,0,3.51-.05a30.38,30.38,0,0,0-2.74-1.9c-1-.61-1.9-1.23-2.86-1.81A24.84,24.84,0,0,1,6,19.71c-.12-.09-.22-.2-.34-.28Z"/><path class="cls-6" d="M5.74,15.52c0,.6,0,1.2,0,1.81a10,10,0,0,1-.16,1.73,2.46,2.46,0,0,1,.8.56,13.45,13.45,0,0,0,1.13.86C8.3,21,9.12,21.55,10,22.05s1.67,1.06,2.49,1.61,1.43,1,2.15,1.52c-.7-.75-1.44-1.47-2.15-2.21l-2.34-2.5c-.76-.82-1.53-1.64-2.29-2.48S6.43,16.34,5.74,15.52Z"/><path class="cls-3" d="M1.94,29.7c0,.12-.24.09-.3,0-.34-.57-.61-1.18-.9-1.78a9,9,0,0,1-.63-1.61,4.53,4.53,0,0,1,0-1.56c0-.3.09-.6.1-.9a1.88,1.88,0,0,1,.1-.71,6.23,6.23,0,0,0,.2-1c.07-.26.13-.52.2-.78a12.1,12.1,0,0,1,.52-1.68c.21-.51.49-1,.74-1.47a4.46,4.46,0,0,1,.49-.78s0-.05.05-.07.27-.32.42-.48A7.54,7.54,0,0,1,4.1,16a10.27,10.27,0,0,1,1.47-.86.25.25,0,0,1,.25.08.2.2,0,0,1,.11.06c.71.9,1.48,1.74,2.22,2.61s1.45,1.7,2.2,2.51,1.59,1.66,2.39,2.48,1.59,1.7,2.4,2.53a.09.09,0,0,1,0,.15l-.19.05a.23.23,0,0,1-.13,0c-2.13.57-4.26,1.15-6.36,1.82S4.08,28.9,1.94,29.7Z"/><path class="cls-4" d="M2.35,18a9.92,9.92,0,0,0-1.08,2.34C1.11,20.89,1,21.42.85,22c-.07.25-.12.51-.21.75a1,1,0,0,0-.15.51c0,.14,0,.28,0,.42a12.52,12.52,0,0,1-.17,1.5,2.73,2.73,0,0,0,0,.41A5.67,5.67,0,0,0,1.07,24a8.26,8.26,0,0,1,.34-.87A8.92,8.92,0,0,0,1.74,22a5,5,0,0,0,.33-1.2c0-.35.07-.7.08-1.06a7.37,7.37,0,0,1,.13-1.14A5.17,5.17,0,0,0,2.35,18Zm.38-.57a.14.14,0,0,1,0,.07c0,.22-.06.43-.08.66s0,.36,0,.55a6.13,6.13,0,0,1-.1,1L4,19.34l.81-.19a2.36,2.36,0,0,1,.38-.1c.08-.54.1-1.1.14-1.65s0-1.17,0-1.75a8.6,8.6,0,0,0-2.55,1.76ZM.36,26a3.79,3.79,0,0,0,.21.77c.31.85.76,1.64,1.14,2.46.21-.45.46-.87.67-1.31s.53-1.14.8-1.72L3.3,26a5.17,5.17,0,0,1-.82-.87,6.15,6.15,0,0,0-1-1c0,.1-.07.19-.1.29A4.05,4.05,0,0,1,.37,26Zm2.13-6a2.78,2.78,0,0,1-.08.49c-.05.2-.14.38-.18.58-.09.38-.07.76-.17,1.14-.06.2-.13.39-.2.58a4,4,0,0,0-.17.59,3.1,3.1,0,0,1-.13.4,4.24,4.24,0,0,1,1.11,1l.46.54c.09.1.18.23.28.34a7.44,7.44,0,0,0,.36-1.16c.13-.57.18-1.16.32-1.74s.4-1.18.59-1.77a14.32,14.32,0,0,0,.44-1.68H5.05l-.79.22c-.57.16-1.14.31-1.72.45Zm-.4,9.32c2-.77,4.06-1.46,6.12-2.12,1.89-.59,3.79-1.16,5.71-1.65-1-.05-2,0-3.05,0A15,15,0,0,0,9,25.77c-.63.08-1.27.14-1.9.21s-1.26.1-1.89.14l-.87.05a1.88,1.88,0,0,1-.67,0l0,.14a15.84,15.84,0,0,1-.81,1.59C2.53,28.37,2.31,28.86,2.09,29.36Zm3.39-10c0,.24-.07.49-.13.72s-.2.62-.3.92c-.18.6-.37,1.19-.52,1.8s-.24,1.15-.36,1.73a8.59,8.59,0,0,1-.43,1.39h.09a15.73,15.73,0,0,0,1.82-.08c.59-.06,1.19-.09,1.78-.15a32.5,32.5,0,0,1,3.41-.32c1.17,0,2.35,0,3.51-.05a27.14,27.14,0,0,0-2.73-1.9c-.95-.62-1.9-1.23-2.87-1.82A25.72,25.72,0,0,1,6,19.73c-.11-.09-.22-.21-.34-.29A.7.7,0,0,0,5.48,19.35Zm.24-3.81c0,.6,0,1.2,0,1.8a11.13,11.13,0,0,1-.16,1.73,2.42,2.42,0,0,1,.79.56,13.72,13.72,0,0,0,1.14.87c.81.53,1.63,1.06,2.47,1.57s1.66,1.05,2.48,1.6,1.43,1,2.16,1.52c-.71-.74-1.45-1.46-2.15-2.21s-1.57-1.66-2.34-2.49S8.54,18.84,7.79,18,6.41,16.36,5.72,15.54ZM1.91,29.72c0,.11-.24.09-.29,0a19.7,19.7,0,0,1-.91-1.77,9.33,9.33,0,0,1-.62-1.62,4.48,4.48,0,0,1,0-1.55c0-.3.08-.6.1-.91a1.72,1.72,0,0,1,.09-.71,5.38,5.38,0,0,0,.21-1c.06-.26.13-.53.19-.79a12.14,12.14,0,0,1,.53-1.68c.2-.5.48-1,.73-1.47a5.69,5.69,0,0,1,.49-.78s0-.05,0-.06a3.89,3.89,0,0,1,.43-.48,7,7,0,0,1,1.2-.9,12,12,0,0,1,1.47-.86.25.25,0,0,1,.25.09.23.23,0,0,1,.12.06c.7.89,1.48,1.74,2.21,2.61s1.45,1.69,2.21,2.51,1.59,1.66,2.39,2.48,1.58,1.7,2.4,2.52a.09.09,0,0,1,0,.15l-.19.05a.22.22,0,0,1-.13,0c-2.13.57-4.26,1.15-6.36,1.81S4.06,28.91,1.91,29.72Z"/><path class="cls-7" d="M47.45,3.1a7.51,7.51,0,0,0-1.66-1.21c-.38-.21-.78-.39-1.17-.58A5.68,5.68,0,0,1,44.07,1c-.14-.09-.21-.18-.38-.2l-.33,0A8.92,8.92,0,0,1,42.22.41,1.68,1.68,0,0,0,41.9.32,4.9,4.9,0,0,0,43,1.16a4.49,4.49,0,0,1,.63.4,6.2,6.2,0,0,0,.85.44,3.3,3.3,0,0,0,.88.44c.28.07.54.17.81.23A4.94,4.94,0,0,1,47,3Z"/><path class="cls-7" d="M47.83,3.49h0l-.51-.17c-.14,0-.28-.06-.43-.09A5.65,5.65,0,0,1,46.11,3l.06,1.15c0,.23,0,.45,0,.67a1.61,1.61,0,0,1,0,.31c.42.15.85.25,1.27.37s.91.2,1.37.29a7.13,7.13,0,0,0-1-2.26Z"/><path class="cls-7" d="M41.5.28a3.28,3.28,0,0,0-.63,0c-.71.11-1.4.34-2.1.51.31.23.6.49.92.73l1.21.89.2.14a4,4,0,0,1,.81-.5,4.75,4.75,0,0,0,1-.63l-.21-.12a3.34,3.34,0,0,1-1.16-1Z"/><path class="cls-7" d="M45.85,2.89a2.79,2.79,0,0,1-.37-.14c-.14-.07-.27-.17-.42-.23s-.58-.17-.86-.32A4.19,4.19,0,0,1,43.78,2c-.15-.09-.28-.15-.44-.23a2.09,2.09,0,0,1-.29-.16,3.37,3.37,0,0,1-1,.71l-.49.27a2.38,2.38,0,0,0-.31.17,7.51,7.51,0,0,0,.84.46c.43.2.89.32,1.31.53s.87.49,1.3.73A9.5,9.5,0,0,0,46,5.05V5c0-.22,0-.44,0-.65,0-.48-.06-.95-.08-1.42Z"/><path class="cls-7" d="M38.64,1.11c.28,1.7.5,3.4.69,5.11s.31,3.15.39,4.72c.2-.78.35-1.58.5-2.37a11,11,0,0,0,.14-1.52c0-.5.09-1,.13-1.51s.12-1,.19-1.5c0-.23.06-.46.1-.69a1.58,1.58,0,0,1,.12-.52l-.1-.06a10.57,10.57,0,0,1-1.12-.88C39.35,1.61,39,1.36,38.64,1.11Z"/><path class="cls-7" d="M45.92,5.34c-.18-.07-.37-.14-.54-.22l-.68-.38c-.43-.24-.86-.47-1.31-.69s-.87-.37-1.3-.55a7.27,7.27,0,0,1-1-.56s0,.05,0,.07a11.36,11.36,0,0,0-.22,1.44c0,.47-.12.93-.16,1.41-.08.91-.12,1.81-.29,2.72s-.39,1.82-.52,2.74a23.63,23.63,0,0,0,1.92-1.83c.63-.65,1.26-1.29,1.87-1.95a21,21,0,0,1,1.9-1.87,2.78,2.78,0,0,0,.27-.21A.9.9,0,0,0,45.92,5.34Z"/><path class="cls-7" d="M48.86,6.12c-.47-.09-.93-.21-1.4-.31a8.81,8.81,0,0,1-1.33-.39,2.18,2.18,0,0,1-.56.53,10.26,10.26,0,0,0-.86.75c-.54.55-1.09,1.11-1.61,1.68S42,9.51,41.45,10.07s-1,.95-1.52,1.44c.69-.43,1.37-.9,2.06-1.33s1.54-1,2.32-1.43l2.3-1.4C47.35,6.91,48.11,6.53,48.86,6.12Z"/><path class="cls-4" d="M38.39.91c-.09,0,0-.2,0-.23.5-.17,1-.29,1.53-.42A6.24,6.24,0,0,1,41.33,0a3.44,3.44,0,0,1,1.22.21c.23.07.45.16.69.22a1.5,1.5,0,0,1,.54.18,4.23,4.23,0,0,0,.75.32l.58.28a9.77,9.77,0,0,1,1.23.67c.36.25.69.54,1,.81a4.32,4.32,0,0,1,.54.5.1.1,0,0,1,0,0c.11.13.21.27.31.41a5.38,5.38,0,0,1,.5,1.09,8.09,8.09,0,0,1,.45,1.28.2.2,0,0,1-.11.18.14.14,0,0,1-.07.08c-.81.41-1.59.88-2.38,1.32S45.1,8.49,44.34,9s-1.55,1-2.31,1.48-1.58,1-2.35,1.48a.08.08,0,0,1-.12-.05V11.7a.2.2,0,0,1,0-.11c-.11-1.75-.23-3.5-.42-5.25S38.68,2.71,38.39.91Z"/><path class="cls-3" d="M47.44,3.07a8.21,8.21,0,0,0-1.66-1.21c-.38-.2-.77-.39-1.17-.58A4.07,4.07,0,0,1,44.06,1a1,1,0,0,0-.38-.2c-.1,0-.22,0-.32-.05A9,9,0,0,1,42.21.39,1.68,1.68,0,0,0,41.89.3,4.73,4.73,0,0,0,43,1.14a6,6,0,0,1,.63.39,6.13,6.13,0,0,0,.84.45,3.62,3.62,0,0,0,.88.44c.28.07.54.17.82.23a6.78,6.78,0,0,1,.87.28A2.3,2.3,0,0,0,47.44,3.07Zm.38.4h0l-.5-.17c-.14,0-.29-.06-.43-.09A5.79,5.79,0,0,1,46.1,3l.06,1.15c0,.22,0,.45,0,.67s0,.21,0,.31c.41.15.84.25,1.27.37s.9.2,1.36.29a7,7,0,0,0-1-2.26ZM41.49.26a3.28,3.28,0,0,0-.63,0c-.71.11-1.4.33-2.1.51.32.23.6.49.92.73l1.22.89.19.14a3.92,3.92,0,0,1,.82-.5,5.48,5.48,0,0,0,1-.63l-.21-.13a3.22,3.22,0,0,1-1.16-1Zm4.36,2.61c-.13-.05-.26-.08-.38-.14s-.27-.17-.42-.24-.58-.16-.86-.31a4.64,4.64,0,0,1-.42-.25c-.15-.09-.28-.14-.43-.22L43,1.55a3.47,3.47,0,0,1-.95.71l-.5.27-.31.16a6.36,6.36,0,0,0,.85.47c.43.19.88.32,1.31.52s.86.5,1.29.74A11.87,11.87,0,0,0,46,5V5c0-.22,0-.44,0-.66,0-.47-.05-.94-.08-1.41A.06.06,0,0,1,45.85,2.87ZM38.63,1.09c.28,1.69.5,3.4.69,5.11s.31,3.15.39,4.72c.2-.78.36-1.58.5-2.37A11.16,11.16,0,0,0,40.35,7c0-.5.09-1,.14-1.51s.11-1,.18-1.5c0-.23.06-.46.1-.69a1.87,1.87,0,0,1,.12-.52l-.1-.06a11.81,11.81,0,0,1-1.12-.89C39.34,1.58,39,1.34,38.63,1.09Zm7.28,4.22a4.08,4.08,0,0,1-.54-.22c-.23-.11-.45-.25-.67-.37-.44-.24-.87-.48-1.32-.69s-.87-.37-1.3-.55a6.65,6.65,0,0,1-1-.56L41,3a11.48,11.48,0,0,0-.22,1.43c0,.47-.12.94-.16,1.41a27.24,27.24,0,0,1-.29,2.72c-.17.92-.39,1.83-.51,2.75a23.58,23.58,0,0,0,1.91-1.83c.63-.65,1.26-1.29,1.87-2a22.25,22.25,0,0,1,1.9-1.86,2.88,2.88,0,0,0,.27-.22A.35.35,0,0,0,45.91,5.31Zm3,.79c-.47-.09-.94-.22-1.41-.31a8.1,8.1,0,0,1-1.33-.4,1.92,1.92,0,0,1-.56.54,10.12,10.12,0,0,0-.85.75q-.83.83-1.62,1.68c-.53.58-1.09,1.13-1.64,1.69s-1,.95-1.53,1.44c.69-.44,1.37-.9,2.06-1.33L44.3,8.72c.77-.46,1.53-.94,2.3-1.39S48.1,6.51,48.86,6.1ZM38.38.89c-.09,0,0-.2,0-.23.5-.18,1-.29,1.53-.43A7.73,7.73,0,0,1,41.32,0a3.91,3.91,0,0,1,1.22.21c.23.07.46.17.69.23a1.5,1.5,0,0,1,.54.18,4.57,4.57,0,0,0,.75.32l.59.28a9,9,0,0,1,1.22.67c.37.24.7.54,1,.81a4.18,4.18,0,0,1,.53.5.07.07,0,0,1,0,0c.11.13.21.27.31.41a6.26,6.26,0,0,1,.51,1.08A10.19,10.19,0,0,1,49.2,6a.21.21,0,0,1-.11.19.16.16,0,0,1-.06.08c-.81.41-1.59.88-2.39,1.32s-1.55.86-2.31,1.32-1.54,1-2.31,1.48-1.58,1-2.35,1.48a.07.07,0,0,1-.11-.06v-.15a.19.19,0,0,1,0-.11c-.11-1.75-.23-3.51-.41-5.25S38.67,2.69,38.38.89Z"/><path class="cls-8" d="M25.48,3.42a4.57,4.57,0,0,0-1.22.19c-.25.07-.5.16-.75.25a2,2,0,0,1-.35.11.57.57,0,0,0-.25.08l-.16.12a4.83,4.83,0,0,1-.64.33.59.59,0,0,0-.17.1,2.82,2.82,0,0,0,.81-.11,3.48,3.48,0,0,1,.44-.1,3.5,3.5,0,0,0,.55-.17A2.18,2.18,0,0,0,24.3,4c.15-.09.3-.15.45-.24a2.82,2.82,0,0,1,.49-.25Z"/><path class="cls-8" d="M25.81,3.42s0,0,0,0l-.29.15a1.64,1.64,0,0,0-.22.14c-.13.08-.27.15-.41.22l.51.46.3.27a.86.86,0,0,0,.14.13c.24-.11.46-.25.69-.38s.47-.3.71-.46a4.2,4.2,0,0,0-1.38-.55Z"/><path class="cls-8" d="M21.75,4.75A1.68,1.68,0,0,0,21.5,5a10.28,10.28,0,0,0-.68,1.11c.23,0,.46-.05.7-.09l.9-.13.14,0a2.54,2.54,0,0,1,.13-.56,2.6,2.6,0,0,0,.15-.67l-.15,0a2,2,0,0,1-.93,0Z"/><path class="cls-8" d="M24.71,4l-.21.1-.28.07c-.18.07-.32.18-.51.24l-.28.07-.28.09a1.39,1.39,0,0,1-.19.06,2.15,2.15,0,0,1-.11.71l-.09.32c0,.07-.05.14-.06.2a3.8,3.8,0,0,0,.55-.16c.27-.1.52-.23.78-.33s.58-.16.87-.24a6.14,6.14,0,0,0,.79-.27l0,0-.29-.26c-.22-.18-.43-.37-.64-.56Z"/><path class="cls-8" d="M20.88,6.32c.85.6,1.66,1.23,2.47,1.88s1.47,1.21,2.18,1.85c-.25-.42-.53-.83-.8-1.23a6.53,6.53,0,0,0-.58-.7c-.21-.23-.4-.47-.59-.7s-.38-.48-.56-.72-.17-.22-.25-.34a1,1,0,0,1-.17-.27l-.07,0a8.2,8.2,0,0,1-.85.1C21.4,6.23,21.14,6.28,20.88,6.32Z"/><path class="cls-8" d="M25.78,5l-.32.14L25,5.28c-.29.09-.57.17-.85.27s-.53.21-.79.32a3.69,3.69,0,0,1-.67.19l0,0a6.16,6.16,0,0,0,.52.71c.17.22.34.45.53.67a16,16,0,0,1,1,1.28c.32.46.61.94.95,1.39a14.25,14.25,0,0,0,0-1.6c0-.54,0-1.08,0-1.63a12.21,12.21,0,0,1,0-1.6c0-.07,0-.14,0-.21A.28.28,0,0,0,25.78,5Z"/><path class="cls-8" d="M27.37,4.1l-.73.47a5.12,5.12,0,0,1-.73.39,1.24,1.24,0,0,1,0,.47c0,.23,0,.45,0,.68q0,.7,0,1.41c0,.47,0,.94,0,1.42s0,.84,0,1.26c.11-.48.2-1,.31-1.44s.25-1.07.38-1.6.25-1,.38-1.58S27.22,4.59,27.37,4.1Z"/><path class="cls-3" d="M20.69,6.34s-.1-.07-.07-.12a8.72,8.72,0,0,1,.47-.83,4.42,4.42,0,0,1,.48-.68,2.35,2.35,0,0,1,.6-.43c.13-.06.27-.12.39-.19a.84.84,0,0,1,.31-.16,2.92,2.92,0,0,0,.46-.18l.37-.13a7.36,7.36,0,0,1,.8-.24c.26,0,.53-.06.79-.09a2.16,2.16,0,0,1,.44,0h0l.3,0a3.26,3.26,0,0,1,.68.25,4.46,4.46,0,0,1,.73.35.15.15,0,0,1,0,.13.06.06,0,0,1,0,.06c-.17.52-.3,1-.45,1.58s-.3,1-.42,1.54-.24,1.08-.36,1.62-.26,1.08-.37,1.63a0,0,0,0,1-.07,0l-.07-.06-.05,0c-.79-.7-1.59-1.4-2.41-2.06S21.58,7,20.69,6.34Z"/><path class="cls-4" d="M25.47,3.41a4.93,4.93,0,0,0-1.22.19c-.26.07-.5.16-.75.25a3.59,3.59,0,0,1-.35.12A.55.55,0,0,0,22.9,4l-.16.12a5.54,5.54,0,0,1-.64.33l-.18.1a2.85,2.85,0,0,0,.82-.11c.15,0,.29-.07.44-.09a4.84,4.84,0,0,0,.54-.17A2.12,2.12,0,0,0,24.29,4l.45-.25a3.75,3.75,0,0,1,.49-.25Zm.32,0,0,0-.28.14c-.08,0-.15.1-.22.14a2.41,2.41,0,0,1-.42.22c.18.15.35.31.52.47l.3.27a1.59,1.59,0,0,1,.13.13c.24-.12.47-.26.7-.39s.47-.3.71-.45a4.07,4.07,0,0,0-1.38-.55ZM21.74,4.74a2.35,2.35,0,0,0-.26.29c-.25.35-.45.74-.67,1.11.23,0,.46,0,.7-.08l.89-.14.15,0a2.54,2.54,0,0,1,.13-.56,2.65,2.65,0,0,0,.14-.68l-.14,0a2,2,0,0,1-.93.06Zm3-.74-.22.1c-.09,0-.19,0-.28.08a4.52,4.52,0,0,1-.5.23l-.28.08a1.52,1.52,0,0,0-.28.09l-.2,0a1.88,1.88,0,0,1-.1.71c0,.11-.07.22-.1.33s0,.13-.06.2a3.92,3.92,0,0,0,.56-.16c.27-.1.51-.24.78-.34s.58-.15.87-.23a7.19,7.19,0,0,0,.78-.27l0,0-.3-.26L24.72,4ZM20.87,6.31c.84.61,1.66,1.24,2.47,1.89S24.81,9.4,25.52,10c-.25-.42-.53-.83-.8-1.22a6.73,6.73,0,0,0-.59-.71c-.2-.23-.39-.47-.58-.7s-.38-.47-.56-.72l-.25-.33a.9.9,0,0,1-.18-.28l-.06,0a6.12,6.12,0,0,1-.86.1C21.38,6.22,21.13,6.27,20.87,6.31ZM25.77,5a3.27,3.27,0,0,1-.33.14L25,5.28l-.86.26-.78.32a4.26,4.26,0,0,1-.67.2s0,0,0,0a7,7,0,0,0,.51.7l.53.67a14.17,14.17,0,0,1,1,1.28c.31.46.61.94.95,1.39a14.24,14.24,0,0,0,0-1.6q0-.81,0-1.62a12.2,12.2,0,0,1,0-1.6,1.52,1.52,0,0,0,0-.21A.31.31,0,0,0,25.77,5Zm1.59-.92c-.24.17-.49.31-.73.47a4.78,4.78,0,0,1-.74.4,1,1,0,0,1,0,.46c0,.23,0,.46,0,.69,0,.46,0,.93,0,1.4s0,1,0,1.42,0,.84,0,1.26c.11-.48.2-1,.31-1.44s.25-1.07.38-1.6.25-1.05.38-1.57S27.21,4.59,27.36,4.09ZM20.68,6.34s-.1-.08-.08-.12c.14-.29.31-.56.47-.83a4.15,4.15,0,0,1,.48-.68,2.12,2.12,0,0,1,.61-.43l.39-.2a1,1,0,0,1,.31-.15,3,3,0,0,0,.46-.19l.36-.13a6.15,6.15,0,0,1,.81-.23c.26,0,.52-.07.78-.1a2.26,2.26,0,0,1,.45,0s0,0,0,0a1.57,1.57,0,0,1,.3,0,2.75,2.75,0,0,1,.68.24,5.49,5.49,0,0,1,.73.36.11.11,0,0,1,0,.12.07.07,0,0,1,0,.06c-.17.52-.3,1.05-.45,1.58s-.3,1-.42,1.55-.24,1.07-.36,1.61-.26,1.08-.37,1.63c0,0,0,0-.07,0l-.07-.06s0,0-.05,0c-.79-.7-1.59-1.4-2.41-2.06S21.57,7,20.68,6.34Z"/><path class="cls-9" d="M57.55,43.81A4.6,4.6,0,0,0,58.3,43l.38-.61c.06-.09.11-.2.18-.29s.11-.1.13-.19,0-.12,0-.18a3.2,3.2,0,0,1,.26-.6,1.15,1.15,0,0,0,.06-.17,2.62,2.62,0,0,0-.51.54,4.08,4.08,0,0,1-.25.33,3.23,3.23,0,0,0-.29.43,2.52,2.52,0,0,0-.29.46c-.05.15-.12.29-.17.43a4.89,4.89,0,0,1-.2.46A2.29,2.29,0,0,0,57.55,43.81Z"/><path class="cls-9" d="M57.31,44s0,0,0,0,.08-.18.11-.27a1.55,1.55,0,0,0,.08-.23,3.2,3.2,0,0,1,.16-.39l-.63,0-.37,0H56.5c-.1.22-.18.45-.27.67s-.16.49-.23.73A3.75,3.75,0,0,0,57.29,44Z"/><path class="cls-9" d="M59.41,40.71a2,2,0,0,0,0-.35,11.78,11.78,0,0,0-.17-1.17c-.14.16-.3.3-.44.46s-.37.41-.56.62l-.08.1a2.92,2.92,0,0,1,.23.47,2.48,2.48,0,0,0,.29.56.76.76,0,0,1,.08-.11,1.84,1.84,0,0,1,.63-.58Z"/><path class="cls-9" d="M57.74,43c0-.07.06-.14.1-.2s.11-.14.15-.21.13-.31.22-.46l.16-.22a1.64,1.64,0,0,0,.14-.22l.11-.15a2.15,2.15,0,0,1-.34-.56l-.12-.29a1.22,1.22,0,0,0-.07-.17,2.74,2.74,0,0,0-.3.43c-.13.22-.23.47-.36.69s-.32.44-.47.67a5.27,5.27,0,0,0-.4.64H57l.77,0Z"/><path class="cls-9" d="M59.11,39.1c-.94.07-1.89.1-2.83.1s-1.74,0-2.6,0c.42.15.85.28,1.27.41a5.64,5.64,0,0,0,.82.15l.82.16c.27,0,.54.12.81.18l.37.09a.92.92,0,0,1,.28.09l0,0a5.94,5.94,0,0,1,.55-.57C58.8,39.46,59,39.28,59.11,39.1Z"/><path class="cls-9" d="M56.41,42.85a1.91,1.91,0,0,1,.15-.28c.07-.12.16-.23.24-.35l.45-.68c.13-.22.24-.45.37-.68a3.8,3.8,0,0,1,.36-.53h0a5.46,5.46,0,0,0-.77-.2L56.41,40a14.17,14.17,0,0,1-1.47-.3c-.49-.14-1-.31-1.48-.43a14.23,14.23,0,0,0,.9,1.15c.32.37.64.75,1,1.12a12.28,12.28,0,0,1,.91,1.14l.11.16A.17.17,0,0,0,56.41,42.85Z"/><path class="cls-9" d="M55.82,44.42c.07-.25.17-.5.24-.75a5.56,5.56,0,0,1,.29-.71c-.12-.07-.18-.22-.26-.33a4.67,4.67,0,0,0-.36-.51c-.27-.33-.55-.66-.83-1s-.56-.66-.84-1-.46-.62-.7-.91L54,40.44l.66,1.35c.22.44.43.88.64,1.33S55.64,44,55.82,44.42Z"/><path class="cls-3" d="M59.23,39s.11,0,.12,0a8.41,8.41,0,0,1,.15.85,3.9,3.9,0,0,1,.06.76,1.92,1.92,0,0,1-.19.66c0,.12-.11.24-.15.36a1.08,1.08,0,0,1-.13.29,1.64,1.64,0,0,0-.22.39l-.18.3a5.58,5.58,0,0,1-.44.64c-.15.18-.33.35-.49.52a2.51,2.51,0,0,1-.31.26s0,0,0,0l-.24.15a3,3,0,0,1-.62.22,5.4,5.4,0,0,1-.72.17.11.11,0,0,1-.09-.07s0,0,0,0c-.18-.46-.4-.92-.59-1.37s-.39-.9-.6-1.34-.46-.89-.69-1.34-.44-.91-.68-1.36a0,0,0,0,1,0-.06h.14c1,0,1.93.07,2.9.06S58.23,39,59.23,39Z"/><path class="cls-4" d="M57.56,43.8a4,4,0,0,0,.75-.84c.13-.19.26-.4.38-.6a2.82,2.82,0,0,1,.18-.29c.06-.07.11-.1.13-.19s0-.12,0-.18a6.57,6.57,0,0,1,.26-.61.52.52,0,0,0,.06-.16,2.39,2.39,0,0,0-.51.54,3.92,3.92,0,0,1-.25.32,4.17,4.17,0,0,0-.29.44,2,2,0,0,0-.29.46c-.05.15-.12.28-.17.43a2.37,2.37,0,0,1-.2.46A2.14,2.14,0,0,0,57.56,43.8Zm-.23.19a0,0,0,0,1,0,0c0-.09.08-.17.12-.26s0-.16.07-.23a1.71,1.71,0,0,1,.17-.39l-.64,0-.36,0h-.18c-.1.21-.18.44-.27.67s-.15.48-.23.73A3.75,3.75,0,0,0,57.3,44Zm2.09-3.28a2.08,2.08,0,0,0,0-.35c0-.39-.11-.78-.16-1.17l-.45.46c-.19.2-.37.41-.55.62l-.09.09a2.35,2.35,0,0,1,.23.48,2.48,2.48,0,0,0,.29.56,1,1,0,0,1,.08-.11,1.84,1.84,0,0,1,.63-.58ZM57.76,43l.09-.2c0-.08.11-.14.16-.22s.12-.31.21-.45.11-.15.16-.22a1.7,1.7,0,0,0,.15-.22.86.86,0,0,1,.1-.16,1.87,1.87,0,0,1-.34-.56c0-.09-.07-.19-.12-.28a1.34,1.34,0,0,0-.07-.18,3.41,3.41,0,0,0-.3.44c-.13.22-.22.46-.36.68a8,8,0,0,1-.47.67,7.06,7.06,0,0,0-.4.65H57l.78,0Zm1.36-3.85c-.94.06-1.88.09-2.83.1s-1.73,0-2.6,0c.42.15.85.28,1.27.4a7.43,7.43,0,0,0,.82.16c.28,0,.55.1.82.15l.81.19a2.49,2.49,0,0,1,.37.09.92.92,0,0,1,.28.09l0-.05a5.69,5.69,0,0,1,.54-.56C58.81,39.46,59,39.28,59.12,39.1Zm-2.7,3.75a2.49,2.49,0,0,1,.15-.28c.07-.12.16-.24.24-.35s.31-.45.45-.68.25-.46.37-.69a4.4,4.4,0,0,1,.36-.52h0a4.83,4.83,0,0,0-.77-.2L56.42,40a14.17,14.17,0,0,1-1.47-.3c-.49-.15-1-.31-1.47-.43a10.72,10.72,0,0,0,.9,1.14c.31.38.63.76,1,1.13a10.11,10.11,0,0,1,.91,1.14l.11.16Zm-.59,1.56c.08-.25.17-.49.25-.75a4.65,4.65,0,0,1,.28-.7,1.28,1.28,0,0,1-.26-.34,5.74,5.74,0,0,0-.36-.5c-.27-.33-.55-.66-.83-1s-.56-.65-.83-1-.47-.61-.71-.91c.2.4.42.8.61,1.2s.45.9.66,1.35.44.88.64,1.33S55.65,44,55.83,44.41ZM59.24,39s.11,0,.12,0c.07.29.11.57.16.86a4.85,4.85,0,0,1,0,.76,2.18,2.18,0,0,1-.18.65c0,.13-.12.24-.16.37a.9.9,0,0,1-.13.28,2.56,2.56,0,0,0-.22.4l-.18.3a4.66,4.66,0,0,1-.43.63c-.16.19-.33.35-.5.53l-.3.26,0,0-.24.14a2.87,2.87,0,0,1-.62.22,4.58,4.58,0,0,1-.73.18.13.13,0,0,1-.09-.07l0,0c-.18-.47-.4-.92-.59-1.38s-.39-.89-.6-1.33-.45-.9-.68-1.34-.45-.92-.68-1.37c0,0,0,0,0,0h.15c1,0,1.92.07,2.89.06S58.24,39,59.24,39Z"/><path class="cls-4" d="M9.11,40.91a3.72,3.72,0,0,0,.49.81q.18.22.39.45a1.92,1.92,0,0,1,.18.22.44.44,0,0,0,.12.15l.13.08a3.76,3.76,0,0,1,.42.36l.12.1a2,2,0,0,0-.31-.55,1.73,1.73,0,0,1-.19-.28,2.3,2.3,0,0,0-.28-.34,2,2,0,0,0-.29-.35l-.31-.24A2.06,2.06,0,0,1,9.27,41Z"/><path class="cls-4" d="M9,40.67H9l.19.16a1.67,1.67,0,0,0,.16.12,2,2,0,0,1,.27.23l.18-.5c0-.1.08-.19.11-.29s0-.09.05-.13a5.58,5.58,0,0,0-.47-.38A6.15,6.15,0,0,0,9,39.52a3.3,3.3,0,0,0,0,1.13Z"/><path class="cls-4" d="M11.12,43.17a1.52,1.52,0,0,0,.28.09c.32.08.65.11,1,.16-.09-.15-.17-.31-.26-.47l-.36-.59a.31.31,0,0,0,0-.1,2.24,2.24,0,0,1-.44.07,1.89,1.89,0,0,0-.52.09l.07.09a1.44,1.44,0,0,1,.3.65Z"/><path class="cls-4" d="M9.75,41.28l.13.13c0,.05.09.12.14.17s.21.18.31.29l.13.18.14.17.1.12a2,2,0,0,1,.53-.13l.26,0,.16,0a2.88,2.88,0,0,0-.27-.34c-.15-.16-.32-.3-.46-.46s-.28-.37-.42-.55a6.27,6.27,0,0,0-.42-.48v0l-.09.28c-.07.21-.15.41-.22.61Z"/><path class="cls-4" d="M12.48,43.33c.19-.77.4-1.53.63-2.29s.43-1.38.68-2.07c-.22.3-.43.61-.64.92s-.22.41-.33.62-.22.41-.33.61-.23.4-.34.6L12,42a.9.9,0,0,1-.14.2l0,0a4.59,4.59,0,0,1,.32.57C12.27,43,12.38,43.16,12.48,43.33Z"/><path class="cls-4" d="M10.16,40.23l.19.2c.08.08.14.18.22.27s.28.36.43.53.3.31.45.47a2.78,2.78,0,0,1,.33.42l0,0a3.62,3.62,0,0,0,.35-.57l.33-.56a9.06,9.06,0,0,1,.61-1.1c.23-.36.49-.7.71-1.07a11.13,11.13,0,0,0-1.14.43c-.38.16-.77.32-1.14.49a9.31,9.31,0,0,1-1.14.45l-.16,0Z"/><path class="cls-4" d="M9.06,39.37l.53.39a4.87,4.87,0,0,1,.5.4.93.93,0,0,1,.33-.12,4,4,0,0,0,.49-.17c.34-.13.66-.27,1-.42s.66-.28,1-.42.6-.21.9-.33l-1.11.19-1.24.19-1.22.18C9.84,39.31,9.45,39.34,9.06,39.37Z"/><path class="cls-4" d="M12.55,43.46s0,.09-.06.09c-.24,0-.48-.06-.72-.1a3.27,3.27,0,0,1-.62-.14,1.88,1.88,0,0,1-.48-.31l-.25-.22a.86.86,0,0,1-.2-.18,1.64,1.64,0,0,0-.26-.27c-.06-.07-.13-.14-.19-.22a3.81,3.81,0,0,1-.4-.5,5.45,5.45,0,0,1-.29-.53,1.73,1.73,0,0,1-.14-.31,0,0,0,0,1,0,0,1.55,1.55,0,0,1,0-.23,2.45,2.45,0,0,1,0-.54,4.46,4.46,0,0,1,.05-.63s0-.06.08-.06l0,0c.41,0,.83-.08,1.24-.13s.82-.08,1.22-.14l1.24-.21c.42-.08.84-.13,1.26-.2,0,0,0,0,0,0l0,.07s0,0,0,0c-.27.76-.53,1.53-.77,2.3S12.75,42.64,12.55,43.46Z"/><path class="cls-3" d="M9.11,40.92a3.72,3.72,0,0,0,.49.81q.18.23.39.45a1.92,1.92,0,0,1,.18.22.44.44,0,0,0,.12.15l.13.08a5,5,0,0,1,.42.36l.12.1a2,2,0,0,0-.31-.55,1.73,1.73,0,0,1-.19-.28,2.3,2.3,0,0,0-.28-.34,2,2,0,0,0-.3-.35l-.3-.24a2.06,2.06,0,0,1-.31-.28ZM9,40.68H9c.07.05.12.11.18.16l.17.12a2,2,0,0,1,.27.23l.18-.5a2.49,2.49,0,0,0,.11-.29s0-.09.05-.13a5.58,5.58,0,0,0-.47-.38c-.17-.14-.35-.25-.52-.37a3.3,3.3,0,0,0,0,1.13Zm2.1,2.5a1.52,1.52,0,0,0,.28.09,8,8,0,0,0,1,.16c-.1-.15-.17-.31-.26-.47l-.36-.59a.93.93,0,0,0,0-.1,2.24,2.24,0,0,1-.44.07,1.89,1.89,0,0,0-.52.09l.07.09a1.55,1.55,0,0,1,.3.65ZM9.75,41.29a1.59,1.59,0,0,1,.13.13s.09.12.14.17.21.18.31.29l.13.18.14.17.1.12a2,2,0,0,1,.53-.13l.26,0,.16,0a2.2,2.2,0,0,0-.28-.34c-.14-.16-.31-.3-.45-.46s-.28-.37-.42-.55a6.27,6.27,0,0,0-.42-.48v0l-.09.28c-.07.21-.15.41-.22.61Zm2.73,2.05c.19-.77.4-1.53.63-2.29s.43-1.38.68-2.07c-.23.3-.44.61-.64.92s-.22.41-.33.62-.22.41-.33.61-.23.4-.34.6L12,42a.7.7,0,0,1-.15.2l0,0a4.59,4.59,0,0,1,.32.57C12.27,43,12.38,43.17,12.48,43.34Zm-2.32-3.1.19.2.22.27c.14.18.28.36.43.53s.3.31.45.47a3.39,3.39,0,0,1,.33.42l0,0a4,4,0,0,0,.35-.56l.33-.57a9.88,9.88,0,0,1,.61-1.1c.23-.36.49-.7.71-1.07a11.13,11.13,0,0,0-1.14.43c-.38.16-.77.32-1.14.49a9.31,9.31,0,0,1-1.14.45l-.16,0Zm-1.1-.85.53.38a3.88,3.88,0,0,1,.49.4,1.06,1.06,0,0,1,.34-.12,4,4,0,0,0,.49-.17l1-.42,1-.42.9-.33-1.11.19-1.24.19c-.41.06-.81.13-1.22.18Zm3.49,4.08s0,.09-.06.09c-.24,0-.48-.06-.72-.1a3.27,3.27,0,0,1-.62-.14,1.88,1.88,0,0,1-.48-.31l-.25-.22c-.07-.06-.15-.09-.2-.18s-.18-.17-.26-.27-.13-.14-.19-.22a3.13,3.13,0,0,1-.4-.5c-.11-.17-.2-.35-.3-.53a2.88,2.88,0,0,1-.13-.31,0,0,0,0,1,0,0l-.06-.23a3.25,3.25,0,0,1,0-.54,4.46,4.46,0,0,1,.05-.63s0-.06.07-.05l0,0c.41,0,.83-.08,1.24-.13s.81-.08,1.22-.14l1.24-.21,1.26-.2s0,0,0,0l0,.07a.08.08,0,0,1,0,0c-.27.76-.54,1.53-.77,2.3S12.75,42.65,12.55,43.47Z"/><path class="cls-10" d="M41.64,58.91a7.47,7.47,0,0,0,1.83-.07c.38-.06.76-.15,1.14-.23a5.17,5.17,0,0,1,.54-.11.78.78,0,0,0,.37-.06c.09,0,.17-.11.26-.15a7.66,7.66,0,0,1,1-.37l.27-.11a3.84,3.84,0,0,0-1.22,0,4.93,4.93,0,0,1-.66.07,6.17,6.17,0,0,0-.84.15,3.14,3.14,0,0,0-.86.18l-.7.28a5,5,0,0,1-.77.28Z"/><path class="cls-10" d="M41.16,58.84l0,0,.44-.16a2.81,2.81,0,0,0,.35-.17,3.91,3.91,0,0,1,.65-.24L42,57.46,41.58,57a1.92,1.92,0,0,1-.18-.22c-.38.13-.74.29-1.1.44s-.74.36-1.11.55a6.11,6.11,0,0,0,1.92,1Z"/><path class="cls-10" d="M47.36,57.61a2.53,2.53,0,0,0,.42-.37c.44-.47.8-1,1.2-1.51-.35,0-.7,0-1,0l-1.34,0h-.21a4,4,0,0,1-.3.8,4.27,4.27,0,0,0-.33,1l.21,0a2.84,2.84,0,0,1,1.39.09Z"/><path class="cls-10" d="M42.87,58.17a3.37,3.37,0,0,1,.34-.1c.14,0,.28,0,.42-.07s.51-.2.78-.25.29,0,.43-.06l.43-.08.3,0a3,3,0,0,1,.28-1c.06-.16.13-.31.2-.47s.09-.18.12-.28a6.54,6.54,0,0,0-.85.14c-.4.1-.79.25-1.2.35s-.88.12-1.32.19a9.87,9.87,0,0,0-1.2.26l0,0c.12.15.26.29.39.44l.83.94S42.87,58.16,42.87,58.17Z"/><path class="cls-10" d="M48.91,55.46c-1.13-1-2.22-2.11-3.29-3.21s-1.95-2-2.87-3.1c.29.66.63,1.31,1,2a12.2,12.2,0,0,0,.74,1.13c.26.38.49.76.74,1.14s.46.76.69,1.15c.11.18.21.36.31.54a1.72,1.72,0,0,1,.21.43h.09a9.11,9.11,0,0,1,1.28,0C48.15,55.5,48.53,55.48,48.91,55.46Z"/><path class="cls-10" d="M41.48,56.5a4.74,4.74,0,0,1,.5-.15l.68-.11c.44-.07.87-.14,1.31-.23s.81-.22,1.21-.33a7,7,0,0,1,1-.17s0,0,0-.06a10.54,10.54,0,0,0-.64-1.13c-.22-.36-.43-.72-.66-1.08-.44-.68-.91-1.34-1.29-2.06s-.73-1.5-1.15-2.21a20.41,20.41,0,0,0-.33,2.33c-.09.8-.18,1.6-.24,2.4a18.42,18.42,0,0,1-.31,2.35c0,.1-.06.21-.07.31A.71.71,0,0,0,41.48,56.5Z"/><path class="cls-10" d="M39,57.56,40.14,57a7,7,0,0,1,1.15-.45,1.81,1.81,0,0,1,.1-.69,8.63,8.63,0,0,0,.19-1c.08-.69.16-1.38.21-2.07s.14-1.39.23-2.09.19-1.23.27-1.85c-.24.68-.46,1.38-.71,2.07l-.84,2.28c-.28.75-.56,1.5-.85,2.24S39.29,56.86,39,57.56Z"/><path class="cls-4" d="M49.2,55.46c.07,0,.13.12.09.19-.25.4-.55.76-.84,1.14a7.1,7.1,0,0,1-.82.91,3.3,3.3,0,0,1-1,.52c-.2.08-.41.14-.6.22a1.43,1.43,0,0,1-.49.17,4.88,4.88,0,0,0-.7.19l-.56.13a10.5,10.5,0,0,1-1.23.2c-.39,0-.78,0-1.17,0a3.49,3.49,0,0,1-.65-.06.07.07,0,0,1-.06,0,3.6,3.6,0,0,1-.44-.12,5,5,0,0,1-1-.48,6.74,6.74,0,0,1-1-.66.15.15,0,0,1,0-.18.17.17,0,0,1,0-.1c.34-.73.63-1.49,1-2.23s.62-1.46.89-2.2.55-1.54.81-2.31.58-1.55.84-2.33a.06.06,0,0,1,.11,0l.09.1a.14.14,0,0,1,.06.07c1,1.17,2.09,2.34,3.18,3.46S48,54.35,49.2,55.46Z"/><path class="cls-3" d="M41.66,58.92a7.47,7.47,0,0,0,1.83-.06c.38-.07.76-.16,1.13-.24a5.35,5.35,0,0,1,.55-.11.78.78,0,0,0,.37-.06l.26-.15a7.17,7.17,0,0,1,1-.37l.27-.11a4.16,4.16,0,0,0-1.22,0,5.08,5.08,0,0,1-.67.07,6,6,0,0,0-.83.15,3.29,3.29,0,0,0-.87.18c-.22.11-.46.18-.69.28a5.46,5.46,0,0,1-.77.28Zm-.48-.07,0,0,.45-.16a2.81,2.81,0,0,0,.35-.17,3.81,3.81,0,0,1,.64-.24L42,57.47,41.59,57l-.18-.21c-.37.12-.73.28-1.09.43s-.75.36-1.12.55a6.07,6.07,0,0,0,1.93,1.05Zm6.2-1.22a3.89,3.89,0,0,0,.42-.38c.44-.47.8-1,1.19-1.51-.34,0-.69,0-1,0l-1.34.05h-.22a4.13,4.13,0,0,1-.29.79,4.3,4.3,0,0,0-.34,1l.22,0a2.85,2.85,0,0,1,1.39.09Zm-4.49.55a3.37,3.37,0,0,1,.34-.1c.14,0,.28,0,.42-.07s.5-.2.78-.25.29,0,.43-.06l.43-.08.29,0a3.29,3.29,0,0,1,.28-1c.07-.16.14-.31.2-.46s.09-.19.13-.29a6.27,6.27,0,0,0-.85.14c-.41.1-.8.26-1.21.35s-.88.12-1.31.19a10,10,0,0,0-1.21.26l0,0,.4.43c.28.31.55.63.83.95C42.88,58.16,42.88,58.17,42.89,58.18Zm6-2.71c-1.13-1-2.22-2.11-3.29-3.21s-2-2-2.87-3.1c.29.66.62,1.31.95,2a10.58,10.58,0,0,0,.74,1.14c.25.37.49.75.73,1.13s.47.77.7,1.15c.11.18.21.36.31.54a1.4,1.4,0,0,1,.2.43h.1a9,9,0,0,1,1.27,0C48.16,55.51,48.55,55.49,48.93,55.47Zm-7.43,1a4.13,4.13,0,0,1,.5-.15l.68-.1c.44-.08.87-.15,1.3-.24s.81-.22,1.22-.33a6.78,6.78,0,0,1,1-.17l0-.06a9,9,0,0,0-.63-1.13c-.22-.35-.43-.72-.66-1.08a23,23,0,0,1-1.29-2.06c-.38-.74-.73-1.5-1.15-2.21a22.73,22.73,0,0,0-.34,2.34c-.08.8-.17,1.59-.24,2.39a18.41,18.41,0,0,1-.3,2.35c0,.1-.06.21-.08.31A.33.33,0,0,0,41.5,56.51ZM39,57.57,40.16,57a6.69,6.69,0,0,1,1.15-.45,1.81,1.81,0,0,1,.1-.69,8.63,8.63,0,0,0,.19-1q.12-1,.21-2.07c0-.7.14-1.39.22-2.09s.2-1.23.28-1.85c-.25.69-.47,1.38-.72,2.07s-.55,1.52-.83,2.28-.56,1.5-.85,2.24S39.31,56.87,39,57.57Zm10.22-2.1c.07,0,.13.12.09.19-.25.4-.55.76-.84,1.14a6.5,6.5,0,0,1-.83.91,3.13,3.13,0,0,1-1,.52l-.61.22a1.07,1.07,0,0,1-.48.17,4.55,4.55,0,0,0-.7.19l-.56.13a8.66,8.66,0,0,1-1.24.2,11.22,11.22,0,0,1-1.16,0,3.42,3.42,0,0,1-.65-.06.07.07,0,0,1-.06,0,3.6,3.6,0,0,1-.44-.12,4.71,4.71,0,0,1-1-.48,6.84,6.84,0,0,1-1-.66.17.17,0,0,1,0-.18.14.14,0,0,1,0-.09c.34-.74.63-1.5.95-2.24s.61-1.46.89-2.2.55-1.54.81-2.31.58-1.55.84-2.33a.07.07,0,0,1,.11,0l.09.1a.22.22,0,0,1,.06.07c1,1.17,2.09,2.34,3.18,3.46S48,54.37,49.22,55.47Z"/></g></g></svg>