<svg xmlns="http://www.w3.org/2000/svg" viewBox="0 0 87.04 26.14"><defs><style>.cls-1{fill:#597c57;}.cls-2,.cls-3{fill:#ffdc2b;}.cls-2{stroke:#ffdc2b;stroke-linecap:round;stroke-linejoin:round;stroke-width:0.29px;}.cls-4{fill:#95c122;}</style></defs><g id="Calque_2" data-name="Calque 2"><g id="Calque_1-2" data-name="Calque 1"><path class="cls-1" d="M2.44,21.06C2.35,21.24,2,21,2,20.8c0-1.15.09-2.3.17-3.45a15.57,15.57,0,0,1,.46-3A7.81,7.81,0,0,1,3.9,12c.3-.43.65-.83.94-1.27a3.06,3.06,0,0,1,.75-1A9.52,9.52,0,0,0,6.76,8.4c.33-.34.65-.68,1-1A20.88,20.88,0,0,1,10,5.31c.75-.58,1.58-1.06,2.37-1.58A9.58,9.58,0,0,1,13.75,3a.14.14,0,0,1,.13,0,9.44,9.44,0,0,1,1.06-.36,11.9,11.9,0,0,1,2.59-.3,18.15,18.15,0,0,1,2.95,0,.43.43,0,0,1,.3.35.33.33,0,0,1,.12.19c.29,1.95.73,3.89,1.09,5.83s.72,3.8,1.15,5.68,1,3.87,1.46,5.8S25.52,24,26,25.94a.15.15,0,0,1-.18.2l-.33-.09a.34.34,0,0,1-.22-.06c-3.7-1-7.41-1.94-11.14-2.75C10.28,22.4,6.36,21.7,2.44,21.06Z"/><path class="cls-1" d="M66.16,2.54c-.18-.09.08-.44.26-.44a33.21,33.21,0,0,1,3.45.17,15.55,15.55,0,0,1,3,.45A7.81,7.81,0,0,1,75.22,4c.43.31.83.65,1.27.94a3.2,3.2,0,0,1,1,.75,10.27,10.27,0,0,0,1.34,1.18l1,1a21.88,21.88,0,0,1,2.08,2.23c.58.75,1.06,1.59,1.58,2.38a9.11,9.11,0,0,1,.75,1.41.13.13,0,0,1,.05.13A8.8,8.8,0,0,1,84.65,15,12.38,12.38,0,0,1,85,17.62a19.38,19.38,0,0,1,0,2.95.43.43,0,0,1-.35.31.31.31,0,0,1-.19.11c-2,.3-3.89.73-5.83,1.09s-3.8.72-5.68,1.16-3.87,1-5.79,1.46-3.93.92-5.87,1.44a.16.16,0,0,1-.2-.19l.09-.33a.35.35,0,0,1,.06-.22c1-3.69,1.94-7.4,2.75-11.14S65.52,6.46,66.16,2.54Z"/><path class="cls-2" d="M11.17,1.8A17,17,0,0,0,7.54,4.39c-.7.64-1.34,1.34-2,2-.32.32-.62.68-1,1A1.89,1.89,0,0,0,3.9,8c-.11.21-.2.43-.33.64A17.8,17.8,0,0,1,2,10.75a4.81,4.81,0,0,0-.4.6A9.74,9.74,0,0,0,4.1,9.69a13.5,13.5,0,0,1,1.26-1A13.5,13.5,0,0,0,6.85,7.22,8.16,8.16,0,0,0,8.38,5.7c.32-.53.71-1,1-1.52a14.46,14.46,0,0,1,1.18-1.61A8.16,8.16,0,0,0,11.17,1.8Z"/><path class="cls-2" d="M12.24,1.28a.23.23,0,0,1,0,.11c-.21.32-.46.61-.69.92s-.32.55-.49.82a10.31,10.31,0,0,1-1,1.37l2.43.67,1.39.4c.22.06.44.11.66.19.58-.76,1.09-1.57,1.63-2.37s1-1.73,1.53-2.62c-1.78.09-3.68-.26-5.34.46Z"/><path class="cls-2" d="M1.27,12.15a8.27,8.27,0,0,0-.35,1.34C.66,15,.65,16.61.53,18.17c.7-.49,1.43-.91,2.14-1.4.9-.61,1.78-1.26,2.67-1.9a4.56,4.56,0,0,0,.42-.31,9.84,9.84,0,0,1-.47-2,10.65,10.65,0,0,0-.63-2.42l-.41.34a6.94,6.94,0,0,1-2.94,1.68Z"/><path class="cls-2" d="M9.66,5a8.49,8.49,0,0,1-.55.67c-.24.25-.54.45-.77.71-.46.5-.75,1.09-1.24,1.57-.25.24-.53.47-.8.7s-.5.48-.76.74A6.28,6.28,0,0,1,5,9.83a8,8,0,0,1,.81,2.47c.08.4.14.8.22,1.21,0,.23.07.49.13.74A12.83,12.83,0,0,0,7.7,12.83c.7-.75,1.27-1.6,2-2.34S11.3,9.05,12.1,8.32a23.68,23.68,0,0,0,2.1-2.15l-.1,0c-.46-.13-.93-.24-1.39-.36-1-.25-2-.52-3-.8Z"/><path class="cls-2" d="M1,18.63c3.7.58,7.37,1.29,11,2.09,3.37.73,6.72,1.51,10,2.43-1.48-.95-3-1.82-4.56-2.67a25.67,25.67,0,0,0-3-1.33c-1-.41-2-.87-3-1.31s-2-.93-3-1.41c-.46-.22-.91-.44-1.36-.68a3.91,3.91,0,0,1-1-.6l-.18.15A22.41,22.41,0,0,1,3.34,17C2.53,17.51,1.78,18.07,1,18.63Z"/><path class="cls-2" d="M14.75,6.49a10.9,10.9,0,0,1-.83,1c-.39.39-.82.75-1.23,1.13-.79.74-1.58,1.47-2.33,2.25s-1.36,1.54-2,2.31a16.73,16.73,0,0,1-1.85,1.71L6.6,15a24.94,24.94,0,0,0,2.82,1.44c.94.43,1.85.9,2.8,1.31,1.83.79,3.67,1.49,5.42,2.46s3.51,2.06,5.32,2.95a47.76,47.76,0,0,0-2.48-5.21c-.9-1.74-1.8-3.49-2.74-5.21a43.16,43.16,0,0,1-2.55-5.2c-.09-.23-.15-.49-.26-.72A1,1,0,0,0,14.75,6.49Z"/><path class="cls-2" d="M18.39,1c-.51.91-1.08,1.78-1.6,2.69a18.26,18.26,0,0,1-1.73,2.47,4.4,4.4,0,0,1,.72,1.53,20.58,20.58,0,0,0,1,2.27c.77,1.51,1.54,3,2.36,4.5s1.6,3,2.36,4.55c.68,1.37,1.26,2.78,1.93,4.15-.42-1.73-.91-3.45-1.33-5.18-.46-1.92-.92-3.85-1.37-5.77s-.9-3.8-1.31-5.71S18.72,2.78,18.39,1Z"/><path class="cls-3" d="M.44,19c-.09.18-.43-.07-.44-.25,0-1.16.09-2.31.17-3.46a15.81,15.81,0,0,1,.46-3A7.88,7.88,0,0,1,1.9,10c.3-.43.65-.83.94-1.28a3.17,3.17,0,0,1,.75-1A9.43,9.43,0,0,0,4.76,6.36l1-1A21.86,21.86,0,0,1,8,3.27c.75-.58,1.58-1.07,2.37-1.58A8.72,8.72,0,0,1,11.75.94a.15.15,0,0,1,.13-.06A9.39,9.39,0,0,1,12.94.53,12.56,12.56,0,0,1,15.53.22a19.36,19.36,0,0,1,3,0,.41.41,0,0,1,.3.34.36.36,0,0,1,.12.19c.29,2,.73,3.89,1.09,5.84s.72,3.8,1.15,5.68,1,3.86,1.46,5.79S23.52,22,24,23.9a.15.15,0,0,1-.18.19L23.53,24a.32.32,0,0,1-.22-.05C19.61,23,15.9,22,12.17,21.2,8.28,20.35,4.36,19.65.44,19Z"/><path class="cls-2" d="M85.38,11.22a17.35,17.35,0,0,0-2.59-3.63c-.65-.7-1.34-1.34-2-2-.32-.32-.67-.62-1-1s-.31-.5-.64-.68-.43-.2-.64-.33a18.78,18.78,0,0,1-2.12-1.54,4.07,4.07,0,0,0-.59-.4,10,10,0,0,0,1.66,2.48,13.67,13.67,0,0,1,1,1.25A13.41,13.41,0,0,0,80,6.9a7.92,7.92,0,0,0,1.53,1.53c.52.32,1,.71,1.52,1a13.27,13.27,0,0,1,1.6,1.19A8.64,8.64,0,0,0,85.38,11.22Z"/><path class="cls-2" d="M85.9,12.29a.2.2,0,0,1-.11,0c-.32-.21-.61-.46-.92-.69s-.55-.32-.83-.49a10.9,10.9,0,0,1-1.36-1c-.22.81-.45,1.62-.67,2.43-.13.46-.28.93-.41,1.39-.06.22-.11.44-.19.66.76.58,1.58,1.09,2.37,1.63s1.74,1,2.62,1.53c-.09-1.78.27-3.68-.45-5.34A1.17,1.17,0,0,1,85.9,12.29Z"/><path class="cls-2" d="M75,1.32A8.27,8.27,0,0,0,73.69,1C72.15.71,70.57.7,69,.58c.49.7.91,1.43,1.39,2.14.62.9,1.27,1.78,1.9,2.67l.32.43a9,9,0,0,1,2-.48,10.15,10.15,0,0,0,2.42-.63l-.35-.41A7,7,0,0,1,75,1.36Z"/><path class="cls-2" d="M82.23,9.71a7.11,7.11,0,0,1-.68-.55c-.25-.24-.44-.53-.7-.77-.5-.46-1.09-.75-1.57-1.24-.25-.25-.47-.53-.7-.8s-.48-.5-.74-.76a6.39,6.39,0,0,1-.5-.54,7.91,7.91,0,0,1-2.46.81l-1.21.22c-.23,0-.5.07-.75.13a13.81,13.81,0,0,0,1.43,1.54c.75.7,1.6,1.27,2.34,2s1.44,1.61,2.17,2.41A21.32,21.32,0,0,0,81,14.25l0-.1c.13-.46.24-.93.35-1.39.26-1,.53-2,.8-3A.3.3,0,0,1,82.23,9.71Z"/><path class="cls-2" d="M68.55,1.07c-.58,3.7-1.3,7.37-2.09,11-.73,3.37-1.51,6.72-2.43,10,.94-1.48,1.82-3,2.67-4.56a27.35,27.35,0,0,0,1.32-3c.41-1,.88-2,1.31-3s.94-2,1.41-3c.22-.46.45-.91.69-1.36a3.45,3.45,0,0,1,.6-1L71.88,6a22.41,22.41,0,0,1-1.71-2.6C69.67,2.58,69.1,1.83,68.55,1.07Z"/><path class="cls-2" d="M80.69,14.8a10.9,10.9,0,0,1-1-.83c-.39-.39-.76-.82-1.14-1.23-.73-.79-1.46-1.58-2.24-2.33S74.8,9.05,74,8.38a15.82,15.82,0,0,1-1.71-1.85.94.94,0,0,0-.09.12,25,25,0,0,0-1.45,2.82c-.42.94-.89,1.85-1.3,2.8A57.43,57.43,0,0,1,67,17.69C66,19.45,65,21.2,64.07,23a50.58,50.58,0,0,0,5.21-2.47c1.74-.91,3.48-1.81,5.21-2.75a43.77,43.77,0,0,1,5.19-2.55A7.63,7.63,0,0,0,80.4,15,1,1,0,0,0,80.69,14.8Z"/><path class="cls-2" d="M86.23,18.44c-.91-.51-1.78-1.08-2.69-1.6a18.26,18.26,0,0,1-2.47-1.73,4.4,4.4,0,0,1-1.53.72,21.58,21.58,0,0,0-2.28,1c-1.51.77-3,1.54-4.49,2.36s-3,1.6-4.56,2.36c-1.36.68-2.78,1.26-4.14,1.94,1.73-.43,3.44-.92,5.17-1.34L75,20.74c1.9-.44,3.8-.89,5.71-1.31S84.4,18.77,86.23,18.44Z"/><path class="cls-3" d="M68.16.49c-.18-.08.08-.43.26-.44,1.15,0,2.3.09,3.45.17a15.57,15.57,0,0,1,3,.46A7.81,7.81,0,0,1,77.22,2c.43.3.83.65,1.27.94a3.06,3.06,0,0,1,1,.75,9.52,9.52,0,0,0,1.34,1.17l1,1A20.88,20.88,0,0,1,83.91,8c.58.75,1.06,1.58,1.58,2.37a9.58,9.58,0,0,1,.75,1.41.14.14,0,0,1,.05.13A9.44,9.44,0,0,1,86.65,13,12.56,12.56,0,0,1,87,15.58a19.36,19.36,0,0,1,0,3,.41.41,0,0,1-.35.3.33.33,0,0,1-.19.12c-2,.29-3.89.73-5.83,1.09s-3.8.72-5.68,1.15-3.87,1-5.79,1.46-3.93.92-5.87,1.44a.15.15,0,0,1-.2-.18l.09-.33a.34.34,0,0,1,.06-.22c1-3.7,1.94-7.41,2.75-11.14C66.82,8.33,67.52,4.41,68.16.49Z"/><path class="cls-4" d="M11.17,1.75A17,17,0,0,0,7.54,4.34c-.7.64-1.34,1.33-2,2-.32.32-.62.68-1,1A1.89,1.89,0,0,0,3.9,8c-.11.21-.2.43-.33.64A17.8,17.8,0,0,1,2,10.7a4.81,4.81,0,0,0-.4.6A9.74,9.74,0,0,0,4.1,9.64a13.5,13.5,0,0,1,1.26-1A13.5,13.5,0,0,0,6.85,7.17,8.16,8.16,0,0,0,8.38,5.65c.32-.53.71-1,1-1.52a14.46,14.46,0,0,1,1.18-1.61A8.16,8.16,0,0,0,11.17,1.75Zm1.07-.52a.23.23,0,0,1,0,.11c-.21.32-.46.6-.69.92s-.32.55-.49.82a10.31,10.31,0,0,1-1,1.37l2.43.67,1.39.4c.22.06.44.11.66.19.58-.76,1.09-1.57,1.63-2.37s1-1.73,1.53-2.62c-1.78.09-3.68-.26-5.34.46ZM1.27,12.1a8.27,8.27,0,0,0-.35,1.34C.66,15,.65,16.56.53,18.12c.7-.49,1.43-.91,2.14-1.4.9-.62,1.78-1.26,2.67-1.9.15-.1.29-.21.42-.31a9.84,9.84,0,0,1-.47-2,10.38,10.38,0,0,0-.63-2.42l-.41.34a6.94,6.94,0,0,1-2.94,1.68ZM9.66,4.9a8.49,8.49,0,0,1-.55.67c-.24.25-.54.45-.77.71-.46.5-.75,1.09-1.24,1.57-.25.24-.53.47-.8.7a8.85,8.85,0,0,0-.76.74A6.28,6.28,0,0,1,5,9.78a8,8,0,0,1,.81,2.47c.08.4.14.8.22,1.21,0,.23.07.49.13.74A12.83,12.83,0,0,0,7.7,12.78c.7-.75,1.27-1.6,2-2.34S11.3,9,12.1,8.27a23.68,23.68,0,0,0,2.1-2.15l-.1,0c-.46-.13-.93-.24-1.39-.36-1-.25-2-.52-3-.8ZM1,18.58c3.7.58,7.37,1.29,11,2.09,3.37.73,6.72,1.51,10,2.42-1.48-.94-3-1.81-4.56-2.66a25.67,25.67,0,0,0-3-1.33c-1-.41-2-.87-3-1.31s-2-.93-3-1.41c-.46-.22-.91-.44-1.36-.68a3.91,3.91,0,0,1-1-.6l-.18.15A22.41,22.41,0,0,1,3.34,17C2.53,17.46,1.78,18,1,18.58ZM14.75,6.44a10.9,10.9,0,0,1-.83,1c-.39.39-.82.75-1.23,1.13-.79.74-1.58,1.47-2.33,2.25S9,12.33,8.33,13.1a16.73,16.73,0,0,1-1.85,1.71l.12.09a24.94,24.94,0,0,0,2.82,1.44c.94.43,1.85.9,2.8,1.31,1.83.79,3.67,1.49,5.42,2.46s3.51,2.06,5.32,2.95a47.76,47.76,0,0,0-2.48-5.21c-.9-1.75-1.8-3.49-2.74-5.21a43.16,43.16,0,0,1-2.55-5.2c-.09-.23-.15-.49-.26-.72A1,1,0,0,0,14.75,6.44ZM18.39.9c-.51.9-1.08,1.78-1.6,2.69a18.26,18.26,0,0,1-1.73,2.47,4.4,4.4,0,0,1,.72,1.53,20.58,20.58,0,0,0,1,2.27c.77,1.51,1.54,3,2.36,4.5s1.6,3,2.36,4.55c.68,1.37,1.26,2.78,1.93,4.15-.42-1.73-.91-3.45-1.33-5.18Q21.37,15,20.69,12.1c-.44-1.9-.9-3.79-1.31-5.7S18.72,2.73,18.39.9ZM.44,19c-.09.18-.43-.07-.44-.26,0-1.15.09-2.3.17-3.45a15.81,15.81,0,0,1,.46-3A7.76,7.76,0,0,1,1.9,9.91c.3-.43.65-.84.94-1.28a3.17,3.17,0,0,1,.75-1A9.43,9.43,0,0,0,4.76,6.31l1-1A21.86,21.86,0,0,1,8,3.22c.75-.58,1.58-1.07,2.37-1.58A8.72,8.72,0,0,1,11.75.89a.15.15,0,0,1,.13-.06A9.39,9.39,0,0,1,12.94.48,11.91,11.91,0,0,1,15.53.17a19.36,19.36,0,0,1,3,0,.41.41,0,0,1,.3.34.36.36,0,0,1,.12.19c.29,2,.73,3.89,1.09,5.84s.72,3.8,1.15,5.68,1,3.86,1.46,5.79.92,3.92,1.44,5.87a.15.15,0,0,1-.18.19L23.53,24a.32.32,0,0,1-.22-.05c-3.7-1-7.41-1.94-11.14-2.75C8.28,20.3,4.36,19.6.44,19Z"/><path class="cls-4" d="M85.38,11.17a17.35,17.35,0,0,0-2.59-3.63c-.65-.7-1.34-1.34-2-2-.32-.32-.67-.62-1-1s-.31-.5-.64-.68-.43-.2-.64-.33A18.78,18.78,0,0,1,76.42,2a4.07,4.07,0,0,0-.59-.4A9.74,9.74,0,0,0,77.49,4.1a15.31,15.31,0,0,1,1,1.26A13.41,13.41,0,0,0,80,6.85a7.92,7.92,0,0,0,1.53,1.53c.52.32,1,.71,1.52,1a14.35,14.35,0,0,1,1.6,1.18A7.16,7.16,0,0,0,85.38,11.17Zm.52,1.07a.2.2,0,0,1-.11,0c-.32-.21-.61-.46-.92-.69S84.32,11.2,84,11a10.9,10.9,0,0,1-1.36-1c-.22.81-.45,1.62-.67,2.43-.13.46-.28.93-.41,1.39-.06.22-.11.44-.19.66.76.58,1.58,1.09,2.37,1.63s1.74,1,2.62,1.53c-.09-1.78.27-3.68-.45-5.34A1.17,1.17,0,0,1,85.9,12.24ZM75,1.27A8.27,8.27,0,0,0,73.69.92C72.15.66,70.57.65,69,.53c.49.7.91,1.43,1.39,2.14.62.9,1.27,1.78,1.9,2.67.11.15.21.29.32.42a9.55,9.55,0,0,1,2-.47,10.65,10.65,0,0,0,2.42-.63c-.12-.14-.23-.28-.35-.41A7,7,0,0,1,75,1.31Zm7.2,8.39a7.11,7.11,0,0,1-.68-.55c-.25-.24-.44-.54-.7-.77-.5-.46-1.09-.75-1.57-1.24-.25-.25-.47-.53-.7-.8s-.48-.5-.74-.76a6.39,6.39,0,0,1-.5-.54,7.91,7.91,0,0,1-2.46.81L73.67,6c-.23,0-.5.07-.75.13A13.81,13.81,0,0,0,74.35,7.7c.75.7,1.6,1.27,2.34,2s1.44,1.62,2.17,2.42A22.45,22.45,0,0,0,81,14.2l0-.1c.13-.46.24-.93.35-1.39.26-1,.53-2,.8-3A.3.3,0,0,1,82.23,9.66ZM68.55,1c-.58,3.7-1.3,7.37-2.09,11-.73,3.37-1.51,6.72-2.43,10,.94-1.48,1.82-3,2.67-4.56a27.35,27.35,0,0,0,1.32-3c.41-1,.88-2,1.31-3s.94-2,1.41-3c.22-.46.45-.91.69-1.36a3.64,3.64,0,0,1,.6-1l-.15-.18a22.41,22.41,0,0,1-1.71-2.6C69.67,2.53,69.1,1.78,68.55,1ZM80.69,14.75a10.9,10.9,0,0,1-1-.83c-.39-.39-.76-.82-1.14-1.23-.73-.79-1.46-1.58-2.24-2.33S74.8,9,74,8.33a15.82,15.82,0,0,1-1.71-1.85.94.94,0,0,0-.09.12,25,25,0,0,0-1.45,2.82c-.42.94-.89,1.85-1.3,2.8A57.43,57.43,0,0,1,67,17.64C66,19.4,65,21.15,64.07,23a48.66,48.66,0,0,0,5.21-2.48c1.74-.9,3.48-1.8,5.21-2.74a43.77,43.77,0,0,1,5.19-2.55,7.63,7.63,0,0,0,.72-.26A1,1,0,0,0,80.69,14.75Zm5.54,3.64c-.91-.51-1.78-1.08-2.69-1.6a18.26,18.26,0,0,1-2.47-1.73,4.4,4.4,0,0,1-1.53.72,21.58,21.58,0,0,0-2.28,1c-1.51.77-3,1.54-4.49,2.36s-3,1.6-4.56,2.36c-1.36.68-2.78,1.26-4.14,1.93,1.73-.42,3.44-.91,5.17-1.33L75,20.69c1.9-.44,3.8-.9,5.71-1.31S84.4,18.72,86.23,18.39ZM68.16.44C68,.35,68.24,0,68.42,0c1.15,0,2.3.09,3.45.17a15.57,15.57,0,0,1,3,.46A7.81,7.81,0,0,1,77.22,1.9c.43.3.83.65,1.27.94a3.06,3.06,0,0,1,1,.75,9.52,9.52,0,0,0,1.34,1.17l1,1A20.88,20.88,0,0,1,83.91,8c.58.75,1.06,1.58,1.58,2.37a9.58,9.58,0,0,1,.75,1.41.14.14,0,0,1,.05.13,9.44,9.44,0,0,1,.36,1.06A12.56,12.56,0,0,1,87,15.53a19.36,19.36,0,0,1,0,3,.41.41,0,0,1-.35.3.33.33,0,0,1-.19.12c-2,.29-3.89.73-5.83,1.09s-3.8.72-5.68,1.15-3.87,1-5.79,1.46-3.93.92-5.87,1.44a.15.15,0,0,1-.2-.18l.09-.33a.34.34,0,0,1,.06-.22c1-3.7,1.94-7.41,2.75-11.14C66.82,8.28,67.52,4.36,68.16.44Z"/></g></g></svg>