<svg xmlns="http://www.w3.org/2000/svg" viewBox="0 0 93.98 30.74"><defs><style>.cls-1{fill:#ffdc2b;}.cls-2{fill:#95c122;}</style></defs><g id="Calque_2" data-name="Calque 2"><g id="Calque_1-2" data-name="Calque 1"><path class="cls-1" d="M1.54,24.45a14.07,14.07,0,0,0,2.51.27,24.38,24.38,0,0,1,3.17.53l6,1.22c2,.41,4.1.79,6.13,1.25s3.86,1.12,5.77,1.73c.89.28,1.28-1.12.39-1.4-1.91-.61-3.81-1.29-5.77-1.73s-4.09-.84-6.14-1.25l-6-1.22c-.89-.18-1.78-.37-2.69-.49a25,25,0,0,1-3-.31.73.73,0,0,0-.38,1.4Z"/><path class="cls-1" d="M25.75,29.16l1.54.56a.18.18,0,0,0,.22-.13.18.18,0,0,0-.13-.22l-1.54-.56a.19.19,0,0,0-.22.13.18.18,0,0,0,.13.22Z"/><path class="cls-1" d="M25.58,28.52a5.71,5.71,0,0,0,1.51,1.06.19.19,0,0,0,.25-.07.18.18,0,0,0-.07-.25,5.26,5.26,0,0,1-1.43-1,.18.18,0,0,0-.26.26Z"/><path class="cls-1" d="M25.65,29.2a3.7,3.7,0,0,0,.78.3.18.18,0,0,0,.22-.13.17.17,0,0,0-.12-.22,2.29,2.29,0,0,1-.37-.12h-.05s-.06,0,0,0L26,29a1.51,1.51,0,0,1-.18-.09.18.18,0,0,0-.24.07.18.18,0,0,0,.06.25Z"/><path class="cls-1" d="M2.77,23.81a.73.73,0,0,0,0-1.46.73.73,0,0,0,0,1.46Z"/><path class="cls-1" d="M3.11,23.84a2.6,2.6,0,0,0,.55-.21,2.63,2.63,0,0,0,.49-.33.51.51,0,0,0,.15-.23.68.68,0,0,0,0-.56.51.51,0,0,0-.15-.23L4,22.16a.79.79,0,0,0-.37-.1l-.19,0a.7.7,0,0,0-.32.19l0,0,.15-.11a2.24,2.24,0,0,1-.4.22L3,22.34l-.3.1a.47.47,0,0,0-.24.13.52.52,0,0,0-.19.2A.62.62,0,0,0,2.2,23a.57.57,0,0,0,0,.29l.07.17a.65.65,0,0,0,.26.26l.17.08a.86.86,0,0,0,.39,0Z"/><path class="cls-1" d="M3.55,23.62a7.26,7.26,0,0,0,2.57-1.26c.38-.29.72-.61,1.07-.93l.25-.21.1-.09s.06,0,.07-.05a3.61,3.61,0,0,1,.6-.35.72.72,0,0,0,.26-1,.74.74,0,0,0-1-.27,10.51,10.51,0,0,0-2.12,1.65,6,6,0,0,1-2.2,1.1.73.73,0,0,0,.39,1.4Z"/><path class="cls-1" d="M5.17,21.35a3.58,3.58,0,0,0-.44.9,2.77,2.77,0,0,0-.15,1,1.75,1.75,0,0,0,.47,1,1.68,1.68,0,0,0,.88.49.78.78,0,0,0,.56-.08.71.71,0,0,0,.33-.43.68.68,0,0,0-.07-.56.7.7,0,0,0-.43-.34.86.86,0,0,1-.23-.06l.17.07-.15-.08c-.1,0,.12.1.06.05l-.07-.06,0-.05c-.09-.09.07.12,0,.05A.51.51,0,0,1,6,23.16l.07.17A1.42,1.42,0,0,1,6,23.11l0,.19a1.16,1.16,0,0,1,0-.37l0,.2a2.64,2.64,0,0,1,.19-.68l-.08.17a2.86,2.86,0,0,1,.3-.54.74.74,0,0,0-.26-1,.76.76,0,0,0-1,.27Z"/><path class="cls-1" d="M4.51,22.74a2.34,2.34,0,0,0,1,1.38,4.73,4.73,0,0,0,1.56.58A.73.73,0,0,0,8,24.2a.75.75,0,0,0-.51-.9,6.61,6.61,0,0,1-1-.29l.17.07a2.13,2.13,0,0,1-.53-.3l.15.11A1.52,1.52,0,0,1,6,22.56l.12.15a1.75,1.75,0,0,1-.18-.29l.08.17a2.09,2.09,0,0,1-.08-.23A.72.72,0,0,0,5,21.85a.74.74,0,0,0-.51.89Z"/><path class="cls-1" d="M1.68,22.61c-.34-.75.24-1.74.41-2.46.22-.9,0-1.83.19-2.71A2.6,2.6,0,0,1,3.8,15.9a11.31,11.31,0,0,0,2.28-1.39c.69-.63-.34-1.65-1-1a16.42,16.42,0,0,1-2.47,1.44A3.58,3.58,0,0,0,.85,17.2a7.7,7.7,0,0,0-.07,1.59,4.64,4.64,0,0,1-.22,1.43,4.24,4.24,0,0,0-.14,3.13.75.75,0,0,0,1,.26.75.75,0,0,0,.26-1Z"/><path class="cls-1" d="M2.58,15.13A9.2,9.2,0,0,0,.39,19.36a.75.75,0,0,0,.42.86.72.72,0,0,0,.91-.3l.57-1.22a.74.74,0,0,0-.26-1A.74.74,0,0,0,1,18L.47,19.19l1.32.56a8.86,8.86,0,0,1,.29-1l.09-.25.05-.12s.06-.13,0-.06l0-.07.05-.11c0-.09.08-.18.13-.27a8.16,8.16,0,0,1,.53-.9l.15-.21a1.47,1.47,0,0,1,.1-.13c.06-.09-.07.08,0,0s.24-.29.36-.42a.74.74,0,0,0,0-1,.72.72,0,0,0-1,0Z"/><path class="cls-1" d="M2.81,17.27l1.53-1.53a.75.75,0,0,0,.21-.51.78.78,0,0,0-.21-.52.74.74,0,0,0-1,0L1.78,16.25a.72.72,0,0,0,0,1,.76.76,0,0,0,.51.22.77.77,0,0,0,.52-.22Z"/><path class="cls-1" d="M1.82,16.27A7.21,7.21,0,0,0,1,18.15a.73.73,0,0,0,.08.56.75.75,0,0,0,.43.33.74.74,0,0,0,.9-.5,6.81,6.81,0,0,1,.26-.76L2.58,18a5.74,5.74,0,0,1,.5-.95.75.75,0,0,0-.27-1,.74.74,0,0,0-1,.26Z"/><path class="cls-1" d="M8.38,17.67a9.34,9.34,0,0,1-.16-2.11A3.77,3.77,0,0,0,8,14.45c-.12-.31-.29-.59-.4-.9-.23-.62.44-1,.86-1.34l1.85-1.59a.72.72,0,0,0-1-1L7.2,11.38a2.47,2.47,0,0,0-1.12,2c.07.75.6,1.34.68,2.09A13.06,13.06,0,0,0,7,18.06c.29.88,1.69.5,1.4-.39Z"/><path class="cls-1" d="M10.92,10c.71-.64,1.38-1.31,2-2a.72.72,0,1,0-1-1c-.66.69-1.33,1.36-2,2a.72.72,0,0,0,1,1Z"/><path class="cls-1" d="M10.1,10.45A.73.73,0,0,0,10.1,9a.73.73,0,0,0,0,1.46Z"/><path class="cls-1" d="M7,11.89a4.23,4.23,0,0,0-.38,1.39,4,4,0,0,0,.08,1.29.72.72,0,0,0,.89.5.74.74,0,0,0,.51-.89c0-.1,0-.2-.05-.29l0,.19a3.54,3.54,0,0,1,0-.86l0,.2a3.72,3.72,0,0,1,.23-.87l-.07.18a1,1,0,0,1,0-.1.79.79,0,0,0,.08-.56A.75.75,0,0,0,8,11.63a.73.73,0,0,0-.56-.07.68.68,0,0,0-.43.33Z"/><path class="cls-1" d="M17.63,7l-.05,0,.32-.18a.45.45,0,0,1,.12,0l-.15,0-.26-.11L17,6.42a5.29,5.29,0,0,0-1.43-.5,4.18,4.18,0,0,0-.79,0s-.21,0-.15,0l-.09,0-.14,0c-.12,0,.08,0,0,0a2.07,2.07,0,0,0-1.55-.26A.73.73,0,1,0,13.15,7c.1,0,0,0,0,0s.09,0,0,0,0,0,0,0l.14,0,.06,0a6.07,6.07,0,0,0,.7.29,2.71,2.71,0,0,0,.85,0,1.51,1.51,0,0,1,.62.09A10.6,10.6,0,0,1,16.84,8c.59.27,1.25.57,1.81.07a.72.72,0,1,0-1-1Z"/><path class="cls-1" d="M14.08,6.09l2-2.78a.73.73,0,0,0-.26-1,.75.75,0,0,0-1,.26L12.83,5.35a.74.74,0,0,0,.26,1,.75.75,0,0,0,1-.26Z"/><path class="cls-1" d="M13.76,4.55a1.52,1.52,0,0,0-.25.87,1.47,1.47,0,0,0,.07.46,1.78,1.78,0,0,0,.3.54,1.59,1.59,0,0,0,1.62.48.77.77,0,0,0,.43-.34A.73.73,0,0,0,16,6a.76.76,0,0,0-.34-.43.78.78,0,0,0-.56-.08l-.12,0,.19,0H15l.19,0a1,1,0,0,1-.23-.06l.18.08a1.18,1.18,0,0,1-.19-.11l.15.11a.75.75,0,0,1-.16-.15l.12.15-.1-.17.07.18a1,1,0,0,1-.06-.23l0,.2a.89.89,0,0,1,0-.23l0,.19A.9.9,0,0,1,15,5.26l-.07.17A1.09,1.09,0,0,1,15,5.28a.71.71,0,0,0,.08-.55.75.75,0,0,0-.34-.44.73.73,0,0,0-.56-.07L14,4.29a.72.72,0,0,0-.26.26Z"/><path class="cls-1" d="M15.9,5.81c-.08-.15-.15-.3-.22-.45l.08.17A6.07,6.07,0,0,1,15.33,4,.71.71,0,0,0,15,3.59a.74.74,0,0,0-.56-.07.7.7,0,0,0-.44.33L13.93,4a.86.86,0,0,0,0,.39,7.22,7.22,0,0,0,.71,2.13.73.73,0,0,0,1,.26.75.75,0,0,0,.26-1Z"/><path class="cls-1" d="M9.18,19.81q4.65-4.81,9.65-9.3c.7-.62-.33-1.65-1-1q-5,4.47-9.65,9.3c-.65.67.38,1.7,1,1Z"/><path class="cls-1" d="M9.23,20.38l.45,0c-.21,0,0,0,.08,0l.22,0a8.19,8.19,0,0,1,.81.23,1.21,1.21,0,0,1,.2.09c-.17-.09,0,0,.09,0l.35.18a6.32,6.32,0,0,1,.74.49.69.69,0,0,0,.56.07.7.7,0,0,0,.44-.33.75.75,0,0,0-.26-1,6.64,6.64,0,0,0-3.68-1.32.72.72,0,0,0-.72.72.73.73,0,0,0,.72.73Z"/><path class="cls-1" d="M10,20.75a14.36,14.36,0,0,0,3.4,1.38,22.68,22.68,0,0,1,3.53,1.65c2.19,1.14,4.73,1.66,6.69,3.2.73.58,1.76-.44,1-1-2-1.6-4.51-2.18-6.77-3.32a29.83,29.83,0,0,0-3.45-1.7,16.76,16.76,0,0,1-3.69-1.45c-.79-.5-1.52.76-.74,1.26Z"/><path class="cls-1" d="M23.85,27.33a15.56,15.56,0,0,0,2,.76h0c-.09,0,0,0,0,0l.21.09a2.74,2.74,0,0,1,.36.23s.11.08,0,0,0,0,0,0a1.21,1.21,0,0,1,.16.16.23.23,0,0,1,.07.07c.07.07,0,0,0,0s.1.15.13.21a.73.73,0,0,0,1,.26.74.74,0,0,0,.26-1,3.18,3.18,0,0,0-1.57-1.32c-.35-.15-.71-.27-1.07-.39-.16-.06-.32-.11-.48-.18s-.13-.06-.05,0-.05,0-.07,0l-.25-.13a.73.73,0,1,0-.74,1.26Z"/><path class="cls-1" d="M26.14,28.5a.73.73,0,0,0,0-1.45.73.73,0,0,0,0,1.45Z"/><path class="cls-1" d="M26.62,29a.73.73,0,0,0,0-1.46.73.73,0,0,0,0,1.46Z"/><path class="cls-1" d="M21.3,27.75a.58.58,0,0,0,0-1.16.58.58,0,0,0,0,1.16Z"/><path class="cls-1" d="M18.14,10.35a.73.73,0,0,0,0-1.45.73.73,0,0,0,0,1.45Z"/><path class="cls-1" d="M12,15.43a6.45,6.45,0,0,0-.81,1.77,3.09,3.09,0,0,0,.21,2.05,5.45,5.45,0,0,0,1.07,1.45A3.75,3.75,0,0,0,14,21.8a.74.74,0,0,0,.89-.51.73.73,0,0,0-.51-.89,1.46,1.46,0,0,1-.43-.25c-.17-.15-.33-.32-.49-.48a4.25,4.25,0,0,1-.81-1.08,1.52,1.52,0,0,1-.07-1.1,5.42,5.42,0,0,1,.64-1.33A.73.73,0,0,0,12,15.43Z"/><path class="cls-1" d="M12.75,16l.27-.11.1,0,.32-.23.15-.16a2.35,2.35,0,0,0,.23-.32.58.58,0,0,0,.09-.27.57.57,0,0,0,0-.29.66.66,0,0,0-.13-.25.55.55,0,0,0-.21-.19L13.39,14A.86.86,0,0,0,13,14l-.17.07a.72.72,0,0,0-.26.26.78.78,0,0,1-.1.15l.11-.15a1.1,1.1,0,0,1-.21.22l.15-.11-.27.15.17-.07-.05,0a.55.55,0,0,0-.25.13.55.55,0,0,0-.19.21.5.5,0,0,0-.08.27.48.48,0,0,0,0,.29l.07.17a.72.72,0,0,0,.26.26l.18.07a.62.62,0,0,0,.38,0Z"/><path class="cls-1" d="M13.39,15.9a7,7,0,0,1,.52-.81l-.11.15a4.37,4.37,0,0,1,.49-.56.74.74,0,0,0,0-1,.71.71,0,0,0-.51-.21.76.76,0,0,0-.52.21,6.42,6.42,0,0,0-1.12,1.52.78.78,0,0,0-.08.56.76.76,0,0,0,.34.43.73.73,0,0,0,.56.07.71.71,0,0,0,.43-.33Z"/><path class="cls-1" d="M13.65,21.26a1.34,1.34,0,0,0,.14.52,1.31,1.31,0,0,0,.2.28,1.46,1.46,0,0,0,.42.32,5,5,0,0,1,.72.39L15,22.66a1.29,1.29,0,0,1,.17.16L15,22.67a.59.59,0,0,1,.1.17l-.07-.17v0a.81.81,0,0,0,.34.43.77.77,0,0,0,.56.08.76.76,0,0,0,.43-.34.73.73,0,0,0,.08-.56,1.61,1.61,0,0,0-.38-.61,2.09,2.09,0,0,0-.45-.33A5.38,5.38,0,0,1,15,21l.15.12A.93.93,0,0,1,15,21l.11.15L15,21l.08.18a.74.74,0,0,1,0-.14l0,.19h0A.46.46,0,0,0,15,21a.51.51,0,0,0-.15-.23.71.71,0,0,0-1,0,.69.69,0,0,0-.21.51Z"/><path class="cls-1" d="M9.43,18.59a1.54,1.54,0,0,0,.17.34,1.68,1.68,0,0,0,.24.29,1.73,1.73,0,0,0,.66.37l.09,0,.29,0H11a1,1,0,0,0,.45-.12l.11-.07a.87.87,0,0,0,.2-.23.58.58,0,0,0,.08-.18v0a1.13,1.13,0,0,0,0-.41.87.87,0,0,0-.19-.37l-.38-.52a.61.61,0,0,0-.19-.2.47.47,0,0,0-.25-.13.57.57,0,0,0-.29,0,.62.62,0,0,0-.27.09.75.75,0,0,0-.33.43l0,.2a.75.75,0,0,0,.1.36l.25.34.13.17.1.15-.07-.17a.09.09,0,0,1,0,0l0-.19v0l0-.19v0l.07-.17s0,0,0,0l.11-.15h0l.15-.11,0,0,.18-.07h0l.19,0h-.19l.19,0a.73.73,0,0,1-.21-.06l.17.07a.82.82,0,0,1-.2-.12l.14.12a.75.75,0,0,1-.15-.16l.11.15a.81.81,0,0,1-.1-.18l.07.17h0A.5.5,0,0,0,10.7,18a.68.68,0,0,0-.47-.27.57.57,0,0,0-.29,0,.73.73,0,0,0-.43.34l-.08.17a.86.86,0,0,0,0,.39Z"/><path class="cls-1" d="M27.61,24.25A34,34,0,0,0,25.14,19l-2.6-5.13c-.41-.81-.83-1.62-1.22-2.44a10.24,10.24,0,0,1-1.08-2.69c-.11-.88.87-1.79,1.33-2.49.59-.9,1.15-1.83,1.69-2.77A.73.73,0,0,0,22,2.7c-.53.94-1.09,1.86-1.69,2.77A11.76,11.76,0,0,0,18.8,7.8a3.57,3.57,0,0,0,.42,2.36c.36.9.76,1.78,1.18,2.65,1,1.94,2,3.85,2.93,5.78a39.4,39.4,0,0,1,2.88,6.05.73.73,0,0,0,1.4-.39Z"/><path class="cls-1" d="M19.93,6.25a7.92,7.92,0,0,0-.45,2A11.21,11.21,0,0,0,19.54,10a4.66,4.66,0,0,0,.93,3.06.73.73,0,0,0,1-1,.52.52,0,0,1-.1-.11c0,.05,0,0,0,0s-.13-.24-.1-.17a3.45,3.45,0,0,1-.17-.63A11.29,11.29,0,0,1,21,9.87a9.28,9.28,0,0,1,0-1.58,6.37,6.37,0,0,1,.39-1.66.73.73,0,0,0-.51-.89.74.74,0,0,0-.89.51Z"/><path class="cls-1" d="M26.84,25.18a11.8,11.8,0,0,1,.49,1.29,6.34,6.34,0,0,0,.41,1.1c.34.58.92,1.12.94,1.84l.34-.09a16,16,0,0,1-1.48-4.78l-.33.14a4.77,4.77,0,0,1,.6,1.56c.13.59.25,1.18.38,1.78,0,.22.4.13.35-.1l-.33-1.55a3.07,3.07,0,0,0-.43-1.22c-.11-.15-.42-.07-.34.14l.61,1.57c.1.24.2.49.29.74s.16.46,0,.64.1.42.26.25c.38-.39.12-.94-.05-1.37l-.74-1.93-.34.14a3.1,3.1,0,0,1,.42,1.23L28.19,28l.35-.1c-.13-.62-.26-1.24-.4-1.86a4.6,4.6,0,0,0-.62-1.56.18.18,0,0,0-.33.14A16.45,16.45,0,0,0,28.7,29.5a.18.18,0,0,0,.34-.09,3.9,3.9,0,0,0-.91-1.91,5.26,5.26,0,0,1-.48-1.21,11.86,11.86,0,0,0-.5-1.29c-.09-.21-.41,0-.31.18Z"/><path class="cls-1" d="M16.07,2.67l.22-.23L16,2.22a1.32,1.32,0,0,0-.18.55.17.17,0,0,0,.13.17.19.19,0,0,0,.21-.08.64.64,0,0,1,.1-.13s0,0,0,0l0,0,.05-.07.22-.24a2.5,2.5,0,0,1,.23-.23l.12-.1L17,2l0,0h0a.18.18,0,0,0-.18-.32,4.93,4.93,0,0,0-1,1l.34.09s0,0,0,0a.11.11,0,0,1,0-.05l0-.11s0,0,0-.05v0s0,0,0,0a.54.54,0,0,1,.05-.11A.18.18,0,0,0,16,2.18l-.22.23a.19.19,0,0,0,0,.26.2.2,0,0,0,.26,0Z"/><path class="cls-1" d="M15.66,2.53a2.93,2.93,0,0,0,.9-.36.18.18,0,0,0-.18-.31L16.17,2,16.08,2h0l-.05,0a3.06,3.06,0,0,1-.43.13.18.18,0,0,0-.13.22.18.18,0,0,0,.22.13Z"/><path class="cls-1" d="M12.79,7.7a3.62,3.62,0,0,1,1.09,0,.19.19,0,0,0,.22-.13c0-.09,0-.21-.12-.22a4.29,4.29,0,0,0-1.29,0,.18.18,0,0,0-.13.22.2.2,0,0,0,.23.13Z"/><path class="cls-1" d="M12.69,8l1.09-.29a.19.19,0,0,0,.12-.23.18.18,0,0,0-.22-.12l-1.08.29a.19.19,0,0,0-.13.23.18.18,0,0,0,.22.12Z"/><path class="cls-1" d="M5.51,14.66H6a1.11,1.11,0,0,1,.26.07h0s0,0,0,0l0,0,.13.07a.18.18,0,1,0,.18-.31,1.71,1.71,0,0,0-1.25-.21.18.18,0,0,0-.13.22.2.2,0,0,0,.23.13Z"/><path class="cls-1" d="M7.74,23.82a7.78,7.78,0,0,0,2.16,1,.18.18,0,0,0,.1-.35,7.23,7.23,0,0,1-2.08-.94c-.2-.13-.38.19-.18.32Z"/><path class="cls-1" d="M27.42,29.23l.82.45a.18.18,0,0,0,.22,0,.17.17,0,0,0,0-.22,3.64,3.64,0,0,1-.23-.39l-.1-.19a1,1,0,0,0,0-.1l0-.06s0-.06,0,0l-.34.14.52,1a.18.18,0,0,0,.25.07.19.19,0,0,0,.06-.25l-.51-1a.18.18,0,0,0-.23-.07.17.17,0,0,0-.1.21,5.13,5.13,0,0,0,.45.87l.25-.25-.82-.45a.18.18,0,0,0-.25.06.19.19,0,0,0,.06.25Z"/><path class="cls-1" d="M18.56,8.36l.14.52L19,8.7l-.09-.09a.19.19,0,0,0-.26,0,.2.2,0,0,0,0,.26s0,0,0,0v0l0,.06.07.11,0,.06v0s0,0,0,0,0,0,0,0v0l0,.07a.17.17,0,0,0,.22.12.18.18,0,0,0,.13-.22,1.76,1.76,0,0,0-.31-.57l-.26.26.09.09A.18.18,0,0,0,19,9a.2.2,0,0,0,.09-.21l-.13-.52a.2.2,0,0,0-.23-.13.2.2,0,0,0-.13.23Z"/><path class="cls-1" d="M3,14.84C4.18,13,6.08,11.65,7,9.59A.58.58,0,1,0,6,9c-.91,2.05-2.81,3.41-4,5.25a.58.58,0,0,0,.2.79.6.6,0,0,0,.8-.21Z"/><path class="cls-1" d="M3.39,14.59a57.73,57.73,0,0,0,7.82-6.31c.54-.52-.29-1.34-.82-.82a56.45,56.45,0,0,1-7.58,6.13c-.62.41,0,1.42.58,1Z"/><path class="cls-1" d="M11.37,8.22A15.41,15.41,0,0,1,12.8,7l-.12.09.05,0A.65.65,0,0,0,13,6.68a.59.59,0,0,0-.06-.45A.56.56,0,0,0,12.59,6a.55.55,0,0,0-.45.06A15.94,15.94,0,0,0,10.55,7.4a.58.58,0,0,0,0,.82.6.6,0,0,0,.82,0Z"/><path class="cls-1" d="M6.89,9.7a60.32,60.32,0,0,1,4.18-4.85c.25-.27-.16-.68-.42-.41A62.28,62.28,0,0,0,6.48,9.29a.3.3,0,0,0,0,.41.29.29,0,0,0,.41,0Z"/><path class="cls-1" d="M6.93,9.13l1.3-1.3a.31.31,0,0,0,0-.41.29.29,0,0,0-.41,0l-1.3,1.3a.29.29,0,0,0,0,.41.31.31,0,0,0,.41,0Z"/><path class="cls-2" d="M13.79,3.2A20.88,20.88,0,0,0,9.31,6.4c-.86.79-1.66,1.65-2.47,2.48a13.24,13.24,0,0,1-1.19,1.18,2.51,2.51,0,0,0-.83.79c-.14.26-.25.54-.41.8A22.94,22.94,0,0,1,2.5,14.26,4.6,4.6,0,0,0,2,15a12.18,12.18,0,0,0,3.05-2.05,16.85,16.85,0,0,1,1.55-1.27A17.16,17.16,0,0,0,8.46,9.89,9.35,9.35,0,0,0,10.35,8c.4-.65.87-1.23,1.27-1.87a15.89,15.89,0,0,1,1.46-2A7.82,7.82,0,0,0,13.79,3.2Zm1.33-.65a.33.33,0,0,1,0,.14c-.26.4-.58.75-.85,1.13s-.4.69-.6,1a14.39,14.39,0,0,1-1.22,1.68l3,.83,1.72.5a7.49,7.49,0,0,1,.81.23c.72-.94,1.35-1.94,2-2.92S21.23,3,21.85,1.93c-2.21.11-4.55-.33-6.6.56ZM1.57,16a9.44,9.44,0,0,0-.43,1.66c-.33,1.9-.33,3.86-.48,5.78.86-.6,1.76-1.12,2.63-1.72,1.12-.76,2.21-1.56,3.31-2.35L7.12,19a11.3,11.3,0,0,1-.58-2.5,13.31,13.31,0,0,0-.79-3l-.5.43A8.77,8.77,0,0,1,1.61,16ZM11.93,7.09a10.3,10.3,0,0,1-.68.83c-.3.31-.66.55-.95.87-.56.62-.93,1.35-1.54,1.94-.31.3-.65.58-1,.86a11.68,11.68,0,0,0-.94.92c-.2.21-.43.41-.66.61a9.88,9.88,0,0,1,1,3c.09.5.17,1,.27,1.5,0,.28.08.61.16.92a17.45,17.45,0,0,0,1.9-1.76c.86-.93,1.57-2,2.45-2.89s2-1.78,3-2.68a28.4,28.4,0,0,0,2.6-2.66l-.13,0L15.7,8.12c-1.23-.31-2.45-.65-3.68-1ZM1.26,24c4.57.72,9.1,1.6,13.63,2.58,4.15.9,8.29,1.87,12.38,3-1.83-1.17-3.75-2.24-5.64-3.29a32,32,0,0,0-3.75-1.64c-1.26-.51-2.49-1.08-3.74-1.62s-2.45-1.15-3.67-1.74q-.84-.4-1.68-.84a4.72,4.72,0,0,1-1.23-.75l-.23.19A29.46,29.46,0,0,1,4.13,22C3.13,22.6,2.2,23.29,1.26,24Zm17-15a12.92,12.92,0,0,1-1,1.19c-.48.49-1,.94-1.52,1.41-1,.91-1.95,1.81-2.88,2.77s-1.67,1.9-2.51,2.85A18.27,18.27,0,0,1,8,19.32l.15.12a32.57,32.57,0,0,0,3.48,1.78c1.16.53,2.29,1.11,3.46,1.61,2.26,1,4.53,1.84,6.69,3s4.33,2.54,6.57,3.65a61.09,61.09,0,0,0-3.05-6.44c-1.12-2.15-2.23-4.31-3.4-6.43a55.22,55.22,0,0,1-3.14-6.42c-.11-.29-.19-.61-.32-.89A1.62,1.62,0,0,0,18.22,9Zm4.49-6.85c-.63,1.13-1.34,2.21-2,3.33A22.91,22.91,0,0,1,18.6,8.52a5.12,5.12,0,0,1,.88,1.89,28.85,28.85,0,0,0,1.19,2.81c.95,1.86,1.9,3.72,2.92,5.55s2,3.73,2.92,5.63c.83,1.68,1.55,3.43,2.38,5.11-.52-2.13-1.13-4.25-1.64-6.39-.57-2.38-1.15-4.75-1.7-7.13s-1.1-4.69-1.61-7S23.12,4.41,22.71,2.14ZM.55,24.46c-.11.22-.54-.09-.55-.32,0-1.43.11-2.85.21-4.27a19.75,19.75,0,0,1,.56-3.66,9.62,9.62,0,0,1,1.58-2.94c.37-.53.79-1,1.15-1.57a4,4,0,0,1,.93-1.22A12.23,12.23,0,0,0,5.88,8.83L7.09,7.57A27.78,27.78,0,0,1,9.84,5c.93-.72,1.95-1.31,2.93-1.95a11.69,11.69,0,0,1,1.74-.93.21.21,0,0,1,.17-.07A13.19,13.19,0,0,1,16,1.63a14.27,14.27,0,0,1,3.19-.38,23.43,23.43,0,0,1,3.65,0,.53.53,0,0,1,.38.42.43.43,0,0,1,.14.24c.36,2.41.9,4.8,1.34,7.2s.89,4.7,1.43,7,1.19,4.77,1.8,7.15,1.14,4.85,1.78,7.25a.19.19,0,0,1-.23.24l-.41-.11a.45.45,0,0,1-.27-.07c-4.56-1.21-9.14-2.4-13.76-3.4C10.23,26.11,5.39,25.24.55,24.46Z"/><path class="cls-1" d="M70.68,1.54a14.07,14.07,0,0,0-.27,2.51,24.41,24.41,0,0,1-.54,3.17l-1.21,6c-.42,2-.79,4.1-1.25,6.13s-1.12,3.86-1.73,5.77c-.28.89,1.12,1.28,1.4.39.61-1.91,1.29-3.81,1.73-5.77s.83-4.09,1.25-6.14l1.22-6c.18-.89.37-1.78.49-2.69a25,25,0,0,1,.31-3,.73.73,0,0,0-1.4-.38Z"/><path class="cls-1" d="M66,25.75l-.56,1.54a.18.18,0,0,0,.13.22.18.18,0,0,0,.22-.13l.56-1.54a.19.19,0,0,0-.13-.22.18.18,0,0,0-.22.13Z"/><path class="cls-1" d="M66.61,25.58a5.71,5.71,0,0,0-1.06,1.51.19.19,0,0,0,.07.25.18.18,0,0,0,.25-.07,5.26,5.26,0,0,1,1-1.43c.16-.17-.1-.42-.26-.26Z"/><path class="cls-1" d="M65.93,25.65a3.22,3.22,0,0,0-.3.78.19.19,0,0,0,.12.22.18.18,0,0,0,.23-.12c0-.13.07-.25.11-.37l0-.05s0-.06,0,0l0-.09a1.62,1.62,0,0,1,.1-.18.18.18,0,0,0-.07-.24.18.18,0,0,0-.25.06Z"/><path class="cls-1" d="M72.05,3.5a.73.73,0,0,0,0-1.45.73.73,0,0,0,0,1.45Z"/><path class="cls-1" d="M71.29,3.11a2.6,2.6,0,0,0,.21.55,2.58,2.58,0,0,0,.32.49.61.61,0,0,0,.24.15.64.64,0,0,0,.28.06.67.67,0,0,0,.28-.06.51.51,0,0,0,.23-.15L73,4a.69.69,0,0,0,.1-.37l0-.19a.8.8,0,0,0-.19-.32l0,0,.11.15a2.3,2.3,0,0,1-.23-.4l.08.18c0-.1-.07-.2-.1-.3a.47.47,0,0,0-.13-.24.61.61,0,0,0-.2-.19.72.72,0,0,0-.27-.09.57.57,0,0,0-.29,0l-.18.07a.81.81,0,0,0-.26.26l-.07.17a.86.86,0,0,0,0,.39Z"/><path class="cls-1" d="M71.51,3.55a7.26,7.26,0,0,0,1.26,2.57c.29.38.61.72.92,1.07.08.08.15.17.22.25l.08.1.06.07a4.48,4.48,0,0,1,.35.6.72.72,0,0,0,1,.26.74.74,0,0,0,.26-1A10.46,10.46,0,0,0,74,5.36a5.85,5.85,0,0,1-1.1-2.2.73.73,0,0,0-1.4.39Z"/><path class="cls-1" d="M73.78,5.17a3.76,3.76,0,0,0-.9-.44,2.77,2.77,0,0,0-1-.15,1.75,1.75,0,0,0-1,.47,1.62,1.62,0,0,0-.49.88.78.78,0,0,0,.08.56.68.68,0,0,0,.43.33.69.69,0,0,0,.56-.07.68.68,0,0,0,.33-.43,1.55,1.55,0,0,1,.07-.23l-.08.17a1.09,1.09,0,0,0,.08-.15c.06-.1-.1.12,0,.06l.06-.07,0,0c.09-.09-.12.07-.06,0A.7.7,0,0,1,72,6l-.18.07L72,6l-.19,0a1.09,1.09,0,0,1,.36,0L72,6a2.64,2.64,0,0,1,.68.19l-.17-.08a2.86,2.86,0,0,1,.54.3.73.73,0,0,0,1-.26.74.74,0,0,0-.26-1Z"/><path class="cls-1" d="M72.39,4.51a2.28,2.28,0,0,0-1.38,1,5,5,0,0,0-.59,1.56.73.73,0,0,0,1.41.38,6.61,6.61,0,0,1,.29-1L72,6.69a2.17,2.17,0,0,1,.31-.53l-.12.15A2.13,2.13,0,0,1,72.56,6l-.14.12a1.75,1.75,0,0,1,.29-.18L72.54,6l.23-.08A.73.73,0,0,0,73.28,5a.74.74,0,0,0-.89-.51Z"/><path class="cls-1" d="M72.52,1.68c.75-.34,1.73.24,2.46.41.9.22,1.82,0,2.71.19A2.6,2.6,0,0,1,79.23,3.8a10.47,10.47,0,0,0,1.39,2.28c.62.69,1.65-.34,1-1A18.32,18.32,0,0,1,80.2,2.58,3.53,3.53,0,0,0,77.92.85,7.58,7.58,0,0,0,76.34.78,4.64,4.64,0,0,1,74.91.56,4.24,4.24,0,0,0,71.78.42a.74.74,0,0,0-.26,1,.75.75,0,0,0,1,.26Z"/><path class="cls-1" d="M80,2.58A9.3,9.3,0,0,0,75.77.39a.75.75,0,0,0-.86.42.72.72,0,0,0,.3.91l1.22.57a.74.74,0,0,0,1-.26.74.74,0,0,0-.26-1L75.94.47l-.56,1.32a9.44,9.44,0,0,1,1,.29l.24.09.13.05.06,0,.06,0,.12.05.27.13a8.16,8.16,0,0,1,.9.53l.21.15.13.1c.09.06-.08-.07,0,0L79,3.6a.72.72,0,0,0,1-1Z"/><path class="cls-1" d="M77.85,2.81l1.54,1.53a.72.72,0,0,0,1,0,.72.72,0,0,0,.22-.51.77.77,0,0,0-.22-.52L78.88,1.78a.75.75,0,0,0-.51-.21.78.78,0,0,0-.52.21.75.75,0,0,0-.21.51.81.81,0,0,0,.21.52Z"/><path class="cls-1" d="M78.85,1.82A7.15,7.15,0,0,0,77,1a.73.73,0,0,0-.56.08.76.76,0,0,0-.34.43.76.76,0,0,0,.51.9,6,6,0,0,1,.75.26l-.17-.07a5.74,5.74,0,0,1,1,.5.73.73,0,0,0,.73-1.26Z"/><path class="cls-1" d="M77.46,8.38a9.3,9.3,0,0,1,2.11-.16A3.84,3.84,0,0,0,80.68,8c.3-.12.59-.29.9-.4.62-.23,1,.44,1.34.86l1.59,1.85a.72.72,0,1,0,1-1c-.6-.7-1.19-1.4-1.79-2.09a2.47,2.47,0,0,0-2-1.12c-.75.07-1.34.6-2.09.68A13.06,13.06,0,0,0,77.07,7c-.88.29-.5,1.69.39,1.4Z"/><path class="cls-1" d="M85.15,10.92c.64.71,1.31,1.38,2,2a.72.72,0,1,0,1-1c-.7-.66-1.36-1.33-2-2a.72.72,0,0,0-1,1Z"/><path class="cls-1" d="M85.41,10.82a.73.73,0,0,0,0-1.45.73.73,0,0,0,0,1.45Z"/><path class="cls-1" d="M83.24,7a4.3,4.3,0,0,0-1.39-.38,4,4,0,0,0-1.29.08.74.74,0,0,0-.51.89.75.75,0,0,0,.9.51l.29-.05-.19,0a3.45,3.45,0,0,1,.85,0l-.19,0a3.52,3.52,0,0,1,.86.23l-.17-.07.1,0a.73.73,0,0,0,1.07-.82A.76.76,0,0,0,83.24,7Z"/><path class="cls-1" d="M88.12,17.63l-.05-.05.19.32s0,.12,0,.12l0-.15a2.54,2.54,0,0,1,.11-.26c.09-.22.2-.44.31-.66a5.65,5.65,0,0,0,.5-1.43,3.48,3.48,0,0,0,0-.79v-.15l0-.09a.58.58,0,0,1,0-.14c0-.12,0,.08,0,0a2,2,0,0,0,.27-1.55.75.75,0,0,0-.89-.51.74.74,0,0,0-.51.9c0,.1,0,0,0,0s0,.09,0,0,0,0,0,0a.74.74,0,0,1,0,.14s-.06.15,0,.06a6.07,6.07,0,0,0-.29.7,2.71,2.71,0,0,0-.06.85,1.5,1.5,0,0,1-.08.62,10.6,10.6,0,0,1-.55,1.27c-.27.59-.58,1.25-.07,1.81a.72.72,0,1,0,1-1Z"/><path class="cls-1" d="M89,14.08l2.77,2a.74.74,0,0,0,1-.26.75.75,0,0,0-.26-1l-2.77-1.94a.73.73,0,0,0-1,.26.74.74,0,0,0,.26,1Z"/><path class="cls-1" d="M90.58,13.76a1.52,1.52,0,0,0-.87-.25,1.39,1.39,0,0,0-.46.07,1.78,1.78,0,0,0-.54.3,1.59,1.59,0,0,0-.48,1.62.75.75,0,0,0,.9.51.76.76,0,0,0,.43-.34.73.73,0,0,0,.07-.56.5.5,0,0,1,0-.12l0,.19a.74.74,0,0,1,0-.21l0,.19a1,1,0,0,1,.06-.23l-.08.18a1.18,1.18,0,0,1,.11-.19l-.11.15a.75.75,0,0,1,.15-.16l-.15.12a1,1,0,0,1,.17-.1l-.18.07a.9.9,0,0,1,.22-.06l-.19,0h.23l-.19,0a.9.9,0,0,1,.22.06l-.18-.07a.53.53,0,0,1,.15.08.74.74,0,0,0,.56.08.78.78,0,0,0,.44-.34.73.73,0,0,0,.07-.56L90.84,14a.72.72,0,0,0-.26-.26Z"/><path class="cls-1" d="M89.32,15.9l.45-.22-.17.08a6.12,6.12,0,0,1,1.5-.43.7.7,0,0,0,.44-.33.74.74,0,0,0-.26-1l-.18-.07a.81.81,0,0,0-.38,0,7.29,7.29,0,0,0-2.14.71.75.75,0,0,0-.26,1,.76.76,0,0,0,1,.26Z"/><path class="cls-1" d="M75.31,9.18q4.83,4.65,9.31,9.65c.62.7,1.65-.33,1-1q-4.47-5-9.3-9.65c-.67-.65-1.7.38-1,1Z"/><path class="cls-1" d="M74.75,9.23c0,.15,0,.3,0,.45,0-.21,0,0,0,.08s0,.15,0,.22a6.21,6.21,0,0,1-.24.81,1.19,1.19,0,0,1-.08.2c.09-.17,0,0,0,.09s-.11.23-.17.35a6.32,6.32,0,0,1-.49.74.73.73,0,0,0-.08.56.73.73,0,0,0,1.33.18A6.64,6.64,0,0,0,76.2,9.23a.73.73,0,0,0-1.45,0Z"/><path class="cls-1" d="M74.38,10A14.36,14.36,0,0,0,73,13.36a22.68,22.68,0,0,1-1.65,3.53c-1.14,2.19-1.66,4.73-3.21,6.69-.57.73.45,1.76,1,1,1.6-2,2.18-4.51,3.32-6.77a29.76,29.76,0,0,0,1.69-3.45,17.3,17.3,0,0,1,1.46-3.69c.5-.79-.76-1.52-1.26-.74Z"/><path class="cls-1" d="M67.8,23.85a15.56,15.56,0,0,0-.76,2s-.06.13,0,0,0,0,0,0a2,2,0,0,1-.1.21,2.67,2.67,0,0,1-.22.36s-.08.11,0,0,0,0,0,0a.75.75,0,0,1-.15.16.46.46,0,0,1-.07.07c-.07.07,0,0,0,0s-.15.1-.21.13A.72.72,0,1,0,67,28.08a3.2,3.2,0,0,0,1.33-1.57c.15-.35.27-.71.39-1.07l.17-.48s.06-.13,0-.05,0-.05,0-.07.09-.17.13-.25a.73.73,0,0,0-.26-1,.74.74,0,0,0-1,.26Z"/><path class="cls-1" d="M67.36,26.86a.73.73,0,0,0,0-1.45.73.73,0,0,0,0,1.45Z"/><path class="cls-1" d="M66.88,27.34a.73.73,0,0,0,0-1.45.73.73,0,0,0,0,1.45Z"/><path class="cls-1" d="M68,21.88a.58.58,0,0,0,0-1.16.58.58,0,0,0,0,1.16Z"/><path class="cls-1" d="M85.5,18.87a.73.73,0,0,0,0-1.46.73.73,0,0,0,0,1.46Z"/><path class="cls-1" d="M79.7,12a6.59,6.59,0,0,0-1.77-.81,3.09,3.09,0,0,0-2.05.21,5.45,5.45,0,0,0-1.45,1.07A3.75,3.75,0,0,0,73.33,14a.73.73,0,1,0,1.4.38A1.46,1.46,0,0,1,75,14c.15-.17.31-.33.48-.49a3.92,3.92,0,0,1,1.08-.81,1.5,1.5,0,0,1,1.09-.07,5.32,5.32,0,0,1,1.34.64A.73.73,0,0,0,79.7,12Z"/><path class="cls-1" d="M79.14,12.75l.12.27a.47.47,0,0,0,0,.1,2.35,2.35,0,0,0,.23.32l.16.15a1.86,1.86,0,0,0,.32.23.51.51,0,0,0,.27.09.57.57,0,0,0,.29,0,.75.75,0,0,0,.25-.13.46.46,0,0,0,.18-.21l.08-.17a.86.86,0,0,0,0-.39L81,12.83a.65.65,0,0,0-.26-.26.71.71,0,0,1-.14-.1l.14.11a1,1,0,0,1-.21-.21l.11.15c-.06-.09-.11-.18-.16-.27l.08.17a.17.17,0,0,1,0-.05.66.66,0,0,0-.13-.25.64.64,0,0,0-.21-.19.5.5,0,0,0-.27-.08.48.48,0,0,0-.29,0l-.17.07a.72.72,0,0,0-.26.26l-.08.18a.81.81,0,0,0,0,.38Z"/><path class="cls-1" d="M79.23,13.39a7,7,0,0,1,.81.52l-.15-.11a5.17,5.17,0,0,1,.56.49.75.75,0,0,0,.51.21.78.78,0,0,0,.52-.21.75.75,0,0,0,.21-.51.81.81,0,0,0-.21-.52A6.42,6.42,0,0,0,80,12.14a.78.78,0,0,0-.56-.08.73.73,0,0,0-.43.34.69.69,0,0,0-.07.56.71.71,0,0,0,.33.43Z"/><path class="cls-1" d="M73.87,13.65a1.3,1.3,0,0,0-.52.14,1.1,1.1,0,0,0-.28.2,1.3,1.3,0,0,0-.32.42c-.14.24-.23.5-.39.72l.11-.15a1.29,1.29,0,0,1-.16.17l.15-.12a.75.75,0,0,1-.17.1l.17-.07h0a.83.83,0,0,0-.44.34.72.72,0,0,0-.07.56.79.79,0,0,0,.33.43.74.74,0,0,0,.56.08,1.58,1.58,0,0,0,.62-.38,2.09,2.09,0,0,0,.33-.45,4.32,4.32,0,0,1,.36-.67l-.12.15a.86.86,0,0,1,.13-.14L74,15.1l.1-.06-.17.08.14,0-.2,0h0a.46.46,0,0,0,.28-.06.51.51,0,0,0,.23-.15.71.71,0,0,0,0-1,.69.69,0,0,0-.51-.21Z"/><path class="cls-1" d="M76.54,9.43a1.35,1.35,0,0,0-.34.17,1.68,1.68,0,0,0-.29.24,1.73,1.73,0,0,0-.37.66l0,.09c0,.1,0,.2,0,.29V11a1.15,1.15,0,0,0,.11.45.76.76,0,0,0,.08.11.74.74,0,0,0,.23.2.58.58,0,0,0,.18.08h0a1.13,1.13,0,0,0,.41,0,.87.87,0,0,0,.37-.19l.52-.38a.61.61,0,0,0,.2-.19.47.47,0,0,0,.13-.25.48.48,0,0,0,0-.29.5.5,0,0,0-.08-.27.74.74,0,0,0-.44-.33L77,9.9a.82.82,0,0,0-.37.1l-.33.25-.17.13-.15.1.17-.07h-.06l.2,0h0l.19,0h0l.17.07h0l.14.11h0l.12.15a.05.05,0,0,1,0,0l.07.18a.43.43,0,0,0,0,0l0,.19a.6.6,0,0,1,0-.19l0,.19A.73.73,0,0,1,77,10.8L76.9,11a1.28,1.28,0,0,1,.11-.2l-.11.14a.75.75,0,0,1,.16-.15l-.15.11a.52.52,0,0,1,.18-.1l-.18.07h0a.47.47,0,0,0,.24-.13.46.46,0,0,0,.19-.2.62.62,0,0,0,.09-.27.48.48,0,0,0,0-.29.68.68,0,0,0-.33-.43l-.17-.08a.86.86,0,0,0-.39,0Z"/><path class="cls-1" d="M70.87,27.61a34.1,34.1,0,0,0,5.31-2.47l5.12-2.6c.82-.41,1.63-.83,2.45-1.22a10.24,10.24,0,0,1,2.69-1.08c.88-.11,1.79.87,2.49,1.33.9.59,1.82,1.15,2.76,1.69A.73.73,0,0,0,92.43,22c-.94-.53-1.87-1.09-2.77-1.69a12.06,12.06,0,0,0-2.33-1.51,3.61,3.61,0,0,0-2.37.42c-.9.36-1.77.76-2.64,1.18-1.94,1-3.85,2-5.78,2.93a39.4,39.4,0,0,1-6.05,2.88c-.89.27-.51,1.67.38,1.4Z"/><path class="cls-1" d="M88.88,19.93a7.92,7.92,0,0,0-2-.45,11.38,11.38,0,0,0-1.75.06,4.63,4.63,0,0,0-3,.93c-.67.66.36,1.69,1,1a.94.94,0,0,1,.1-.1s0,0,0,0,.24-.13.17-.1a3.45,3.45,0,0,1,.63-.17A11.29,11.29,0,0,1,85.26,21a9.24,9.24,0,0,1,1.58,0,6.3,6.3,0,0,1,1.65.39.73.73,0,1,0,.39-1.4Z"/><path class="cls-1" d="M69.94,26.84a10.92,10.92,0,0,1-1.28.49,6.05,6.05,0,0,0-1.1.41c-.59.34-1.12.92-1.84.94l.09.34a16,16,0,0,1,4.77-1.48l-.14-.33a4.8,4.8,0,0,1-1.55.6l-1.78.38c-.23,0-.13.4.1.35l1.55-.33A3.13,3.13,0,0,0,70,27.78c.15-.11.07-.42-.14-.34l-1.57.61-.74.29c-.2.07-.47.16-.64,0s-.42.1-.26.26c.4.38,1,.12,1.38-.05l1.93-.74-.14-.34a3.1,3.1,0,0,1-1.23.42l-1.46.31.1.35,1.85-.4a4.65,4.65,0,0,0,1.57-.62.18.18,0,0,0-.14-.33,16.45,16.45,0,0,0-4.86,1.51.18.18,0,0,0,.09.34,3.87,3.87,0,0,0,1.9-.91,5.34,5.34,0,0,1,1.22-.48,11.86,11.86,0,0,0,1.29-.5c.21-.09,0-.41-.19-.31Z"/><path class="cls-1" d="M92.46,16.07l.23.22.22-.28a1.37,1.37,0,0,0-.55-.18.19.19,0,0,0-.18.13.21.21,0,0,0,.09.21l.13.1s0,0,0,0l0,0,.06.05.25.22.23.23.1.12a.18.18,0,0,1,0,.07l0,0s0,0,0,0a.18.18,0,0,0,.25.07c.07-.05.13-.17.06-.25a4.66,4.66,0,0,0-1-1l-.09.34s0,0,0,0h.06l.11,0,0,0h0l.11.05a.19.19,0,0,0,.23-.05A.2.2,0,0,0,93,16l-.23-.22a.18.18,0,0,0-.26.26Z"/><path class="cls-1" d="M92.6,15.66a2.93,2.93,0,0,0,.36.9.17.17,0,0,0,.24.06.17.17,0,0,0,.07-.24,2.12,2.12,0,0,1-.11-.21l0-.09s0-.07,0,0l0-.05a2.13,2.13,0,0,1-.13-.43.18.18,0,1,0-.35.09Z"/><path class="cls-1" d="M87.43,12.79a3.62,3.62,0,0,1,0,1.09.18.18,0,0,0,.13.22c.08,0,.21,0,.22-.12a4.29,4.29,0,0,0,0-1.29c0-.1-.14-.15-.22-.13a.19.19,0,0,0-.13.23Z"/><path class="cls-1" d="M87.16,12.69l.3,1.09a.18.18,0,0,0,.22.12.18.18,0,0,0,.13-.22l-.3-1.08a.18.18,0,0,0-.22-.13.19.19,0,0,0-.13.22Z"/><path class="cls-1" d="M80.47,5.51s0,0,0,.07v0h0a.53.53,0,0,0,0,.13s0,.09,0,.13a.22.22,0,0,1,0,.08s0,0,0,0a2,2,0,0,1-.07.26l0,0s0,0,0,0,0,0,0,0l-.08.13a.18.18,0,0,0,.07.25.19.19,0,0,0,.25-.07,1.71,1.71,0,0,0,.21-1.25.19.19,0,0,0-.23-.13.2.2,0,0,0-.12.23Z"/><path class="cls-1" d="M71.31,7.74a8.11,8.11,0,0,0-1,2.16.18.18,0,0,0,.35.1,7.54,7.54,0,0,1,.95-2.08c.12-.2-.19-.38-.32-.18Z"/><path class="cls-1" d="M65.9,27.42l-.46.82a.2.2,0,0,0,0,.22.17.17,0,0,0,.22,0c.13-.08.26-.16.4-.23l.19-.1.1,0,.06,0h0l-.14-.34-1,.52a.18.18,0,0,0,.19.31l1-.51a.19.19,0,0,0,.07-.23.17.17,0,0,0-.21-.1,4.48,4.48,0,0,0-.87.45l.25.25.45-.82a.18.18,0,0,0-.31-.19Z"/><path class="cls-1" d="M86.77,18.56l-.52.14.18.3.09-.09a.19.19,0,0,0,0-.26.2.2,0,0,0-.26,0s0,0,0,0h0a.1.1,0,0,1,0,0l-.11.07-.06,0h-.09l-.07,0a.17.17,0,0,0-.12.22.18.18,0,0,0,.22.13,1.76,1.76,0,0,0,.57-.31l-.26-.26-.09.09a.18.18,0,0,0,0,.22.19.19,0,0,0,.21.09l.52-.13a.19.19,0,0,0-.1-.36Z"/><path class="cls-1" d="M80.29,3c1.83,1.23,3.18,3.13,5.24,4a.6.6,0,0,0,.8-.2.59.59,0,0,0-.21-.8c-2.05-.91-3.41-2.81-5.25-4a.58.58,0,0,0-.79.2.6.6,0,0,0,.21.8Z"/><path class="cls-1" d="M80.54,3.39a57.73,57.73,0,0,0,6.31,7.82c.51.54,1.33-.29.82-.82a56.45,56.45,0,0,1-6.13-7.58c-.42-.62-1.42,0-1,.58Z"/><path class="cls-1" d="M86.91,11.37a17.06,17.06,0,0,1,1.25,1.43l-.09-.12,0,.05a.65.65,0,0,0,.35.26.57.57,0,0,0,.44-.06.54.54,0,0,0,.27-.34.59.59,0,0,0-.06-.45,17.37,17.37,0,0,0-1.37-1.59.58.58,0,0,0-.82,0,.59.59,0,0,0,0,.82Z"/><path class="cls-1" d="M85.42,6.89a62.25,62.25,0,0,1,4.86,4.18c.27.25.68-.16.41-.42a62.43,62.43,0,0,0-4.86-4.17.29.29,0,0,0-.41.41Z"/><path class="cls-1" d="M86,6.93l1.3,1.3a.31.31,0,0,0,.41,0,.29.29,0,0,0,0-.41l-1.3-1.3a.29.29,0,0,0-.41,0,.3.3,0,0,0,0,.41Z"/><path class="cls-2" d="M91.93,13.79a21.6,21.6,0,0,0-3.2-4.48c-.79-.86-1.65-1.66-2.49-2.47a14.59,14.59,0,0,1-1.17-1.19,2.51,2.51,0,0,0-.79-.83c-.26-.14-.54-.25-.8-.41A22.94,22.94,0,0,1,80.87,2.5,5.11,5.11,0,0,0,80.14,2a12.18,12.18,0,0,0,2,3.05,18.66,18.66,0,0,1,1.27,1.55,18.08,18.08,0,0,0,1.77,1.84,9.67,9.67,0,0,0,1.89,1.89c.65.4,1.23.87,1.87,1.27a15.79,15.79,0,0,1,2,1.46A7.91,7.91,0,0,0,91.93,13.79Zm.64,1.33a.33.33,0,0,1-.13,0c-.4-.26-.75-.58-1.14-.85a10.47,10.47,0,0,0-1-.6,15.4,15.4,0,0,1-1.69-1.22c-.26,1-.54,2-.82,3-.16.57-.34,1.14-.5,1.72a7.53,7.53,0,0,1-.24.81c.94.72,2,1.35,2.93,2s2.15,1.27,3.24,1.89c-.11-2.21.33-4.55-.57-6.6ZM79.15,1.57a9.12,9.12,0,0,0-1.65-.43C75.59.81,73.64.81,71.72.66c.6.86,1.12,1.76,1.72,2.63C74.2,4.41,75,5.5,75.79,6.6c.12.18.25.35.38.52a11.18,11.18,0,0,1,2.5-.58,13.46,13.46,0,0,0,3-.79l-.43-.5a8.66,8.66,0,0,1-2.07-3.64S79.15,1.59,79.15,1.57ZM88,11.93a8.81,8.81,0,0,1-.83-.68c-.31-.3-.55-.66-.87-.95-.62-.56-1.35-.93-1.94-1.54-.31-.31-.59-.65-.86-1s-.6-.62-.92-.94A6.36,6.36,0,0,1,82,6.18a9.85,9.85,0,0,1-3.05,1l-1.49.27c-.28,0-.61.08-.92.16a17.45,17.45,0,0,0,1.76,1.9c.93.86,2,1.57,2.89,2.45s1.78,2,2.68,3a28.4,28.4,0,0,0,2.66,2.6l0-.13c.16-.57.29-1.14.44-1.71.31-1.23.65-2.45,1-3.68A.36.36,0,0,1,88,11.93ZM71.15,1.26c-.72,4.57-1.6,9.1-2.58,13.63-.9,4.15-1.87,8.29-3,12.38,1.16-1.83,2.24-3.75,3.29-5.64a32,32,0,0,0,1.64-3.75c.5-1.26,1.08-2.49,1.62-3.74s1.15-2.45,1.74-3.67q.4-.84.84-1.68a4.72,4.72,0,0,1,.75-1.23,2.11,2.11,0,0,1-.19-.23,31.1,31.1,0,0,1-2.12-3.2C72.53,3.13,71.83,2.2,71.15,1.26Zm15,17a13,13,0,0,1-1.2-1c-.48-.48-.93-1-1.4-1.52-.91-1-1.81-1.95-2.77-2.88s-1.9-1.67-2.85-2.51A18.27,18.27,0,0,1,75.81,8a.79.79,0,0,0-.12.15,30.82,30.82,0,0,0-1.78,3.48c-.53,1.16-1.11,2.29-1.61,3.46-1,2.26-1.85,4.53-3,6.69s-2.53,4.33-3.64,6.57a61.09,61.09,0,0,0,6.44-3.05c2.15-1.12,4.3-2.23,6.43-3.4a54.45,54.45,0,0,1,6.42-3.14c.29-.11.61-.19.89-.32A1.62,1.62,0,0,0,86.14,18.22ZM93,22.71c-1.12-.63-2.2-1.34-3.32-2a22.28,22.28,0,0,1-3-2.14,5.12,5.12,0,0,1-1.89.88,27.84,27.84,0,0,0-2.81,1.19c-1.86.95-3.72,1.9-5.55,2.92s-3.73,2-5.63,2.92c-1.68.83-3.43,1.55-5.12,2.38,2.14-.52,4.26-1.13,6.4-1.64,2.37-.57,4.75-1.15,7.13-1.7s4.69-1.1,7-1.61S90.72,23.12,93,22.71ZM70.67.55C70.45.44,70.76,0,71,0c1.42,0,2.84.11,4.26.21a19.73,19.73,0,0,1,3.67.56,9.62,9.62,0,0,1,2.94,1.58c.53.37,1,.79,1.57,1.15a4,4,0,0,1,1.22.93A12.23,12.23,0,0,0,86.3,5.88c.42.4.84.8,1.25,1.21a26.73,26.73,0,0,1,2.57,2.75c.71.93,1.31,1.95,1.95,2.93A10.77,10.77,0,0,1,93,14.51a.16.16,0,0,1,.07.17A11,11,0,0,1,93.5,16a15.54,15.54,0,0,1,.38,3.19,24.72,24.72,0,0,1,0,3.65.54.54,0,0,1-.42.38.43.43,0,0,1-.24.14c-2.42.36-4.8.9-7.21,1.34s-4.69.89-7,1.43-4.78,1.19-7.16,1.8S67,29.05,64.64,29.69a.19.19,0,0,1-.24-.23l.11-.41a.45.45,0,0,1,.07-.27C65.79,24.22,67,19.64,68,15,69,10.23,69.88,5.39,70.67.55Z"/></g></g></svg>