<svg xmlns="http://www.w3.org/2000/svg" viewBox="0 0 97.34 88.24"><defs><style>.cls-1{fill:#bd3118;}.cls-2{fill:#d45515;}.cls-3{fill:#95c122;}.cls-4{fill:#597c57;stroke:#597c57;stroke-linecap:round;stroke-linejoin:round;stroke-width:0.36px;}</style></defs><g id="Calque_2" data-name="Calque 2"><g id="Calque_1-2" data-name="Calque 1"><path class="cls-1" d="M21.54,76.71a34.91,34.91,0,0,1-5.65-2.13c-.86-.41-1.33-2.81-.05-2.31,7.37,2.93,15.23,4.34,23,2a23.49,23.49,0,0,0,10.43-6.41c2.3-2.48,4.87-5.39,5-9,.06-1.78,2-.58,2,.69a11.3,11.3,0,0,1-1.13,4.53c2.09.76,4.31,1.22,6.34,2.11.7.31,1.64,2.54.3,2.48a15.16,15.16,0,0,1-4.81-1.23A12.37,12.37,0,0,1,54,66a25.53,25.53,0,0,1-2.29,2.94A27.48,27.48,0,0,1,48.5,72c.35.37.67.75,1,1,1.13,1,2.35,1.81,3.56,2.69.91.65,1.1,3.13-.45,2.32a18.75,18.75,0,0,1-3.78-2.79,12.89,12.89,0,0,1-1.93-2,24.36,24.36,0,0,1-5.92,3l-.7.24c.33,1.53.64,3.06,1,4.59A9.91,9.91,0,0,1,41.49,85a.73.73,0,0,1-1.19.49,1.92,1.92,0,0,1-.74-1.82A13,13,0,0,0,39.05,80c-.19-1-.37-1.93-.52-2.9a31.2,31.2,0,0,1-7.21,1,22.68,22.68,0,0,1-.63,4.56,15.57,15.57,0,0,1-2,5.29c-.82,1.21-1.92-.82-1.59-1.7A30.37,30.37,0,0,0,29,80.27c.11-.65.09-1.49.18-2.29a34,34,0,0,1-5.86-.81,10.55,10.55,0,0,1-1.46,4.76c-.74,1.36-2.3,4.64-4,4.72-.42,0-.65-.61-.59-.94.31-1.71,2.08-3.06,2.84-4.65A25.78,25.78,0,0,0,21.54,76.71Z"/><path class="cls-2" d="M71.52,46.74a22.4,22.4,0,0,1-2.82-2.5c-.41-.43-.15-1.94.48-1.36,3.65,3.34,7.93,5.91,13,6.24a14.52,14.52,0,0,0,7.51-1.42c1.89-.94,4-2.07,4.89-4.12.42-1,1.28.1,1,.83a7.12,7.12,0,0,1-1.66,2.39c1.05.91,2.24,1.67,3.23,2.64.34.33.39,1.84-.38,1.51a9.27,9.27,0,0,1-2.53-1.78,7.84,7.84,0,0,1-1.37-1.5A17.91,17.91,0,0,1,88.29,50c.12.3.23.59.34.8.44.83,1,1.57,1.48,2.36.39.58,0,2.07-.78,1.25a11.58,11.58,0,0,1-1.58-2.46,8.38,8.38,0,0,1-.69-1.58,15.27,15.27,0,0,1-4.13.47l-.47,0c-.14,1-.3,1.93-.45,2.89A6.07,6.07,0,0,1,81.34,56a.46.46,0,0,1-.81,0,1.23,1.23,0,0,1,0-1.23A8.12,8.12,0,0,0,81,52.52c.1-.61.21-1.21.34-1.81a19.21,19.21,0,0,1-4.42-1,14.22,14.22,0,0,1-1.38,2.52,9.69,9.69,0,0,1-2.34,2.64c-.75.53-.94-.91-.55-1.34a19.6,19.6,0,0,0,2.43-3c.21-.36.38-.85.61-1.3a21.2,21.2,0,0,1-3.24-1.77,6.59,6.59,0,0,1-1.91,2.46c-.73.63-2.37,2.19-3.39,1.86-.25-.09-.25-.5-.14-.68.56-.93,1.89-1.33,2.69-2.09A16.4,16.4,0,0,0,71.52,46.74Z"/><path class="cls-3" d="M38.41,28.67a.64.64,0,0,1-.42-.4c-.55-1.27-1.81-1.94-3-.81A3.2,3.2,0,0,0,35,31c.7.81,2.8,1.27,3.49.19A3,3,0,0,0,38.41,28.67ZM22.58,18.47a24.93,24.93,0,0,0-4.75.52C13.1,20,7.33,20.91,3,23.41a3.09,3.09,0,0,1-.32.59c.26-.37,2.38,2.12,2.66,2.41l2.78,2.95c1.93,2,3.84,4.11,5.88,6,1,.92,2,1.8,3,2.64a17.74,17.74,0,0,1-.53-8.42A18.78,18.78,0,0,1,22.58,18.47ZM46.2,27.23a23.92,23.92,0,0,1-.78,8.58C44.73,38.89,43.55,42,41,44a13.67,13.67,0,0,1-3.44,2,21.18,21.18,0,0,0,6.33.52,60.76,60.76,0,0,0,14.34-2.65,37.76,37.76,0,0,0-8.07-12.72C48.93,29.9,47.6,28.54,46.2,27.23ZM35,15.85c.28-1.58.68-3.15,1-4.7.46-2,.69-4.48,1.87-6.2.53-.77,1.43-.89,1.55.21.24,2.18-.85,4.59-1.34,6.69-.35,1.47-.63,3-1,4.44a10.17,10.17,0,0,1,2.52,1.07,11.29,11.29,0,0,1,1.58,1.17,43.38,43.38,0,0,1,7.8,6.2c1.13-1.55,2.47-3,3.69-4.43s2.78-4.38,4.74-4.91c.87-.23.92.75.77,1.35C57.61,19,55.45,20.88,54,22.65c-1,1.26-2.07,2.66-3.22,3.89.63.66,1.24,1.31,1.83,2a41.19,41.19,0,0,1,6,8.62,32.69,32.69,0,0,1,3.94-3q3.57-2.73,7.06-5.56c1.56-1.26,1.77,1.87.69,2.74-3.46,2.79-6.94,5.58-10.62,8.07A39.22,39.22,0,0,1,61.41,44a2.43,2.43,0,0,1-1.17,2.65c-5.84,2-12.5,2.65-18.65,3-3,.18-5.8-.83-8.71-1.54-3.2-.79-6.46-1.17-9.52-2.46-5.82-2.44-10.54-6.89-15-11.2C6,32.28,3.52,30.13,1.42,27.73a4.81,4.81,0,0,1-.59-6.09c.5-.73,1-1,1.35-1a20.48,20.48,0,0,1,4.13-2.21C4.52,14.05,3.12,9.55,1,5.3.43,4.18,2,1.51,2.9,3A58.41,58.41,0,0,1,8.77,17.55c2.91-.91,6-1.49,8.86-2.15a23,23,0,0,1,3.13-.52A74.34,74.34,0,0,1,19.7,2.06c0-1.51,2.15-3.22,2.36-1,.43,4.49,1,9.11,1.17,13.64,1.52,0,3,0,4.62.15a41.35,41.35,0,0,1,7,1H35Z"/><path class="cls-4" d="M82.2,71.48a.25.25,0,0,1-.23,0c-.51-.17-1,0-1,.67a1.25,1.25,0,0,0,1,.94c.41,0,1.1-.49,1-1A1.25,1.25,0,0,0,82.2,71.48Zm-7.11,2A9.74,9.74,0,0,0,74,75a20.28,20.28,0,0,0-2.54,5.51,1.06,1.06,0,0,1,.09.25c0-.18,1.24-.15,1.4-.16l1.59,0c1.1,0,2.2-.07,3.3-.17.52,0,1-.11,1.56-.2a7,7,0,0,1-2.62-2A7.4,7.4,0,0,1,75.09,73.5Zm8.71-4.69a9.53,9.53,0,0,1,2.32,2.46,5.58,5.58,0,0,1,1.28,3.42,5.19,5.19,0,0,1-.29,1.54A7.93,7.93,0,0,0,88.9,74.5a23.49,23.49,0,0,0,2.94-4.91A15,15,0,0,0,86,68.68C85.29,68.7,84.54,68.74,83.8,68.81Zm-6.27.37c-.39-.49-.75-1-1.12-1.53a7.11,7.11,0,0,1-1.34-2.15c-.09-.36.11-.65.47-.4a8.17,8.17,0,0,1,1.62,2.13c.34.48.71,1,1,1.44a3.94,3.94,0,0,1,1-.47,5.85,5.85,0,0,1,.75-.16,17.18,17.18,0,0,1,3.85-.69c-.16-.73-.24-1.5-.35-2.24s-.57-2-.22-2.66c.16-.32.46-.08.6.12a7,7,0,0,1,.66,2.77c.1.63.24,1.29.31,2l1,0a16,16,0,0,1,4.1.46,13.42,13.42,0,0,1,.14-1.94c.08-1.17.14-2.35.19-3.52,0-.79,1,0,1,.51-.07,1.74-.15,3.48-.37,5.21a17.4,17.4,0,0,1,1.81.71,1,1,0,0,1,.48,1,27.15,27.15,0,0,1-4,6.27,11.2,11.2,0,0,1-2.71,2.17,23.89,23.89,0,0,1-3.19,2.17,20.56,20.56,0,0,1-7.19,1.52c-1.25.1-2.53.28-3.78.28a1.87,1.87,0,0,1-1.94-1.4c-.09-.34-.06-.55,0-.66a7.88,7.88,0,0,1,.41-1.79c-1.74-.61-3.43-1.36-5.24-1.84-.47-.12-.85-1.28-.17-1.14a22.41,22.41,0,0,1,5.79,2c.49-1.1,1.12-2.15,1.67-3.17a9.31,9.31,0,0,1,.66-1,28.37,28.37,0,0,1-4-3c-.45-.39-.4-1.47.32-.95,1.43,1,2.94,2.07,4.32,3.19A17,17,0,0,1,75.4,71a16.51,16.51,0,0,1,2.1-1.82h0Z"/></g></g></svg>