<svg xmlns="http://www.w3.org/2000/svg" viewBox="0 0 93.47 77.75"><defs><style>.cls-1{fill:#fddd03;}.cls-2{fill:#95c122;}.cls-3{fill:#5a7c57;}.cls-4{fill:#597c57;stroke:#597c57;stroke-linecap:round;stroke-linejoin:round;stroke-width:0.36px;}</style></defs><g id="Calque_2" data-name="Calque 2"><g id="Calque_1-2" data-name="Calque 1"><path class="cls-1" d="M47.92,29.76a60.87,60.87,0,0,0,6.48,9.56,4.27,4.27,0,0,0,1.25,1.22,7.88,7.88,0,0,1,1.05.52,1.39,1.39,0,0,1-.22,2.21,2.73,2.73,0,0,1-.85.22c-4.55.62-9.09,1.25-13.66,1.71a12.43,12.43,0,0,0,4.13-3.28,3.34,3.34,0,0,0,.76-1.36,4.7,4.7,0,0,0-.17-1.89,13.29,13.29,0,0,1-.23-4,.8.8,0,0,1,.18-.49c.32-.3.81.11,1,.49a20.94,20.94,0,0,1,2.43,5.7,2,2,0,0,1,0,1.27c-.18.39-.75.62-1.06.32"/><path class="cls-1" d="M45.76,31a47.35,47.35,0,0,0,4.08,6.42c.86,1.15,1.74,2.29,2.62,3.42A7.25,7.25,0,0,0,54,42.42a4.28,4.28,0,0,0,.62.38L55,43q.36.19.12,0a1.16,1.16,0,0,1-.48-.73c0-.39,0-.44,0-.16A1.24,1.24,0,0,1,55,41.3c.71-.34.84-.44.41-.3l-.32.06-1,.14-3.73.51c-2.79.37-5.57.71-8.36,1l1.26,4.66a13.18,13.18,0,0,0,5.55-4.93c.82-1.49.6-3,.29-4.56a8.28,8.28,0,0,1-.16-1.49q0-.43,0-.87a5.63,5.63,0,0,1,0-.58,2.11,2.11,0,0,1-.14.49l-.9.89.15-.09-1.27.34a1.36,1.36,0,0,1-1.25-.66l.27.47c.14.23.27.47.39.71.23.43.56,1.12.68,1.41s.38,1,.53,1.48c.08.25.16.51.23.77s.09.35.13.52c-.23-1,.63-1.53,2.58-1.49a2.52,2.52,0,0,0-3.42.9,2.56,2.56,0,0,0,.9,3.42,3.24,3.24,0,0,0,4.73-1.82,6.78,6.78,0,0,0-.5-4.15,25.74,25.74,0,0,0-1.67-3.81c-.75-1.38-1.75-2.77-3.52-2.75-4,0-3,5.72-2.5,8.18,0,.14.06.27.08.41a.21.21,0,0,1,0-.25q-.12.41-.06.18c0-.14,0-.09-.13.16l-.42.49q-.26.27-.54.54l-.56.51c-.23.18-.26.21-.09.08l-.41.29a13,13,0,0,1-1.53.89A2.5,2.5,0,0,0,42,47.7c3.15-.32,6.28-.71,9.42-1.13,1.7-.23,3.44-.39,5.12-.71a3.81,3.81,0,0,0,3.13-3.64,3.92,3.92,0,0,0-2.52-3.74,2.13,2.13,0,0,1-.42-.23c.19.12.17.09-.05-.11s-.44-.54-.65-.81l-1.08-1.4a49.93,49.93,0,0,1-4.84-7.44,2.52,2.52,0,0,0-3.42-.89,2.56,2.56,0,0,0-.9,3.42Z"/><path class="cls-1" d="M37.12,68.59a55,55,0,0,1-4.43,3.32L38.5,73"/><path class="cls-1" d="M35.35,66.83q-.72.6-1.47,1.17l.51-.39c-1,.75-2,1.46-3,2.14a2.54,2.54,0,0,0-1.19,2.49,2.46,2.46,0,0,0,.49,1.19,2.36,2.36,0,0,0,1.3.89l5.82,1.1a2.67,2.67,0,0,0,1.92-.26,2.5,2.5,0,0,0,.9-3.42,2.46,2.46,0,0,0-1.49-1.15L33.35,69.5l.6,4.57c1.71-1.15,3.35-2.4,4.94-3.71a2.47,2.47,0,0,0,.73-1.77,2.51,2.51,0,0,0-2.5-2.5l-.66.09a2.55,2.55,0,0,0-1.11.65Z"/><path class="cls-1" d="M50.51,71.9l4.59-3L51.27,67.7c-.58-.18-1.29-.62-1.08-1.18"/><path class="cls-1" d="M51.77,74.06l4.59-3a2.52,2.52,0,0,0-.6-4.57l-2.11-.65c-.66-.2-1.35-.36-2-.62l.6.25a2,2,0,0,1-.45-.26l.5.39a1.79,1.79,0,0,1-.25-.23l.39.5-.09-.16.25.6a1,1,0,0,1,0-.18l.09.67a.49.49,0,0,1,0-.12l-.09.66a.61.61,0,0,1,0-.13,2.5,2.5,0,0,0-1.74-3.07,2.56,2.56,0,0,0-3.08,1.74A3.15,3.15,0,0,0,48.69,69a5.51,5.51,0,0,0,2.22,1.16l3.52,1.09-.59-4.57-4.59,3a2.59,2.59,0,0,0-1.15,1.49,2.5,2.5,0,0,0,3.67,2.83Z"/><path class="cls-1" d="M75.35,56.48a6.85,6.85,0,0,0-1.2,3.43A4.28,4.28,0,0,0,77,59.5"/><path class="cls-1" d="M73.19,55.22a9.19,9.19,0,0,0-1.08,2.23,9.38,9.38,0,0,0-.46,2.46l.09.66a1.89,1.89,0,0,0,.45.85,1.21,1.21,0,0,0,.45.45,1.89,1.89,0,0,0,.85.45,9,9,0,0,0,1.36.17,7.85,7.85,0,0,0,1.37-.13,6.19,6.19,0,0,0,2-.7,1.8,1.8,0,0,0,.7-.64,1.94,1.94,0,0,0,.45-.85,1.89,1.89,0,0,0,0-1,1.85,1.85,0,0,0-.29-.93,2.58,2.58,0,0,0-1.5-1.15L77,57a2.54,2.54,0,0,0-1.26.35l-.32.15.59-.26a4.36,4.36,0,0,1-1.07.3l.66-.09a4.66,4.66,0,0,1-1.18,0l.67.09-.23,0,1.83,2.41c0-.16,0-.32,0-.47l-.09.66a7.23,7.23,0,0,1,.47-1.71l-.25.6a6.58,6.58,0,0,1,.68-1.25,1.9,1.9,0,0,0,.3-.93,1.86,1.86,0,0,0,0-1,1.71,1.71,0,0,0-.45-.85,1.83,1.83,0,0,0-.7-.65,2.53,2.53,0,0,0-1.92-.25l-.6.25a2.5,2.5,0,0,0-.9.9Z"/><path class="cls-1" d="M86.51,51.12a7,7,0,0,1,2.72.18,10.14,10.14,0,0,1-2,2.84"/><path class="cls-1" d="M86.51,53.62a7.91,7.91,0,0,1,1.82,0l-.66-.09a6.68,6.68,0,0,1,.89.18L87.07,50A10.35,10.35,0,0,1,86,51.86l.39-.51a10.94,10.94,0,0,1-.9,1,2.59,2.59,0,0,0-.73,1.77,1.88,1.88,0,0,0,.22,1,1.83,1.83,0,0,0,.51.8,2.52,2.52,0,0,0,1.77.74A2.62,2.62,0,0,0,89,55.9a13.8,13.8,0,0,0,1.51-1.81,10.59,10.59,0,0,0,.9-1.53,2.53,2.53,0,0,0,.34-1.26,1.88,1.88,0,0,0-.22-1,1.85,1.85,0,0,0-.52-.81,2.5,2.5,0,0,0-1.1-.64,11.14,11.14,0,0,0-2-.31,7.18,7.18,0,0,0-1.39,0,1.9,1.9,0,0,0-1,.22,1.83,1.83,0,0,0-.8.51,1.85,1.85,0,0,0-.52.81,1.78,1.78,0,0,0-.21,1,2.49,2.49,0,0,0,.73,1.77l.5.39a2.44,2.44,0,0,0,1.27.34Z"/><path class="cls-1" d="M5.19,24.52a62.12,62.12,0,0,0,14.72-1,8.13,8.13,0,0,0,3.72-1.42.53.53,0,0,0,.24-.37c0-.24-.26-.37-.49-.44-3.56-1-7.31.56-10.68,2.12L6.07,26.44A30.46,30.46,0,0,1,17,35.37a36.36,36.36,0,0,1-1.15-9.28l-3,1.24L16.17,34A30.14,30.14,0,0,1,18,38"/><path class="cls-1" d="M5.19,27A65.06,65.06,0,0,0,17,26.46a35.15,35.15,0,0,0,5.08-.92c2-.57,4.82-2,4.19-4.51-.59-2.32-3.53-2.65-5.52-2.6a16.64,16.64,0,0,0-5.26,1.06c-3.66,1.32-7.17,3.16-10.7,4.79a2.52,2.52,0,0,0,0,4.32,28.29,28.29,0,0,1,10,8,2.54,2.54,0,0,0,3.13,1,2.51,2.51,0,0,0,1.44-2.95,35.19,35.19,0,0,1-1.06-8.61c0-1.47-1.63-3-3.17-2.41l-3,1.24a2.54,2.54,0,0,0-1.5,3.67l2.7,5.31a40.24,40.24,0,0,1,2.23,4.75,2.55,2.55,0,0,0,3.07,1.74,2.52,2.52,0,0,0,1.75-3.07C19,33.41,16.83,29.75,15,26.07l-1.5,3.67,3.05-1.24-3.16-2.41A40.58,40.58,0,0,0,14.59,36l4.57-1.92A33.6,33.6,0,0,0,7.33,24.28V28.6c2.73-1.26,5.44-2.61,8.21-3.78a20,20,0,0,1,3.91-1.26,8.93,8.93,0,0,1,1.64-.14c-.09,0,.79,0,.65,0,.22,0,.44.08.65.14.39.08.44.1.15.07l-1.15-1.5.07.21V21l-.07.2.64-1.1c.19-.09.13-.05-.16.13l-.4.22a5.13,5.13,0,0,1-.7.24,17.51,17.51,0,0,1-1.88.41c-1.43.27-2.88.48-4.33.63A63.78,63.78,0,0,1,5.19,22a2.5,2.5,0,0,0,0,5Z"/><path class="cls-2" d="M82.48,51.56a.25.25,0,0,1-.23,0c-.51-.17-1,0-1,.66a1.25,1.25,0,0,0,1,.94c.41,0,1.1-.49,1-1A1.23,1.23,0,0,0,82.48,51.56Zm-7.11,2a9.83,9.83,0,0,0-1.07,1.54,20.15,20.15,0,0,0-2.54,5.51,1,1,0,0,1,.09.24c0-.17,1.24-.15,1.4-.16l1.59-.05c1.1,0,2.2-.06,3.3-.16q.78-.07,1.56-.21a7,7,0,0,1-2.62-2A7.4,7.4,0,0,1,75.37,53.58Zm8.71-4.68a9.33,9.33,0,0,1,2.32,2.45,5.6,5.6,0,0,1,1.28,3.42,5.26,5.26,0,0,1-.29,1.55,8.38,8.38,0,0,0,1.79-1.73,24,24,0,0,0,2.94-4.91,14.85,14.85,0,0,0-5.84-.92C85.57,48.79,84.82,48.83,84.08,48.9Zm-6.27.36c-.39-.49-.75-1-1.12-1.52a7.28,7.28,0,0,1-1.34-2.16c-.09-.35.11-.65.47-.4a8.34,8.34,0,0,1,1.62,2.13c.34.48.71.95,1,1.44a4.33,4.33,0,0,1,1-.47,5.85,5.85,0,0,1,.75-.16,17.18,17.18,0,0,1,3.85-.69c-.16-.73-.24-1.5-.35-2.23s-.57-2-.22-2.67c.16-.32.46-.08.6.12a7,7,0,0,1,.66,2.77c.1.63.24,1.3.31,1.95l1,0a15.58,15.58,0,0,1,4.1.45,13.52,13.52,0,0,1,.14-1.94c.08-1.17.14-2.34.19-3.52,0-.78,1,0,1,.51-.07,1.74-.15,3.49-.37,5.22a13.85,13.85,0,0,1,1.81.71.94.94,0,0,1,.48,1,27.22,27.22,0,0,1-4,6.28,11.17,11.17,0,0,1-2.71,2.16,23.89,23.89,0,0,1-3.19,2.17,20.12,20.12,0,0,1-7.19,1.52c-1.25.11-2.53.29-3.78.28a1.87,1.87,0,0,1-1.94-1.4c-.09-.34-.06-.55,0-.66a8,8,0,0,1,.41-1.79c-1.74-.61-3.43-1.36-5.24-1.83-.47-.13-.85-1.28-.17-1.15a22.79,22.79,0,0,1,5.79,2c.49-1.09,1.12-2.14,1.67-3.16a8.62,8.62,0,0,1,.66-1.06,28.37,28.37,0,0,1-4-3c-.45-.39-.4-1.47.32-1,1.43,1,2.94,2.08,4.32,3.19.38-.45.8-.89,1.24-1.32a15.68,15.68,0,0,1,2.1-1.81h0Z"/><path class="cls-2" d="M38.41,28.67a.64.64,0,0,1-.42-.4c-.55-1.27-1.81-1.94-3-.81A3.2,3.2,0,0,0,35,31c.7.81,2.8,1.27,3.49.19A3,3,0,0,0,38.41,28.67ZM22.58,18.47a24.93,24.93,0,0,0-4.75.52C13.1,20,7.33,20.91,3,23.41a3.09,3.09,0,0,1-.32.59c.26-.37,2.38,2.12,2.66,2.41l2.78,2.95c1.93,2,3.84,4.11,5.88,6,1,.92,2,1.8,3,2.64a17.74,17.74,0,0,1-.53-8.42A18.78,18.78,0,0,1,22.58,18.47ZM46.2,27.23a23.92,23.92,0,0,1-.78,8.58C44.73,38.89,43.55,42,41,44a13.67,13.67,0,0,1-3.44,2,21.18,21.18,0,0,0,6.33.52,60.76,60.76,0,0,0,14.34-2.65,37.76,37.76,0,0,0-8.07-12.72C48.93,29.9,47.6,28.54,46.2,27.23ZM35,15.85c.28-1.58.68-3.15,1-4.7.46-2,.69-4.48,1.87-6.2.53-.77,1.43-.89,1.55.21.24,2.18-.85,4.59-1.34,6.69-.35,1.47-.63,3-1,4.44a10.17,10.17,0,0,1,2.52,1.07,11.29,11.29,0,0,1,1.58,1.17,43.38,43.38,0,0,1,7.8,6.2c1.13-1.55,2.47-3,3.69-4.43s2.78-4.38,4.74-4.91c.87-.23.92.75.77,1.35C57.61,19,55.45,20.88,54,22.65c-1,1.26-2.07,2.66-3.22,3.89.63.66,1.24,1.31,1.83,2a41.19,41.19,0,0,1,6,8.62,32.69,32.69,0,0,1,3.94-3q3.57-2.73,7.06-5.56c1.56-1.26,1.77,1.87.69,2.74-3.46,2.79-6.94,5.58-10.62,8.07A39.22,39.22,0,0,1,61.41,44a2.43,2.43,0,0,1-1.17,2.65c-5.84,2-12.5,2.65-18.65,3-3,.18-5.8-.83-8.71-1.54-3.2-.79-6.46-1.17-9.52-2.46-5.82-2.44-10.54-6.89-15-11.2C6,32.28,3.52,30.13,1.42,27.73a4.81,4.81,0,0,1-.59-6.09c.5-.73,1-1,1.35-1a20.48,20.48,0,0,1,4.13-2.21C4.52,14.05,3.12,9.55,1,5.3.43,4.18,2,1.51,2.9,3A58.41,58.41,0,0,1,8.77,17.55c2.91-.91,6-1.49,8.86-2.15a23,23,0,0,1,3.13-.52A74.34,74.34,0,0,1,19.7,2.06c0-1.51,2.15-3.22,2.36-1,.43,4.49,1,9.11,1.17,13.64,1.52,0,3,0,4.62.15a41.35,41.35,0,0,1,7,1H35Z"/><path class="cls-3" d="M39.5,30a.64.64,0,0,1-.42-.39c-.55-1.28-1.82-1.94-3-.82A3.22,3.22,0,0,0,36,32.4c.7.8,2.8,1.26,3.49.18A3,3,0,0,0,39.5,30ZM23.66,19.84a24.07,24.07,0,0,0-4.74.53c-4.74,1-10.5,1.91-14.82,4.41a2.82,2.82,0,0,1-.32.59C4,25,6.16,27.49,6.44,27.78l2.78,2.95c1.93,2.05,3.84,4.12,5.88,6.05,1,.92,2,1.8,3,2.64A17.74,17.74,0,0,1,17.58,31,18.82,18.82,0,0,1,23.66,19.84ZM47.29,28.6a23.9,23.9,0,0,1-.78,8.58c-.69,3.09-1.87,6.15-4.39,8.21a13.38,13.38,0,0,1-3.44,2A21.18,21.18,0,0,0,45,48a60.76,60.76,0,0,0,14.34-2.65,37.86,37.86,0,0,0-8.07-12.72C50,31.27,48.69,29.91,47.29,28.6ZM36,17.22c.29-1.58.68-3.15,1-4.7.45-2,.69-4.48,1.87-6.2.52-.76,1.43-.88,1.55.22.24,2.17-.85,4.58-1.34,6.69-.35,1.46-.63,3-1,4.43a10,10,0,0,1,2.52,1.08,10.55,10.55,0,0,1,1.58,1.17,43.29,43.29,0,0,1,7.8,6.2c1.13-1.55,2.47-3,3.69-4.44s2.78-4.38,4.74-4.9c.87-.24.92.74.77,1.34-.57,2.27-2.73,4.15-4.19,5.92-1,1.26-2.07,2.65-3.22,3.88.63.66,1.24,1.32,1.83,2a41.25,41.25,0,0,1,6,8.63,31.79,31.79,0,0,1,3.94-3q3.57-2.73,7-5.55c1.57-1.27,1.78,1.86.7,2.73C68,35.46,64.48,38.25,60.8,40.74a38.74,38.74,0,0,1,1.7,4.67,2.41,2.41,0,0,1-1.17,2.64c-5.85,2.05-12.5,2.65-18.65,3-3,.18-5.8-.82-8.71-1.54-3.2-.79-6.46-1.17-9.52-2.45-5.82-2.45-10.55-6.89-15-11.21-2.3-2.21-4.81-4.36-6.91-6.75A4.81,4.81,0,0,1,1.92,23c.5-.73,1-1,1.35-1a20.63,20.63,0,0,1,4.12-2.2C5.61,15.42,4.2,10.92,2.08,6.67,1.52,5.55,3.1,2.89,4,4.41A57.94,57.94,0,0,1,9.85,18.92c2.92-.91,6-1.48,8.87-2.15a26.53,26.53,0,0,1,3.13-.52A73.33,73.33,0,0,1,20.79,3.44c0-1.52,2.14-3.23,2.36-1,.43,4.49,1,9.12,1.17,13.65a45.2,45.2,0,0,1,4.62.15,42.37,42.37,0,0,1,7,1H36Z"/><path class="cls-2" d="M45.69,66.6a.34.34,0,0,1-.28-.07c-.53-.42-1.22-.41-1.46.35a1.55,1.55,0,0,0,.81,1.53c.48.18,1.48-.11,1.53-.73A1.48,1.48,0,0,0,45.69,66.6Zm-9.12-.67a12.68,12.68,0,0,0-1.9,1.32c-1.78,1.53-4,3.26-5.29,5.33a1.14,1.14,0,0,1,0,.32c0-.22,1.51.35,1.69.41l1.87.61c1.3.43,2.59.86,3.91,1.22.63.16,1.26.31,1.9.42a8.58,8.58,0,0,1-2.18-3.46A9.14,9.14,0,0,1,36.57,65.93Zm12.1-1.75A11.67,11.67,0,0,1,50.33,68a6.87,6.87,0,0,1,0,4.52,6.3,6.3,0,0,1-1,1.67A10.1,10.1,0,0,0,52.19,73a29.12,29.12,0,0,0,5.49-4.46A18.32,18.32,0,0,0,51.29,65C50.45,64.68,49.57,64.41,48.67,64.18Zm-7.43-2.24c-.25-.74-.44-1.5-.65-2.24A8.7,8.7,0,0,1,40,56.62c0-.45.4-.71.71-.27a10.36,10.36,0,0,1,1,3.17c.19.7.42,1.4.61,2.11a5,5,0,0,1,1.32-.12,5.18,5.18,0,0,1,.94.13,21.58,21.58,0,0,1,4.77.83c.12-.92.36-1.84.54-2.74s.17-2.52.88-3.19c.32-.3.57.1.64.39.29,1.1-.2,2.4-.41,3.49-.15.78-.27,1.61-.47,2.41l1.23.41a19.76,19.76,0,0,1,4.58,2.27,16.29,16.29,0,0,1,1-2.2c.59-1.32,1.16-2.66,1.71-4,.38-.9,1.19.38.94,1-.83,2-1.66,4-2.66,5.9a19.42,19.42,0,0,1,1.81,1.59,1.16,1.16,0,0,1,.11,1.4,33.51,33.51,0,0,1-7.24,5.61,14.15,14.15,0,0,1-4.07,1.36,30.78,30.78,0,0,1-4.63,1.17c-3,.31-6.09-.49-9-1.29-1.49-.41-3.06-.74-4.51-1.28a2.31,2.31,0,0,1-1.66-2.45c0-.43.17-.66.34-.75a9.48,9.48,0,0,1,1.24-1.89c-1.77-1.45-3.42-3-5.31-4.36-.5-.35-.45-1.85.29-1.41a28.08,28.08,0,0,1,5.86,4.82c1-1.06,2.21-2,3.28-3a13.38,13.38,0,0,1,1.22-1,35.46,35.46,0,0,1-3.43-5.21c-.35-.65.17-1.88.78-1,1.22,1.81,2.53,3.66,3.66,5.54.64-.36,1.31-.69,2-1A19.65,19.65,0,0,1,41.19,62h.05Z"/><path class="cls-3" d="M46.47,66.93a.28.28,0,0,1-.27-.07c-.53-.41-1.23-.4-1.46.35a1.55,1.55,0,0,0,.8,1.53c.49.18,1.49-.11,1.53-.73A1.45,1.45,0,0,0,46.47,66.93Zm-9.12-.67a12.53,12.53,0,0,0-1.9,1.33c-1.78,1.53-4,3.25-5.28,5.32a1.16,1.16,0,0,1,0,.32c0-.22,1.51.35,1.7.41l1.87.61c1.29.43,2.59.87,3.91,1.22.62.16,1.25.31,1.89.42a8.58,8.58,0,0,1-2.18-3.46A9.14,9.14,0,0,1,37.35,66.26Zm12.1-1.75a11.43,11.43,0,0,1,1.66,3.84,6.84,6.84,0,0,1,0,4.51,6.65,6.65,0,0,1-1,1.68A10.51,10.51,0,0,0,53,73.29a29.19,29.19,0,0,0,5.5-4.46,18.48,18.48,0,0,0-6.39-3.54C51.23,65,50.35,64.74,49.45,64.51ZM42,62.27c-.25-.74-.44-1.5-.65-2.24A8.92,8.92,0,0,1,40.73,57c.05-.45.4-.71.71-.27a10.3,10.3,0,0,1,1,3.16c.19.7.42,1.41.61,2.12a5,5,0,0,1,1.32-.13,5.41,5.41,0,0,1,.95.13,21.59,21.59,0,0,1,4.76.83c.12-.92.36-1.84.54-2.74s.17-2.51.88-3.19c.32-.3.57.1.64.39.29,1.1-.2,2.4-.41,3.49-.15.78-.26,1.62-.47,2.41l1.24.41a19.92,19.92,0,0,1,4.57,2.28,15.25,15.25,0,0,1,1-2.2c.59-1.33,1.16-2.67,1.72-4,.37-.9,1.19.38.93,1-.83,2-1.66,4-2.65,5.9a19.31,19.31,0,0,1,1.8,1.59,1.18,1.18,0,0,1,.12,1.4,33.81,33.81,0,0,1-7.25,5.61,14.07,14.07,0,0,1-4.07,1.37A30.45,30.45,0,0,1,44,77.68c-3,.31-6.08-.49-9-1.29-1.49-.4-3.06-.74-4.51-1.27a2.33,2.33,0,0,1-1.66-2.46c0-.43.17-.66.34-.75A9.78,9.78,0,0,1,30.41,70c-1.77-1.45-3.42-3-5.31-4.36-.5-.35-.44-1.85.29-1.41a28.13,28.13,0,0,1,5.87,4.82c1-1.06,2.2-2,3.27-3a13.38,13.38,0,0,1,1.22-.95,35.74,35.74,0,0,1-3.43-5.21c-.35-.64.17-1.87.78-1,1.23,1.81,2.53,3.66,3.66,5.54.64-.36,1.31-.69,2-1A20.39,20.39,0,0,1,42,62.29h0Z"/><path class="cls-4" d="M82.2,52.14a.25.25,0,0,1-.23,0c-.51-.17-1,0-1,.66a1.25,1.25,0,0,0,1,.94c.41,0,1.1-.49,1-1A1.25,1.25,0,0,0,82.2,52.14Zm-7.11,2A9.83,9.83,0,0,0,74,55.7a20.09,20.09,0,0,0-2.54,5.5,1.06,1.06,0,0,1,.09.25c0-.17,1.24-.15,1.4-.16l1.59,0c1.1,0,2.2-.07,3.3-.17.52,0,1-.11,1.56-.2a6.89,6.89,0,0,1-2.62-2A7.4,7.4,0,0,1,75.09,54.16Zm8.71-4.68a9.33,9.33,0,0,1,2.32,2.45,5.58,5.58,0,0,1,1.28,3.42,5.19,5.19,0,0,1-.29,1.54,7.93,7.93,0,0,0,1.79-1.73,23.68,23.68,0,0,0,2.94-4.9A14.85,14.85,0,0,0,86,49.34C85.29,49.36,84.54,49.4,83.8,49.48Zm-6.27.36c-.39-.49-.75-1-1.12-1.52a7.28,7.28,0,0,1-1.34-2.16c-.09-.35.11-.65.47-.4a8.34,8.34,0,0,1,1.62,2.13c.34.48.71,1,1,1.44a4.33,4.33,0,0,1,1-.47,5.85,5.85,0,0,1,.75-.16A17.18,17.18,0,0,1,83.78,48c-.16-.73-.24-1.5-.35-2.23s-.57-2-.22-2.67c.16-.32.46-.08.6.12A7,7,0,0,1,84.47,46c.1.63.24,1.29.31,2l1,0a16,16,0,0,1,4.1.46,13.52,13.52,0,0,1,.14-1.94c.08-1.17.14-2.35.19-3.52,0-.78,1,0,1,.51-.07,1.74-.15,3.49-.37,5.22a15.36,15.36,0,0,1,1.81.7,1,1,0,0,1,.48,1,27.15,27.15,0,0,1-4,6.27,11.2,11.2,0,0,1-2.71,2.17A23.89,23.89,0,0,1,83.31,61a20.12,20.12,0,0,1-7.19,1.52c-1.25.1-2.53.28-3.78.28a1.87,1.87,0,0,1-1.94-1.4c-.09-.34-.06-.55,0-.66a7.88,7.88,0,0,1,.41-1.79c-1.74-.61-3.43-1.36-5.24-1.84-.47-.12-.85-1.27-.17-1.14a22.41,22.41,0,0,1,5.79,2c.49-1.09,1.12-2.15,1.67-3.17a9.31,9.31,0,0,1,.66-1,28.37,28.37,0,0,1-4-3c-.45-.39-.4-1.47.32-.95,1.43,1,2.94,2.07,4.32,3.19a17,17,0,0,1,1.24-1.32,16.51,16.51,0,0,1,2.1-1.82h0Z"/></g></g></svg>