<svg xmlns="http://www.w3.org/2000/svg" viewBox="0 0 65.13 62.99"><defs><style>.cls-1{fill:#801f10;}.cls-2{fill:#fddd03;stroke:#fddd03;stroke-miterlimit:10;stroke-width:0.66px;}.cls-3{fill:#95c122;}</style></defs><g id="Calque_2" data-name="Calque 2"><g id="Calque_1-2" data-name="Calque 1"><path class="cls-1" d="M8.22,9.54a21.66,21.66,0,0,0-.6,2.09c-1-1.15-2-2.25-3.08-3.37-.08-.09-.32-.16-.39,0C3.5,9.7,2.94,11.19,2.3,12.65c0,.07.05.13.09.15l.06,0a61.35,61.35,0,0,0,5.91,4.33c.06,0,.27.1.3,0,.15-.65.32-1.29.49-1.93a6.13,6.13,0,0,0,.56.39,9.18,9.18,0,0,1,1.48,1.24A22.34,22.34,0,0,0,13.89,19c.09.06.45.09.36-.12a40.91,40.91,0,0,0-2.68-4.56c-1-1.56-2-3.08-2.87-4.7-.07-.12-.42-.25-.48-.06"/><path class="cls-1" d="M57,9.17a23.68,23.68,0,0,0-2.33-.95c1.44-1,2.83-2.07,4.24-3.11.11-.08.22-.35.06-.45C57.39,3.74,55.75,2.92,54.16,2c-.07,0-.15,0-.18.09l0,.06A72.84,72.84,0,0,0,48.28,8.4c-.05.06-.15.3,0,.35.73.25,1.44.52,2.15.79a7.64,7.64,0,0,0-.51.6,10.6,10.6,0,0,1-1.6,1.54,24.86,24.86,0,0,0-2.78,2.84c-.08.09-.16.5.08.42a46.9,46.9,0,0,0,5.55-2.51c1.9-.92,3.78-1.94,5.73-2.72.15-.06.34-.45.13-.54"/><path class="cls-1" d="M3.3,33.56c.08.4.18.79.29,1.17-.79-.27-1.6-.51-2.4-.77-.06,0-.2,0-.19.1.09.88.23,1.75.32,2.62,0,0,.06,0,.09,0h0a33.63,33.63,0,0,0,4,.45s.16,0,.14-.09q-.16-.53-.3-1l.38,0a5.31,5.31,0,0,1,1,.2,12,12,0,0,0,1.89.28c.06,0,.24-.07.14-.15a21.92,21.92,0,0,0-2.54-1.45c-.88-.48-1.81-.93-2.66-1.47-.06,0-.27,0-.25.1"/><path class="cls-1" d="M28.29,3.55c-.27.14-.54.29-.8.45.05-.64.06-1.28.08-1.92,0-.05-.05-.14-.11-.12-.63.24-1.23.52-1.86.77,0,0,0,0,0,.07v0a25.81,25.81,0,0,0,.48,3s.06.12.1.09l.72-.43c0,.09,0,.18.05.28a3.61,3.61,0,0,1,.07.8A8.59,8.59,0,0,0,27.2,8c0,.05.11.17.14.08A18,18,0,0,0,27.89,6c.17-.75.3-1.51.53-2.25,0-.06-.05-.2-.13-.16"/><path class="cls-1" d="M59.31,52.83a19.32,19.32,0,0,0,.53-2.12C60.88,51.83,62,52.9,63,54c.08.08.33.15.39,0,.6-1.48,1.12-3,1.71-4.47,0-.06,0-.12-.1-.14l-.06,0a62.59,62.59,0,0,0-6-4.14c-.06,0-.28-.09-.3,0-.13.65-.28,1.3-.43,1.94a6.39,6.39,0,0,0-.58-.36,10.2,10.2,0,0,1-1.51-1.2,21.63,21.63,0,0,0-2.77-2.06c-.09-.06-.45-.08-.35.13a40,40,0,0,0,2.82,4.47c1,1.53,2.11,3,3,4.61.07.12.42.24.48,0"/><path class="cls-1" d="M11.43,55.83c.76.35,1.53.66,2.33.94-1.44,1-2.83,2.07-4.24,3.11-.11.08-.22.35-.06.45,1.59.92,3.23,1.74,4.82,2.65.07,0,.15,0,.17-.09l0-.06a72.84,72.84,0,0,0,5.67-6.24c.05-.06.15-.3,0-.35-.73-.24-1.44-.52-2.15-.79a5.89,5.89,0,0,0,.5-.6,11.16,11.16,0,0,1,1.61-1.54,24.86,24.86,0,0,0,2.78-2.84c.08-.09.16-.5-.09-.42a46,46,0,0,0-5.54,2.52c-1.9.91-3.78,1.93-5.73,2.71-.15.06-.34.45-.13.55"/><path class="cls-1" d="M62.14,30a11.11,11.11,0,0,0-.29-1.17c.79.28,1.6.52,2.4.77.06,0,.2,0,.19-.1-.09-.88-.23-1.74-.32-2.62,0,0-.06-.05-.08,0h0a33.69,33.69,0,0,0-4-.45s-.16,0-.14.09c.1.35.2.7.29,1.06a2.25,2.25,0,0,0-.38,0,5.31,5.31,0,0,1-1-.2A13.25,13.25,0,0,0,56.83,27c-.06,0-.24.08-.14.15a21.92,21.92,0,0,0,2.54,1.45c.89.48,1.81.93,2.66,1.47.07,0,.27,0,.25-.1"/><path class="cls-1" d="M40.41,59.58c.23-.29.43-.58.63-.89.27.71.59,1.39.88,2.08,0,.06.13.13.18.08.55-.58,1-1.18,1.59-1.76,0,0,0-.07,0-.08l0,0a30.54,30.54,0,0,0-2-3s-.11-.09-.15,0c-.17.28-.36.55-.54.82l-.2-.27a4.81,4.81,0,0,1-.49-.82,10.37,10.37,0,0,0-.91-1.45s-.19-.11-.18,0a18.81,18.81,0,0,0,.5,2.57c.2.88.44,1.77.57,2.67,0,.07.15.18.21.11"/><path class="cls-2" d="M7.22,7.54a21.66,21.66,0,0,0-.6,2.09c-1-1.15-2-2.25-3.08-3.37-.08-.09-.32-.16-.39,0C2.5,7.7,1.94,9.19,1.3,10.65c0,.07.05.13.09.15l.06,0a61.35,61.35,0,0,0,5.91,4.33c.06,0,.27.1.3,0,.15-.65.32-1.29.49-1.93a6.13,6.13,0,0,0,.56.39,9.18,9.18,0,0,1,1.48,1.24A22.34,22.34,0,0,0,12.89,17c.09.06.45.09.36-.12a40.91,40.91,0,0,0-2.68-4.56c-1-1.56-2-3.08-2.87-4.7-.07-.12-.42-.25-.48-.06"/><path class="cls-3" d="M56,7.17a23.68,23.68,0,0,0-2.33-1c1.44-1,2.83-2.07,4.24-3.11.11-.08.22-.35.06-.45C56.39,1.74,54.75.92,53.16,0c-.07,0-.15,0-.18.09l0,.06A72.84,72.84,0,0,0,47.28,6.4c-.05.06-.15.3,0,.35.73.25,1.44.52,2.15.79a7.64,7.64,0,0,0-.51.6,10.6,10.6,0,0,1-1.6,1.54,24.86,24.86,0,0,0-2.78,2.84c-.08.09-.16.5.08.42a46.9,46.9,0,0,0,5.55-2.51c1.9-.92,3.78-1.94,5.73-2.72.15-.06.34-.45.13-.54"/><path class="cls-3" d="M2.3,31.56c.08.4.18.79.29,1.17C1.8,32.46,1,32.22.19,32c-.06,0-.2,0-.19.1.09.88.23,1.75.32,2.62,0,0,.06,0,.09,0h0a33.63,33.63,0,0,0,4,.45s.16,0,.14-.09q-.16-.53-.3-1l.38,0a5.31,5.31,0,0,1,1,.2,12,12,0,0,0,1.89.28c.06,0,.24-.07.14-.15a21.92,21.92,0,0,0-2.54-1.45c-.88-.48-1.81-.93-2.66-1.47-.06,0-.27,0-.25.1"/><path class="cls-2" d="M26.16,2.87c-.28.14-.54.29-.8.45,0-.63.06-1.27.08-1.91,0,0-.05-.15-.11-.12-.63.24-1.24.52-1.86.77,0,0,0,0,0,.07v0a26,26,0,0,0,.48,3s.06.11.1.08c.23-.15.47-.29.71-.43a2.8,2.8,0,0,0,.06.28,4.43,4.43,0,0,1,.07.81,8.86,8.86,0,0,0,.18,1.44s.1.16.14.07a19.34,19.34,0,0,0,.55-2.15c.17-.75.3-1.52.53-2.26,0,0-.05-.19-.13-.16"/><path class="cls-2" d="M58.31,50.83a19.32,19.32,0,0,0,.53-2.12C59.88,49.83,61,50.9,62,52c.08.08.33.15.39,0,.6-1.48,1.12-3,1.71-4.47,0-.06,0-.12-.1-.14l-.06,0a62.59,62.59,0,0,0-6-4.14c-.06,0-.28-.09-.3,0-.13.65-.28,1.3-.43,1.94a6.39,6.39,0,0,0-.58-.36,10.2,10.2,0,0,1-1.51-1.2,21.63,21.63,0,0,0-2.77-2.06c-.09-.06-.45-.08-.35.13a40,40,0,0,0,2.82,4.47c1,1.53,2.11,3,3,4.61.07.12.42.24.48,0"/><path class="cls-2" d="M10.43,53.83c.76.35,1.53.66,2.33.94-1.44,1-2.83,2.07-4.24,3.11-.11.08-.22.35-.06.45,1.59.92,3.23,1.74,4.82,2.65.07,0,.15,0,.17-.09l0-.06a72.84,72.84,0,0,0,5.67-6.24c.05-.06.15-.3,0-.35-.73-.24-1.44-.52-2.15-.79a5.89,5.89,0,0,0,.5-.6,11.16,11.16,0,0,1,1.61-1.54,24.86,24.86,0,0,0,2.78-2.84c.08-.09.16-.5-.09-.42a46,46,0,0,0-5.54,2.52c-1.9.91-3.78,1.93-5.73,2.71-.15.06-.34.45-.13.55"/><path class="cls-2" d="M61.14,28a11.11,11.11,0,0,0-.29-1.17c.79.28,1.6.52,2.4.77.06,0,.2,0,.19-.1-.09-.88-.23-1.74-.32-2.62,0,0-.06-.05-.08,0h0a33.69,33.69,0,0,0-4-.45s-.16,0-.14.09c.1.35.2.7.29,1.06a2.25,2.25,0,0,0-.38,0,5.31,5.31,0,0,1-1-.2A13.25,13.25,0,0,0,55.83,25c-.06,0-.24.08-.14.15a21.92,21.92,0,0,0,2.54,1.45c.89.48,1.81.93,2.66,1.47.07,0,.27,0,.25-.1"/><path class="cls-3" d="M39.41,57.58c.23-.29.43-.58.63-.89.27.71.59,1.39.88,2.08,0,.06.13.13.18.08.55-.58,1-1.18,1.59-1.76,0,0,0-.07,0-.08l0,0a30.54,30.54,0,0,0-2-3s-.11-.09-.15,0c-.17.28-.36.55-.54.82l-.2-.27a4.81,4.81,0,0,1-.49-.82,10.37,10.37,0,0,0-.91-1.45s-.19-.11-.18,0a18.81,18.81,0,0,0,.5,2.57c.2.88.44,1.77.57,2.67,0,.07.15.18.21.11"/></g></g></svg>