<svg xmlns="http://www.w3.org/2000/svg" viewBox="0 0 76.14 77.1"><defs><style>.cls-1{fill:#801f10;}.cls-2{fill:#fddd03;stroke:#fddd03;stroke-miterlimit:10;stroke-width:0.66px;}.cls-3{fill:#95c122;}</style></defs><g id="Calque_2" data-name="Calque 2"><g id="Calque_1-2" data-name="Calque 1"><path class="cls-1" d="M7.26,22.12a19.14,19.14,0,0,0-.6,2.09c-1-1.15-2-2.25-3.08-3.37-.08-.09-.33-.16-.39,0C2.54,22.29,2,23.77,1.34,25.24c0,.06,0,.12.09.14l.06,0A61.35,61.35,0,0,0,7.4,29.73s.27.1.3,0c.14-.65.32-1.29.49-1.93a6.13,6.13,0,0,0,.56.39,9.19,9.19,0,0,1,1.47,1.24,22.44,22.44,0,0,0,2.71,2.15c.09.06.45.09.36-.12a40.91,40.91,0,0,0-2.68-4.56c-1-1.55-2-3.08-2.87-4.7-.07-.12-.42-.25-.48-.06"/><path class="cls-1" d="M34.09,5.11a13.82,13.82,0,0,0-1.41.49c.25-1,.45-2,.67-3,0-.08,0-.25-.14-.23-1.07.21-2.12.48-3.18.7C30,3,30,3.11,30,3.14v0a43.74,43.74,0,0,0-.09,5c0,.05.05.2.13.16.42-.17.84-.32,1.27-.48a3.68,3.68,0,0,0,0,.47,6.34,6.34,0,0,1-.11,1.3A14.25,14.25,0,0,0,31.06,12c0,.08.12.29.2.16a27.83,27.83,0,0,0,1.49-3.29c.49-1.14.92-2.33,1.49-3.44,0-.09,0-.33-.15-.29"/><path class="cls-1" d="M69.05,16.16c-.77-.36-1.54-.67-2.33-.95,1.44-1,2.82-2.07,4.23-3.11.11-.08.22-.35.07-.44-1.6-.93-3.23-1.75-4.83-2.66-.07,0-.14,0-.17.09l0,.06a71.34,71.34,0,0,0-5.68,6.24c-.05.06-.15.31,0,.35.72.25,1.43.52,2.15.79a7.64,7.64,0,0,0-.51.6,11.63,11.63,0,0,1-1.6,1.54,25,25,0,0,0-2.79,2.84c-.08.09-.16.5.09.42a47.64,47.64,0,0,0,5.55-2.51c1.89-.92,3.77-1.94,5.72-2.72.15-.06.34-.45.14-.54"/><path class="cls-1" d="M7.72,41.72c.08.39.18.78.29,1.17-.79-.28-1.6-.52-2.4-.78-.06,0-.2,0-.19.1.09.88.23,1.75.32,2.62,0,0,.06.05.09.05h0a33.88,33.88,0,0,0,4,.46s.16,0,.14-.1c-.11-.35-.2-.7-.3-1,.12,0,.25,0,.38,0a5.16,5.16,0,0,1,1,.19,10.91,10.91,0,0,0,1.89.28c.06,0,.24-.07.14-.15a21.92,21.92,0,0,0-2.54-1.45c-.88-.48-1.81-.92-2.66-1.46-.06,0-.27,0-.25.1"/><path class="cls-1" d="M21.31,16.49a6.14,6.14,0,0,0-.42.47c-.11-.42-.25-.83-.37-1.25,0,0-.07-.08-.1-.05-.35.29-.68.61-1,.9,0,0,0,0,0,.05v0a19.1,19.1,0,0,0,1,1.84s.06.06.08,0l.37-.44a.91.91,0,0,0,.09.17,3.22,3.22,0,0,1,.23.5,5.62,5.62,0,0,0,.43.89s.1.08.1,0a12.63,12.63,0,0,0-.12-1.5c-.06-.52-.14-1-.16-1.56,0,0-.07-.12-.11-.08"/><path class="cls-1" d="M47.88,13.85c-.29-.1-.58-.18-.88-.26.49-.41,1-.85,1.43-1.27,0,0,.07-.14,0-.17-.61-.28-1.23-.52-1.84-.79,0,0-.05,0-.06,0v0a25.81,25.81,0,0,0-1.84,2.46s0,.12,0,.13c.28.06.54.14.81.21a1.43,1.43,0,0,0-.16.24,4.37,4.37,0,0,1-.53.61,9,9,0,0,0-.91,1.13s0,.19,0,.15a16.07,16.07,0,0,0,1.93-1.11c.66-.4,1.3-.83,2-1.18,0,0,.11-.18,0-.21"/><path class="cls-1" d="M70.31,54.71c.22-.7.39-1.4.54-2.12,1,1.12,2.11,2.19,3.18,3.28.08.08.33.15.39,0,.6-1.48,1.12-3,1.71-4.47,0-.06,0-.12-.1-.14l-.06,0a62.59,62.59,0,0,0-6-4.14c-.06,0-.28-.09-.3,0-.12.65-.28,1.3-.43,1.94a6.19,6.19,0,0,0-.57-.36,9.26,9.26,0,0,1-1.51-1.2,22.46,22.46,0,0,0-2.78-2.06c-.09-.06-.45-.08-.35.13a40,40,0,0,0,2.82,4.47c1,1.53,2.11,3,3,4.61.07.12.42.24.48.05"/><path class="cls-1" d="M39,73.59a22.89,22.89,0,0,0,1.75-1.49c.2,1.58.48,3.16.74,4.74,0,.13.19.33.33.24,1.42-.9,2.78-1.88,4.19-2.78.06,0,0-.14,0-.18l0-.06a66.6,66.6,0,0,0-2.66-7.23c0-.07-.18-.25-.28-.16-.5.49-1,1-1.55,1.41a4.58,4.58,0,0,0-.27-.66,10.11,10.11,0,0,1-.56-2A23.19,23.19,0,0,0,39.49,62c0-.11-.34-.35-.38-.11a42.82,42.82,0,0,0-.3,5.55c-.06,1.93,0,3.88-.22,5.79,0,.15.22.46.38.34"/><path class="cls-1" d="M8.54,61.4c.76.35,1.53.66,2.33.94-1.44,1-2.83,2.07-4.24,3.11-.11.08-.22.36-.06.45,1.59.92,3.23,1.74,4.82,2.65.07,0,.15,0,.17-.09l0-.06a72.84,72.84,0,0,0,5.67-6.24c.05-.06.15-.3,0-.35-.73-.24-1.44-.52-2.15-.79a5,5,0,0,0,.5-.6,11.73,11.73,0,0,1,1.61-1.54A24.77,24.77,0,0,0,20,56.05c.08-.1.16-.51-.09-.42a45.19,45.19,0,0,0-5.55,2.51c-1.89.92-3.77,1.93-5.72,2.72-.15.06-.34.44-.13.54"/><path class="cls-1" d="M70.47,31.44a11.52,11.52,0,0,0-.28-1.16c.79.27,1.59.51,2.4.77.06,0,.2,0,.19-.1-.09-.88-.23-1.75-.32-2.62a.07.07,0,0,0-.09,0h0a33.88,33.88,0,0,0-4-.46s-.16,0-.14.1c.11.35.2.7.3,1.05a2.42,2.42,0,0,0-.38,0,5.4,5.4,0,0,1-1-.2,12,12,0,0,0-1.88-.28c-.06,0-.24.07-.14.15a22.65,22.65,0,0,0,2.53,1.45c.89.48,1.81.92,2.67,1.47.06,0,.26,0,.24-.11"/><path class="cls-1" d="M29.41,64.18q.3-.06.6-.15c-.14.41-.27.83-.4,1.24,0,0,0,.1.06.1L31,65.2s0,0,0,0v0a18,18,0,0,0,.23-2.07s0-.08-.05-.07l-.54.15a1.27,1.27,0,0,0,0-.2,3.41,3.41,0,0,1,.1-.54,6.31,6.31,0,0,0,.15-1s0-.12-.08-.07a13,13,0,0,0-.75,1.31c-.25.46-.48.93-.75,1.37,0,0,0,.14.05.13"/><path class="cls-1" d="M56.17,64.38c.23-.29.43-.58.63-.88.27.7.58,1.39.88,2.08,0,0,.13.13.18.07.54-.58,1-1.18,1.59-1.76,0,0,0-.06,0-.08l0,0a29.26,29.26,0,0,0-2-3s-.11-.1-.14,0c-.17.27-.36.55-.54.82a1.78,1.78,0,0,0-.21-.27,5.27,5.27,0,0,1-.48-.83A10.27,10.27,0,0,0,55.07,59s-.2-.12-.19,0a20.49,20.49,0,0,0,.51,2.57c.19.89.43,1.77.57,2.67,0,.07.15.19.21.11"/><path class="cls-2" d="M6.26,20.12a19.14,19.14,0,0,0-.6,2.09c-1-1.15-2.05-2.25-3.08-3.37-.08-.09-.33-.16-.39,0C1.54,20.29,1,21.77.34,23.24c0,.06,0,.12.09.14l.06,0A61.35,61.35,0,0,0,6.4,27.73s.27.1.3,0c.14-.65.32-1.29.49-1.93a6.13,6.13,0,0,0,.56.39,9.19,9.19,0,0,1,1.47,1.24,22.44,22.44,0,0,0,2.71,2.15c.09.06.45.09.36-.12a40.91,40.91,0,0,0-2.68-4.56c-1-1.55-2-3.08-2.87-4.7-.07-.12-.42-.25-.48-.06"/><path class="cls-2" d="M33.09,3.11a13.82,13.82,0,0,0-1.41.49c.25-1,.45-2,.67-3,0-.08,0-.25-.14-.23C31.14.54,30.09.81,29,1,29,1,29,1.11,29,1.14v0a43.74,43.74,0,0,0-.09,5s.05.2.13.16c.42-.17.84-.32,1.27-.48a3.68,3.68,0,0,0,0,.47,6.34,6.34,0,0,1-.11,1.3A14.25,14.25,0,0,0,30.06,10c0,.08.12.29.2.16a27.83,27.83,0,0,0,1.49-3.29c.49-1.14.92-2.33,1.49-3.44,0-.09,0-.33-.15-.29"/><path class="cls-3" d="M68.05,14.16c-.77-.36-1.54-.67-2.33-.95,1.44-1,2.82-2.07,4.23-3.11.11-.08.22-.35.07-.44-1.6-.93-3.23-1.75-4.83-2.66-.07,0-.14,0-.17.09l0,.06a71.34,71.34,0,0,0-5.68,6.24c-.05.06-.15.31,0,.35.72.25,1.43.52,2.15.79a7.64,7.64,0,0,0-.51.6,11.63,11.63,0,0,1-1.6,1.54,25,25,0,0,0-2.79,2.84c-.08.09-.16.5.09.42a47.64,47.64,0,0,0,5.55-2.51c1.89-.92,3.77-1.94,5.72-2.72.15-.06.34-.45.14-.54"/><path class="cls-3" d="M6.72,39.72c.08.39.18.78.29,1.17-.79-.28-1.6-.52-2.4-.78-.06,0-.2,0-.19.1.09.88.23,1.75.32,2.62,0,0,.06.05.09.05h0a33.88,33.88,0,0,0,4,.46s.16,0,.14-.1c-.11-.35-.2-.7-.3-1,.12,0,.25,0,.38,0a5.16,5.16,0,0,1,1,.19,10.91,10.91,0,0,0,1.89.28c.06,0,.24-.07.14-.15a21.92,21.92,0,0,0-2.54-1.45c-.88-.48-1.81-.92-2.66-1.46-.06,0-.27,0-.25.1"/><path class="cls-3" d="M20.31,14.49a6.14,6.14,0,0,0-.42.47c-.11-.42-.25-.83-.37-1.25,0,0-.07-.08-.1-.05-.35.29-.68.61-1,.9,0,0,0,0,0,0v0a19.1,19.1,0,0,0,1,1.84s.06.06.08,0l.37-.44a.91.91,0,0,0,.09.17,3.22,3.22,0,0,1,.23.5,5.62,5.62,0,0,0,.43.89s.1.08.1,0a12.63,12.63,0,0,0-.12-1.5c-.06-.52-.14-1-.16-1.56,0,0-.07-.12-.11-.08"/><path class="cls-2" d="M46.88,11.85c-.29-.1-.58-.18-.88-.26.49-.41,1-.85,1.43-1.27,0,0,.07-.14,0-.17-.61-.28-1.23-.52-1.84-.79,0,0-.05,0-.06,0v0a25.81,25.81,0,0,0-1.84,2.46s0,.12,0,.13c.28.06.54.14.81.21a1.43,1.43,0,0,0-.16.24,4.37,4.37,0,0,1-.53.61,9,9,0,0,0-.91,1.13s0,.19,0,.15a16.07,16.07,0,0,0,1.93-1.11c.66-.4,1.3-.83,2-1.18,0,0,.11-.18,0-.21"/><path class="cls-2" d="M69.31,52.71c.22-.7.39-1.4.54-2.12,1,1.12,2.11,2.19,3.18,3.28.08.08.33.15.39,0,.6-1.48,1.12-3,1.71-4.47,0-.06,0-.12-.1-.14l-.06,0a62.59,62.59,0,0,0-6-4.14c-.06,0-.28-.09-.3,0-.12.65-.28,1.3-.43,1.94a6.19,6.19,0,0,0-.57-.36,9.26,9.26,0,0,1-1.51-1.2,22.46,22.46,0,0,0-2.78-2.06c-.09-.06-.45-.08-.35.13a40,40,0,0,0,2.82,4.47c1,1.53,2.11,3,3,4.61.07.12.42.24.48.05"/><path class="cls-2" d="M38,71.59a22.89,22.89,0,0,0,1.75-1.49c.2,1.58.48,3.16.74,4.74,0,.13.19.33.33.24,1.42-.9,2.78-1.88,4.19-2.78.06,0,0-.14,0-.18l0-.06a66.6,66.6,0,0,0-2.66-7.23c0-.07-.18-.25-.28-.16-.5.49-1,1-1.55,1.41a4.58,4.58,0,0,0-.27-.66,10.11,10.11,0,0,1-.56-2A23.19,23.19,0,0,0,38.49,60c0-.11-.34-.35-.38-.11a42.82,42.82,0,0,0-.3,5.55c-.06,1.93,0,3.88-.22,5.79,0,.15.22.46.38.34"/><path class="cls-2" d="M7.54,59.4c.76.35,1.53.66,2.33.94-1.44,1-2.83,2.07-4.24,3.11-.11.08-.22.36-.06.45,1.59.92,3.23,1.74,4.82,2.65.07,0,.15,0,.17-.09l0-.06a72.84,72.84,0,0,0,5.67-6.24c.05-.06.15-.3,0-.35-.73-.24-1.44-.52-2.15-.79a5,5,0,0,0,.5-.6,11.73,11.73,0,0,1,1.61-1.54A24.77,24.77,0,0,0,19,54.05c.08-.1.16-.51-.09-.42a45.19,45.19,0,0,0-5.55,2.51c-1.89.92-3.77,1.93-5.72,2.72-.15.06-.34.44-.13.54"/><path class="cls-2" d="M69.47,29.44a11.52,11.52,0,0,0-.28-1.16c.79.27,1.59.51,2.4.77.06,0,.2,0,.19-.1-.09-.88-.23-1.75-.32-2.62a.07.07,0,0,0-.09,0h0a33.88,33.88,0,0,0-4-.46s-.16,0-.14.1c.11.35.2.7.3,1.05a2.42,2.42,0,0,0-.38,0,5.4,5.4,0,0,1-1-.2,12,12,0,0,0-1.88-.28c-.06,0-.24.07-.14.15a22.65,22.65,0,0,0,2.53,1.45c.89.48,1.81.92,2.67,1.47.06,0,.26,0,.24-.11"/><path class="cls-3" d="M28.41,62.18q.3-.06.6-.15c-.14.41-.27.83-.4,1.24,0,0,0,.1.06.1L30,63.2s0,0,0,0v0a18,18,0,0,0,.23-2.07s0-.08-.05-.07l-.54.15a1.27,1.27,0,0,0,0-.2,3.41,3.41,0,0,1,.1-.54,6.31,6.31,0,0,0,.15-1s0-.12-.08-.07a13,13,0,0,0-.75,1.31c-.25.46-.48.93-.75,1.37,0,0,0,.14.05.13"/><path class="cls-3" d="M55.17,62.38c.23-.29.43-.58.63-.88.27.7.58,1.39.88,2.08,0,.05.13.13.18.07.54-.58,1-1.18,1.59-1.76,0,0,0-.06,0-.08l0,0a29.26,29.26,0,0,0-2-3s-.11-.1-.14,0c-.17.27-.36.55-.54.82a1.78,1.78,0,0,0-.21-.27,5.27,5.27,0,0,1-.48-.83A10.27,10.27,0,0,0,54.07,57s-.2-.12-.19,0a20.49,20.49,0,0,0,.51,2.57c.19.89.43,1.77.57,2.67,0,.07.15.19.21.11"/></g></g></svg>