<svg xmlns="http://www.w3.org/2000/svg" viewBox="0 0 60.87 60.4"><defs><style>.cls-1{fill:#5dc5ee;}.cls-1,.cls-2,.cls-3{stroke:#ffdc2b;stroke-linecap:round;stroke-linejoin:round;stroke-width:1.5px;}.cls-2{fill:#cec3e1;}.cls-3{fill:#86bba8;}</style></defs><g id="Calque_2" data-name="Calque 2"><g id="Calque_1-2" data-name="Calque 1"><polygon class="cls-1" points="47.97 27.71 35.45 26.76 27.58 36.53 24.62 24.34 12.9 19.86 23.58 13.28 24.21 0.75 33.77 8.87 45.88 5.6 41.11 17.21 47.97 27.71"/><polygon class="cls-2" points="12.85 54.38 8.23 48.48 0.75 48.94 4.93 42.72 2.18 35.75 9.39 37.81 15.17 33.03 15.44 40.52 21.76 44.55 14.72 47.12 12.85 54.38"/><polygon class="cls-3" points="60.12 50.77 52.81 52.59 50.16 59.65 46.17 53.25 38.63 52.91 43.48 47.14 41.48 39.87 48.47 42.7 54.76 38.55 54.23 46.07 60.12 50.77"/></g></g></svg>