<svg xmlns="http://www.w3.org/2000/svg" viewBox="0 0 63.3 59.65"><defs><style>.cls-1{fill:#3f1215;}.cls-2{fill:#ffdc2b;stroke:#ffdc2b;stroke-linecap:round;stroke-linejoin:round;stroke-width:0.75px;}</style></defs><g id="Calque_2" data-name="Calque 2"><g id="Calque_1-2" data-name="Calque 1"><polygon class="cls-1" points="51.14 27.14 38.63 26.18 30.76 35.95 27.8 23.76 16.08 19.28 26.76 12.7 27.39 0.17 36.95 8.29 49.06 5.02 44.29 16.63 51.14 27.14"/><polygon class="cls-1" points="16.03 53.8 11.41 47.9 3.93 48.36 8.11 42.14 5.36 35.17 12.57 37.23 18.34 32.45 18.62 39.95 24.94 43.97 17.9 46.54 16.03 53.8"/><polygon class="cls-1" points="63.3 50.19 55.98 52.01 53.33 59.07 49.34 52.67 41.81 52.33 46.66 46.56 44.66 39.29 51.65 42.12 57.94 37.97 57.41 45.49 63.3 50.19"/><polygon class="cls-2" points="47.59 27.34 35.08 26.39 27.2 36.15 24.24 23.96 12.52 19.49 23.2 12.9 23.84 0.38 33.4 8.5 45.51 5.23 40.74 16.83 47.59 27.34"/><polygon class="cls-2" points="12.48 54 7.86 48.1 0.38 48.57 4.56 42.35 1.8 35.38 9.01 37.43 14.79 32.66 15.06 40.15 21.39 44.17 14.35 46.74 12.48 54"/><polygon class="cls-2" points="59.75 50.4 52.43 52.22 49.78 59.27 45.79 52.88 38.26 52.54 43.11 46.77 41.11 39.5 48.09 42.33 54.39 38.17 53.85 45.7 59.75 50.4"/></g></g></svg>