<svg xmlns="http://www.w3.org/2000/svg" viewBox="0 0 63.93 63.79"><defs><style>.cls-1,.cls-2{fill:#802010;stroke:#802010;}.cls-1,.cls-2,.cls-3,.cls-4,.cls-5,.cls-6{stroke-linejoin:round;}.cls-2,.cls-3,.cls-4,.cls-5,.cls-6{stroke-linecap:round;}.cls-3{fill:#ffdc2b;stroke:#ffdc2b;}.cls-4,.cls-5,.cls-6{fill:#95c121;stroke:#95c121;}.cls-4{stroke-width:0.36px;}.cls-5{stroke-width:0.4px;}.cls-6{stroke-width:0.34px;}</style></defs><g id="Calque_2" data-name="Calque 2"><g id="Calque_1-2" data-name="Calque 1"><polygon class="cls-1" points="51.27 27.46 38.76 26.51 30.88 36.28 27.92 24.09 16.2 19.61 26.88 13.03 27.51 0.5 37.07 8.62 49.19 5.35 44.41 16.96 51.27 27.46"/><polygon class="cls-2" points="16.16 54.13 11.53 48.23 4.05 48.69 8.24 42.47 5.48 35.5 12.69 37.56 18.47 32.78 18.74 40.27 25.07 44.3 18.03 46.87 16.16 54.13"/><polygon class="cls-2" points="63.43 50.52 56.11 52.34 53.46 59.4 49.47 53 41.94 52.66 46.79 46.89 44.78 39.62 51.77 42.45 58.07 38.3 57.53 45.82 63.43 50.52"/><polygon class="cls-3" points="47.72 27.67 35.2 26.72 27.33 36.48 24.37 24.29 12.65 19.82 23.33 13.23 23.96 0.7 33.52 8.83 45.63 5.56 40.86 17.16 47.72 27.67"/><polygon class="cls-3" points="12.6 54.33 7.98 48.43 0.5 48.9 4.68 42.68 1.93 35.7 9.14 37.76 14.92 32.99 15.19 40.48 21.51 44.5 14.47 47.07 12.6 54.33"/><polygon class="cls-3" points="59.87 50.73 52.56 52.54 49.91 59.6 45.92 53.2 38.38 52.87 43.23 47.09 41.23 39.83 48.22 42.66 54.51 38.5 53.98 46.02 59.87 50.73"/><polygon class="cls-4" points="32.35 60.22 29.64 61.02 28.54 63.61 27.21 61.38 24.47 61.41 26.35 59.23 25.76 56.66 28.25 57.54 30.63 55.92 30.29 58.64 32.35 60.22"/><polygon class="cls-5" points="63.53 23.98 60.41 24.78 58.88 27.6 57.65 25.11 54.59 25.06 56.94 22.72 56.58 19.86 59.26 20.91 62.1 19.2 61.41 22.18 63.53 23.98"/><polygon class="cls-6" points="10.67 27.75 8.26 28.19 7.55 30.54 6.04 28.24 3.49 27.93 4.98 26.08 4.12 23.54 6.54 24.69 8.55 23.43 8.57 25.99 10.67 27.75"/></g></g></svg>