<svg xmlns="http://www.w3.org/2000/svg" viewBox="0 0 63.93 60.1"><defs><style>.cls-1,.cls-2{fill:#802010;stroke:#802010;}.cls-1,.cls-2,.cls-3{stroke-linejoin:round;}.cls-2,.cls-3{stroke-linecap:round;}.cls-3{fill:#ffdc2b;stroke:#ffdc2b;}</style></defs><g id="Calque_2" data-name="Calque 2"><g id="Calque_1-2" data-name="Calque 1"><polygon class="cls-1" points="51.27 27.46 38.76 26.51 30.88 36.28 27.92 24.09 16.2 19.61 26.88 13.03 27.51 0.5 37.07 8.62 49.19 5.35 44.41 16.96 51.27 27.46"/><polygon class="cls-2" points="16.16 54.13 11.53 48.23 4.05 48.69 8.24 42.47 5.48 35.5 12.69 37.56 18.47 32.78 18.74 40.27 25.07 44.3 18.03 46.87 16.16 54.13"/><polygon class="cls-2" points="63.43 50.52 56.11 52.34 53.46 59.4 49.47 53 41.94 52.66 46.79 46.89 44.78 39.62 51.77 42.45 58.07 38.3 57.53 45.82 63.43 50.52"/><polygon class="cls-3" points="47.72 27.67 35.2 26.72 27.33 36.48 24.37 24.29 12.65 19.82 23.33 13.23 23.96 0.7 33.52 8.83 45.63 5.56 40.86 17.16 47.72 27.67"/><polygon class="cls-3" points="12.6 54.33 7.98 48.43 0.5 48.9 4.68 42.68 1.93 35.7 9.14 37.76 14.92 32.99 15.19 40.48 21.51 44.5 14.47 47.07 12.6 54.33"/><polygon class="cls-3" points="59.87 50.73 52.56 52.54 49.91 59.6 45.92 53.2 38.38 52.87 43.23 47.09 41.23 39.83 48.22 42.66 54.51 38.5 53.98 46.02 59.87 50.73"/></g></g></svg>