<svg xmlns="http://www.w3.org/2000/svg" viewBox="0 0 60.12 59.65"><defs><style>.cls-1{fill:#ffdc2b;stroke:#ffdc2b;stroke-linecap:round;stroke-linejoin:round;stroke-width:0.75px;}</style></defs><g id="Calque_2" data-name="Calque 2"><g id="Calque_1-2" data-name="Calque 1"><polygon class="cls-1" points="47.59 27.34 35.08 26.39 27.2 36.15 24.24 23.96 12.52 19.49 23.2 12.9 23.84 0.38 33.4 8.5 45.51 5.23 40.74 16.83 47.59 27.34"/><polygon class="cls-1" points="12.48 54 7.86 48.1 0.38 48.57 4.56 42.35 1.8 35.38 9.01 37.43 14.79 32.66 15.06 40.15 21.39 44.17 14.35 46.74 12.48 54"/><polygon class="cls-1" points="59.75 50.4 52.43 52.22 49.78 59.27 45.79 52.88 38.26 52.54 43.11 46.77 41.11 39.5 48.09 42.33 54.39 38.17 53.85 45.7 59.75 50.4"/></g></g></svg>