<svg xmlns="http://www.w3.org/2000/svg" viewBox="0 0 61.69 59.57"><defs><style>.cls-1,.cls-2,.cls-3{fill:#597c57;stroke:#597c57;}.cls-1,.cls-10,.cls-11,.cls-12,.cls-2,.cls-3,.cls-5,.cls-6,.cls-7,.cls-8,.cls-9{stroke-linecap:round;}.cls-1,.cls-10,.cls-11,.cls-12,.cls-2,.cls-3,.cls-4,.cls-5,.cls-6,.cls-7,.cls-8,.cls-9{stroke-linejoin:round;}.cls-1,.cls-10{stroke-width:0.36px;}.cls-11,.cls-2{stroke-width:0.4px;}.cls-12,.cls-3{stroke-width:0.34px;}.cls-4,.cls-5,.cls-6{fill:#802010;stroke:#802010;}.cls-4,.cls-7{stroke-width:0.74px;}.cls-5,.cls-8{stroke-width:0.64px;}.cls-6,.cls-9{stroke-width:0.81px;}.cls-7,.cls-8,.cls-9{fill:#ffdc2b;stroke:#ffdc2b;}.cls-10,.cls-11,.cls-12{fill:#95c121;stroke:#95c121;}</style></defs><g id="Calque_2" data-name="Calque 2"><g id="Calque_1-2" data-name="Calque 1"><polygon class="cls-1" points="30.31 56 27.61 56.8 26.5 59.39 25.17 57.16 22.43 57.19 24.31 55.01 23.72 52.43 26.22 53.32 28.59 51.7 28.25 54.42 30.31 56"/><polygon class="cls-2" points="61.49 19.75 58.38 20.55 56.84 23.38 55.61 20.89 52.55 20.84 54.9 18.5 54.54 15.64 57.23 16.68 60.07 14.97 59.37 17.96 61.49 19.75"/><polygon class="cls-3" points="8.63 23.53 6.22 23.96 5.51 26.31 4 24.02 1.46 23.71 2.94 21.86 2.08 19.31 4.5 20.46 6.51 19.2 6.53 21.77 8.63 23.53"/><polygon class="cls-4" points="43.08 20.34 33.82 19.64 27.98 26.87 25.79 17.84 17.11 14.53 25.02 9.65 25.49 0.37 32.57 6.39 41.54 3.96 38.01 12.56 43.08 20.34"/><polygon class="cls-5" points="11.53 45.65 8.56 41.85 3.74 42.15 6.43 38.15 4.66 33.66 9.3 34.99 13.02 31.92 13.2 36.74 17.27 39.33 12.74 40.98 11.53 45.65"/><polygon class="cls-6" points="57.55 45.71 51.6 47.19 49.45 52.92 46.21 47.72 40.1 47.45 44.04 42.76 42.41 36.86 48.08 39.16 53.19 35.79 52.76 41.89 57.55 45.71"/><polygon class="cls-7" points="40.45 20.49 31.18 19.79 25.35 27.02 23.16 17.99 14.47 14.68 22.39 9.8 22.85 0.52 29.94 6.54 38.91 4.12 35.37 12.71 40.45 20.49"/><polygon class="cls-8" points="9.25 45.78 6.27 41.99 1.46 42.28 4.15 38.28 2.38 33.8 7.01 35.12 10.73 32.05 10.91 36.87 14.98 39.46 10.45 41.11 9.25 45.78"/><polygon class="cls-9" points="54.66 45.88 48.72 47.35 46.57 53.08 43.33 47.89 37.21 47.61 41.15 42.93 39.52 37.02 45.2 39.32 50.31 35.95 49.88 42.06 54.66 45.88"/><polygon class="cls-10" points="29.02 56 26.32 56.8 25.22 59.39 23.89 57.16 21.14 57.19 23.02 55.01 22.43 52.43 24.93 53.32 27.3 51.7 26.96 54.42 29.02 56"/><polygon class="cls-11" points="60.2 19.75 57.09 20.55 55.56 23.38 54.33 20.89 51.26 20.84 53.62 18.5 53.26 15.64 55.94 16.68 58.78 14.97 58.09 17.96 60.2 19.75"/><polygon class="cls-12" points="7.35 23.53 4.93 23.96 4.22 26.31 2.71 24.02 0.17 23.71 1.65 21.86 0.79 19.31 3.22 20.46 5.23 19.2 5.24 21.77 7.35 23.53"/></g></g></svg>