<svg xmlns="http://www.w3.org/2000/svg" viewBox="0 0 23.94 23.94"><defs><style>.cls-1{fill:#e8e1d7;}</style></defs><g id="Calque_2" data-name="Calque 2"><g id="Calque_1-2" data-name="Calque 1"><path class="cls-1" d="M12,0a12,12,0,1,0,12,12A12,12,0,0,0,12,0ZM7.69,19.5H4.47V8.74H7.69ZM6.08,7.67A1.65,1.65,0,0,1,4.41,6.05a1.67,1.67,0,0,1,3.34,0A1.65,1.65,0,0,1,6.08,7.67ZM19.53,19.5H16.3V13.75c0-1.49-.53-2.24-1.59-2.24a1.6,1.6,0,0,0-1.64,1.26V19.5H9.85s0-9.68,0-10.76h2.54l.2,2.15h.07a3.6,3.6,0,0,1,3.17-1.8,3.33,3.33,0,0,1,2.67,1.08,4.62,4.62,0,0,1,1,3.26Z"/></g></g></svg>